<?xml version="1.0" encoding="UTF-8"?>
<svg width="271px" height="23px" viewBox="0 0 271 23" version="1.1" xmlns="http://www.w3.org/2000/svg" xmlns:xlink="http://www.w3.org/1999/xlink">
    <!-- Generator: Sketch 59.1 (86144) - https://sketch.com -->
    <title>kankyou_p</title>
    <desc>Created with Sketch.</desc>
    <g id="Page-1" stroke="none" stroke-width="1" fill="none" fill-rule="evenodd">
        <g id="pc" transform="translate(-1460.000000, -3496.000000)">
            <g id="研究室紹介" transform="translate(209.000000, 2380.000000)">
                <g id="研究室" transform="translate(974.000000, 0.000000)">
                    <g id="kankyou_p" transform="translate(277.000000, 1116.000000)">
                        <rect id="赤--copy-7" fill="#D36C6C" x="0" y="0.232" width="8" height="22"></rect>
                        <rect id="透明--copy-13" fill="#FFFFFF" opacity="0.01" x="0" y="0.232" width="271" height="22"></rect>
                        <path d="M46.368,1.752 C46.368,1.62857143 46.2269388,1.4522449 46.1261808,1.35904373 L45.1677901,0.52716035 C45.026449,0.409959184 44.8868571,0.312 44.784,0.312 C44.568,0.312 44.376,0.552 44.232,0.744 L43.824,1.32 L34.872,1.32 L33.096,0.408 L33.0976093,6.2025656 C33.1072653,6.54514286 33.1748571,6.792 33.648,6.792 L33.798873,6.78757031 C34.1187187,6.768375 34.8,6.666 34.8,6.12 L34.8,5.76 L44.064,5.76 C44.016,6 44.064,6.168 44.52,6.168 C45.696,6.168 45.696,5.592 45.696,5.208 L45.696,2.328 L46.044,2.15025 C46.314,2.004 46.368,1.932 46.368,1.752 Z M40.344,5.184 L38.376,5.184 L38.376,1.896 L40.344,1.896 L40.344,5.184 Z M44.064,5.184 L42.024,5.184 L42.024,1.896 L44.064,1.896 L44.064,5.184 Z M36.672,5.184 L34.8,5.184 L34.8,1.896 L36.672,1.896 L36.672,5.184 Z M47.328,19.872 C45.24,19.104 43.968,18.384 42.528,17.112 C43.728,16.704 44.424,16.248 44.928,15.912 C45.168,15.984 45.504,16.08 45.72,16.08 C45.984,16.08 46.032,15.912 46.032,15.816 C46.032,15.72 45.984,15.6 45.816,15.456 L44.448,14.376 C43.68,15.384 42.84,16.224 42.144,16.776 C40.992,15.696 40.416,14.976 39.648,13.536 L43.56,13.536 L43.5614791,13.7103218 C43.5710933,14.0696533 43.6432,14.304 44.184,14.304 C45.264,14.304 45.264,13.896 45.264,13.344 L45.264,10.704 L45.562875,10.489125 C45.789,10.3215 45.816,10.272 45.816,10.128 C45.816,9.97866667 45.7780741,9.90518519 45.5336626,9.72213992 L44.688,9.096 C44.352,8.856 44.256,8.856 44.16,8.856 C43.872,8.856 43.728,9.048 43.608,9.192 L43.152,9.816 L35.664,9.816 L33.816,9.072 L33.8177493,14.1385889 C33.8282449,14.4156735 33.9017143,14.592 34.416,14.592 C35.472,14.592 35.472,14.16 35.496,13.536 L37.176,13.536 C34.848,17.568 31.488,19.2 28.56,20.28 L28.68,20.52 L29.2433729,20.3872972 C31.3442491,19.863654 35.0230588,18.6176471 37.824,15.576 L37.8257493,21.5772595 C37.8362449,21.8493061 37.9097143,22.008 38.424,22.008 C39.504,22.008 39.504,21.576 39.504,21.192 L39.504,14.352 L39.7448309,14.8605656 C40.8094286,17.0609388 42.18,19.2051429 45.144,20.832 L45.2278653,20.7408357 C45.490903,20.4632244 45.9915789,20.0450526 47.28,20.088 L47.328,19.872 Z M43.56,12.96 L35.496,12.96 L35.496,10.392 L43.56,10.392 L43.56,12.96 Z M46.848,7.848 C46.848,7.656 46.68,7.464 46.56,7.368 L45.888,6.744 C45.768,6.624 45.456,6.36 45.264,6.36 C45.075,6.36 44.904375,6.4335 44.7199687,6.67696875 L44.16,7.512 L32.4,7.512 L32.736,8.088 L46.44,8.088 C46.608,8.088 46.848,8.088 46.848,7.848 Z M33.024,14.328 L32.928,14.112 L32.4564027,14.3145304 C31.9493554,14.5213884 31.1607273,14.8101818 29.712,15.264 L29.712,9.552 L32.136,9.552 C32.4,9.552 32.496,9.48 32.496,9.288 L32.4900741,9.21774486 C32.4805926,9.17441975 32.4568889,9.13214815 32.4,9.05511111 L31.608,8.04 C31.392,7.776 31.32,7.728 31.152,7.728 C30.921,7.728 30.837,7.8015 30.7070625,7.99673437 L30.096,8.976 L29.712,8.976 L29.712,3.192 L32.088,3.192 C32.184,3.192 32.448,3.192 32.448,2.952 C32.448,2.76 32.304,2.616 32.16,2.448 L31.488,1.752 L31.3016626,1.56803292 C31.1223704,1.39703704 31.056,1.368 30.888,1.368 C30.576,1.368 30.432,1.584 30.288,1.824 L29.76,2.616 L24.72,2.616 L24.96,3.192 L27.912,3.192 L27.912,8.976 L25.272,8.976 L25.608,9.552 L27.912,9.552 L27.912,15.84 L26.7615756,16.1831422 C25.7194558,16.4818503 25.224,16.5828571 24.84,16.656 L25.728,18.816 C25.7897143,18.9805714 25.8866939,19.0040816 25.9735977,19.0074402 L26.0898281,19.0051406 C26.247,18.98775 26.31,18.867 26.52,18.048 L27.1442448,17.7000139 C28.204276,17.0982639 30.1671198,15.9610139 30.693901,15.6652639 L32.1615502,14.8372267 C32.5565867,14.6117333 32.8896,14.4176 33.024,14.328 Z M71.088,20.232 C71.088,20.0613333 71.0121481,19.9285926 70.7255967,19.7494979 L70.608,19.68 C70.1934545,19.4618182 70.1359339,19.2634711 70.1289016,19.0849587 L70.128,19.032 C70.128,18.744 70.464,14.952 70.488,14.184 L70.272,14.16 L70.13025,15.078375 C69.939,16.263 69.606,18.072 69.192,18.936 C68.712,19.92 68.256,19.944 67.632,19.944 L66.528,19.944 C65.5831579,19.944 65.4837008,19.425241 65.4732317,18.9550208 L65.472,14.472 L66.528,14.472 L66.5296093,14.6554636 C66.5392653,14.9980408 66.6068571,15.192 67.08,15.192 C67.368,15.192 67.848,15.072 68.064,14.928 C68.2285714,14.784 68.2520816,14.6223673 68.2554402,14.4582157 L68.256,10.008 L68.513472,9.84096 C68.83296,9.62592 69.048,9.4416 69.048,9.288 C69.048,9.18514286 68.995102,9.11755102 68.8590787,8.97942857 L68.088,8.232 C67.968,8.136 67.848,8.04 67.68,8.04 C67.512,8.04 67.344,8.136 67.224,8.256 L66.528,8.904 L60,8.904 L57.96,7.92 L57.96,14.904 C57.96,15.336 58.176,15.408 58.488,15.408 C58.728,15.408 59.112,15.336 59.328,15.216 C59.664,15.024 59.664,14.88 59.664,14.472 L63.888,14.472 L63.888,19.08 C63.888,21.072 65.112,21.312 66.528,21.312 L68.8958672,21.3112899 C69.4073648,21.3038336 71.088,21.218087 71.088,20.232 Z M66.528,11.28 L59.664,11.28 L59.664,9.48 L66.528,9.48 L66.528,11.28 Z M66.528,13.896 L59.664,13.896 L59.664,11.856 L66.528,11.856 L66.528,13.896 Z M69.72,2.928 C69.72,2.82514286 69.597551,2.66106122 69.5013411,2.54945773 L68.76,1.752 C68.568,1.536 68.352,1.392 68.208,1.392 C68.064,1.392 67.848,1.488 67.752,1.632 L66.936,2.76 L64.104,2.76 L64.104,1.08 L64.6524444,0.830222222 C64.9013333,0.709333333 64.944,0.656 64.944,0.528 C64.944,0.288 64.56,0.24 64.392,0.216 L62.376,0 L62.376,2.76 L57.048,2.76 L57.432,3.336 L69.195,3.33411111 C69.42,3.32466667 69.72,3.268 69.72,2.928 Z M61.872,5.688 C61.872,4.704 60.168,3.744 59.232,3.36 L59.04,3.48 L59.2334786,3.67859955 C59.554314,4.01890909 59.9934545,4.54909091 60.288,5.256 L60.4123022,5.56318578 C60.6628267,6.16768 60.8112,6.384 61.248,6.384 C61.584,6.384 61.872,6.144 61.872,5.688 Z M70.92,6.936 C70.92,6.82690909 70.9001653,6.71781818 70.6260856,6.37431705 L69.936,5.544 C69.84,5.424 69.696,5.352 69.552,5.352 C69.384,5.352 69.192,5.4 68.856,5.856 L68.28,6.648 L64.992,6.648 L65.606784,6.164544 C66.02784,5.82528 66.5664,5.3616 66.984,4.872 L67.4268105,4.84832227 C67.952625,4.81640625 68.016,4.7835 68.016,4.608 C68.016,4.44 67.92,4.392 67.632,4.272 L66.072,3.6 C65.736,4.488 65.136,5.808 64.56,6.648 L56.904,6.648 L57.216,7.224 L70.488,7.224 L70.6296296,7.21807407 C70.7893333,7.20148148 70.92,7.14133333 70.92,6.936 Z M57.408,13.896 L57.312,13.68 L56.9241111,13.8203333 C56.0613333,14.1186667 54.268,14.692 53.808,14.832 L53.808,7.92 L56.232,7.92 C56.4,7.92 56.808,7.92 56.808,7.56 C56.808,7.44 56.76,7.32 56.688,7.224 L56.088,6.336 C55.992,6.192 55.848,5.976 55.656,5.976 C55.4506667,5.976 55.3324444,6.12118519 55.1771193,6.38897119 L54.648,7.344 L53.808,7.344 L53.808,2.136 L54.222893,1.97594174 C54.611787,1.81874556 54.768,1.71507692 54.768,1.512 C54.768,1.323 54.621,1.262625 54.4234687,1.23440625 L51.984,0.984 L51.984,7.344 L48.744,7.344 L49.08,7.92 L51.984,7.92 L51.984,15.432 L51.4491512,15.6043623 C50.6868374,15.8385052 49.4258824,16.1915294 48.6,16.32 L49.632,18.552 C49.704,18.696 49.848,18.816 49.968,18.816 C50.232,18.816 50.232,18.672 50.256,17.904 C52.656,16.608 55.056,15.288 57.408,13.896 Z M62.592,15.288 C62.592,15.144 62.4,15.096 62.136,15.024 L60.312,14.568 C60.336,16.296 59.4,18.12 58.368,19.152 C57.048,20.472 55.176,21.408 53.232,21.984 L53.232,22.104 C55.416,21.864 56.856,21.24 57.72,20.784 C60.624,19.296 61.224,17.496 61.8,15.84 L62.076912,15.732864 C62.32152,15.6324 62.592,15.4896 62.592,15.288 Z M95.232,2.952 C95.232,1.08 93.288,0.672 91.56,0.288 L91.44,0.408 C92.448,1.056 93.576,2.136 94.152,2.856 L94.4463431,3.21937778 C94.6456533,3.456 94.6832,3.456 94.824,3.456 C95.016,3.456 95.232,3.312 95.232,2.952 Z M93.552,4.872 C93.552,4.056 93.408,3.672 92.976,3.264 C92.4,2.712 91.656,2.376 90.264,2.136 L90.192,2.304 L90.5482969,2.59298438 C91.294125,3.214125 91.491,3.516 92.184,4.608 C92.4,4.944 92.928,5.496 93.24,5.496 C93.552,5.496 93.552,5.016 93.552,4.872 Z M89.832,4.296 C89.832,3.936 88.344,3.024 87.528,3.024 C87.216,3.024 85.704,3.552 85.368,3.624 L85.2177849,3.65010489 C84.2974933,3.78112 80.4656,4.032 80.376,4.032 C80.136,4.032 79.56,3.984 79.032,3.864 C78.888,3.816 78.192,3.408 78.024,3.312 L77.832,3.336 C77.8995,3.6735 77.9880938,3.98990625 78.691043,4.70050195 L78.84,4.848 C79.224,5.232 79.464,5.4 79.8,5.4 C79.9963636,5.4 80.8869421,5.18181818 81.2275582,5.12411721 L81.312,5.112 C83.4422069,4.80248276 85.489541,4.7277717 86.5424019,4.709738 L87.216,4.704 C87.436,4.704 88.4828333,4.74433333 88.8776111,4.75105556 L89.102365,4.75033955 C89.3852308,4.7412071 89.832,4.68184615 89.832,4.296 Z M92.784,9 C92.784,8.16 90.528,7.464 90.048,7.464 C89.928,7.464 89.352,7.776 89.208,7.824 C88.584,7.968 84.912,8.208 84.096,8.28 L80.6039292,8.59877549 C79.1133841,8.7376609 77.5595294,8.88564706 76.416,9 C76.128,9 75.864,8.976 75.576,8.904 L75.3943374,8.84171193 C75.1152593,8.73985185 74.6506667,8.55733333 74.52,8.52 L74.328,8.616 C74.664,9.312 75.552,10.128 75.6,10.176 L75.7501235,10.2885926 C75.952,10.4337778 76.2506667,10.608 76.68,10.608 L76.826112,10.600512 C76.904832,10.591232 76.986752,10.5718187 77.1083164,10.534272 L77.952,10.248 C78.792,9.936 81.24,9.6 81.912,9.6 C82.344,9.6 83.136,9.768 83.136,10.776 L83.1321007,10.9573544 C83.0999118,11.7608033 82.8246857,14.2196571 80.784,17.16 C79.56,18.912 77.976,19.776 76.8,20.352 L76.8,20.496 C79.08,20.376 83.184,18.408 84.672,12.744 L85.026375,11.27925 C85.068,11.1165 85.104,10.986 85.128,10.92 C85.176,10.752 85.704,10.128 85.704,9.96 C85.704,9.792 85.608,9.744 85.344,9.624 L84.72,9.312 L86.0996413,9.17583088 C86.6337682,9.12834174 86.9791352,9.10834466 87.3372562,9.10053477 L87.84,9.096 C88.464,9.096 89.496,9.096 90.408,9.216 L91.314,9.366 C91.704,9.426 92.1,9.48 92.256,9.48 C92.568,9.48 92.784,9.312 92.784,9 Z M118.944,3.696 L118.93814,3.59234844 C118.911147,3.27637333 118.7808,2.4208 118.344,2.088 C118.056,1.872 116.904,1.368 115.68,1.08 L115.536,1.248 L116.736,2.256 C117.072,2.529 117.389625,2.8755 117.576328,3.1025625 L117.956971,3.56804883 C118.330594,4.016625 118.422,4.08 118.656,4.08 C118.848,4.08 118.944,3.936 118.944,3.696 Z M117,5.184 C117,4.6008 116.88336,4.15368 116.5626,3.84264 L116.448,3.744 C116.04,3.408 115.368,2.928 113.664,2.424 L113.568,2.568 L113.724203,2.70868797 C114.099117,3.05173214 114.559244,3.51733116 115.359271,4.50761816 L116.037934,5.34898765 C116.368444,5.74540741 116.466667,5.808 116.64,5.808 C116.952,5.808 117,5.4 117,5.184 Z M117.528,9.336 C117.528,8.688 115.896,7.704 115.248,7.704 C115.176,7.704 115.032,7.776 115.008,7.8 L114.751872,7.914048 C114.64416,7.9584 114.552,7.9872 114.408,8.016 L114.190357,8.03281067 C113.5744,8.06442667 112.1184,8.0672 111.744,8.088 L111.801,6.465 C111.814125,6.031875 111.826078,5.59757812 111.833197,5.27124023 L111.84,4.824 C111.84,4.61066667 111.877926,4.53007407 112.07177,4.24510288 L112.152,4.128 C112.344,3.864 112.416,3.72 112.416,3.576 C112.416,3.24 111.072,2.184 109.08,2.256 L109.08,2.448 L109.281886,2.63753933 C109.869009,3.20367974 109.97594,3.48536371 110.045164,4.59934618 L110.182222,7.34933333 C110.197333,7.688 110.208,7.968 110.208,8.088 L109.071936,8.117952 C107.73792,8.16096 106.9968,8.2224 105.288,8.376 L105.282912,8.132592 C105.27384,7.2876 105.3192,5.5056 105.384,5.376 C105.408,5.28 105.768,4.824 105.768,4.704 C105.768,4.464 104.76,3.504 102.696,3.456 L102.576,3.672 C103.68,4.488 103.848,5.448 103.848,8.568 L102.987797,8.70721875 C102.536625,8.776125 102.096,8.838 101.496,8.928 C101.232,8.976 100.848,9.024 100.56,9.024 C99.84,9.024 99.12,8.904 98.304,8.112 L98.208,8.232 C98.664,10.152 99.84,10.68 100.08,10.68 C100.206,10.68 100.332,10.653 100.447875,10.609125 L100.795961,10.4575716 C101.264747,10.26048 101.5088,10.2064 102.528,9.936 L103.686912,9.747072 C103.7328,9.73824 103.776,9.7296 103.824,9.72 L103.827167,10.0498063 C103.826231,11.133551 103.728,12.5325714 103.728,12.576 L103.679484,12.8489531 C103.6455,13.052625 103.608,13.302 103.608,13.392 C103.608,13.904 103.854519,14.3401481 104.16214,14.8184362 L104.28,15 C104.328,15.072 104.4,15.192 104.592,15.192 C104.808,15.192 105.072,14.952 105.168,14.688 L105.184119,14.6301574 C105.242122,14.3929252 105.36,13.6308571 105.36,12.024 L105.354168,11.116584 C105.3456,10.434 105.3288,9.8208 105.312,9.384 L106.063781,9.311625 C107.674875,9.162 108.381,9.141 110.208,9.12 C110.04,12.264 109.728,14.088 108.816,16.056 C107.784,18.288 106.152,20.232 103.92,21.264 L103.968,21.48 C106.2,21 108.456,19.272 109.872,17.28 C111,15.696 111.576,13.896 111.696,9.12 C112.6816,9.12 114.41984,9.24544 115.232612,9.34021689 L115.392,9.36 C115.656,9.384 116.832,9.696 117.024,9.696 L117.111742,9.69383621 C117.270942,9.68409917 117.528,9.63054545 117.528,9.336 Z M136.728,3.672 C136.728,3.048 136.08,1.824 134.208,1.224 L134.04,1.344 C134.448,2.04 134.568,2.352 134.568,2.664 C134.568,3.132 133.93425,4.0753125 133.42626,4.77304687 L133.104,5.208 C130.632,8.568 128.328,10.944 123.552,13.656 L123.576,13.896 C125.856,13.32 129.048,11.784 131.832,9.096 C132,9.264 132.048,9.336 132.072,9.528 L132.090222,9.74771431 C132.151985,10.7246881 132.192,13.7467826 132.192,14.448 C132.192,15.864 132,17.04 131.832,17.856 L131.783484,18.06525 C131.7495,18.2265 131.712,18.444 131.712,18.624 C131.712,18.888 131.860163,19.2112653 132.179773,19.7916997 L132.48,20.328 C132.768,20.832 132.792,20.904 132.984,20.904 L133.081317,20.8975473 C133.226963,20.8791111 133.461333,20.8106667 133.536,20.568 C133.628308,20.328 133.663811,19.8891834 133.675281,19.2297023 L133.679083,18.4418987 L133.679083,18.4418987 L133.608,13.536 C133.608,13.2355556 133.719276,9.73037037 133.748949,9.4282774 L133.752,9.408 C133.8,9.168 133.872,8.976 133.872,8.904 C133.872,8.64 133.2,8.184 132.912,7.992 L133.14705,7.76505831 C133.33207,7.5775277 133.548805,7.33042566 133.983254,6.78675219 L135.392625,4.989 C135.692719,4.613625 135.808477,4.5105 136.075248,4.39886719 L136.152,4.368 C136.536,4.224 136.728,4.128 136.728,3.672 Z M153.984,6.48 C153.984,5.592 153.552,4.776 152.952,4.296 C151.717714,3.336 150.026286,2.94198639 149.474086,2.90663816 L149.4,2.904 C149.304,2.904 149.064,2.928 149.064,3.096 C149.064,3.168 149.136,3.24 149.208,3.288 C149.208,3.31028571 150.077143,3.87061224 150.335816,4.08505539 L150.384,4.128 C151.400471,4.97505882 151.800332,5.76606228 152.012243,6.27019418 L152.282748,6.91779492 C152.556281,7.54415625 152.811,7.9695 153.24,7.872 C153.912,7.704 153.984,6.864 153.984,6.48 Z M164.4,5.352 L164.136,5.208 L163.968,5.424 L161.76,8.304 C160.670897,9.74068966 157.769551,12.6987681 154.805713,14.6940204 L154.015203,15.2102384 C151.992,16.5151391 151.344,16.848 150.696,16.848 C150.312,16.848 149.688,16.56 149.376,16.368 L149.250048,16.284288 C149.20512,16.25664 149.1792,16.248 149.136,16.248 C149.112,16.248 148.992,16.272 148.992,16.392 C148.992,16.704 149.928,18.024 150.048,18.168 C150.312,18.432 151.44,19.32 151.8,19.32 C151.92,19.32 152.023333,19.2533333 152.123889,19.12 L152.384626,18.7396543 C152.524708,18.5391605 152.611292,18.4300247 152.751374,18.2887901 L152.952,18.096 C153.096,17.952 154.32,17.064 156.696,15.336 C159.456,13.296 163.464,8.352 164.4,5.352 Z M191.232,9.168 C191.232,8.976 191.136,8.856 190.992,8.688 L190.118834,7.72366181 C189.989388,7.58546939 189.891429,7.512 189.72,7.512 C189.421333,7.512 189.27437,7.68266667 189.093695,7.9734321 L188.544,8.904 L187.704,8.904 L187.704,2.208 L190.296,2.208 C190.488,2.208 190.704,2.208 190.704,1.944 C190.704,1.8 190.584,1.656 190.44,1.536 L189.504,0.648 C189.36,0.504 189.072,0.288 188.808,0.288 C188.664,0.288 188.4,0.36 188.184,0.744 L187.704,1.632 L178.944,1.632 L179.232,2.208 L181.2,2.208 L181.2,8.904 L178.344,8.904 L178.632,9.48 L181.2,9.48 L181.198308,11.9017609 C181.17317,14.9568435 180.819429,18.5965714 177.048,21.888 L177.12,22.008 C180.672,20.448 182.016,17.04 182.328,16.08 C182.808,14.592 183,13.008 183,11.424 L183,9.48 L185.904,9.48 L185.905573,21.4079782 C185.914225,21.7265325 185.970462,21.864 186.336,21.864 C187.585043,21.864 187.693656,21.5838941 187.703101,20.9871469 L187.704,9.48 L190.8,9.48 C191.04,9.48 191.232,9.456 191.232,9.168 Z M185.904,8.904 L183,8.904 L183,2.208 L185.904,2.208 L185.904,8.904 Z M178.152,1.896 C178.152,1.752 178.08,1.656 177.96,1.56 L177.24,0.816 C176.928,0.48 176.832,0.432 176.616,0.432 C176.4,0.432 176.208,0.528 176.016,0.888 L175.632,1.632 L169.44,1.632 L169.8,2.208 L172.464,2.208 L172.406333,2.83811111 C172.311333,3.82866667 172.208,4.572 171.888,5.832 L171.724117,6.40592356 C171.28288,7.88170667 170.272,10.784 168.504,13.488 L168.768,13.608 L169.157157,13.1691841 C169.755174,12.4798017 170.417455,11.6443636 171.144,10.584 L171.145749,20.013691 C171.156245,20.3613061 171.229714,20.52 171.744,20.52 C172.224,20.52 172.848,20.256 172.848,19.752 L172.848,16.68 L175.632,16.68 L175.632393,18.0312863 C175.63768,18.2533491 175.689231,18.408 176.136,18.408 C177.408,18.408 177.408,17.928 177.408,17.592 L177.408,9.36 L177.60339,9.21578362 C177.84,9.0345124 177.84,8.99345455 177.84,8.856 L177.835522,8.78672886 C177.824327,8.72130612 177.785143,8.63314286 177.648,8.496 L176.88,7.632 C176.784,7.536 176.52,7.32 176.352,7.32 C176.208,7.32 176.04,7.368 175.848,7.656 L175.368,8.352 L173.016,8.352 L172.656,8.04 C173.64,6.168 174.096,4.368 174.48,2.208 L177.792,2.208 C178.008,2.208 178.152,2.136 178.152,1.896 Z M175.632,16.104 L172.848,16.104 L172.848,8.928 L175.632,8.928 L175.632,16.104 Z M214.992,3.96 L214.987087,3.89471468 C214.956632,3.71501385 214.763368,3.55452632 213.84,2.76 L213.416292,2.38399289 C213.11936,2.12672 213.0384,2.088 212.88,2.088 C212.568,2.088 212.064,2.88 211.824,3.24 L205.008,3.24 L205.008,1.08 L205.447111,0.770666667 C205.632,0.632 205.632,0.6 205.632,0.504 C205.632,0.312 205.536,0.264 205.248,0.24 L203.04,0.12 L203.04,3.24 L195.84,3.24 C195.792,2.64 195.672,2.28 195.576,1.92 L195.384,1.92 C195.48,3.312 194.736,4.44 194.064,5.016 L193.632222,5.38911111 C193.026667,5.92133333 192.96,6.048 192.96,6.408 C192.96,6.816 193.32,7.224 193.848,7.224 C194.832,7.224 195.768,6 195.864,3.816 L205.008,3.816 L205.008,7.344 C205.008,9.48581818 206.426997,9.61562534 208.310009,9.62349245 L210.528,9.624 L211.04609,9.61982799 C213.196776,9.58310204 214.128,9.29657143 214.128,8.472 C214.128,8.232 214.056,8.112 213.864,7.944 C213.576,7.632 213.48,7.44 213.48,6.648 C213.48,6.384 213.648,5.064 213.648,4.752 L213.456,4.752 L213.381831,5.07008746 C213.207184,5.77959184 212.866286,6.88457143 212.208,7.584 C211.728,8.112 211.392,8.112 210.36,8.112 L208.656,8.112 L208.291458,8.10623611 C207.102771,8.06496528 206.809865,7.79247569 206.785693,6.98328299 L206.784,3.816 L212.064,3.816 C211.488,5.016 210.624,6.24 210.36,6.624 L210.504,6.744 C211.752,6.12 213.12,5.04 213.648,4.56 L214.082913,4.46837318 C214.591959,4.35465306 214.992,4.224 214.992,3.96 Z M202.704,5.088 C202.704,4.944 202.545306,4.83526531 202.424397,4.77690962 L200.256,3.84 C199.344,7.44 197.064,9.864 193.176,11.28 L193.176,11.472 C198,10.68 200.4,8.064 201.312,6.432 L201.650799,5.80478134 C201.745959,5.63265306 201.785143,5.568 201.84,5.472 L202.326157,5.37068222 C202.630531,5.29861224 202.704,5.24228571 202.704,5.088 Z M214.752,20.04 C214.752,19.8266667 214.695111,19.6891852 214.446486,19.4758519 L214.261248,19.322136 C214.050432,19.137624 213.919488,18.936216 213.892992,17.968344 L213.888,17.568 C213.888,17.04 213.936,14.712 213.936,14.232 L213.648,14.232 L213.560682,14.8327917 C212.888292,19.2631667 212.136,19.704 210.48,19.704 L210.233284,19.70107 C209.601185,19.6823704 209.184,19.552 209.184,18.72 C209.184,17.832 209.376,15.672 209.52,14.232 L209.75232,14.070912 C210.05952,13.8528 210.336,13.6224 210.336,13.392 C210.336,13.152 209.976,12.816 209.4,12.264 L209.102764,12.0016356 C208.803551,11.7508163 208.716,11.736 208.584,11.736 C208.3464,11.736 208.26432,11.81376 208.005336,12.109248 L207.542947,12.6469465 C207.481185,12.7214815 207.437333,12.776 207.384,12.84 L203.712,12.84 C203.88,11.688 203.904,10.464 203.928,9.936 L204.279,9.767088 C204.53184,9.63672 204.72,9.504 204.72,9.336 C204.72,9.048 204.384,8.976 204.168,8.952 L202.008,8.736 L202.041,9.42 C202.0464,9.5712 202.05072,9.73968 202.053312,9.940992 L202.05504,10.66272 C202.0512,11.14272 202.032,12.0528 201.936,12.84 L195.576,12.84 L195.984,13.416 L201.864,13.416 C200.784,19.128 195.72,21.072 193.08,21.936 L193.176,22.176 C196.224,21.624 199.152,20.4 201.312,18.192 C202.992,16.464 203.424,14.496 203.616,13.416 L207.744,13.416 L207.417,17.562 C207.366,18.294 207.36,18.54 207.36,18.792 C207.36,21.096 208.776,21.312 210.576,21.312 L211.281558,21.306447 C213.266568,21.2716766 214.752,21.0513103 214.752,20.04 Z M239.04,3.96 C239.04,3.816 238.968,3.648 238.848,3.552 L237,2.016 C236.928,1.944 236.712,1.824 236.568,1.824 C236.376,1.824 236.208,2.064 236.184,2.088 L235.656,2.88 L229.08,2.88 L229.08,1.224 L229.44675,0.99 C229.7505,0.7875 229.872,0.666 229.872,0.504 C229.872,0.312 229.701333,0.290666667 229.427424,0.271440329 L227.208,0.12 L227.208,2.88 L219.768,2.88 C219.744,2.496 219.672,1.896 219.504,1.56 L219.216,1.56 L219.173037,1.98696296 C219.055259,2.98696296 218.837481,3.5202963 218.019704,4.46196296 L217.396724,5.16441115 C217.016138,5.60113495 216.96,5.71341176 216.96,5.952 C216.96,6.504 217.344,6.84 217.776,6.84 C218.904,6.84 219.84,5.328 219.792,3.456 L235.896,3.456 L235.696691,3.91321811 C235.438815,4.48888889 235.098667,5.192 234.744,5.808 L234.984,6.048 L235.866083,5.45543056 C236.361333,5.117 236.926,4.718 237.36,4.368 L238.071637,4.36419303 C238.815623,4.3499169 239.04,4.28210526 239.04,3.96 Z M236.688,12.264 C236.688,10.752 233.784,8.856 231.6,8.112 L231.48,8.352 C232.704,9.144 233.112,9.672 233.592,10.248 L232.882959,10.3001029 C230.357989,10.4679924 227.440696,10.488 226.104,10.488 L226.502429,10.0133821 C227.947238,8.2717824 228.46656,7.40448 228.864,6.72 L234.432,6.72 C234.6,6.72 234.912,6.72 234.912,6.432 C234.912,6.312 234.812,6.17533333 234.737,6.10533333 L233.448,5.04 C233.328,4.944 233.16,4.872 233.016,4.872 C232.848,4.872 232.68,5.04 232.656,5.112 L232.032,6.144 L220.896,6.144 L221.28,6.72 L226.56,6.72 C226.248,7.944 225.48,9.696 225.096,10.488 L221.137403,10.5092318 C220.227614,10.5070634 219.659636,10.4894545 218.856,10.44 L219.792,12.912 C219.84,13.032 219.984,13.392 220.2,13.392 C220.464,13.392 220.56,13.08 220.704,12.456 L226.032,11.856 L226.032,11.856 C228.48,11.568 231.336,11.136 234,10.752 C234.312,11.16 234.72,11.88 234.816,12.072 L234.996945,12.3927464 C235.333224,12.9771429 235.536,13.224 235.968,13.224 C236.4,13.224 236.688,12.744 236.688,12.264 Z M237.984,20.688 C237.984,21 237.6,21 237.48,21 L218.16,21 L217.752,20.424 L227.16,20.424 L227.16,16.488 L219.768,16.488 L219.36,15.912 L227.16,15.912 L227.16,12.096 L229.44,12.336 C229.608,12.36 229.8,12.432 229.8,12.6 C229.8,12.816 229.56,12.96 229.08,13.176 L229.08,15.912 L233.352,15.912 L234.216,14.664 L234.269333,14.6035556 C234.322667,14.5466667 234.408,14.472 234.504,14.472 C234.624,14.472 234.768,14.568 234.84,14.616 L236.232,15.864 C236.328,15.936 236.376,16.08 236.376,16.2 C236.376,16.488 236.088,16.488 235.92,16.488 L229.08,16.488 L229.08,20.424 L234.96,20.424 L235.704,19.248 C235.776,19.104 235.92,19.008 236.088,19.008 C236.2224,19.008 236.34144,19.06944 236.432832,19.143168 L237.792,20.328 C237.888,20.424 237.984,20.592 237.984,20.688 Z" id="環境デザイン研究室" fill="#D36C6C" fill-rule="nonzero"></path>
                    </g>
                </g>
            </g>
        </g>
    </g>
</svg>