<?xml version="1.0" encoding="UTF-8"?>
<svg width="344px" height="45px" viewBox="0 0 344 45" version="1.1" xmlns="http://www.w3.org/2000/svg" xmlns:xlink="http://www.w3.org/1999/xlink">
    <!-- Generator: Sketch 59.1 (86144) - https://sketch.com -->
    <title>Group 3</title>
    <desc>Created with Sketch.</desc>
    <g id="Page-1" stroke="none" stroke-width="1" fill="none" fill-rule="evenodd">
        <g id="pc" transform="translate(-210.000000, -2966.000000)">
            <g id="研究室紹介" transform="translate(209.000000, 2966.000000)">
                <g id="Group-3" transform="translate(1.008000, 0.680000)">
                    <path d="M45.456,18.192 C45.456,17.808 45.264,17.568 44.976,17.232 L43.214208,15.286896 C42.96288,15.02112 42.768,14.88 42.432,14.88 C41.76,14.88 41.472,15.312 41.04,16.032 L40.08,17.664 L38.4,17.664 L38.4,4.272 L43.7501108,4.27046064 C44.0826122,4.26122449 44.4,4.19657143 44.4,3.744 C44.4,3.456 44.16,3.168 43.872,2.928 L42,1.152 C41.712,0.864 41.136,0.432 40.608,0.432 C40.32,0.432 39.792,0.576 39.36,1.344 L38.4,3.12 L20.88,3.12 L21.456,4.272 L25.392,4.272 L25.392,17.664 L19.68,17.664 L20.256,18.816 L25.392,18.816 L25.3906102,23.3549967 C25.3600242,29.526845 24.7565714,36.9394286 17.088,43.632 L17.232,43.872 C24.336,40.752 27.024,33.936 27.648,32.016 C28.608,29.04 28.992,25.872 28.992,22.704 L28.992,18.816 L34.8,18.816 L34.8011852,42.572642 C34.8106667,43.2805926 34.896,43.584 35.664,43.584 C38.4,43.584 38.4,42.912 38.4,41.472 L38.4,18.816 L44.592,18.816 C45.072,18.816 45.456,18.768 45.456,18.192 Z M34.8,17.664 L28.992,17.664 L28.992,4.272 L34.8,4.272 L34.8,17.664 Z M19.296,3.648 C19.296,3.36 19.152,3.168 18.912,2.976 L17.472,1.488 L17.2290612,1.23386589 C16.7882449,0.790530612 16.5942857,0.72 16.224,0.72 C15.792,0.72 15.408,0.912 15.024,1.632 L14.256,3.12 L1.872,3.12 L2.592,4.272 L7.92,4.272 L7.80466667,5.53222222 C7.61466667,7.51333333 7.408,9 6.768,11.52 L6.58608233,12.1707721 C5.79358601,14.9254611 3.74693878,21.1013878 7.10542736e-14,26.832 L0.528,27.072 L1.059,26.4774375 C2.319,25.0455 3.726,23.292 5.28,21.024 L5.28090158,39.7527994 C5.28991736,40.5389752 5.38909091,40.896 6.48,40.896 C7.44,40.896 8.688,40.368 8.688,39.36 L8.688,33.216 L14.256,33.216 L14.2569447,35.9249383 C14.2683657,36.365651 14.3747368,36.672 15.264,36.672 C17.808,36.672 17.808,35.712 17.808,35.04 L17.808,18.576 L18.0784726,18.3782748 C18.672,17.9367197 18.672,17.8644706 18.672,17.568 L18.669692,17.4838287 C18.6593058,17.3478347 18.6021818,17.1621818 18.288,16.848 L16.752,15.12 C16.56,14.928 16.032,14.496 15.696,14.496 C15.408,14.496 15.072,14.592 14.688,15.168 L13.728,16.56 L9.024,16.56 L8.304,15.936 C10.272,12.192 11.184,8.592 11.952,4.272 L18.576,4.272 C19.008,4.272 19.296,4.128 19.296,3.648 Z M14.256,32.064 L8.688,32.064 L8.688,17.712 L14.256,17.712 L14.256,32.064 Z M92.976,7.776 L92.9723307,7.69225956 C92.9358933,7.31136 92.5984,7.0336 90.672,5.376 L89.9503233,4.73373814 C89.2517807,4.1201966 89.090087,4.032 88.752,4.032 C88.128,4.032 87.12,5.616 86.64,6.336 L73.008,6.336 L73.008,2.016 L73.6801713,1.54726972 C74.256,1.13712397 74.256,1.08654545 74.256,0.864 C74.256,0.48 74.064,0.384 73.488,0.336 L69.072,0.096 L69.072,6.336 L54.672,6.336 C54.576,5.136 54.336,4.416 54.144,3.696 L53.76,3.696 C53.9451429,6.38057143 52.5681429,8.57418367 51.2644679,9.76037318 L50.0884714,10.7828559 C49.0327705,11.724214 48.912,11.9867586 48.912,12.672 C48.912,13.488 49.632,14.304 50.688,14.304 C52.656,14.304 54.528,11.856 54.72,7.488 L73.008,7.488 L73.008,14.544 C73.008,19.104 76.224,19.104 80.352,19.104 L84.048,19.104 C89.088,19.104 91.248,18.576 91.248,16.8 C91.248,16.32 91.104,16.08 90.72,15.744 L90.5506459,15.5532457 C90.1057064,15.0258615 89.952,14.5692632 89.952,13.152 C89.952,12.624 90.288,9.984 90.288,9.36 L89.904,9.36 L89.8155733,9.74724568 C89.4866777,11.1443306 88.8043636,13.5403636 87.408,15.024 C86.448,16.08 85.776,16.08 83.712,16.08 L80.304,16.08 C77.2706667,16.08 76.5965926,15.5809259 76.5614846,13.7446862 L76.56,7.488 L87.12,7.488 C85.968,9.888 84.24,12.336 83.712,13.104 L84,13.344 C86.496,12.096 89.232,9.936 90.288,8.976 L91.0305394,8.82078437 C92.1084298,8.58644628 92.976,8.32581818 92.976,7.776 Z M68.4,10.032 C68.4,9.7296 68.05008,9.50496 67.805136,9.393072 L63.504,7.536 C61.68,14.736 57.12,19.584 49.344,22.416 L49.344,22.8 C58.992,21.216 63.792,15.984 65.616,12.72 L66.3389284,11.383816 C66.4971973,11.0993197 66.5714286,10.976 66.672,10.8 L67.3754402,10.6572387 C68.2112653,10.4797823 68.4,10.3817143 68.4,10.032 Z M92.496,39.936 C92.496,39.4929231 92.3733018,39.2134438 91.8258789,38.7577824 L91.5715388,38.5493074 C91.0796125,38.132722 90.7885351,37.7578222 90.7690457,35.2670619 L90.7696168,34.6877233 C90.7822012,33.2415621 90.864,29.2061538 90.864,28.32 L90.288,28.32 L90.1733344,29.1204481 C88.8321484,38.2258056 87.3555318,39.2367673 84.0929243,39.2634388 L83.6412448,39.2620791 C82.2753674,39.2423115 81.36,39.0388966 81.36,37.296 C81.36,35.52 81.744,31.2 82.032,28.32 L82.3420444,28.1063538 C83.01504,27.6384 83.664,27.1392 83.664,26.64 C83.664,26.16 82.944,25.488 81.792,24.384 L81.487104,24.109488 C80.694768,23.408136 80.485056,23.334492 80.209452,23.328474 L80.16,23.328 C79.6672,23.328 79.5089067,23.4952533 78.9436302,24.1419662 L78.2968889,24.8888889 C78.0373333,25.1946667 77.92,25.344 77.76,25.536 L70.416,25.536 C70.752,23.232 70.8,20.784 70.848,19.728 L71.32608,19.501824 C71.94048,19.20384 72.432,18.912 72.432,18.528 C72.432,17.9904 71.8466133,17.82912 71.4173298,17.7709796 L67.008,17.328 L67.0594688,18.33375 C67.0775156,18.740625 67.0921172,19.1934375 67.0992539,19.7886562 L67.10025,21.37125 C67.089,22.368 67.044,24.06 66.864,25.536 L54.144,25.536 L54.96,26.688 L66.72,26.688 C64.56,38.112 54.432,42 49.152,43.728 L49.344,44.208 C55.44,43.104 61.296,40.656 65.616,36.24 C68.976,32.784 69.84,28.848 70.224,26.688 L78.48,26.688 L77.8634403,34.4546502 C77.7268148,36.3348148 77.712,36.88 77.712,37.44 C77.712,42.048 80.544,42.48 84.144,42.48 L85.0231291,42.476043 C89.2567714,42.4352159 92.496,42.048 92.496,39.936 Z M141.072,7.776 C141.072,7.488 140.928,7.152 140.688,6.96 L136.992,3.888 C136.848,3.744 136.416,3.504 136.128,3.504 C135.744,3.504 135.408,3.984 135.36,4.032 L134.304,5.616 L121.152,5.616 L121.152,2.304 L121.696199,1.96001791 C122.443017,1.47786851 122.736,1.21976471 122.736,0.864 C122.736,0.524571429 122.469306,0.451836735 122.02905,0.41296793 L117.408,0.096 L117.408,5.616 L102.528,5.616 C102.48,4.848 102.336,3.648 102,2.976 L101.424,2.976 L101.370472,3.53767347 C101.13607,5.78002041 100.726741,6.85527551 98.9125277,8.91586224 L97.8496618,10.1113469 C97.0305306,11.0461224 96.912,11.2697143 96.912,11.76 C96.912,12.864 97.68,13.536 98.544,13.536 C100.8,13.536 102.672,10.512 102.576,6.768 L134.784,6.768 L134.517498,7.3849868 C133.989018,8.58518343 133.251692,10.1316923 132.48,11.472 L132.96,11.952 L134.309333,11.0488889 C135.386667,10.32 136.72,9.392 137.712,8.592 L138.668444,8.59006578 C140.5312,8.57749333 141.072,8.4832 141.072,7.776 Z M136.368,24.384 C136.368,21.36 130.56,17.568 126.192,16.08 L125.952,16.56 C128.4,18.144 129.216,19.2 130.176,20.352 L129.22237,20.4243175 C124.070533,20.789481 117.955765,20.832 115.2,20.832 L115.734018,20.1983006 C118.824465,16.5030914 119.901474,14.7056842 120.72,13.296 L132.003598,13.2946347 C132.347307,13.28576 132.816,13.2192 132.816,12.72 C132.816,12.432 132.528,12.096 132.384,12 L129.888,9.936 C129.648,9.744 129.312,9.6 129.024,9.6 C128.688,9.6 128.352,9.936 128.304,10.08 L127.056,12.144 L104.784,12.144 L105.552,13.296 L116.112,13.296 C115.488,15.744 113.952,19.248 113.184,20.832 L105.108,20.874 C103.38,20.868 102.264,20.832 100.704,20.736 L102.576,25.68 C102.672,25.92 102.96,26.64 103.392,26.64 C103.92,26.64 104.112,26.016 104.4,24.768 L105.997684,24.5809534 C108.755377,24.2664498 113.721882,23.7204706 115.056,23.568 C119.952,22.992 125.664,22.128 130.992,21.36 C131.616,22.176 132.432,23.616 132.624,24 L132.985889,24.6414927 C133.658449,25.8102857 134.064,26.304 134.928,26.304 C135.792,26.304 136.368,25.344 136.368,24.384 Z M138.96,41.232 C138.96,41.04 138.768,40.704 138.576,40.512 L135.984,38.256 C135.792,38.064 135.504,37.872 135.168,37.872 C134.832,37.872 134.544,38.064 134.4,38.352 L132.912,40.704 L121.152,40.704 L121.152,32.832 L134.977266,32.8306347 C135.31136,32.82176 135.744,32.7552 135.744,32.256 C135.744,32.0502857 135.673469,31.8093061 135.532408,31.6539708 L132.672,29.088 L132.517784,28.9889213 C132.367347,28.8979592 132.171429,28.8 132,28.8 C131.712,28.8 131.472,29.136 131.424,29.184 L129.696,31.68 L121.152,31.68 L121.152,26.208 L121.5104,26.0421973 C122.231467,25.69664 122.592,25.4304 122.592,25.056 C122.592,24.72 122.208,24.576 121.872,24.528 L117.312,24.048 L117.312,31.68 L101.712,31.68 L102.528,32.832 L117.312,32.832 L117.312,40.704 L98.496,40.704 L99.312,41.856 L138.073088,41.8545209 C138.383147,41.8449067 138.96,41.7728 138.96,41.232 Z M187.44,26.112 C187.44,25.296 185.136,23.328 184.656,23.328 C184.128,23.328 183.36,24.192 182.688,25.008 L169.296,25.008 L165.168,23.04 L165.168,42.096 L165.173002,42.3492774 C165.200554,42.9384083 165.36,43.2 166.08,43.2 C168.24,43.2 168.768,42.288 168.768,41.232 L168.768,38.928 L182.688,38.928 L182.688,42.048 C182.688,42.72 182.88,42.96 183.6,42.96 C184.131692,42.96 185.195077,42.7964024 185.695308,42.4314538 L185.808,42.336 C186.048,42.144 186.144,41.904 186.144,41.184 L186.144,27.792 L186.620086,27.3833086 C187.218188,26.857875 187.44,26.58 187.44,26.112 Z M182.688,37.776 L168.768,37.776 L168.768,26.16 L182.688,26.16 L182.688,37.776 Z M188.592,4.176 C188.592,3.648 185.952,1.2 185.232,1.2 C184.8,1.2 183.696,2.688 183.168,3.36 L164.352,3.36 L164.832,4.512 L172.416,4.512 C172.176,10.752 170.304,16.848 163.776,22.32 L164.016,22.56 C170.208,19.632 175.008,13.584 176.256,4.512 L183.696,4.512 L183.667171,5.0720507 C183.41943,9.37738343 182.481702,15.9268085 182.16,16.8 C181.824,17.808 180.528,17.808 180.192,17.808 C178.608,17.808 176.016,17.472 174.432,17.328 L174.384,17.664 C178.128,18.672 178.896,19.056 179.136,21.936 C184.723714,21.9814286 185.367015,19.7481276 185.908203,16.3754617 L186,15.792 C186.24,14.4 186.864,7.344 187.104,5.76 L187.615629,5.34371484 C188.275125,4.8 188.592,4.488 188.592,4.176 Z M157.92,1.824 L153.792,0.288 L153.411468,1.84777859 C152.776637,4.38837574 151.954759,7.20331034 150.048,11.136 C148.224,9.744 146.688,9.168 145.152,8.736 L145.152,9.072 C147.36,10.224 149.424,13.056 150.096,14.736 L150.315959,15.3135031 C150.796945,16.5412174 151.254261,17.376 152.256,17.376 C152.832,17.376 153.696,16.8 153.696,15.744 C153.696,14.208 151.728,12.432 150.48,11.472 L151.756957,9.9582167 C153.787085,7.5330816 154.84992,6.12672 156.624,3.264 L157.363556,3.15548971 C158.118519,3.04118519 158.496,2.93333333 158.496,2.448 C158.496,2.064 158.256,1.968 157.92,1.824 Z M158.304,16.32 L157.92,16.656 L158.580646,17.5997935 C159.460265,18.8761588 159.629217,19.2709565 160.224,20.976 L159.651289,21.0670496 C157.057959,21.4547755 153.116571,21.7508571 151.824,21.84 C156.816,17.28 159.552,12.576 161.184,9.84 L161.676842,9.83754367 C162.533186,9.82444321 163.248,9.74147368 163.248,9.216 C163.248,8.976 163.008,8.832 162.672,8.688 L158.448,6.912 C157.632,9.744 156.672,12.144 156,13.776 C154.464,17.376 152.784,19.776 151.056,21.888 L150.40275,21.92325 C149.75675,21.95325 148.945417,21.9779167 148.039861,21.9830278 L147.696,21.984 C146.448,21.984 145.632,21.936 144.768,21.84 L146.064,26.16 C146.208,26.688 146.544,26.88 146.688,26.88 L146.762582,26.8782182 C147.026765,26.8612608 147.05856,26.68992 147.456,25.056 L151.7184,24.056064 C152.13504,23.95584 152.544,23.856 152.928,23.76 L152.928889,43.026 C152.94,43.4426667 153.04,43.776 153.84,43.776 C156.174968,43.776 156.325611,42.8098564 156.33533,42.1350464 L156.336,22.848 L157.04566,22.6442524 C158.5024,22.2184533 159.4592,21.8912 160.416,21.6 L160.518144,21.946368 C160.64256,22.39488 160.7424,22.8864 161.088,24.576 C161.328,25.776 162.048,26.352 162.816,26.352 C163.776,26.352 164.256,25.056 164.256,24.288 L164.251195,24.1567703 C164.172749,23.0255616 163.09632,19.96032 158.304,16.32 Z M157.92,26.784 L157.68,26.88 C158.928,29.088 159.6,31.536 159.984,33.984 L160.02843,34.2973071 C160.165018,35.1418368 160.53504,36.48 161.76,36.48 C162.811429,36.48 163.209796,35.5221769 163.245351,34.6016715 L163.248,34.464 C163.248,34.032 162.768,30.816 157.92,26.784 Z M147.552,27.504 C147.6,31.632 146.256,36.912 144.432,40.56 L144.768,40.8 C148.032,36.576 149.424,32.976 150.288,29.904 L150.626887,29.7863538 C151.343147,29.5264 151.92,29.2352 151.92,28.944 C151.92,28.656 151.536,28.416 151.152,28.32 L147.552,27.504 Z M237.84,15.504 L237.84,15.072 L236.908098,14.85705 C230.94168,13.452 223.7688,11.1264 216.336,2.736 L217.312767,2.40714457 C218.007108,2.16335728 218.112,2.07234783 218.112,1.824 C218.112,1.488 217.728,1.344 217.248,1.2 L212.4,-1.84741111e-13 C208.848,6.528 204.048,11.856 192.768,19.104 L193.104,19.44 C201.888,15.888 210.048,9.744 215.472,3.264 C219.264,8.976 226.08,15.792 234,18.576 C235.008,16.656 235.824,16.128 237.84,15.504 Z M225.36,16.416 C225.36,16.128 225.024,16.08 224.4,16.032 L220.224,15.744 L220.225251,42.9929218 C220.235259,43.4648889 220.325333,43.92 221.136,43.92 C221.808,43.92 222.48,43.824 223.152,43.536 C224.016,43.2 224.016,42.768 224.016,41.712 L224.016,17.52 C224.352,17.28 224.64,17.136 224.832,16.992 L224.995424,16.8944198 C225.185778,16.7768889 225.36,16.64 225.36,16.416 Z M211.344,16.848 C211.344,17.28 210.816,17.568 210,18 L209.998098,22.5987819 C209.983264,24.3797355 209.852727,29.3498182 208.704,33.264 C206.88,39.504 199.728,42.816 195.264,43.968 L194.976,43.536 C199.104,41.808 202.608,38.832 204.576,34.752 L204.749092,34.3666317 C205.840638,31.8503168 206.281804,29.0620253 206.30318,23.1193955 L206.304,16.032 L210.576,16.32 L210.720109,16.3248066 C211.000331,16.3449941 211.344,16.4418462 211.344,16.848 Z" id="研究室紹介" fill="#3F3E46" fill-rule="nonzero"></path>
                    <line x1="254.992" y1="22.82" x2="343.992" y2="22.32" id="Path-2-Copy" stroke="#BCB9C5" stroke-width="2"></line>
                </g>
            </g>
        </g>
    </g>
</svg>