<svg xmlns="http://www.w3.org/2000/svg" width="120" height="23" viewBox="0 0 120 23">
  <path fill="#3F3E46" d="M9.12,22.776 C12.672,21.216 14.016,17.808 14.328,16.848 C14.808,15.36 15,13.776 15,12.192 L15,10.248 L17.904,10.248 L17.904,21.984 C17.904,22.44 17.904,22.632 18.336,22.632 C19.704,22.632 19.704,22.296 19.704,21.576 L19.704,10.248 L22.8,10.248 C23.04,10.248 23.232,10.224 23.232,9.936 C23.232,9.744 23.136,9.624 22.992,9.456 L22.296,8.688 C22.056,8.424 21.96,8.28 21.72,8.28 C21.384,8.28 21.24,8.496 21.024,8.856 L20.544,9.672 L19.704,9.672 L19.704,2.976 L22.296,2.976 C22.488,2.976 22.704,2.976 22.704,2.712 C22.704,2.568 22.584,2.424 22.44,2.304 L21.504,1.416 C21.36,1.272 21.072,1.056 20.808,1.056 C20.664,1.056 20.4,1.128 20.184,1.512 L19.704,2.4 L10.944,2.4 L11.232,2.976 L13.2,2.976 L13.2,9.672 L10.344,9.672 L10.632,10.248 L13.2,10.248 L13.2,12.216 C13.2,15.36 13.008,19.2 9.048,22.656 L9.12,22.776 Z M3.744,21.288 C4.224,21.288 4.848,21.024 4.848,20.52 L4.848,17.448 L7.632,17.448 L7.632,18.672 C7.632,18.96 7.608,19.176 8.136,19.176 C9.408,19.176 9.408,18.696 9.408,18.36 L9.408,10.128 C9.84,9.816 9.84,9.792 9.84,9.624 C9.84,9.552 9.84,9.456 9.648,9.264 L8.88,8.4 C8.784,8.304 8.52,8.088 8.352,8.088 C8.208,8.088 8.04,8.136 7.848,8.424 L7.368,9.12 L5.016,9.12 L4.656,8.808 C5.64,6.936 6.096,5.136 6.48,2.976 L9.792,2.976 C10.008,2.976 10.152,2.904 10.152,2.664 C10.152,2.52 10.08,2.424 9.96,2.328 L9.24,1.584 C8.928,1.248 8.832,1.2 8.616,1.2 C8.4,1.2 8.208,1.296 8.016,1.656 L7.632,2.4 L1.44,2.4 L1.8,2.976 L4.464,2.976 C4.344,4.32 4.272,5.088 3.888,6.6 C3.576,7.752 2.544,11.136 0.504,14.256 L0.768,14.376 C1.464,13.608 2.256,12.648 3.144,11.352 L3.144,20.592 C3.144,21.072 3.144,21.288 3.744,21.288 Z M17.904,9.672 L15,9.672 L15,2.976 L17.904,2.976 L17.904,9.672 Z M7.632,16.872 L4.848,16.872 L4.848,9.696 L7.632,9.696 L7.632,16.872 Z M42.528,10.392 C45.048,10.392 46.128,10.128 46.128,9.24 C46.128,9 46.056,8.88 45.864,8.712 C45.576,8.4 45.48,8.208 45.48,7.416 C45.48,7.152 45.648,5.832 45.648,5.52 L45.456,5.52 C45.312,6.168 44.976,7.536 44.208,8.352 C43.76,8.8448 43.43744,8.87765333 42.5573689,8.87984356 L40.656,8.88 C39.096,8.88 38.784,8.616 38.784,7.632 L38.784,4.584 L44.064,4.584 C43.488,5.784 42.624,7.008 42.36,7.392 L42.504,7.512 C43.752,6.888 45.12,5.808 45.648,5.328 C46.344,5.184 46.992,5.064 46.992,4.728 C46.992,4.512 46.872,4.416 45.84,3.528 C45.168,2.928 45.096,2.856 44.88,2.856 C44.568,2.856 44.064,3.648 43.824,4.008 L37.008,4.008 L37.008,1.848 C37.632,1.416 37.632,1.416 37.632,1.272 C37.632,1.08 37.536,1.032 37.248,1.008 L35.04,0.888 L35.04,4.008 L27.84,4.008 C27.792,3.408 27.672,3.048 27.576,2.688 L27.384,2.688 C27.48,4.08 26.736,5.208 26.064,5.784 C25.056,6.648 24.96,6.744 24.96,7.176 C24.96,7.584 25.32,7.992 25.848,7.992 C26.832,7.992 27.768,6.768 27.864,4.584 L37.008,4.584 L37.008,8.112 C37.008,10.2538182 38.4269972,10.3836253 40.3100085,10.3914924 L42.528,10.392 Z M25.176,12.24 C30,11.448 32.4,8.832 33.312,7.2 C33.696,6.48 33.744,6.408 33.84,6.24 C34.56,6.096 34.704,6.072 34.704,5.856 C34.704,5.688 34.488,5.568 34.368,5.52 L32.256,4.608 C31.344,8.208 29.064,10.632 25.176,12.048 L25.176,12.24 Z M25.176,22.944 C28.224,22.392 31.152,21.168 33.312,18.96 C34.992,17.232 35.424,15.264 35.616,14.184 L39.744,14.184 C39.384,18.576 39.36,19.056 39.36,19.56 C39.36,21.792 40.6888828,22.0644609 42.4084065,22.0793101 L42.576,22.08 C44.904,22.08 46.752,21.936 46.752,20.808 C46.752,20.568 46.68,20.424 46.344,20.16 C46.056,19.92 45.888,19.8 45.888,18.336 C45.888,17.808 45.936,15.48 45.936,15 L45.648,15 C44.9665,19.888 44.2389792,20.4500417 42.5867272,20.4713385 L42.48,20.472 C41.712,20.472 41.184,20.424 41.184,19.488 C41.184,18.6 41.376,16.44 41.52,15 C41.904,14.736 42.336,14.448 42.336,14.16 C42.336,13.92 41.976,13.584 41.4,13.032 C40.848,12.528 40.752,12.504 40.584,12.504 C40.32,12.504 40.248,12.6 39.912,12.984 C39.576,13.368 39.504,13.464 39.384,13.608 L35.712,13.608 C35.88,12.456 35.904,11.232 35.928,10.704 C36.336,10.512 36.72,10.344 36.72,10.104 C36.72,9.816 36.384,9.744 36.168,9.72 L34.008,9.504 C34.032,9.96 34.056,10.32 34.056,11.16 C34.056,11.448 34.056,12.624 33.936,13.608 L27.576,13.608 L27.984,14.184 L33.864,14.184 C32.784,19.896 27.72,21.84 25.08,22.704 L25.176,22.944 Z M49.776,7.608 C50.904,7.608 51.84,6.096 51.792,4.224 L67.896,4.224 C67.632,4.848 67.2,5.784 66.744,6.576 L66.984,6.816 C67.488,6.48 68.616,5.736 69.36,5.136 L69.7456306,5.13552413 C70.7518006,5.13147922 71.04,5.09305263 71.04,4.728 C71.04,4.584 70.968,4.416 70.848,4.32 L69,2.784 C68.928,2.712 68.712,2.592 68.568,2.592 C68.376,2.592 68.208,2.832 68.184,2.856 L67.656,3.648 L61.08,3.648 L61.08,1.992 C61.656,1.632 61.872,1.488 61.872,1.272 C61.872,1.056 61.656,1.056 61.32,1.032 L59.208,0.888 L59.208,3.648 L51.768,3.648 C51.744,3.264 51.672,2.664 51.504,2.328 L51.216,2.328 C51.096,3.696 50.928,4.224 49.848,5.424 C49.056,6.312 48.96,6.408 48.96,6.72 C48.96,7.272 49.344,7.608 49.776,7.608 Z M52.2,14.16 C52.464,14.16 52.56,13.848 52.704,13.224 C53.472,13.128 57.192,12.72 58.032,12.624 C60.48,12.336 63.336,11.904 66,11.52 C66.312,11.928 66.72,12.648 66.816,12.84 C67.272,13.656 67.464,13.992 67.968,13.992 C68.4,13.992 68.688,13.512 68.688,13.032 C68.688,11.52 65.784,9.624 63.6,8.88 L63.48,9.12 C64.704,9.912 65.112,10.44 65.592,11.016 C62.928,11.232 59.568,11.256 58.104,11.256 C59.856,9.192 60.432,8.232 60.864,7.488 L66.432,7.488 C66.6,7.488 66.912,7.488 66.912,7.2 C66.912,7.056 66.768,6.888 66.696,6.84 L65.448,5.808 C65.328,5.712 65.16,5.64 65.016,5.64 C64.848,5.64 64.68,5.808 64.656,5.88 L64.032,6.912 L52.896,6.912 L53.28,7.488 L58.56,7.488 C58.248,8.712 57.48,10.464 57.096,11.256 C53.088,11.28 52.416,11.304 50.856,11.208 L51.792,13.68 C51.84,13.8 51.984,14.16 52.2,14.16 Z M69.984,21.456 C69.984,21.36 69.888,21.192 69.792,21.096 L68.496,19.968 C68.4,19.872 68.256,19.776 68.088,19.776 C67.92,19.776 67.776,19.872 67.704,20.016 L66.96,21.192 L61.08,21.192 L61.08,17.256 L67.92,17.256 C68.088,17.256 68.376,17.256 68.376,16.968 C68.376,16.848 68.328,16.704 68.232,16.632 L66.84,15.384 C66.768,15.336 66.624,15.24 66.504,15.24 C66.36,15.24 66.24,15.408 66.216,15.432 L65.352,16.68 L61.08,16.68 L61.08,13.944 C61.56,13.728 61.8,13.584 61.8,13.368 C61.8,13.2 61.608,13.128 61.44,13.104 L59.16,12.864 L59.16,16.68 L51.36,16.68 L51.768,17.256 L59.16,17.256 L59.16,21.192 L49.752,21.192 L50.16,21.768 L69.48,21.768 C69.6,21.768 69.984,21.768 69.984,21.456 Z M76.632,9.528 C76.92,9.528 77.352,9.24 77.352,8.712 C77.352,7.944 76.368,7.056 75.744,6.576 C77.208,4.848 77.76,4.176 78.816,2.472 C79.44,2.376 79.752,2.376 79.752,2.064 C79.752,1.872 79.632,1.824 79.464,1.752 L77.4,0.984 C77.04,2.472 76.68,4.032 75.528,6.408 C74.616,5.712 73.848,5.424 73.08,5.208 L73.08,5.376 C74.184,5.952 75.216,7.368 75.552,8.208 C75.84,8.976 76.056,9.528 76.632,9.528 Z M82.512,12.12 C85.608,10.656 88.008,7.632 88.632,3.096 L92.352,3.096 C92.256,5.232 91.752,8.784 91.584,9.24 C91.416,9.744 90.768,9.744 90.6,9.744 C89.808,9.744 88.512,9.576 87.72,9.504 L87.696,9.672 C89.568,10.176 89.952,10.368 90.072,11.808 C93.024,11.832 93.216,10.584 93.504,8.736 C93.624,8.04 93.936,4.512 94.056,3.72 C94.56,3.312 94.8,3.12 94.8,2.928 C94.8,2.664 93.48,1.44 93.12,1.44 C92.904,1.44 92.352,2.184 92.088,2.52 L82.68,2.52 L82.92,3.096 L86.712,3.096 C86.592,6.216 85.656,9.264 82.392,12 L82.512,12.12 Z M77.424,22.728 C78.672,22.728 78.672,22.176 78.672,21.84 L78.672,12.264 C79.608,12 80.16,11.808 80.712,11.64 C80.808,11.952 80.832,12.072 81.048,13.128 C81.168,13.728 81.528,14.016 81.912,14.016 C82.392,14.016 82.632,13.368 82.632,12.984 C82.632,12.48 82.152,10.896 79.656,9 L79.464,9.168 C80.208,10.224 80.256,10.296 80.616,11.328 C79.344,11.544 77.112,11.712 76.416,11.76 C78.912,9.48 80.28,7.128 81.096,5.76 C81.624,5.76 82.128,5.76 82.128,5.448 C82.128,5.328 82.008,5.256 81.84,5.184 L79.728,4.296 C79.32,5.712 78.84,6.912 78.504,7.728 C77.736,9.528 76.896,10.728 76.032,11.784 C75.648,11.808 75.048,11.832 74.352,11.832 C73.728,11.832 73.32,11.808 72.888,11.76 L73.536,13.92 C73.608,14.184 73.776,14.28 73.848,14.28 C74.016,14.28 74.016,14.256 74.232,13.368 C74.736,13.248 76.008,12.96 76.968,12.72 L76.968,22.224 C76.968,22.488 76.944,22.728 77.424,22.728 Z M83.544,22.44 C84.624,22.44 84.888,21.984 84.888,21.456 L84.888,20.304 L91.848,20.304 L91.848,21.864 C91.848,22.2 91.944,22.32 92.304,22.32 C92.592,22.32 93.192,22.224 93.408,22.008 C93.528,21.912 93.576,21.792 93.576,21.432 L93.576,14.736 C94.056,14.328 94.224,14.184 94.224,13.896 C94.224,13.488 93.072,12.504 92.832,12.504 C92.568,12.504 92.184,12.936 91.848,13.344 L85.152,13.344 L83.088,12.36 L83.088,21.888 C83.088,22.272 83.136,22.44 83.544,22.44 Z M91.848,19.728 L84.888,19.728 L84.888,13.92 L91.848,13.92 L91.848,19.728 Z M81.384,19.08 C81.936,19.08 82.128,18.552 82.128,18.072 C82.128,17.856 81.888,16.248 79.464,14.232 L79.344,14.28 C79.968,15.384 80.304,16.608 80.496,17.832 C80.544,18.216 80.688,19.08 81.384,19.08 Z M72.888,21.24 C74.52,19.128 75.216,17.328 75.648,15.792 C76.08,15.648 76.464,15.48 76.464,15.312 C76.464,15.168 76.272,15.048 76.08,15 L74.28,14.592 C74.304,16.656 73.632,19.296 72.72,21.12 L72.888,21.24 Z M97.056,10.56 C101.448,8.784 105.528,5.712 108.24,2.472 C110.136,5.328 113.544,8.736 117.504,10.128 C118.008,9.168 118.416,8.904 119.424,8.592 L119.424,8.376 C116.352,7.68 112.584,6.624 108.672,2.208 C109.464,1.944 109.56,1.92 109.56,1.752 C109.56,1.584 109.368,1.512 109.128,1.44 L106.704,0.84 C104.928,4.104 102.528,6.768 96.888,10.392 L97.056,10.56 Z M111.072,22.8 C111.408,22.8 111.744,22.752 112.08,22.608 C112.512,22.44 112.512,22.224 112.512,21.696 L112.512,9.6 C112.68,9.48 112.824,9.408 112.92,9.336 C113.04,9.264 113.184,9.192 113.184,9.048 C113.184,8.904 113.016,8.88 112.704,8.856 L110.616,8.712 L110.616,22.248 C110.616,22.512 110.616,22.8 111.072,22.8 Z M98.136,22.824 C100.368,22.248 103.944,20.592 104.856,17.472 C105.504,15.264 105.504,12.384 105.504,11.88 L105.504,9.84 C105.912,9.624 106.176,9.48 106.176,9.264 C106.176,9.024 105.936,9 105.792,9 L103.656,8.856 L103.656,12.168 C103.656,15.456 103.416,16.872 102.792,18.216 C101.808,20.256 100.056,21.744 97.992,22.608 L98.136,22.824 Z"/>
</svg>
