<?xml version="1.0" encoding="UTF-8"?>
<svg width="296px" height="16px" viewBox="0 0 296 16" version="1.1" xmlns="http://www.w3.org/2000/svg" xmlns:xlink="http://www.w3.org/1999/xlink">
    <!-- Generator: Sketch 61 (89581) - https://sketch.com -->
    <title>Group 3</title>
    <desc>Created with Sketch.</desc>
    <g id="Page-1" stroke="none" stroke-width="1" fill="none" fill-rule="evenodd">
        <g id="iPhone-8" transform="translate(-32.000000, -1537.000000)" fill="#FF4A4A" fill-rule="nonzero">
            <g id="Group-3" transform="translate(31.999154, 1537.296000)">
                <path d="M6.88884602,2.268 C7.01484602,2.268 7.08484602,2.17 7.08484602,2.058 C7.08484602,1.96 7.04284602,1.876 6.90284602,1.75 L6.42684602,1.302 C6.39884602,1.274 6.21684602,1.134 6.10484602,1.134 C6.04884602,1.134 5.96484602,1.162 5.85284602,1.316 L5.39084602,1.932 L4.56484602,1.932 L4.56484602,0.714 C4.95684602,0.518 5.01284602,0.504 5.01284602,0.378 C5.01284602,0.294 4.92884602,0.238 4.84484602,0.224 L3.54284602,0.014 L3.54284602,1.932 L1.21884602,1.932 L1.44284602,2.268 L6.88884602,2.268 Z M10.738846,12.6 C11.116846,12.6 11.354846,12.39 11.424846,12.222 C11.494846,12.068 11.508846,11.97 11.508846,11.578 L11.508846,5.068 L13.258846,5.068 C13.342846,5.068 13.510846,5.068 13.510846,4.886 C13.510846,4.788 13.440846,4.704 13.398846,4.648 L12.866846,4.06 C12.782846,3.976 12.670846,3.864 12.558846,3.864 C12.474846,3.864 12.418846,3.906 12.264846,4.074 L11.676846,4.732 L8.75084602,4.732 L8.75084602,1.848 C9.17084602,1.806 9.49284602,1.736 12.306846,1.218 C12.432846,1.246 12.460846,1.26 12.530846,1.274 C12.656846,1.302 12.782846,1.358 12.852846,1.358 C12.992846,1.358 13.034846,1.26 13.034846,1.218 C13.034846,1.12 12.852846,1.022 12.642846,0.854 L11.732846,0.154 C10.794846,0.714 9.77284602,1.092 9.04484602,1.344 L7.68684602,0.854 L7.68684602,6.594 C7.68684602,8.876 7.25284602,10.892 5.58684602,12.278 L5.69884602,12.404 C6.55284602,11.97 7.16884602,11.298 7.51884602,10.794 C8.42884602,9.52 8.75084602,8.33 8.75084602,6.342 L8.75084602,5.068 L10.430846,5.068 L10.430846,11.886 C10.430846,12.488 10.430846,12.6 10.738846,12.6 Z M7.40684602,4.914 C7.40684602,4.816 7.32284602,4.704 7.25284602,4.634 L6.70684602,4.088 C6.59484602,3.976 6.52484602,3.934 6.42684602,3.934 C6.30084602,3.934 6.21684602,4.018 6.13284602,4.102 L5.55884602,4.732 L4.64884602,4.732 C4.83084602,4.508 5.74084602,3.416 5.96484602,3.178 C6.24484602,3.15 6.49684602,3.122 6.49684602,2.968 C6.49684602,2.884 6.46884602,2.8 6.38484602,2.772 L5.20884602,2.324 C4.95684602,3.15 4.67684602,3.962 4.31284602,4.732 L0.826846022,4.732 L1.13484602,5.068 L7.19684602,5.068 C7.25284602,5.068 7.40684602,5.068 7.40684602,4.914 Z M3.13684602,4.634 C3.36084602,4.634 3.54284602,4.424 3.54284602,4.158 C3.54284602,3.262 2.46484602,2.758 1.82084602,2.464 L1.75084602,2.576 C1.93284602,2.786 2.26884602,3.234 2.49284602,3.78 C2.75884602,4.424 2.84284602,4.634 3.13684602,4.634 Z M3.86484602,12.544 C4.56484602,12.544 4.56484602,11.97 4.56484602,11.76 L4.56484602,8.036 C5.12484602,8.456 5.55884602,9.618 5.61484602,9.758 C5.72684602,10.094 5.88084602,10.43 6.24484602,10.43 C6.45484602,10.43 6.65084602,10.248 6.65084602,9.926 C6.65084602,9.184 5.60084602,8.246 4.56484602,7.77 L4.56484602,7.378 L6.95884602,7.378 C7.11284602,7.378 7.25284602,7.378 7.25284602,7.196 C7.25284602,7.154 7.25284602,7.098 7.07084602,6.888 L6.62284602,6.37 C6.58084602,6.328 6.44084602,6.16 6.31484602,6.16 C6.23084602,6.16 6.16084602,6.188 5.99284602,6.384 L5.46084602,7.042 L4.56484602,7.042 L4.56484602,5.964 C4.87284602,5.866 4.98484602,5.796 4.98484602,5.67 C4.98484602,5.46 4.70484602,5.39 4.66284602,5.39 L3.54284602,5.292 L3.54284602,7.042 L1.14884602,7.042 L1.48484602,7.378 L3.19284602,7.378 C3.10884602,7.602 2.92684602,8.148 2.85684602,8.302 C2.54884602,9.058 1.87684602,10.43 0.742846022,11.256 L0.840846022,11.382 C2.00284602,10.794 2.94084602,9.856 3.54284602,8.708 L3.5437848,12.0811429 C3.54941745,12.4925714 3.58884602,12.544 3.86484602,12.544 Z M14.8255125,8.344 C15.7495125,7.924 16.5615125,6.944 16.7715125,6.664 C17.6535125,5.516 17.7795125,4.466 17.8495125,3.836 L19.3895125,3.836 L19.3895125,7.196 C19.3895125,7.308 19.3895125,7.448 19.6835125,7.448 C19.8515125,7.448 20.1175125,7.392 20.2855125,7.252 C20.3695125,7.168 20.3975125,7.084 20.3975125,6.874 L20.3975125,3.836 L22.2035125,3.836 C22.3715125,3.836 22.5255125,3.794 22.5255125,3.598 C22.5255125,3.528 22.4975125,3.458 22.3995125,3.36 L21.9515125,2.94 C21.9095125,2.898 21.7975125,2.8 21.6995125,2.8 C21.5875125,2.8 21.4895125,2.856 21.3495125,3.052 L21.0275125,3.5 L20.3975125,3.5 L20.3975125,1.092 L21.5035125,1.092 C21.7975125,1.092 21.8955125,1.036 21.8955125,0.91 C21.8955125,0.826 21.7975125,0.714 21.7835125,0.714 L21.2795125,0.21 C21.1815125,0.112 21.0695125,0.084 20.9995125,0.084 C20.8315125,0.084 20.7615125,0.154 20.6495125,0.294 L20.2715125,0.756 L15.5395125,0.756 L15.6935125,1.092 L16.9115125,1.092 L16.9115125,3.5 L14.6155125,3.5 L14.8115125,3.836 L16.8975125,3.836 C16.8415125,5.236 16.5335125,6.72 14.7695125,8.26 L14.8255125,8.344 Z M26.8373968,7.01146769 L26.8375125,0.952 C27.3135125,0.742 27.3415125,0.7 27.3415125,0.588 C27.3415125,0.462 27.2015125,0.448 27.0615125,0.434 L25.8435125,0.322 L25.8435125,6.538 C25.8435125,6.916 25.8155125,7.084 25.3675125,7.084 C25.1015125,7.084 23.8135125,6.958 23.5195125,6.944 L23.5195125,7.098 C24.4295125,7.224 25.0595125,7.434 25.2555125,7.518 C25.4935125,7.63 25.6335125,7.882 25.6055125,8.274 C26.7815125,8.32745455 26.8349671,7.59002479 26.8373968,7.01146769 Z M23.5335125,6.524 C23.6595125,6.524 23.9115125,6.496 24.1075125,6.356 C24.2195125,6.28133333 24.2430187,6.22879012 24.2468596,5.97221948 L24.2475125,1.652 C24.4995125,1.54 24.7935125,1.4 24.7935125,1.246 C24.7935125,1.12 24.6815125,1.12 24.4715125,1.092 L23.2535125,0.952 L23.2535125,6.272 C23.2535125,6.51 23.4075125,6.524 23.5335125,6.524 Z M19.3895125,3.5 L17.8915125,3.5 C17.8915125,3.374 17.9195125,3.052 17.9195125,2.912 L17.9195125,1.092 L19.3895125,1.092 L19.3895125,3.5 Z M27.4115125,12.32 C27.5095125,12.32 27.7195125,12.292 27.7195125,12.068 C27.7195125,12.026 27.7195125,11.97 27.6355125,11.886 L27.0615125,11.27 C26.9495125,11.144 26.8515125,11.074 26.7255125,11.074 C26.5575125,11.074 26.4035125,11.256 26.3895125,11.27 L25.8015125,11.984 L21.6715125,11.984 L21.6715125,9.716 L25.7595125,9.716 C25.9275125,9.716 26.0955125,9.716 26.0955125,9.52 C26.0955125,9.394 25.9695125,9.282 25.9415125,9.268 L25.3535125,8.75 C25.2695125,8.666 25.1435125,8.596 25.0455125,8.596 C24.8775125,8.596 24.8075125,8.666 24.6395125,8.876 L24.2615125,9.38 L21.6715125,9.38 L21.6715125,8.218 C22.1195125,8.022 22.1195125,8.022 22.2035125,7.966 C22.2595125,7.924 22.2875125,7.868 22.2875125,7.812 C22.2875125,7.672 22.1755125,7.658 22.0075125,7.644 L20.6215125,7.504 L20.6215125,9.38 L16.1695125,9.38 L16.4075125,9.716 L20.6215125,9.716 L20.6215125,11.984 L14.6015125,11.984 L14.7975125,12.32 L27.4115125,12.32 Z M31.960179,10.164 C32.072179,10.164 32.590179,9.982 32.702179,9.954 C33.682179,9.744 35.656179,9.576 36.832179,9.576 C37.028179,9.576 37.574179,9.576 37.994179,9.646 C38.316179,9.702 38.428179,9.73 38.764179,9.73 C38.932179,9.73 39.030179,9.618 39.030179,9.52 C39.030179,9.268 38.596179,8.988 38.386179,8.862 C38.428179,8.358 39.100179,5.236 39.254179,4.55 C39.310179,4.284 39.352179,4.2 39.450179,4.074 C39.506179,3.99 39.870179,3.668 39.870179,3.556 C39.870179,3.528 39.870179,3.5 39.814179,3.43 C38.820179,2.492 38.792179,2.464 38.624179,2.464 C38.582179,2.464 38.554179,2.478 38.512179,2.506 C38.358179,2.618 38.274179,2.674 38.120179,2.716 C37.840179,2.786 36.370179,2.842 36.048179,2.87 C35.516179,2.912 32.940179,3.178 32.352179,3.178 L32.2189545,3.17734694 C32.0658933,3.17571429 31.830179,3.17 31.680179,3.15 C31.512179,3.136 30.686179,2.73 30.672179,2.73 L30.574179,2.814 C30.714179,3.318 31.386179,4.27 31.792179,4.27 C31.862179,4.27 31.890179,4.256 32.198179,4.116 C32.310179,4.074 32.450179,4.046 33.696179,3.822 C34.858179,3.612 37.112179,3.486 37.630179,3.486 C37.882179,3.486 37.966179,3.5 38.162179,3.528 C38.162179,3.738 37.728179,7.966 37.574179,8.848 C36.398179,8.876 36.090179,8.89 34.942179,9.002 C33.626179,9.128 32.898179,9.198 32.226179,9.198 C31.624179,9.198 31.554179,9.156 30.798179,8.736 L30.672179,8.792 C30.728179,9.1 30.854179,9.324 31.204179,9.66 C31.400179,9.842 31.764179,10.164 31.960179,10.164 Z M46.7848455,10.556 C47.0228455,10.556 47.0088455,9.954 47.0088455,9.716 C48.9548455,9.478 49.6828455,9.394 51.8948455,9.394 C52.0488455,9.394 52.7768455,9.436 52.9448455,9.436 C53.0568455,9.436 53.2668455,9.436 53.2668455,9.268 C53.2668455,9.002 52.8328455,8.764 52.5388455,8.61 C52.6788455,7.882 53.4488455,4.536 53.5188455,4.368 C53.5888455,4.172 53.7428455,4.004 53.9388455,3.92 C54.0928455,3.85 54.1908455,3.808 54.1908455,3.598 C54.1908455,3.458 54.0508455,3.332 54.0368455,3.318 L53.2948455,2.674 C53.0848455,2.492 53.0148455,2.464 52.9028455,2.464 C52.8328455,2.464 52.7768455,2.492 52.7208455,2.52 C52.6648455,2.562 52.4128455,2.772 52.3568455,2.814 C51.9508455,3.038 48.3528455,3.486 47.4848455,3.486 C46.7428455,3.486 46.5608455,3.43 46.3088455,3.318 C45.8888455,2.912 45.4128455,2.716 44.9648455,2.632 L44.8668455,2.786 C45.4688455,3.262 45.5388455,3.766 45.6648455,4.76 C45.7768455,5.74 45.9448455,7.588 45.9448455,8.582 C45.9448455,8.652 45.8608455,8.988 45.8608455,9.072 C45.8608455,9.24 45.8748455,9.31 46.1688455,9.87 C46.3228455,10.164 46.5188455,10.556 46.7848455,10.556 Z M46.9528455,9.128 C46.8828455,8.582 46.7708455,7.7 46.7288455,6.286 C46.7008455,5.376 46.6728455,4.438 46.3648455,3.57 C46.8408455,3.836 47.2328455,4.032 47.3028455,4.046 C47.3868455,4.074 47.7788455,4.102 47.8068455,4.102 C47.8908455,4.102 48.0308455,4.074 48.0728455,4.074 C49.2348455,3.864 50.1588455,3.752 52.5388455,3.514 C52.5388455,3.822 52.5528455,4.466 52.2728455,5.796 C52.0768455,6.748 51.7968455,8.008 51.7128455,8.68 C50.9568455,8.764 47.6248455,9.058 46.9528455,9.128 Z M59.845512,12.166 C61.861512,11.48 63.233512,9.912 63.905512,8.12 C64.367512,6.874 64.395512,5.46 64.409512,4.718 C65.347512,4.648 65.907512,4.634 66.215512,4.634 C66.565512,4.634 67.251512,4.634 68.259512,4.83 C68.287512,4.844 68.567512,4.9 68.693512,4.9 C68.889512,4.9 68.945512,4.746 68.945512,4.62 C68.945512,4.172 67.629512,3.724 67.503512,3.724 C67.405512,3.724 66.999512,3.864 66.901512,3.878 C66.523512,3.948 64.773512,4.046 64.409512,4.074 L64.4096345,3.90061224 C64.4103692,3.44828571 64.415512,2.442 64.451512,2.31 C64.465512,2.212 64.703512,1.848 64.703512,1.75 C64.703512,1.4 63.765512,0.882 63.107512,0.882 C62.869512,0.882 62.715512,0.91 62.575512,0.938 L62.575512,1.078 C62.645512,1.12 62.953512,1.33 63.009512,1.386 C63.373512,1.792 63.373512,3.388 63.373512,4.172 C61.749512,4.34 60.797512,4.48 59.901512,4.634 C59.649512,4.67 59.5209406,4.68542857 59.4364508,4.68910204 L59.397512,4.69 C59.215512,4.69 59.103512,4.676 58.767512,4.508 C58.739512,4.494 58.291512,4.27 58.249512,4.27 L58.151512,4.34 C58.333512,5.096 59.131512,5.726 59.383512,5.726 C59.481512,5.726 59.719512,5.614 59.901512,5.53 C60.699512,5.152 62.449512,4.928 63.359512,4.816 C63.359512,6.762 63.121512,9.926 59.761512,12.026 L59.845512,12.166 Z M75.0761785,11.914 C75.9301785,11.928 77.4421785,11.34 78.5481785,10.626 C80.3821785,9.422 81.1661785,7.224 81.7821785,5.446 C81.9081785,5.096 81.9641785,4.956 82.1181785,4.844 C82.4681785,4.592 82.4961785,4.564 82.4961785,4.452 C82.4961785,4.368 82.3141785,4.2 81.9221785,3.836 C81.5441785,3.486 81.4881785,3.458 81.3341785,3.458 C81.2781785,3.458 81.2081785,3.472 81.1521785,3.514 C81.1101785,3.542 80.9841785,3.654 80.9141785,3.696 C80.8161785,3.752 79.0661785,3.794 78.2961785,3.822 L78.2961785,3.192 C78.2961785,2.52 78.3101785,2.436 78.5201785,2.128 C78.6321785,1.96 78.6601785,1.904 78.6601785,1.862 C78.6601785,1.47 77.5121785,1.092 76.9941785,1.092 C76.8541785,1.092 76.7701785,1.106 76.6581785,1.134 L76.6581785,1.246 C77.4281785,1.638 77.4281785,1.904 77.4281785,3.836 C77.1341785,3.836 74.9501785,3.934 74.6141785,3.934 C74.5581785,3.934 73.8721785,3.486 73.7181785,3.43 C73.5081785,3.346 73.3541785,3.332 73.2001785,3.318 L73.1721785,3.458 C73.4941785,3.78 73.5081785,3.794 73.6761785,4.298 C73.7461785,4.508 73.8161785,6.062 73.8161785,6.482 C73.8161785,6.58 73.8021785,7 73.8021785,7.084 C73.8021785,7.266 73.8441785,7.322 74.3341785,7.868 C74.4601785,8.008 74.4881785,8.05 74.5721785,8.05 C74.8381785,8.05 74.8381785,7.574 74.8381785,7.462 C74.8381785,7 74.6981785,5.054 74.6001785,4.564 C74.6841785,4.578 74.7261785,4.592 74.8661785,4.662 C74.9361785,4.69 75.0201785,4.704 75.1461785,4.704 C75.4541785,4.704 78.7861785,4.41 79.4581785,4.368 C79.9481785,4.34 80.5221785,4.34 80.9001785,4.368 C80.4381785,7.714 78.4221785,10.696 75.0621785,11.802 L75.0761785,11.914 Z M92.574845,12.096 C92.630845,12.096 92.840845,12.082 92.896845,11.9 C92.9590672,11.7382222 92.9770426,11.4215802 92.9802689,10.9304088 L92.9798668,10.6171435 C92.9735558,10.040314 92.938845,7.84890909 92.938845,7.798 C92.938845,7.616 93.008845,5.418 93.022845,5.39 C93.050845,5.25 93.092845,5.138 93.092845,5.096 C93.092845,4.942 92.700845,4.676 92.532845,4.564 C92.756845,4.354 92.868845,4.242 93.736845,3.122 C94.142845,2.604 94.170845,2.548 94.422845,2.45 C94.646845,2.366 94.758845,2.31 94.758845,2.044 C94.758845,1.68 94.380845,0.966 93.288845,0.616 L93.190845,0.686 C93.428845,1.092 93.498845,1.274 93.498845,1.456 C93.498845,1.792 92.938845,2.548 92.644845,2.94 C91.202845,4.9 89.858845,6.286 87.072845,7.868 L87.086845,8.008 C88.416845,7.672 90.278845,6.776 91.902845,5.208 C92.000845,5.306 92.028845,5.348 92.042845,5.46 C92.084845,5.81 92.112845,7.882 92.112845,8.33 C92.112845,9.156 92.000845,9.842 91.902845,10.318 C91.888845,10.374 91.832845,10.598 91.832845,10.766 C91.832845,10.962 91.972845,11.214 92.280845,11.76 C92.448845,12.054 92.462845,12.096 92.574845,12.096 Z M106.587512,10.402 C106.699512,10.402 106.755512,10.318 106.825512,10.234 C107.077512,9.926 107.105512,9.898 107.175512,9.842 C107.259512,9.772 108.729512,9.072 108.995512,8.918 C110.815512,7.84 111.669512,6.818 112.285512,6.062 L112.173512,5.936 C111.095512,6.804 110.017512,7.49 109.653512,7.7 C107.931512,8.736 107.189512,8.75 106.783512,8.75 L106.965512,3.934 C106.979512,3.402 107.091512,3.248 107.175512,3.122 C107.245512,3.038 107.371512,2.856 107.371512,2.8 C107.371512,2.66 106.965512,2.352 106.517512,2.142 C106.111512,1.946 105.859512,1.946 105.439512,1.974 L105.439512,2.156 C105.859512,2.38 106.041512,2.604 106.041512,3.276 C106.041512,3.962 105.999512,7.938 105.817512,8.386 C105.635512,8.806 105.607512,8.848 105.607512,8.96 C105.607512,9.072 105.663512,9.156 105.705512,9.226 L106.237512,10.08 C106.349512,10.262 106.433512,10.402 106.587512,10.402 Z M99.9935115,11.228 C100.987512,10.78 102.471512,9.786 103.213512,8.54 C104.123512,7.014 104.179512,5.852 104.277512,3.864 C104.291512,3.668 104.305512,3.36 104.347512,3.318 C104.515512,3.108 104.571512,3.038 104.571512,2.926 C104.571512,2.73 104.417512,2.618 104.025512,2.422 C103.493512,2.142 103.269512,2.086 102.765512,2.058 L102.695512,2.198 C103.283512,2.604 103.297512,3.332 103.297512,4.214 C103.297512,6.426 102.989512,8.792 99.8955115,11.06 L99.9935115,11.228 Z M115.140178,11.032 C117.590178,10.416 119.368178,9.464 121.146178,7.294 C121.902178,7.784 123.106178,9.198 123.526178,10.178 C123.848178,10.962 123.876178,11.004 124.100178,11.004 C124.380178,11.004 124.604178,10.724 124.604178,10.416 C124.604178,10.192 124.492178,9.156 123.008178,8.05 C122.784178,7.882 121.608178,7.168 121.356178,6.986 C121.986178,6.062 122.476178,5.054 122.616178,4.788 C122.672178,4.648 122.980178,3.976 123.050178,3.822 C123.232178,3.43 123.260178,3.402 123.442178,3.318 C123.736178,3.192 123.876178,3.108 123.876178,2.968 C123.876178,2.814 123.750178,2.66 123.428178,2.296 C123.050178,1.862 123.008178,1.82 122.868178,1.82 C122.770178,1.82 122.742178,1.834 122.546178,1.988 C122.266178,2.198 122.238178,2.226 121.958178,2.268 C121.300178,2.352 117.968178,2.898 117.856178,2.898 C117.534178,2.898 117.100178,2.646 116.918178,2.366 L116.778178,2.408 C116.834178,3.22 117.282178,3.892 117.730178,3.892 C117.856178,3.892 117.940178,3.85 118.234178,3.71 C118.794178,3.444 121.230178,2.996 122.196178,2.884 C121.160178,6.93 117.870178,9.814 115.070178,10.808 L115.140178,11.032 Z M140.352845,9.94 C140.744845,9.94 140.744845,9.604 140.744845,9.478 C140.744845,9.17 140.660845,9.03 140.576845,8.932 C140.296845,8.596 138.154845,7.196 137.692845,6.86 C136.222845,5.768 135.816845,5.32 133.772845,3.038 C133.646845,2.884 133.408845,2.688 133.058845,2.688 C132.946845,2.688 132.820845,2.716 132.694845,2.758 C132.246845,2.94 131.462845,3.808 130.958845,4.368 C130.482845,4.886 129.964845,5.432 129.376845,5.964 C129.194845,6.132 129.096845,6.174 128.984845,6.174 C128.746845,6.174 128.466845,6.048 128.256845,5.922 L128.172845,5.992 C128.452845,6.832 128.550845,7.042 128.760845,7.196 C128.942845,7.35 129.264845,7.574 129.656845,7.574 C129.726845,7.574 129.782845,7.546 129.810845,7.504 C129.894845,7.406 130.090845,6.86 130.146845,6.748 C130.454845,6.174 131.630845,4.634 132.176845,4.004 C132.652845,3.444 132.806845,3.304 133.030845,3.304 C133.198845,3.304 133.394845,3.402 133.534845,3.556 C133.548845,3.57 134.822845,5.124 135.060845,5.418 C138.448845,9.478 140.156845,9.94 140.352845,9.94 Z M154.309511,6.342 C154.309511,4.354 153.133511,3.122 152.601511,2.688 C151.957511,2.17 150.641511,1.638 149.017511,1.638 C145.307511,1.638 142.983511,4.41 142.983511,7.378 C142.983511,8.988 143.641511,9.772 144.103511,10.206 C144.285511,10.36 144.509511,10.472 144.789511,10.472 C145.055511,10.472 145.251511,10.416 145.615511,9.968 C147.225511,8.036 147.645511,6.804 148.667511,3.752 C148.667511,3.71 148.709511,3.626 148.751511,3.556 C148.919511,3.318 148.947511,3.304 148.947511,3.22 C148.947511,3.164 148.919511,3.094 148.877511,3.038 C148.821511,2.94 148.499511,2.422 148.303511,2.114 C148.639511,2.072 148.821511,2.058 149.059511,2.058 C150.179511,2.058 151.691511,2.464 152.475511,3.626 C152.979511,4.396 153.231511,5.46 153.231511,6.258 C153.231511,7.154 152.951511,8.092 152.391511,8.89 C151.369511,10.332 150.053511,10.808 148.317511,11.172 L148.317511,11.326 C151.383511,11.396 154.309511,9.898 154.309511,6.342 Z M144.943511,9.128 C144.523511,9.128 143.865511,8.26 143.865511,6.958 C143.865511,5.628 144.593511,4.326 145.405511,3.5 C146.217511,2.688 146.875511,2.492 147.673511,2.254 C147.869511,2.59 147.939511,2.744 147.939511,2.94 C147.939511,3.402 147.015511,6.678 146.063511,8.12 C145.825511,8.498 145.349511,9.128 144.943511,9.128 Z M166.250178,12.712 C167.188178,12.474 167.216178,11.788 167.216178,11.298 L167.216178,4.48 L168.812178,4.48 C169.190178,4.48 169.358178,4.48 169.358178,4.242 C169.358178,4.172 169.330178,4.102 169.260178,4.032 L168.616178,3.332 C168.504178,3.206 168.392178,3.206 168.350178,3.206 C168.182178,3.206 168.056178,3.346 168.014178,3.444 L167.622178,4.144 L167.216178,4.144 L167.216178,0.714 C167.510178,0.644 167.748178,0.602 167.748178,0.378 C167.748178,0.21 167.552178,0.182 167.454178,0.168 L166.110178,0.028 L166.110178,4.144 L162.750178,4.144 L163.030178,4.48 L166.110178,4.48 L166.110178,10.892 C166.110178,11.382 166.026178,11.578 165.508178,11.578 C165.382178,11.578 163.632178,11.396 163.324178,11.368 L163.324178,11.522 C165.144178,12.04 165.298178,12.082 165.410178,12.796 C165.760178,12.81 166.110178,12.754 166.250178,12.712 Z M163.562178,3.248 C163.562178,3.164 163.506178,3.08 163.408178,2.982 L162.876178,2.478 C162.862178,2.464 162.708178,2.324 162.582178,2.324 C162.428178,2.324 162.372178,2.408 162.302178,2.492 L161.854178,3.08 L160.496178,3.08 L160.496178,0.812 C160.790178,0.7 160.958178,0.63 160.958178,0.462 C160.958178,0.378 160.874178,0.294 160.734178,0.28 L159.418178,0.154 L159.418178,3.08 L156.394178,3.08 L156.646178,3.416 L163.142178,3.416 C163.422178,3.416 163.562178,3.416 163.562178,3.248 Z M156.394178,12.432 C158.186178,11.578 159.488178,10.038 160.370178,8.428 C160.552178,8.82 160.692178,9.128 161.084178,10.318 C161.280178,10.934 161.378178,11.2 161.756178,11.2 C162.036178,11.2 162.218178,10.976 162.218178,10.64 C162.218178,10.192 161.924178,8.988 160.818178,7.518 C161.028178,7.028 161.350178,6.286 161.826178,4.69 C162.218178,4.578 162.400178,4.522 162.400178,4.34 C162.400178,4.228 162.302178,4.2 162.190178,4.158 L160.860178,3.794 C160.636178,5.18 160.384178,5.964 160.132178,6.72 C159.544178,6.118 159.026178,5.586 157.682178,4.592 L157.612178,4.746 C158.564178,5.558 159.418178,6.79 159.838178,7.49 C158.760178,10.108 157.430178,11.522 156.338178,12.292 L156.394178,12.432 Z M164.934178,8.932 C165.368178,8.932 165.368178,8.526 165.368178,8.4 C165.368178,7.462 164.108178,6.188 162.750178,5.698 L162.680178,5.782 C163.156178,6.23 163.618178,6.65 164.164178,7.994 C164.374178,8.526 164.542178,8.932 164.934178,8.932 Z M170.420844,12.628 C171.008844,11.984 171.386844,11.256 171.624844,10.682 C172.422844,8.792 172.520844,7.098 172.520844,5.53 L172.520844,2.408 L182.432844,2.408 C182.530844,2.408 182.810844,2.408 182.810844,2.156 C182.810844,2.086 182.754844,1.974 182.684844,1.918 L182.026844,1.358 C181.872844,1.218 181.788844,1.204 181.732844,1.204 C181.620844,1.204 181.522844,1.26 181.452844,1.372 L181.018844,2.072 L177.574844,2.072 L177.574844,0.686 C177.952844,0.504 178.008844,0.49 178.008844,0.35 C178.008844,0.168 177.798844,0.154 177.644844,0.14 L176.468844,0.028 L176.468844,2.072 L172.842844,2.072 L171.456844,1.54 L171.456844,5.572 C171.456844,7.952 171.456844,10.276 170.322844,12.516 L170.420844,12.628 Z M179.394844,7.812 C179.940844,7.812 179.940844,7.224 179.940844,7.084 C179.940844,6.636 179.758844,6.146 179.142844,5.432 C178.554844,4.746 177.770844,3.906 177.098844,3.612 L177.014844,3.64 C177.420844,4.06 178.302844,4.998 178.722844,6.748 C178.904844,7.518 178.974844,7.812 179.394844,7.812 Z M180.262844,12.446 C180.416844,12.446 181.032844,12.432 181.424844,12.334 C181.816844,12.222 182.110844,11.942 182.110844,11.676 C182.110844,11.494 182.012844,11.41 181.788844,11.242 C181.620844,11.116 181.578844,11.018 181.578844,10.78 C181.578844,10.71 181.620844,9.072 181.620844,8.75 L181.522844,8.75 C181.354844,9.548 181.116844,10.612 180.822844,11.06 C180.626844,11.368 180.024844,11.424 179.688844,11.424 L177.574844,11.424 C176.524844,11.424 176.524844,11.116 176.524844,10.304 L176.524844,5.334 C176.580844,5.306 176.804844,5.194 176.846844,5.166 C176.916844,5.138 176.986844,5.082 176.986844,4.956 C176.986844,4.788 176.748844,4.76 176.650844,4.746 L175.460844,4.634 L175.460844,10.626 C175.460844,12.264 176.314844,12.446 177.630844,12.446 L180.262844,12.446 Z M183.034844,9.352 C183.314844,9.352 183.510844,9.142 183.510844,8.694 C183.510844,8.218 183.272844,7.798 183.104844,7.518 C182.488844,6.538 182.124844,6.258 180.780844,5.208 L180.682844,5.32 C180.822844,5.474 181.060844,5.74 181.382844,6.202 C181.984844,7.084 182.110844,7.504 182.264844,8.078 C182.516844,9.086 182.586844,9.352 183.034844,9.352 Z M172.842844,11.9 C173.458844,11.9 174.396844,10.808 174.396844,8.834 C174.396844,8.442 174.382844,7.434 174.186844,6.706 L174.046844,6.706 C173.976844,7.588 173.864844,9.002 173.080844,10.15 C172.450844,11.074 172.366844,11.186 172.366844,11.438 C172.366844,11.662 172.492844,11.9 172.842844,11.9 Z M187.429511,11.69 C187.569511,11.69 187.765511,11.522 187.765511,11.116 C187.765511,10.878 187.695511,10.584 187.653511,10.36 C187.611511,10.15 187.597511,10.066 187.597511,9.772 C187.597511,9.604 187.611511,9.408 187.695511,9.086 C187.779511,8.722 188.311511,6.944 188.409511,6.524 L188.339511,6.524 C188.171511,6.958 188.017511,7.238 187.331511,8.554 C187.247511,8.708 187.135511,8.904 186.995511,8.904 C186.743511,8.904 186.729511,8.064 186.729511,7.812 C186.729511,7.504 186.743511,6.79 186.967511,6.02 C187.107511,5.516 187.583511,4.102 187.891511,3.57 C188.003511,3.374 188.227511,2.996 188.227511,2.702 C188.227511,2.338 188.157511,2.198 187.933511,1.932 C187.415511,1.316 186.967511,1.106 186.687511,0.966 L186.561511,1.134 C186.883511,1.638 187.051511,2.002 187.051511,2.548 C187.051511,2.842 187.009511,3.15 186.883511,3.724 C186.169511,7.042 186.085511,7.42 186.085511,8.358 C186.085511,10.276 186.981511,11.69 187.429511,11.69 Z M192.455511,3.584 C193.477511,3.584 196.095511,3.024 196.095511,2.604 C196.095511,2.408 195.479511,2.058 195.185511,2.058 C194.975511,2.058 194.695511,2.156 194.541511,2.212 C193.603511,2.576 192.777511,2.884 191.909511,2.884 C191.377511,2.884 190.859511,2.744 190.439511,2.422 L190.369511,2.604 C191.027511,3.472 192.007511,3.584 192.455511,3.584 Z M196.235511,10.36 C196.361511,10.304 196.529511,10.178 196.529511,10.024 C196.529511,9.604 195.451511,9.352 195.227511,9.352 C195.101511,9.352 195.059511,9.366 194.639511,9.492 C194.555511,9.52 193.883511,9.702 193.155511,9.702 C190.817511,9.702 190.677511,8.862 190.649511,8.12 L190.509511,8.12 C190.453511,8.358 190.397511,8.638 190.397511,8.904 C190.397511,10.3656 192.765393,10.4797311 194.111989,10.4857159 L194.247511,10.486 C195.409511,10.486 195.983511,10.458 196.235511,10.36 Z M210.920177,5.768 C210.920177,4.34 209.926177,2.45 207.056177,2.45 C206.202177,2.45 205.250177,2.688 204.900177,2.786 C204.214177,2.968 203.934177,3.052 201.484177,3.99 C200.770177,4.256 200.434177,4.34 200.182177,4.34 C199.720177,4.34 199.188177,3.99 199.020177,3.878 L198.936177,3.976 C199.202177,4.62 200.252177,5.32 200.784177,5.32 C200.952177,5.32 201.148177,5.292 201.582177,5.054 C201.694177,4.984 202.198177,4.62 202.310177,4.536 C203.206177,3.906 205.684177,3.024 207.042177,3.024 C208.708177,3.024 209.730177,4.13 209.730177,5.642 C209.730177,7.308 208.344177,8.694 206.496177,9.548 C205.474177,10.01 204.270177,10.29 203.220177,10.528 L203.262177,10.668 C206.468177,10.766 210.920177,9.128 210.920177,5.768 Z M216.644844,11.102 C216.826844,11.102 217.022844,10.934 217.022844,10.71 C217.022844,10.556 216.756844,9.842 216.756844,9.674 C216.756844,9.394 216.826844,9.198 216.966844,8.89 C217.078844,8.666 217.624844,7.518 217.736844,7.252 L217.610844,7.168 C217.456844,7.392 216.756844,8.274 216.616844,8.442 C216.280844,8.834 216.140844,8.988 215.958844,8.988 C215.650844,8.988 215.314844,8.302 215.314844,6.972 C215.314844,6.272 215.398844,5.418 215.692844,4.592 C215.944844,3.934 215.958844,3.864 215.958844,3.682 C215.958844,3.22 215.300844,2.1 213.914844,2.128 L213.858844,2.212 C214.544844,2.87 214.740844,3.15 214.740844,3.892 C214.740844,4.046 214.586844,6.272 214.586844,6.734 C214.586844,8.89 215.608844,11.102 216.644844,11.102 Z M224.708844,9.044 C224.848844,9.044 225.212844,8.946 225.212844,7.784 C225.212844,5.684 223.714844,3.626 221.586844,2.646 L221.488844,2.744 C222.076844,3.318 222.902844,4.144 223.490844,5.278 C223.616844,5.53 224.022844,6.356 224.022844,7.098 C224.022844,7.35 224.008844,7.56 223.588844,7.602 C223.392844,7.616 222.496844,7.644 222.300844,7.644 L222.286844,7.812 C223.672844,7.994 223.938844,8.218 224.134844,8.484 C224.512844,8.988 224.554844,9.044 224.708844,9.044 Z M237.40551,11.256 C237.40551,11.074 237.19551,10.822 237.09751,10.724 C236.90151,10.472 236.85951,10.43 236.49551,10.374 C235.94951,10.304 235.30551,10.206 234.80151,10.052 C234.21351,9.856 233.13551,9.114 233.13551,7.826 C233.13551,5.88 235.15151,2.38 238.03551,2.38 C238.13351,2.38 238.62351,2.436 238.73551,2.436 C239.04351,2.436 239.07151,2.268 239.07151,2.142 C239.07151,2.002 239.01551,1.946 238.73551,1.736 C238.49751,1.568 238.04951,1.232 237.82551,1.232 C237.69951,1.232 237.62951,1.26 237.47551,1.358 C237.13951,1.526 236.99951,1.554 235.73951,1.82 C233.21951,2.338 233.19151,2.352 230.64351,3.136 C230.62951,3.136 230.11151,3.262 229.56551,3.262 C228.72551,3.262 228.58551,3.15 228.01151,2.632 L227.91351,2.66 C228.03951,3.234 228.16551,3.528 228.75351,3.948 C229.03351,4.144 229.27151,4.298 229.71951,4.298 C229.83151,4.298 230.01351,4.284 230.22351,4.186 C230.44751,4.074 231.52551,3.5 231.77751,3.402 C233.38751,2.786 234.60551,2.604 235.66951,2.436 L235.616115,2.48879137 C235.4816,2.62022837 235.313745,2.77282353 234.53551,3.514 C233.86351,4.144 232.37951,6.202 232.37951,8.12 C232.37951,9.506 233.45751,11.606 236.59351,11.606 C236.80351,11.606 237.40551,11.606 237.40551,11.256 Z M244.292177,13.986 C244.334177,13.986 244.432177,13.986 244.432177,13.846 C244.432177,13.748 244.348177,13.622 244.292177,13.538 C243.340177,12.054 243.172177,11.62 243.074177,11.368 C242.752177,10.57 242.374177,9.226 242.374177,7.658 C242.374177,4.746 243.396177,3.178 244.292177,1.778 C244.306177,1.75 244.432177,1.568 244.432177,1.47 C244.432177,1.33 244.348177,1.33 244.292177,1.33 C244.124177,1.33 243.900177,1.568 243.760177,1.736 C243.186177,2.408 241.492177,4.396 241.492177,7.658 C241.492177,10.206 242.542177,12.194 243.760177,13.58 C243.914177,13.748 244.138177,13.986 244.292177,13.986 Z M250.058843,11.704 C250.184843,11.704 250.296843,11.592 250.296843,11.466 C250.296843,11.326 250.170843,11.242 250.058843,11.242 L249.022843,11.242 C248.616843,11.242 248.504843,10.906 248.504843,10.556 L248.504843,6.93 L251.024843,6.93 C251.864843,6.93 252.424843,6.762 252.802843,6.608 C253.978843,6.118 254.440843,5.068 254.440843,4.144 C254.440843,2.184 252.368843,1.484 250.898843,1.484 L245.900843,1.484 C245.774843,1.484 245.662843,1.596 245.662843,1.722 C245.662843,1.862 245.788843,1.946 245.900843,1.946 L246.698843,1.946 C247.048843,1.946 247.244843,2.156 247.244843,2.52 L247.244843,10.584 C247.244843,10.92 247.118843,11.242 246.698843,11.242 L245.900843,11.242 C245.774843,11.242 245.662843,11.34 245.662843,11.466 C245.662843,11.606 245.788843,11.704 245.900843,11.704 L250.058843,11.704 Z M251.066843,6.468 L248.504843,6.468 L248.504843,1.96 L250.814843,1.96 C252.284843,1.96 253.040843,2.716 253.040843,4.172 C253.040843,5.446 252.424843,6.468 251.066843,6.468 Z M260.51551,11.704 C262.81151,11.704 264.86951,10.178 264.86951,6.65 C264.86951,5.292 264.58951,3.262 262.96551,2.17 C262.30751,1.736 261.29951,1.484 260.55751,1.484 L256.21751,1.484 C256.07751,1.484 255.97951,1.596 255.97951,1.722 C255.97951,1.862 256.09151,1.946 256.20351,1.946 L256.84751,1.946 C257.16951,1.946 257.32351,2.212 257.32351,2.52 L257.32351,10.584 C257.32351,10.92 257.21151,11.242 256.79151,11.242 L256.21751,11.242 C256.09151,11.242 255.97951,11.34 255.97951,11.466 C255.97951,11.606 256.09151,11.704 256.21751,11.704 L260.51551,11.704 Z M260.48751,11.242 L258.58351,11.242 L258.58351,1.946 L260.62751,1.946 C261.38351,1.946 261.85951,2.198 262.15351,2.394 C263.60951,3.388 263.60951,6.062 263.60951,6.412 C263.60951,7.308 263.46951,9.03 262.92351,9.912 C262.60151,10.416 261.97151,11.242 260.48751,11.242 Z M270.720176,11.704 C270.832176,11.704 270.944176,11.62 270.944176,11.48 C270.944176,11.312 270.818176,11.242 270.720176,11.242 L269.684176,11.242 C269.264176,11.242 269.152176,10.892 269.152176,10.556 L269.152176,6.678 L270.202176,6.678 C271.504176,6.678 271.742176,6.958 272.176176,8.064 C272.218176,8.176 272.274176,8.274 272.386176,8.274 C272.498176,8.274 272.568176,8.176 272.568176,8.064 L272.568176,4.9 C272.568176,4.746 272.484176,4.662 272.386176,4.662 C272.274176,4.662 272.218176,4.788 272.190176,4.858 C271.784176,5.894 271.602176,6.216 270.230176,6.216 L269.152176,6.216 L269.152176,1.946 L271.980176,1.946 C273.240176,1.946 273.716176,2.394 274.094176,2.814 C274.234176,2.982 274.724176,3.934 274.836176,4.046 C274.864176,4.074 274.906176,4.088 274.948176,4.088 C275.046176,4.088 275.102176,3.99 275.102176,3.836 L275.102176,1.876 C275.102176,1.624 274.962176,1.484 274.696176,1.484 L266.632176,1.484 C266.506176,1.484 266.394176,1.596 266.394176,1.722 C266.394176,1.862 266.506176,1.946 266.632176,1.946 L267.360176,1.946 C267.710176,1.946 267.906176,2.156 267.906176,2.52 L267.906176,10.584 C267.906176,10.92 267.780176,11.242 267.360176,11.242 L266.632176,11.242 C266.506176,11.242 266.394176,11.34 266.394176,11.466 C266.394176,11.606 266.520176,11.704 266.632176,11.704 L270.720176,11.704 Z M276.402843,12.74 C277.760843,11.228 278.348843,9.226 278.502843,7.21 L279.958843,7.21 L279.958843,11.76 C279.958843,11.886 279.944843,12.012 280.238843,12.012 C280.476843,12.012 280.686843,11.942 280.784843,11.858 C280.863243,11.7908 280.878923,11.70568 280.882059,11.624144 L280.882843,7.672 C281.372843,7.406 281.442843,7.35 281.442843,7.224 C281.442843,7.098 281.176843,6.832 281.064843,6.706 C280.826843,6.482 280.756843,6.412 280.616843,6.412 L280.578328,6.41368229 C280.505008,6.42293491 280.399304,6.48307692 279.972843,6.874 L278.530843,6.874 C278.530843,6.79 278.600843,5.586 278.600843,4.452 L282.338843,4.452 C282.436843,4.452 282.506843,4.396 282.506843,4.326 C282.506843,4.242 282.352843,3.906 282.282843,3.78 C282.142843,3.486 282.086843,3.36 281.904843,3.36 C281.722843,3.36 281.694843,3.402 281.316843,4.116 L280.882843,4.116 L280.882843,0.56 C281.274843,0.406 281.316843,0.392 281.316843,0.266 C281.316843,0.182 281.260843,0.126 281.064843,0.112 L279.958843,0 L279.958843,4.116 L278.600843,4.116 L278.600843,0.84 C278.740843,0.784 278.852843,0.742 278.880843,0.728 C279.006843,0.686 279.062843,0.644 279.062843,0.56 C279.062843,0.42 278.922843,0.406 278.698843,0.378 L277.676843,0.266 L277.676843,3.948 C277.676843,4.256 277.690843,5.74 277.676843,6.076 C277.648843,7.63 277.578843,10.542 276.304843,12.642 L276.402843,12.74 Z M282.338843,12.838 C283.052843,12.572 284.536843,11.942 286.118843,10.164 C286.944843,11.662 287.714843,12.208 288.092843,12.474 C288.232843,12.222 288.442843,11.788 289.352843,11.802 L289.436843,11.704 C288.834843,11.368 287.756843,10.71 286.748843,9.366 C287.826843,7.784 288.190843,6.44 288.470843,4.816 C288.806843,4.662 288.932843,4.606 288.932843,4.396 C288.932843,4.2 288.344843,3.5 288.092843,3.5 C287.896843,3.5 287.574843,3.864 287.350843,4.116 L283.850843,4.116 L283.850843,1.148 L288.890843,1.148 C288.988843,1.148 289.254843,1.148 289.254843,0.952 C289.254843,0.826 289.142843,0.728 288.890843,0.49 C288.498843,0.14 288.386843,0.056 288.218843,0.056 C288.092843,0.056 288.022843,0.14 287.966843,0.224 C287.840843,0.378 287.686843,0.644 287.574843,0.812 L283.864843,0.812 L282.814843,0.322 L282.814047,4.75597508 C282.809375,6.99610651 282.779843,7.89923077 282.618843,8.89 C282.492843,9.66 282.058843,11.466 280.644843,12.614 L280.686843,12.684 C281.582843,12.124 282.282843,11.354 282.814843,10.444 C283.514843,9.254 283.850843,7.882 283.850843,4.452 L284.592843,4.452 C284.634843,6.762 285.404843,8.694 285.796843,9.534 C284.928843,10.892 283.724843,11.998 282.296843,12.74 L282.338843,12.838 Z M286.286843,8.694 C285.390843,7.224 285.012843,5.74 284.802843,4.452 L287.350843,4.452 C287.336843,5.348 287.210843,6.804 286.286843,8.694 Z M290.849509,13.986 C291.003509,13.986 291.227509,13.734 291.381509,13.566 C291.941509,12.894 293.649509,10.92 293.649509,7.658 C293.649509,5.096 292.599509,3.122 291.381509,1.736 C291.227509,1.568 291.003509,1.33 290.849509,1.33 C290.793509,1.33 290.709509,1.33 290.709509,1.47 C290.709509,1.554 290.793509,1.694 290.849509,1.778 C291.801509,3.248 291.969509,3.696 292.067509,3.948 C292.389509,4.746 292.753509,6.09 292.753509,7.658 C292.753509,10.57 291.759509,12.138 290.849509,13.538 C290.821509,13.566 290.709509,13.734 290.709509,13.846 C290.709509,13.986 290.793509,13.986 290.849509,13.986 Z" id="新型コロナウイルスへの対応について(PDF版)"></path>
                <polygon id="Path" points="295.5 14.2040007 295.501692 15.2039993 0.00169204496 15.7039993 0 14.7040007"></polygon>
            </g>
        </g>
    </g>
</svg>