<?xml version="1.0" encoding="UTF-8"?>
<svg width="545px" height="27px" viewBox="0 0 545 27" version="1.1" xmlns="http://www.w3.org/2000/svg" xmlns:xlink="http://www.w3.org/1999/xlink">
    <!-- Generator: Sketch 61 (89581) - https://sketch.com -->
    <title>Group 5</title>
    <desc>Created with Sketch.</desc>
    <g id="Page-1" stroke="none" stroke-width="1" fill="none" fill-rule="evenodd">
        <g id="pc" transform="translate(-209.000000, -2226.000000)" fill="#FF4A4A" fill-rule="nonzero">
            <g id="Group-5" transform="translate(208.999541, 2226.936000)">
                <path d="M11.8084591,3.888 C12.0244591,3.888 12.1444591,3.72 12.1444591,3.528 C12.1444591,3.36 12.0724591,3.216 11.8324591,3 L11.0164591,2.232 C10.9684591,2.184 10.6564591,1.944 10.4644591,1.944 C10.3684591,1.944 10.2244591,1.992 10.0324591,2.256 L9.24045914,3.312 L7.82445914,3.312 L7.82445914,1.224 C8.49645914,0.888 8.59245914,0.864 8.59245914,0.648 C8.59245914,0.504 8.44845914,0.408 8.30445914,0.384 L6.07245914,0.024 L6.07245914,3.312 L2.08845914,3.312 L2.47245914,3.888 L11.8084591,3.888 Z M18.4084591,21.6 C19.0564591,21.6 19.4644591,21.24 19.5844591,20.952 C19.7044591,20.688 19.7284591,20.52 19.7284591,19.848 L19.7284591,8.688 L22.7284591,8.688 C22.8724591,8.688 23.1604591,8.688 23.1604591,8.376 C23.1604591,8.208 23.0404591,8.064 22.9684591,7.968 L22.0564591,6.96 C21.9124591,6.816 21.7204591,6.624 21.5284591,6.624 C21.3844591,6.624 21.2884591,6.696 21.0244591,6.984 L20.0164591,8.112 L15.0004591,8.112 L15.0004591,3.168 C15.7204591,3.096 16.2724591,2.976 21.0964591,2.088 C21.3124591,2.136 21.3604591,2.16 21.4804591,2.184 C21.6964591,2.232 21.9124591,2.328 22.0324591,2.328 C22.2724591,2.328 22.3444591,2.16 22.3444591,2.088 C22.3444591,1.92 22.0324591,1.752 21.6724591,1.464 L20.1124591,0.264 C18.5044591,1.224 16.7524591,1.872 15.5044591,2.304 L13.1764591,1.464 L13.1764591,11.304 C13.1764591,15.216 12.4324591,18.672 9.57645914,21.048 L9.76845914,21.264 C11.2324591,20.52 12.2884591,19.368 12.8884591,18.504 C14.4484591,16.32 15.0004591,14.28 15.0004591,10.872 L15.0004591,8.688 L17.8804591,8.688 L17.8811834,20.6897778 C17.8869777,21.4482963 17.9391258,21.6 18.4084591,21.6 Z M12.6964591,8.424 C12.6964591,8.256 12.5524591,8.064 12.4324591,7.944 L11.4964591,7.008 C11.3044591,6.816 11.1844591,6.744 11.0164591,6.744 C10.8004591,6.744 10.6564591,6.888 10.5124591,7.032 L9.52845914,8.112 L7.96845914,8.112 C8.28045914,7.728 9.84045914,5.856 10.2244591,5.448 C10.7044591,5.4 11.1364591,5.352 11.1364591,5.088 C11.1364591,4.944 11.0884591,4.8 10.9444591,4.752 L8.92845914,3.984 C8.49645914,5.4 8.01645914,6.792 7.39245914,8.112 L1.41645914,8.112 L1.94445914,8.688 L12.3364591,8.688 C12.4324591,8.688 12.6964591,8.688 12.6964591,8.424 Z M5.37645914,7.944 C5.76045914,7.944 6.07245914,7.584 6.07245914,7.128 C6.07245914,5.592 4.22445914,4.728 3.12045914,4.224 L3.00045914,4.416 C3.31245914,4.776 3.88845914,5.544 4.27245914,6.48 C4.72845914,7.584 4.87245914,7.944 5.37645914,7.944 Z M6.62445914,21.504 C7.82445914,21.504 7.82445914,20.52 7.82445914,20.16 L7.82445914,13.776 C8.78445914,14.496 9.52845914,16.488 9.62445914,16.728 C9.81645914,17.304 10.0804591,17.88 10.7044591,17.88 C11.0644591,17.88 11.4004591,17.568 11.4004591,17.016 C11.4004591,15.744 9.60045914,14.136 7.82445914,13.32 L7.82445914,12.648 L11.9284591,12.648 C12.1924591,12.648 12.4324591,12.648 12.4324591,12.336 C12.4324591,12.264 12.4324591,12.168 12.1204591,11.808 L11.3524591,10.92 C11.2804591,10.848 11.0404591,10.56 10.8244591,10.56 C10.6804591,10.56 10.5604591,10.608 10.2724591,10.944 L9.36045914,12.072 L7.82445914,12.072 L7.82445914,10.224 C8.35245914,10.056 8.54445914,9.936 8.54445914,9.72 C8.54445914,9.36 8.06445914,9.24 7.99245914,9.24 L6.07245914,9.072 L6.07245914,12.072 L1.96845914,12.072 L2.54445914,12.648 L5.47245914,12.648 C5.32845914,13.032 5.01645914,13.968 4.89645914,14.232 C4.36845914,15.528 3.21645914,17.88 1.27245914,19.296 L1.44045914,19.512 C3.43245914,18.504 5.04045914,16.896 6.07245914,14.928 L6.07310296,20.614121 C6.07857548,21.4079335 6.1305644,21.504 6.62445914,21.504 Z M27.1284591,14.304 C28.7124591,13.584 30.1044591,11.904 30.4644591,11.424 C31.9764591,9.456 32.1924591,7.656 32.3124591,6.576 L34.9524591,6.576 L34.9524591,12.336 C34.9524591,12.528 34.9524591,12.768 35.4564591,12.768 C35.7444591,12.768 36.2004591,12.672 36.4884591,12.432 C36.6324591,12.288 36.6804591,12.144 36.6804591,11.784 L36.6804591,6.576 L39.7764591,6.576 C40.0644591,6.576 40.3284591,6.504 40.3284591,6.168 C40.3284591,6.048 40.2804591,5.928 40.1124591,5.76 L39.3444591,5.04 C39.2724591,4.968 39.0804591,4.8 38.9124591,4.8 C38.7204591,4.8 38.5524591,4.896 38.3124591,5.232 L37.7604591,6 L36.6804591,6 L36.6804591,1.872 L38.5764591,1.872 C39.0804591,1.872 39.2484591,1.776 39.2484591,1.56 C39.2484591,1.416 39.0804591,1.224 39.0564591,1.224 L38.1924591,0.36 C38.0244591,0.192 37.8324591,0.144 37.7124591,0.144 C37.4244591,0.144 37.3044591,0.264 37.1124591,0.504 L36.4644591,1.296 L28.3524591,1.296 L28.6164591,1.872 L30.7044591,1.872 L30.7044591,6 L26.7684591,6 L27.1044591,6.576 L30.6804591,6.576 C30.5844591,8.976 30.0564591,11.52 27.0324591,14.16 L27.1284591,14.304 Z M47.7204591,11.88 L47.7204591,1.632 C48.5364591,1.272 48.5844591,1.2 48.5844591,1.008 C48.5844591,0.792 48.3444591,0.768 48.1044591,0.744 L46.0164591,0.552 L46.0164591,11.208 C46.0164591,11.856 45.9684591,12.144 45.2004591,12.144 C44.7444591,12.144 42.5364591,11.928 42.0324591,11.904 L42.0324591,12.168 C43.5924591,12.384 44.6724591,12.744 45.0084591,12.888 C45.4164591,13.08 45.6564591,13.512 45.6084591,14.184 C47.7204591,14.28 47.7204591,12.888 47.7204591,11.88 Z M42.0564591,11.184 C42.2724591,11.184 42.7044591,11.136 43.0404591,10.896 C43.2564591,10.752 43.2804591,10.656 43.2804591,10.056 L43.2804591,2.832 C43.7124591,2.64 44.2164591,2.4 44.2164591,2.136 C44.2164591,1.92 44.0244591,1.92 43.6644591,1.872 L41.5764591,1.632 L41.5764591,10.752 C41.5764591,11.16 41.8404591,11.184 42.0564591,11.184 Z M34.9524591,6 L32.3844591,6 C32.3844591,5.784 32.4324591,5.232 32.4324591,4.992 L32.4324591,1.872 L34.9524591,1.872 L34.9524591,6 Z M48.7044591,21.12 C48.8724591,21.12 49.2324591,21.072 49.2324591,20.688 C49.2324591,20.616 49.2324591,20.52 49.0884591,20.376 L48.1044591,19.32 C47.9124591,19.104 47.7444591,18.984 47.5284591,18.984 C47.2404591,18.984 46.9764591,19.296 46.9524591,19.32 L45.9444591,20.544 L38.8644591,20.544 L38.8644591,16.656 L45.8724591,16.656 C46.1604591,16.656 46.4484591,16.656 46.4484591,16.32 C46.4484591,16.104 46.2324591,15.912 46.1844591,15.888 L45.1764591,15 C45.0324591,14.856 44.8164591,14.736 44.6484591,14.736 C44.3604591,14.736 44.2404591,14.856 43.9524591,15.216 L43.3044591,16.08 L38.8644591,16.08 L38.8644591,14.088 C39.6324591,13.752 39.6324591,13.752 39.7764591,13.656 C39.8724591,13.584 39.9204591,13.488 39.9204591,13.392 C39.9204591,13.152 39.7284591,13.128 39.4404591,13.104 L37.0644591,12.864 L37.0644591,16.08 L29.4324591,16.08 L29.8404591,16.656 L37.0644591,16.656 L37.0644591,20.544 L26.7444591,20.544 L27.0804591,21.12 L48.7044591,21.12 Z M58.2164591,17.424 C58.4084591,17.424 59.2964591,17.112 59.4884591,17.064 C61.1684591,16.704 64.5524591,16.416 66.5684591,16.416 C66.9044591,16.416 67.8404591,16.416 68.5604591,16.536 C69.1124591,16.632 69.3044591,16.68 69.8804591,16.68 C70.1684591,16.68 70.3364591,16.488 70.3364591,16.32 C70.3364591,15.888 69.5924591,15.408 69.2324591,15.192 C69.3044591,14.328 70.4564591,8.976 70.7204591,7.8 C70.8164591,7.344 70.8884591,7.2 71.0564591,6.984 C71.1524591,6.84 71.7764591,6.288 71.7764591,6.096 C71.7764591,6.048 71.7764591,6 71.6804591,5.88 C69.9764591,4.272 69.9284591,4.224 69.6404591,4.224 C69.5684591,4.224 69.5204591,4.248 69.4484591,4.296 C69.1844591,4.488 69.0404591,4.584 68.7764591,4.656 C68.2964591,4.776 65.7764591,4.872 65.2244591,4.92 C64.3124591,4.992 59.8964591,5.448 58.8884591,5.448 L58.7264838,5.44747325 C58.4706814,5.44562963 58.0164591,5.43733333 57.7364591,5.4 C57.4484591,5.376 56.0324591,4.68 56.0084591,4.68 L55.8404591,4.824 C56.0804591,5.688 57.2324591,7.32 57.9284591,7.32 C58.0484591,7.32 58.0964591,7.296 58.6244591,7.056 C58.8164591,6.984 59.0564591,6.936 61.1924591,6.552 C63.1844591,6.192 67.0484591,5.976 67.9364591,5.976 C68.3684591,5.976 68.5124591,6 68.8484591,6.048 C68.8484591,6.408 68.1044591,13.656 67.8404591,15.168 C65.8244591,15.216 65.2964591,15.24 63.3284591,15.432 C61.0724591,15.648 59.8244591,15.768 58.6724591,15.768 C57.6404591,15.768 57.5204591,15.696 56.2244591,14.976 L56.0084591,15.072 C56.1044591,15.6 56.3204591,15.984 56.9204591,16.56 C57.2564591,16.872 57.8804591,17.424 58.2164591,17.424 Z M85.3444591,18.096 C85.7524591,18.096 85.7284591,17.064 85.7284591,16.656 C89.0644591,16.248 90.3124591,16.104 94.1044591,16.104 C94.3684591,16.104 95.6164591,16.176 95.9044591,16.176 C96.0964591,16.176 96.4564591,16.176 96.4564591,15.888 C96.4564591,15.432 95.7124591,15.024 95.2084591,14.76 C95.4484591,13.512 96.7684591,7.776 96.8884591,7.488 C97.0084591,7.152 97.2724591,6.864 97.6084591,6.72 C97.8724591,6.6 98.0404591,6.528 98.0404591,6.168 C98.0404591,5.928 97.8004591,5.712 97.7764591,5.688 L96.5044591,4.584 C96.1444591,4.272 96.0244591,4.224 95.8324591,4.224 C95.7124591,4.224 95.6164591,4.272 95.5204591,4.32 C95.4244591,4.392 94.9924591,4.752 94.8964591,4.824 C94.2004591,5.208 88.0324591,5.976 86.5444591,5.976 C85.2724591,5.976 84.9604591,5.88 84.5284591,5.688 C83.8084591,4.992 82.9924591,4.656 82.2244591,4.512 L82.0564591,4.776 C83.0884591,5.592 83.2084591,6.456 83.4244591,8.16 C83.6164591,9.84 83.9044591,13.008 83.9044591,14.712 C83.9044591,14.832 83.7604591,15.408 83.7604591,15.552 C83.7604591,15.84 83.7844591,15.96 84.2884591,16.92 C84.5524591,17.424 84.8884591,18.096 85.3444591,18.096 Z M85.6324591,15.648 C85.5124591,14.712 85.3204591,13.2 85.2484591,10.776 C85.2004591,9.216 85.1524591,7.608 84.6244591,6.12 C85.4404591,6.576 86.1124591,6.912 86.2324591,6.936 C86.3764591,6.984 87.0484591,7.032 87.0964591,7.032 C87.2404591,7.032 87.4804591,6.984 87.5524591,6.984 C89.5444591,6.624 91.1284591,6.432 95.2085124,6.024 L95.2085124,6.26133903 C95.2061453,6.86000756 95.1698504,7.9533913 94.7524591,9.936 C94.4164591,11.568 93.9364591,13.728 93.7924591,14.88 C92.4964591,15.024 86.7844591,15.528 85.6324591,15.648 Z M109.448459,20.856 C112.904459,19.68 115.256459,16.992 116.408459,13.92 C117.200459,11.784 117.248459,9.36 117.272459,8.088 C118.880459,7.968 119.840459,7.944 120.368459,7.944 C120.968459,7.944 122.144459,7.944 123.872459,8.28 C123.920459,8.304 124.400459,8.4 124.616459,8.4 C124.952459,8.4 125.048459,8.136 125.048459,7.92 C125.048459,7.152 122.792459,6.384 122.576459,6.384 C122.408459,6.384 121.712459,6.624 121.544459,6.648 C120.896459,6.768 117.896459,6.936 117.272459,6.984 L117.273249,6.44888889 C117.276015,5.60474074 117.288459,4.16533333 117.344459,3.96 C117.368459,3.792 117.776459,3.168 117.776459,3 C117.776459,2.4 116.168459,1.512 115.040459,1.512 C114.632459,1.512 114.368459,1.56 114.128459,1.608 L114.128459,1.848 C114.248459,1.92 114.776459,2.28 114.872459,2.376 C115.496459,3.072 115.496459,5.808 115.496459,7.152 C112.712459,7.44 111.080459,7.68 109.544459,7.944 C109.096459,8.008 108.876015,8.03407407 108.731422,8.03907819 L108.680459,8.04 C108.368459,8.04 108.176459,8.016 107.600459,7.728 C107.552459,7.704 106.784459,7.32 106.712459,7.32 L106.544459,7.44 C106.856459,8.736 108.224459,9.816 108.656459,9.816 C108.824459,9.816 109.232459,9.624 109.544459,9.48 C110.912459,8.832 113.912459,8.448 115.472459,8.256 C115.472459,11.592 115.064459,17.016 109.304459,20.616 L109.448459,20.856 Z M137.272459,20.424 C138.736459,20.448 141.328459,19.44 143.224459,18.216 C146.368459,16.152 147.712459,12.384 148.768459,9.336 C148.984459,8.736 149.080459,8.496 149.344459,8.304 C149.944459,7.872 149.992459,7.824 149.992459,7.632 C149.992459,7.488 149.680459,7.2 149.008459,6.576 C148.360459,5.976 148.264459,5.928 148.000459,5.928 C147.904459,5.928 147.784459,5.952 147.688459,6.024 C147.616459,6.072 147.400459,6.264 147.280459,6.336 C147.112459,6.432 144.112459,6.504 142.792459,6.552 L142.792459,5.472 C142.792459,4.32 142.816459,4.176 143.176459,3.648 C143.368459,3.36 143.416459,3.264 143.416459,3.192 C143.416459,2.52 141.448459,1.872 140.560459,1.872 C140.320459,1.872 140.176459,1.896 139.984459,1.944 L139.984459,2.136 C141.304459,2.808 141.304459,3.264 141.304459,6.576 C140.800459,6.576 137.056459,6.744 136.480459,6.744 C136.384459,6.744 135.208459,5.976 134.944459,5.88 C134.584459,5.736 134.320459,5.712 134.056459,5.688 L134.008459,5.928 C134.560459,6.48 134.584459,6.504 134.872459,7.368 C134.992459,7.728 135.112459,10.392 135.112459,11.112 C135.112459,11.2613333 135.093496,11.8468148 135.089282,12.076214 L135.088459,12.144 C135.088459,12.456 135.160459,12.552 136.000459,13.488 C136.216459,13.728 136.264459,13.8 136.408459,13.8 C136.864459,13.8 136.864459,12.984 136.864459,12.792 C136.864459,12 136.624459,8.664 136.456459,7.824 C136.600459,7.848 136.672459,7.872 136.912459,7.992 C137.032459,8.04 137.176459,8.064 137.392459,8.064 C137.920459,8.064 143.632459,7.56 144.784459,7.488 C145.624459,7.44 146.608459,7.44 147.256459,7.488 C146.464459,13.224 143.008459,18.336 137.248459,20.232 L137.272459,20.424 Z M168.984459,20.736 C169.080459,20.736 169.440459,20.712 169.536459,20.4 C169.656459,20.088 169.680459,19.44 169.680459,18.408 C169.680459,18.0272 169.617739,14.0504533 169.609376,13.4438613 L169.608459,13.368 C169.608459,13.056 169.728459,9.288 169.752459,9.24 C169.800459,9 169.872459,8.808 169.872459,8.736 C169.872459,8.472 169.200459,8.016 168.912459,7.824 C169.296459,7.464 169.488459,7.272 170.976459,5.352 C171.672459,4.464 171.720459,4.368 172.152459,4.2 C172.536459,4.056 172.728459,3.96 172.728459,3.504 C172.728459,2.88 172.080459,1.656 170.208459,1.056 L170.040459,1.176 C170.448459,1.872 170.568459,2.184 170.568459,2.496 C170.568459,3.072 169.608459,4.368 169.104459,5.04 C166.632459,8.4 164.328459,10.776 159.552459,13.488 L159.576459,13.728 C161.856459,13.152 165.048459,11.616 167.832459,8.928 C168.000459,9.096 168.048459,9.168 168.072459,9.36 C168.144459,9.96 168.192459,13.512 168.192459,14.28 C168.192459,15.696 168.000459,16.872 167.832459,17.688 C167.808459,17.784 167.712459,18.168 167.712459,18.456 C167.712459,18.792 167.952459,19.224 168.480459,20.16 C168.768459,20.664 168.792459,20.736 168.984459,20.736 Z M194.720459,17.832 C194.912459,17.832 195.008459,17.688 195.128459,17.544 C195.560459,17.016 195.608459,16.968 195.728459,16.872 C195.872459,16.752 198.392459,15.552 198.848459,15.288 C201.968459,13.44 203.432459,11.688 204.488459,10.392 L204.296459,10.176 C202.448459,11.664 200.600459,12.84 199.976459,13.2 C197.024459,14.976 195.752459,15 195.056459,15 L195.368459,6.744 C195.392459,5.832 195.584459,5.568 195.728459,5.352 C195.848459,5.208 196.064459,4.896 196.064459,4.8 C196.064459,4.56 195.368459,4.032 194.600459,3.672 C193.904459,3.336 193.472459,3.336 192.752459,3.384 L192.752459,3.696 C193.472459,4.08 193.784459,4.464 193.784459,5.616 C193.784459,6.792 193.712459,13.608 193.400459,14.376 C193.088459,15.096 193.040459,15.168 193.040459,15.36 C193.040459,15.552 193.136459,15.696 193.208459,15.816 L194.120459,17.28 C194.312459,17.592 194.456459,17.832 194.720459,17.832 Z M183.416459,19.248 C185.120459,18.48 187.664459,16.776 188.936459,14.64 C190.496459,12.024 190.592459,10.032 190.760459,6.624 C190.784459,6.288 190.808459,5.76 190.880459,5.688 C191.168459,5.328 191.264459,5.208 191.264459,5.016 C191.264459,4.68 191.000459,4.488 190.328459,4.152 C189.416459,3.672 189.032459,3.576 188.168459,3.528 L188.048459,3.768 C189.056459,4.464 189.080459,5.712 189.080459,7.224 C189.080459,11.016 188.552459,15.072 183.248459,18.96 L183.416459,19.248 Z M211.096459,18.912 C215.296459,17.856 218.344459,16.224 221.392459,12.504 C222.688459,13.344 224.752459,15.768 225.472459,17.448 C226.024459,18.792 226.072459,18.864 226.456459,18.864 C226.936459,18.864 227.320459,18.384 227.320459,17.856 C227.320459,17.472 227.128459,15.696 224.584459,13.8 C224.200459,13.512 222.184459,12.288 221.752459,11.976 C222.832459,10.392 223.672459,8.664 223.912459,8.208 C224.008459,7.968 224.536459,6.816 224.656459,6.552 C224.968459,5.88 225.016459,5.832 225.328459,5.688 C225.832459,5.472 226.072459,5.328 226.072459,5.088 C226.072459,4.824 225.856459,4.56 225.304459,3.936 C224.656459,3.192 224.584459,3.12 224.344459,3.12 C224.176459,3.12 224.128459,3.144 223.792459,3.408 C223.312459,3.768 223.264459,3.816 222.784459,3.888 C221.656459,4.032 215.944459,4.968 215.752459,4.968 C215.200459,4.968 214.456459,4.536 214.144459,4.056 L213.904459,4.128 C214.000459,5.52 214.768459,6.672 215.536459,6.672 C215.752459,6.672 215.896459,6.6 216.400459,6.36 C217.360459,5.904 221.536459,5.136 223.192459,4.944 C221.416459,11.88 215.776459,16.824 210.976459,18.528 L211.096459,18.912 Z M256.032459,17.04 C256.704459,17.04 256.704459,16.464 256.704459,16.248 C256.704459,15.72 256.560459,15.48 256.416459,15.312 C255.936459,14.736 252.264459,12.336 251.472459,11.76 C248.952459,9.888 248.256459,9.12 244.752459,5.208 C244.536459,4.944 244.128459,4.608 243.528459,4.608 C243.336459,4.608 243.120459,4.656 242.904459,4.728 C242.136459,5.04 240.792459,6.528 239.928459,7.488 C239.112459,8.376 238.224459,9.312 237.216459,10.224 C236.904459,10.512 236.736459,10.584 236.544459,10.584 C236.136459,10.584 235.656459,10.368 235.296459,10.152 L235.152459,10.272 C235.632459,11.712 235.800459,12.072 236.160459,12.336 C236.472459,12.6 237.024459,12.984 237.696459,12.984 C237.816459,12.984 237.912459,12.936 237.960459,12.864 C238.104459,12.696 238.440459,11.76 238.536459,11.568 C239.064459,10.584 241.080459,7.944 242.016459,6.864 C242.832459,5.904 243.096459,5.664 243.480459,5.664 C243.768459,5.664 244.104459,5.832 244.344459,6.096 C244.368459,6.12 246.552459,8.784 246.960459,9.288 C252.768459,16.248 255.696459,17.04 256.032459,17.04 Z M281.672459,10.872 C281.672459,7.464 279.656459,5.352 278.744459,4.608 C277.640459,3.72 275.384459,2.808 272.600459,2.808 C266.240459,2.808 262.256459,7.56 262.256459,12.648 C262.256459,15.408 263.384459,16.752 264.176459,17.496 C264.488459,17.76 264.872459,17.952 265.352459,17.952 C265.808459,17.952 266.144459,17.856 266.768459,17.088 C269.528459,13.776 270.248459,11.664 272.000459,6.432 C272.000459,6.36 272.072459,6.216 272.144459,6.096 C272.432459,5.688 272.480459,5.664 272.480459,5.52 C272.480459,5.424 272.432459,5.304 272.360459,5.208 C272.264459,5.04 271.712459,4.152 271.376459,3.624 C271.952459,3.552 272.264459,3.528 272.672459,3.528 C274.592459,3.528 277.184459,4.224 278.528459,6.216 C279.392459,7.536 279.824459,9.36 279.824459,10.728 C279.824459,12.264 279.344459,13.872 278.384459,15.24 C276.632459,17.712 274.376459,18.528 271.400459,19.152 L271.400459,19.416 C276.656459,19.536 281.672459,16.968 281.672459,10.872 Z M265.616459,15.648 C264.896459,15.648 263.768459,14.16 263.768459,11.928 C263.768459,9.648 265.016459,7.416 266.408459,6 C267.800459,4.608 268.928459,4.272 270.296459,3.864 C270.632459,4.44 270.752459,4.704 270.752459,5.04 C270.752459,5.832 269.168459,11.448 267.536459,13.92 C267.128459,14.568 266.312459,15.648 265.616459,15.648 Z M303.856459,21.792 C305.464459,21.384 305.512459,20.208 305.512459,19.368 L305.512459,7.68 L308.248459,7.68 C308.896459,7.68 309.184459,7.68 309.184459,7.272 C309.184459,7.152 309.136459,7.032 309.016459,6.912 L307.912459,5.712 C307.720459,5.496 307.528459,5.496 307.456459,5.496 C307.168459,5.496 306.952459,5.736 306.880459,5.904 L306.208459,7.104 L305.512459,7.104 L305.512459,1.224 C306.016459,1.104 306.424459,1.032 306.424459,0.648 C306.424459,0.36 306.088459,0.312 305.920459,0.288 L303.616459,0.048 L303.616459,7.104 L297.856459,7.104 L298.336459,7.68 L303.616459,7.68 L303.616459,18.672 C303.616459,19.512 303.472459,19.848 302.584459,19.848 C302.368459,19.848 299.368459,19.536 298.840459,19.488 L298.840459,19.752 C301.960459,20.64 302.224459,20.712 302.416459,21.936 C303.016459,21.96 303.616459,21.864 303.856459,21.792 Z M299.248459,5.568 C299.248459,5.424 299.152459,5.28 298.984459,5.112 L298.072459,4.248 C298.048459,4.224 297.784459,3.984 297.568459,3.984 C297.304459,3.984 297.208459,4.128 297.088459,4.272 L296.320459,5.28 L293.992459,5.28 L293.992459,1.392 C294.496459,1.2 294.784459,1.08 294.784459,0.792 C294.784459,0.648 294.640459,0.504 294.400459,0.48 L292.144459,0.264 L292.144459,5.28 L286.960459,5.28 L287.392459,5.856 L298.528459,5.856 C299.008459,5.856 299.248459,5.856 299.248459,5.568 Z M286.960459,21.312 C290.032459,19.848 292.264459,17.208 293.776459,14.448 L293.856549,14.6211267 C294.133465,15.223259 294.386894,15.8253913 295.000459,17.688 C295.336459,18.744 295.504459,19.2 296.152459,19.2 C296.632459,19.2 296.944459,18.816 296.944459,18.24 C296.944459,17.472 296.440459,15.408 294.544459,12.888 C294.904459,12.048 295.456459,10.776 296.272459,8.04 C296.944459,7.848 297.256459,7.752 297.256459,7.44 C297.256459,7.248 297.088459,7.2 296.896459,7.128 L294.616459,6.504 C294.232459,8.88 293.800459,10.224 293.368459,11.52 C292.360459,10.488 291.472459,9.576 289.168459,7.872 L289.048459,8.136 C290.680459,9.528 292.144459,11.64 292.864459,12.84 C291.016459,17.328 288.736459,19.752 286.864459,21.072 L286.960459,21.312 Z M301.600459,15.312 C302.344459,15.312 302.344459,14.616 302.344459,14.4 C302.344459,12.792 300.184459,10.608 297.856459,9.768 L297.736459,9.912 C298.552459,10.68 299.344459,11.4 300.280459,13.704 C300.640459,14.616 300.928459,15.312 301.600459,15.312 Z M312.720459,21.648 C313.728459,20.544 314.376459,19.296 314.784459,18.312 C316.152459,15.072 316.320459,12.168 316.320459,9.48 L316.320459,4.128 L333.312459,4.128 C333.480459,4.128 333.960459,4.128 333.960459,3.696 C333.960459,3.576 333.864459,3.384 333.744459,3.288 L332.616459,2.328 C332.352459,2.088 332.208459,2.064 332.112459,2.064 C331.920459,2.064 331.752459,2.16 331.632459,2.352 L330.888459,3.552 L324.984459,3.552 L324.984459,1.176 C325.632459,0.864 325.728459,0.84 325.728459,0.6 C325.728459,0.288 325.368459,0.264 325.104459,0.24 L323.088459,0.048 L323.088459,3.552 L316.872459,3.552 L314.496459,2.64 L314.496459,9.552 C314.496459,13.632 314.496459,17.616 312.552459,21.456 L312.720459,21.648 Z M328.104459,13.392 C329.040459,13.392 329.040459,12.384 329.040459,12.144 C329.040459,11.376 328.728459,10.536 327.672459,9.312 C326.664459,8.136 325.320459,6.696 324.168459,6.192 L324.024459,6.24 C324.720459,6.96 326.232459,8.568 326.952459,11.568 C327.264459,12.888 327.384459,13.392 328.104459,13.392 Z M331.584459,21.144 C332.256459,20.952 332.760459,20.472 332.760459,20.016 C332.760459,19.704 332.592459,19.56 332.208459,19.272 C331.920459,19.056 331.848459,18.888 331.848459,18.48 C331.848459,18.36 331.920459,15.552 331.920459,15 L331.752459,15 C331.464459,16.368 331.056459,18.192 330.552459,18.96 C330.216459,19.488 329.184459,19.584 328.608459,19.584 L324.984459,19.584 C323.313031,19.584 323.193643,19.1287347 323.185115,17.9491837 L323.184459,9.144 C323.280459,9.096 323.664459,8.904 323.736459,8.856 C323.856459,8.808 323.976459,8.712 323.976459,8.496 C323.976459,8.208 323.568459,8.16 323.400459,8.136 L321.360459,7.944 L321.360459,18.216 C321.360459,20.9437714 322.741997,21.3161339 324.889043,21.335185 L329.592459,21.336 C329.856459,21.336 330.912459,21.312 331.584459,21.144 Z M334.344459,16.032 C334.824459,16.032 335.160459,15.672 335.160459,14.904 C335.160459,14.088 334.752459,13.368 334.464459,12.888 C333.408459,11.208 332.784459,10.728 330.480459,8.928 L330.312459,9.12 C330.552459,9.384 330.960459,9.84 331.512459,10.632 C332.544459,12.144 332.760459,12.864 333.024459,13.848 C333.456459,15.576 333.576459,16.032 334.344459,16.032 Z M316.872459,20.4 C317.928459,20.4 319.536459,18.528 319.536459,15.144 C319.536459,14.472 319.512459,12.744 319.176459,11.496 L318.936459,11.496 C318.816459,13.008 318.624459,15.432 317.280459,17.4 C316.200459,18.984 316.056459,19.176 316.056459,19.608 C316.056459,19.992 316.272459,20.4 316.872459,20.4 Z M343.592459,20.04 C343.832459,20.04 344.168459,19.752 344.168459,19.056 C344.168459,18.648 344.048459,18.144 343.976459,17.76 C343.904459,17.4 343.880459,17.256 343.880459,16.752 C343.880459,16.464 343.904459,16.128 344.048459,15.576 C344.192459,14.952 345.104459,11.904 345.272459,11.184 L345.152459,11.184 C344.864459,11.928 344.600459,12.408 343.424459,14.664 C343.280459,14.928 343.088459,15.264 342.848459,15.264 C342.441871,15.264 342.396694,13.9884291 342.392786,13.4782007 L342.392459,13.392 C342.392459,12.864 342.416459,11.64 342.800459,10.32 C343.040459,9.456 343.856459,7.032 344.384459,6.12 C344.576459,5.784 344.960459,5.136 344.960459,4.632 C344.960459,4.008 344.840459,3.768 344.456459,3.312 C343.568459,2.256 342.800459,1.896 342.320459,1.656 L342.104459,1.944 C342.656459,2.808 342.944459,3.432 342.944459,4.368 C342.944459,4.872 342.872459,5.4 342.656459,6.384 C341.432459,12.072 341.288459,12.72 341.288459,14.328 C341.288459,17.616 342.824459,20.04 343.592459,20.04 Z M352.208459,6.144 C353.960459,6.144 358.448459,5.184 358.448459,4.464 C358.448459,4.128 357.392459,3.528 356.888459,3.528 C356.528459,3.528 356.048459,3.696 355.784459,3.792 C354.176459,4.416 352.760459,4.944 351.272459,4.944 C350.360459,4.944 349.472459,4.704 348.752459,4.152 L348.632459,4.464 C349.760459,5.952 351.440459,6.144 352.208459,6.144 Z M358.688459,17.76 C358.904459,17.664 359.192459,17.448 359.192459,17.184 C359.192459,16.464 357.344459,16.032 356.960459,16.032 C356.744459,16.032 356.672459,16.056 355.952459,16.272 C355.808459,16.32 354.656459,16.632 353.408459,16.632 C349.400459,16.632 349.160459,15.192 349.112459,13.92 L348.872459,13.92 C348.776459,14.328 348.680459,14.808 348.680459,15.264 C348.680459,17.7381818 352.638525,17.9599835 354.960485,17.9750353 L355.280459,17.976 C357.272459,17.976 358.256459,17.928 358.688459,17.76 Z M385.576459,9.888 C385.576459,7.44 383.872459,4.2 378.952459,4.2 C377.488459,4.2 375.856459,4.608 375.256459,4.776 C374.080459,5.088 373.600459,5.232 369.400459,6.84 C368.176459,7.296 367.600459,7.44 367.168459,7.44 C366.376459,7.44 365.464459,6.84 365.176459,6.648 L365.032459,6.816 C365.488459,7.92 367.288459,9.12 368.200459,9.12 C368.488459,9.12 368.824459,9.072 369.568459,8.664 C369.760459,8.544 370.624459,7.92 370.816459,7.776 C372.352459,6.696 376.600459,5.184 378.928459,5.184 C381.784459,5.184 383.536459,7.08 383.536459,9.672 C383.536459,12.528 381.160459,14.904 377.992459,16.368 C376.240459,17.16 374.176459,17.64 372.376459,18.048 L372.448459,18.288 C377.944459,18.456 385.576459,15.648 385.576459,9.888 Z M397.104459,19.032 C397.416459,19.032 397.752459,18.744 397.752459,18.36 C397.752459,18.096 397.296459,16.872 397.296459,16.584 C397.296459,16.104 397.416459,15.768 397.656459,15.24 C397.848459,14.856 398.784459,12.888 398.976459,12.432 L398.760459,12.288 C398.496459,12.672 397.296459,14.184 397.056459,14.472 C396.480459,15.144 396.240459,15.408 395.928459,15.408 C395.400459,15.408 394.824459,14.232 394.824459,11.952 C394.824459,10.752 394.968459,9.288 395.472459,7.872 C395.904459,6.744 395.928459,6.624 395.928459,6.312 C395.928459,5.52 394.800459,3.6 392.424459,3.648 L392.328459,3.792 C393.504459,4.92 393.840459,5.4 393.840459,6.672 C393.840459,6.936 393.576459,10.752 393.576459,11.544 C393.576459,15.24 395.328459,19.032 397.104459,19.032 Z M411.792459,13.344 C411.792459,9.744 409.224459,6.216 405.576459,4.536 L405.408459,4.704 C406.416459,5.688 407.832459,7.104 408.840459,9.048 C409.056459,9.48 409.752459,10.896 409.752459,12.168 C409.752459,12.6 409.728459,12.96 409.008459,13.032 C408.672459,13.056 407.136459,13.104 406.800459,13.104 L406.776459,13.392 C409.152459,13.704 409.608459,14.088 409.944459,14.544 C410.592459,15.408 410.664459,15.504 410.928459,15.504 C411.168459,15.504 411.792459,15.336 411.792459,13.344 Z M434.408459,19.296 C434.408459,18.984 434.048459,18.552 433.880459,18.384 C433.544459,17.952 433.472459,17.88 432.848459,17.784 C431.912459,17.664 430.808459,17.496 429.944459,17.232 C428.936459,16.896 427.088459,15.624 427.088459,13.416 C427.088459,10.08 430.544459,4.08 435.488459,4.08 C435.656459,4.08 436.496459,4.176 436.688459,4.176 C437.216459,4.176 437.264459,3.888 437.264459,3.672 C437.264459,3.432 437.168459,3.336 436.688459,2.976 C436.280459,2.688 435.512459,2.112 435.128459,2.112 C434.912459,2.112 434.792459,2.16 434.528459,2.328 C433.952459,2.616 433.712459,2.664 431.552459,3.12 C427.232459,4.008 427.184459,4.032 422.816459,5.376 C422.792459,5.376 421.904459,5.592 420.968459,5.592 C419.528459,5.592 419.288459,5.4 418.304459,4.512 L418.136459,4.56 C418.352459,5.544 418.568459,6.048 419.576459,6.768 C420.056459,7.104 420.464459,7.368 421.232459,7.368 C421.424459,7.368 421.736459,7.344 422.096459,7.176 C422.480459,6.984 424.328459,6 424.760459,5.832 C427.520459,4.776 429.608459,4.464 431.432459,4.176 C431.168459,4.44 431.000459,4.584 429.488459,6.024 C428.336459,7.104 425.792459,10.632 425.792459,13.92 C425.792459,16.296 427.640459,19.896 433.016459,19.896 C433.376459,19.896 434.408459,19.896 434.408459,19.296 Z M448.168459,23.736 C448.168459,23.568 448.024459,23.352 447.928459,23.208 C446.296459,20.664 446.008459,19.92 445.840459,19.488 C445.288459,18.12 444.640459,15.816 444.640459,13.128 C444.640459,8.136 446.392459,5.448 447.928459,3.048 C447.952459,3 448.168459,2.688 448.168459,2.52 C448.168459,2.28 448.024459,2.28 447.928459,2.28 C447.640459,2.28 447.256459,2.688 447.016459,2.976 C446.032459,4.128 443.128459,7.536 443.128459,13.128 C443.128459,17.496 444.928459,20.904 447.016459,23.28 C447.280459,23.568 447.664459,23.976 447.928459,23.976 C448.000459,23.976 448.168459,23.976 448.168459,23.736 Z M459.528459,20.064 C459.744459,20.064 459.936459,19.872 459.936459,19.656 C459.936459,19.416 459.720459,19.272 459.528459,19.272 L457.752459,19.272 C457.056459,19.272 456.864459,18.696 456.864459,18.096 L456.864459,11.88 L461.184459,11.88 C462.624459,11.88 463.584459,11.592 464.232459,11.328 C466.248459,10.488 467.040459,8.688 467.040459,7.104 C467.040459,3.744 463.488459,2.544 460.968459,2.544 L452.400459,2.544 C452.184459,2.544 451.992459,2.736 451.992459,2.952 C451.992459,3.192 452.208459,3.336 452.400459,3.336 L453.768459,3.336 C454.368459,3.336 454.704459,3.696 454.704459,4.32 L454.704459,18.144 C454.704459,18.72 454.488459,19.272 453.768459,19.272 L452.400459,19.272 C452.184459,19.272 451.992459,19.44 451.992459,19.656 C451.992459,19.896 452.208459,20.064 452.400459,20.064 L459.528459,20.064 Z M461.256459,11.088 L456.864459,11.088 L456.864459,3.36 L460.824459,3.36 C463.344459,3.36 464.640459,4.656 464.640459,7.152 C464.640459,9.336 463.584459,11.088 461.256459,11.088 Z M479.168459,20.064 C483.104459,20.064 486.632459,17.448 486.632459,11.4 C486.632459,9.072 486.152459,5.592 483.368459,3.72 C482.240459,2.976 480.512459,2.544 479.240459,2.544 L471.800459,2.544 C471.560459,2.544 471.392459,2.736 471.392459,2.952 C471.392459,3.192 471.584459,3.336 471.776459,3.336 L472.880459,3.336 C473.432459,3.336 473.696459,3.792 473.696459,4.32 L473.696459,18.144 C473.696459,18.72 473.504459,19.272 472.784459,19.272 L471.800459,19.272 C471.584459,19.272 471.392459,19.44 471.392459,19.656 C471.392459,19.896 471.584459,20.064 471.800459,20.064 L479.168459,20.064 Z M479.120459,19.272 L475.856459,19.272 L475.856459,3.336 L479.360459,3.336 C480.656459,3.336 481.472459,3.768 481.976459,4.104 C484.472459,5.808 484.472459,10.392 484.472459,10.992 C484.472459,12.528 484.232459,15.48 483.296459,16.992 C482.744459,17.856 481.664459,19.272 479.120459,19.272 Z M498.376459,20.064 C498.568459,20.064 498.760459,19.92 498.760459,19.68 C498.760459,19.392 498.544459,19.272 498.376459,19.272 L496.600459,19.272 C495.880459,19.272 495.688459,18.672 495.688459,18.096 L495.688459,11.448 L497.488459,11.448 C499.720459,11.448 500.128459,11.928 500.872459,13.824 C500.944459,14.016 501.040459,14.184 501.232459,14.184 C501.424459,14.184 501.544459,14.016 501.544459,13.824 L501.544459,8.4 C501.544459,8.136 501.400459,7.992 501.232459,7.992 C501.040459,7.992 500.944459,8.208 500.896459,8.328 C500.200459,10.104 499.888459,10.656 497.536459,10.656 L495.688459,10.656 L495.688459,3.336 L500.536459,3.336 C502.696459,3.336 503.512459,4.104 504.160459,4.824 C504.400459,5.112 505.240459,6.744 505.432459,6.936 C505.480459,6.984 505.552459,7.008 505.624459,7.008 C505.792459,7.008 505.888459,6.84 505.888459,6.576 L505.888459,3.216 C505.888459,2.784 505.648459,2.544 505.192459,2.544 L491.368459,2.544 C491.152459,2.544 490.960459,2.736 490.960459,2.952 C490.960459,3.192 491.152459,3.336 491.368459,3.336 L492.616459,3.336 C493.216459,3.336 493.552459,3.696 493.552459,4.32 L493.552459,18.144 C493.552459,18.72 493.336459,19.272 492.616459,19.272 L491.368459,19.272 C491.152459,19.272 490.960459,19.44 490.960459,19.656 C490.960459,19.896 491.176459,20.064 491.368459,20.064 L498.376459,20.064 Z M509.832459,21.84 C512.160459,19.248 513.168459,15.816 513.432459,12.36 L515.928459,12.36 L515.928459,20.16 C515.928459,20.376 515.904459,20.592 516.408459,20.592 C516.816459,20.592 517.176459,20.472 517.344459,20.328 C517.484459,20.208 517.507792,20.0546667 517.511681,19.9096667 L517.512459,13.152 C518.352459,12.696 518.472459,12.6 518.472459,12.384 C518.472459,12.168 518.016459,11.712 517.824459,11.496 C517.416459,11.112 517.296459,10.992 517.056459,10.992 C516.912459,10.992 516.816459,10.992 515.952459,11.784 L513.480459,11.784 C513.480459,11.64 513.600459,9.576 513.600459,7.632 L520.008459,7.632 C520.176459,7.632 520.296459,7.536 520.296459,7.416 C520.296459,7.272 520.032459,6.696 519.912459,6.48 C519.672459,5.976 519.576459,5.76 519.264459,5.76 C518.952459,5.76 518.904459,5.832 518.256459,7.056 L517.512459,7.056 L517.512459,0.96 C518.184459,0.696 518.256459,0.672 518.256459,0.456 C518.256459,0.312 518.160459,0.216 517.824459,0.192 L515.928459,0 L515.928459,7.056 L513.600459,7.056 L513.600459,1.44 C513.840459,1.344 514.032459,1.272 514.080459,1.248 C514.296459,1.176 514.392459,1.104 514.392459,0.96 C514.392459,0.72 514.152459,0.696 513.768459,0.648 L512.016459,0.456 L512.016459,6.768 C512.016459,7.296 512.040459,9.84 512.016459,10.416 C511.968459,13.08 511.848459,18.072 509.664459,21.672 L509.832459,21.84 Z M520.008459,22.008 C521.232459,21.552 523.776459,20.472 526.488459,17.424 C527.904459,19.992 529.224459,20.928 529.872459,21.384 C530.112459,20.952 530.472459,20.208 532.032459,20.232 L532.176459,20.064 C531.144459,19.488 529.296459,18.36 527.568459,16.056 C529.416459,13.344 530.040459,11.04 530.520459,8.256 C531.096459,7.992 531.312459,7.896 531.312459,7.536 C531.312459,7.2 530.304459,6 529.872459,6 C529.536459,6 528.984459,6.624 528.600459,7.056 L522.600459,7.056 L522.600459,1.968 L531.240459,1.968 C531.408459,1.968 531.864459,1.968 531.864459,1.632 C531.864459,1.416 531.672459,1.248 531.240459,0.84 C530.568459,0.24 530.376459,0.096 530.088459,0.096 C529.872459,0.096 529.752459,0.24 529.656459,0.384 C529.440459,0.648 529.176459,1.104 528.984459,1.392 L522.624459,1.392 L520.824459,0.552 L520.823806,7.72654167 C520.818459,11.8813333 520.774459,13.48 520.488459,15.24 C520.272459,16.56 519.528459,19.656 517.104459,21.624 L517.176459,21.744 C518.712459,20.784 519.912459,19.464 520.824459,17.904 C522.024459,15.864 522.600459,13.512 522.600459,7.632 L523.872459,7.632 C523.944459,11.592 525.264459,14.904 525.936459,16.344 C524.448459,18.672 522.384459,20.568 519.936459,21.84 L520.008459,22.008 Z M526.776459,14.904 C525.240459,12.384 524.592459,9.84 524.232459,7.632 L528.600459,7.632 C528.576459,9.168 528.360459,11.664 526.776459,14.904 Z M536.312459,23.976 C536.576459,23.976 536.960459,23.544 537.224459,23.256 C538.184459,22.104 541.112459,18.72 541.112459,13.128 C541.112459,8.736 539.312459,5.352 537.224459,2.976 C536.960459,2.688 536.576459,2.28 536.312459,2.28 C536.216459,2.28 536.072459,2.28 536.072459,2.52 C536.072459,2.664 536.216459,2.904 536.312459,3.048 C537.944459,5.568 538.232459,6.336 538.400459,6.768 C538.952459,8.136 539.576459,10.44 539.576459,13.128 C539.576459,18.12 537.872459,20.808 536.312459,23.208 C536.264459,23.256 536.072459,23.544 536.072459,23.736 C536.072459,23.976 536.216459,23.976 536.312459,23.976 Z" id="新型コロナウイルスへの対応について(PDF版)"></path>
                <polygon id="Path" points="0.000918273258 24.5640002 544.500918 25.0640002 544.5 26.0639998 0 25.5639998"></polygon>
            </g>
        </g>
    </g>
</svg>