<?xml version="1.0" encoding="UTF-8"?>
<svg width="319px" height="23px" viewBox="0 0 319 23" version="1.1" xmlns="http://www.w3.org/2000/svg" xmlns:xlink="http://www.w3.org/1999/xlink">
    <!-- Generator: Sketch 59.1 (86144) - https://sketch.com -->
    <title>bunka</title>
    <desc>Created with Sketch.</desc>
    <g id="Page-1" stroke="none" stroke-width="1" fill="none" fill-rule="evenodd">
        <g id="pc" transform="translate(-1183.000000, -2635.000000)">
            <g id="研究室紹介" transform="translate(209.000000, 2380.000000)">
                <g id="研究室" transform="translate(974.000000, 0.000000)">
                    <g id="bunka" transform="translate(0.000000, 255.000000)">
                        <rect id="透明--copy-18" fill="#FFFFFF" opacity="0.01" x="0" y="0" width="319" height="22"></rect>
                        <path d="M79.232,2.856 C79.232,0.984 77.288,0.576 75.56,0.192 L75.44,0.312 C76.448,0.96 77.576,2.04 78.152,2.76 L78.4463431,3.12337778 C78.6456533,3.36 78.6832,3.36 78.824,3.36 C79.016,3.36 79.232,3.216 79.232,2.856 Z M77.552,4.776 C77.552,3.96 77.408,3.576 76.976,3.168 C76.4,2.616 75.656,2.28 74.264,2.04 L74.192,2.208 L74.5482969,2.49698438 C75.294125,3.118125 75.491,3.42 76.184,4.512 C76.4,4.848 76.928,5.4 77.24,5.4 C77.552,5.4 77.552,4.92 77.552,4.776 Z M73.832,4.2 C73.832,3.84 72.344,2.928 71.528,2.928 C71.216,2.928 69.704,3.456 69.368,3.528 L69.2177849,3.55410489 C68.2974933,3.68512 64.4656,3.936 64.376,3.936 C64.136,3.936 63.56,3.888 63.032,3.768 C62.888,3.72 62.192,3.312 62.024,3.216 L61.832,3.24 C61.8995,3.5775 61.9880937,3.89390625 62.691043,4.60450195 L62.84,4.752 C63.224,5.136 63.464,5.304 63.8,5.304 C63.9963636,5.304 64.8869421,5.08581818 65.2275582,5.02811721 L65.312,5.016 C67.4422069,4.70648276 69.489541,4.6317717 70.5424019,4.613738 L71.216,4.608 C71.436,4.608 72.4828333,4.64833333 72.8776111,4.65505556 L73.102365,4.65433955 C73.3852308,4.6452071 73.832,4.58584615 73.832,4.2 Z M76.784,8.904 C76.784,8.064 74.528,7.368 74.048,7.368 C73.928,7.368 73.352,7.68 73.208,7.728 C72.584,7.872 68.912,8.112 68.096,8.184 L64.6039292,8.50277549 C63.1133841,8.6416609 61.5595294,8.78964706 60.416,8.904 C60.128,8.904 59.864,8.88 59.576,8.808 L59.3943374,8.74571193 C59.1152593,8.64385185 58.6506667,8.46133333 58.52,8.424 L58.328,8.52 C58.664,9.216 59.552,10.032 59.6,10.08 L59.7501235,10.1925926 C59.952,10.3377778 60.2506667,10.512 60.68,10.512 L60.826112,10.504512 C60.904832,10.495232 60.986752,10.4758187 61.1083164,10.438272 L61.952,10.152 C62.792,9.84 65.24,9.504 65.912,9.504 C66.344,9.504 67.136,9.672 67.136,10.68 L67.1321007,10.8613544 C67.0999118,11.6648033 66.8246857,14.1236571 64.784,17.064 C63.56,18.816 61.976,19.68 60.8,20.256 L60.8,20.4 C63.08,20.28 67.184,18.312 68.672,12.648 L69.026375,11.18325 C69.068,11.0205 69.104,10.89 69.128,10.824 C69.176,10.656 69.704,10.032 69.704,9.864 C69.704,9.696 69.608,9.648 69.344,9.528 L68.72,9.216 L70.0996413,9.07983088 C70.6337682,9.03234174 70.9791352,9.01234466 71.3372562,9.00453477 L71.84,9 C72.464,9 73.496,9 74.408,9.12 L75.314,9.27 C75.704,9.33 76.1,9.384 76.256,9.384 C76.568,9.384 76.784,9.216 76.784,8.904 Z M102.944,3.6 L102.93814,3.49634844 C102.911147,3.18037333 102.7808,2.3248 102.344,1.992 C102.056,1.776 100.904,1.272 99.68,0.984 L99.536,1.152 L100.736,2.16 C101.072,2.433 101.389625,2.7795 101.576328,3.0065625 L101.956971,3.47204883 C102.330594,3.920625 102.422,3.984 102.656,3.984 C102.848,3.984 102.944,3.84 102.944,3.6 Z M101,5.088 C101,4.5048 100.88336,4.05768 100.5626,3.74664 L100.448,3.648 C100.04,3.312 99.368,2.832 97.664,2.328 L97.568,2.472 L97.7242027,2.61268797 C98.0991166,2.95573214 98.5592445,3.42133116 99.3592705,4.41161816 L100.037934,5.25298765 C100.368444,5.64940741 100.466667,5.712 100.64,5.712 C100.952,5.712 101,5.304 101,5.088 Z M101.528,9.24 C101.528,8.592 99.896,7.608 99.248,7.608 C99.176,7.608 99.032,7.68 99.008,7.704 L98.751872,7.818048 C98.64416,7.8624 98.552,7.8912 98.408,7.92 L98.1903573,7.93681067 C97.5744,7.96842667 96.1184,7.9712 95.744,7.992 L95.801,6.369 C95.814125,5.935875 95.8260781,5.50157812 95.8331973,5.17524023 L95.84,4.728 C95.84,4.51466667 95.8779259,4.43407407 96.0717695,4.14910288 L96.152,4.032 C96.344,3.768 96.416,3.624 96.416,3.48 C96.416,3.144 95.072,2.088 93.08,2.16 L93.08,2.352 L93.2818857,2.54153933 C93.8690094,3.10767974 93.9759396,3.38936371 94.045164,4.50334618 L94.1822222,7.25333333 C94.1973333,7.592 94.208,7.872 94.208,7.992 L93.071936,8.021952 C91.73792,8.06496 90.9968,8.1264 89.288,8.28 L89.282912,8.036592 C89.27384,7.1916 89.3192,5.4096 89.384,5.28 C89.408,5.184 89.768,4.728 89.768,4.608 C89.768,4.368 88.76,3.408 86.696,3.36 L86.576,3.576 C87.68,4.392 87.848,5.352 87.848,8.472 L86.9877969,8.61121875 C86.536625,8.680125 86.096,8.742 85.496,8.832 C85.232,8.88 84.848,8.928 84.56,8.928 C83.84,8.928 83.12,8.808 82.304,8.016 L82.208,8.136 C82.664,10.056 83.84,10.584 84.08,10.584 C84.206,10.584 84.332,10.557 84.447875,10.513125 L84.7959609,10.3615716 C85.2647467,10.16448 85.5088,10.1104 86.528,9.84 L87.686912,9.651072 C87.7328,9.64224 87.776,9.6336 87.824,9.624 L87.8271668,9.95380628 C87.8262313,11.037551 87.728,12.4365714 87.728,12.48 L87.6794844,12.7529531 C87.6455,12.956625 87.608,13.206 87.608,13.296 C87.608,13.808 87.8545185,14.2441481 88.1621399,14.7224362 L88.28,14.904 C88.328,14.976 88.4,15.096 88.592,15.096 C88.808,15.096 89.072,14.856 89.168,14.592 L89.1841192,14.5341574 C89.2421224,14.2969252 89.36,13.5348571 89.36,11.928 L89.354168,11.020584 C89.3456,10.338 89.3288,9.7248 89.312,9.288 L90.0637812,9.215625 C91.674875,9.066 92.381,9.045 94.208,9.024 C94.04,12.168 93.728,13.992 92.816,15.96 C91.784,18.192 90.152,20.136 87.92,21.168 L87.968,21.384 C90.2,20.904 92.456,19.176 93.872,17.184 C95,15.6 95.576,13.8 95.696,9.024 C96.6816,9.024 98.41984,9.14944 99.2326116,9.24421689 L99.392,9.264 C99.656,9.288 100.832,9.6 101.024,9.6 L101.111742,9.59783621 C101.270942,9.58809917 101.528,9.53454545 101.528,9.24 Z M120.728,3.576 C120.728,2.952 120.08,1.728 118.208,1.128 L118.04,1.248 C118.448,1.944 118.568,2.256 118.568,2.568 C118.568,3.036 117.93425,3.9793125 117.42626,4.67704687 L117.104,5.112 C114.632,8.472 112.328,10.848 107.552,13.56 L107.576,13.8 C109.856,13.224 113.048,11.688 115.832,9 C116,9.168 116.048,9.24 116.072,9.432 L116.090222,9.65171431 C116.151985,10.6286881 116.192,13.6507826 116.192,14.352 C116.192,15.768 116,16.944 115.832,17.76 L115.783484,17.96925 C115.7495,18.1305 115.712,18.348 115.712,18.528 C115.712,18.792 115.860163,19.1152653 116.179773,19.6956997 L116.48,20.232 C116.768,20.736 116.792,20.808 116.984,20.808 L117.081317,20.8015473 C117.226963,20.7831111 117.461333,20.7146667 117.536,20.472 C117.628308,20.232 117.663811,19.7931834 117.675281,19.1337023 L117.679083,18.3458987 L117.679083,18.3458987 L117.608,13.44 C117.608,13.1395556 117.719276,9.63437037 117.748949,9.3322774 L117.752,9.312 C117.8,9.072 117.872,8.88 117.872,8.808 C117.872,8.544 117.2,8.088 116.912,7.896 L117.14705,7.66905831 C117.33207,7.4815277 117.548805,7.23442566 117.983254,6.69075219 L119.392625,4.893 C119.692719,4.517625 119.808477,4.4145 120.075248,4.30286719 L120.152,4.272 C120.536,4.128 120.728,4.032 120.728,3.576 Z M137.984,6.384 C137.984,5.496 137.552,4.68 136.952,4.2 C135.717714,3.24 134.026286,2.84598639 133.474086,2.81063816 L133.4,2.808 C133.304,2.808 133.064,2.832 133.064,3 C133.064,3.072 133.136,3.144 133.208,3.192 C133.208,3.21428571 134.077143,3.77461224 134.335816,3.98905539 L134.384,4.032 C135.400471,4.87905882 135.800332,5.67006228 136.012243,6.17419418 L136.282748,6.82179492 C136.556281,7.44815625 136.811,7.8735 137.24,7.776 C137.912,7.608 137.984,6.768 137.984,6.384 Z M148.4,5.256 L148.136,5.112 L147.968,5.328 L145.76,8.208 L145.49952,8.53824331 C144.208276,10.1209798 141.348138,12.9533793 138.488,14.808 L137.389849,15.5140806 C135.848,16.4889988 135.272,16.752 134.696,16.752 C134.312,16.752 133.688,16.464 133.376,16.272 L133.250048,16.188288 C133.20512,16.16064 133.1792,16.152 133.136,16.152 C133.112,16.152 132.992,16.176 132.992,16.296 C132.992,16.608 133.928,17.928 134.048,18.072 C134.312,18.336 135.44,19.224 135.8,19.224 C135.92,19.224 136.023333,19.1573333 136.123889,19.024 L136.384626,18.6436543 C136.524708,18.4431605 136.611292,18.3340247 136.751374,18.1927901 L136.952,18 C137.096,17.856 138.32,16.968 140.696,15.24 C143.456,13.2 147.464,8.256 148.4,5.256 Z M174.896,20.04 L174.896,19.848 C168.896,18.336 166.784,16.632 165.32,15.288 C167.888,12.24 169.088,8.28 169.544,6.672 L169.865481,6.57563786 C170.624,6.33807407 170.624,6.248 170.624,6.12 C170.624,5.952 170.421875,5.839125 170.274875,5.781375 L168.92,5.28 L174.44,5.28 C174.752,5.28 174.872,5.184 174.872,4.968 C174.872,4.776 174.632,4.56 174.488,4.392 L173.336,3.384 C172.928,3.024 172.88,3 172.712,3 C172.424,3 172.232,3.264 172.064,3.48 L171.128,4.704 L164.984,4.704 L164.984,1.344 L165.2432,1.212096 C165.5504,1.04928 165.704,0.9264 165.704,0.696 C165.704,0.528 165.536,0.408 165.32,0.384 L163.016,0.192 L163.016,4.704 L152.912,4.704 L153.44,5.28 L158.864,5.28 L158.939805,5.81687153 C159.05243,6.59047934 159.173818,7.25454545 159.488,8.256 C160.088,10.176 161.24,12.984 163.184,15.432 C161.432,17.424 157.904,19.92 153.104,21.48 L153.128,21.768 C156.584,21.072 159.032,20.064 160.976,18.936 C162.656,17.952 163.76,16.968 164.192,16.536 C166.016,18.432 168.776,20.304 172.304,21.504 L172.429052,21.2909115 C172.740083,20.7876749 173.309913,20.1234783 174.896,20.04 Z M167.816,5.28 C167.288,7.752 166.232,11.16 164.192,14.16 C161.696,11.448 160.304,8.664 159.176,5.28 L167.816,5.28 Z M198.32,20.16 C198.32,19.992 198.272,19.824 198.152,19.704 L197.942667,19.4831111 C197.642667,19.162 197.576,19.052 197.576,18.792 C197.576,18.528 197.72,17.064 197.744,16.752 L197.834,15.51 C197.858,15.138 197.876,14.796 197.888,14.448 L197.648,14.448 L197.19332,16.23108 C196.86992,17.45664 196.6112,18.3 196.376,18.72 C195.9728,19.392 195.715947,19.4786133 195.254208,19.4871751 L191.528,19.488 C190.127652,19.488 190.000892,18.9390397 189.992517,18.3662116 L189.992,11.424 C191.168,10.728 192.248,9.888 193.304,8.952 L193.819448,8.485176 C195.31352,7.1112 196.3352,5.988 196.832,5.448 L197.3465,5.374875 C197.738,5.313 197.792,5.268 197.792,5.088 C197.792,4.944 197.648,4.776 197.504,4.704 L195.32,3.6 C193.4,7.056 191.168,9.408 189.992,10.536 L189.992,1.152 L190.484288,0.954282667 C190.81728,0.81184 190.856,0.752 190.856,0.576 C190.856,0.528 190.808,0.312 190.592,0.288 L188.072,0 L188.072,18.24 C188.072,21.048 189.632,21.144 191.312,21.144 L195.176,21.144 C196.408,21.144 197.033707,21.1021867 197.423865,20.9990471 L197.504,20.976 C197.72,20.928 198.32,20.616 198.32,20.16 Z M186.056,1.392 C186.056,1.224 185.94575,1.147875 185.693094,1.035 L183.44,0.048 C183.032,1.944 180.992,7.08 177.224,11.376 L177.368,11.616 C178.952,10.728 180.248,9.288 181.04,8.304 L181.041422,21.308672 C181.050667,21.77376 181.12,21.936 181.64,21.936 C182.36,21.936 182.696,21.552 182.792,21.36 L182.822333,21.291 C182.864,21.176 182.864,21.036 182.864,20.496 L182.864,7.224 L183.23825,7.142625 C183.5555,7.065 183.704,6.984 183.704,6.768 C183.704,6.552 183.56,6.456 183.392,6.408 L182.504,6.216 L183.204389,5.10767223 C184.215894,3.47904726 184.778783,2.4386087 185.096,1.824 C185.192,1.776 185.744,1.704 185.864,1.656 C185.936,1.632 186.056,1.512 186.056,1.392 Z M211.088,14.376 C211.088,14.256 210.968,14.064 210.872,13.968 L209.85725,12.928875 C209.7695,12.8445 209.594,12.696 209.432,12.696 C209.24,12.696 209.096,12.888 209,13.032 L208.4,13.8 L204.728,13.8 L202.472,12.792 L202.47365,21.0268587 C202.484373,21.3297067 202.5648,21.528 203.168,21.528 C203.648,21.528 204.296,21.312 204.296,20.64 L204.296,19.824 L208.688,19.824 L208.689749,20.6176793 C208.700245,20.9451429 208.773714,21.192 209.288,21.192 C209.552,21.192 209.888,21.096 210.128,20.952 C210.512,20.688 210.512,20.448 210.512,20.136 L210.512,14.904 L210.738,14.7582222 C211.054667,14.5493333 211.088,14.496 211.088,14.376 Z M208.688,19.248 L204.296,19.248 L204.296,14.376 L208.688,14.376 L208.688,19.248 Z M223.208,7.968 C223.208,7.752 223.04,7.536 222.944,7.44 L222.008,6.504 C221.888,6.384 221.648,6.168 221.432,6.168 C221.192,6.168 221,6.384 220.952,6.48 L219.992,7.752 L217.976,7.752 L217.976,1.344 L218.423119,1.03201092 C218.572734,0.920236686 218.6,0.871384615 218.6,0.768 C218.6,0.504 218.336,0.432 218.144,0.432 L216.032,0.24 L216.032,7.752 L211.28,7.752 L211.592,8.328 L216.032,8.328 L216.033679,21.2114519 C216.043755,21.5691429 216.114286,21.816 216.608,21.816 C216.872,21.816 217.328,21.72 217.664,21.48 C217.976,21.264 217.976,20.976 217.976,20.52 L217.976,8.328 L222.635778,8.32633333 C222.924667,8.318 223.208,8.268 223.208,7.968 Z M210.632,2.208 C210.632,1.992 210.464,1.8 210.368,1.704 L209.432,0.768 C209.336,0.672 209.168,0.576 209,0.576 C208.784,0.576 208.616,0.768 208.592,0.792 L207.728,1.92 L202.472,1.92 L202.832,2.496 L210.008,2.496 C210.344,2.496 210.632,2.472 210.632,2.208 Z M211.64,5.112 C211.64,4.932 211.54,4.78533333 211.465,4.69977778 L210.536,3.744 C210.488,3.696 210.248,3.456 210.032,3.456 C209.744,3.456 209.576,3.696 209.48,3.816 L208.688,4.944 L201.296,4.944 L201.68,5.52 L211.098333,5.51811111 C211.306667,5.50866667 211.64,5.452 211.64,5.112 Z M210.512,8.088 C210.512,7.896 210.344,7.68 210.224,7.56 L209.384,6.72 C209.288,6.624 209.12,6.456 208.952,6.456 C208.76,6.456 208.568,6.72 208.52,6.768 L207.68,7.896 L202.472,7.896 L202.856,8.472 L209.864,8.472 C210.296,8.472 210.512,8.304 210.512,8.088 Z M210.68,11.112 C210.68,10.872 210.512,10.656 210.344,10.488 L209.528,9.672 C209.384,9.552 209.216,9.432 209.024,9.432 C208.808,9.432 208.64,9.648 208.616,9.696 L207.776,10.896 L202.472,10.896 L202.88,11.472 L209.936,11.472 C210.2,11.472 210.68,11.448 210.68,11.112 Z M247.112,1.92 C247.112,1.752 246.92,1.56 246.896,1.536 L245.744,0.432 C245.576,0.264 245.36,0.168 245.192,0.168 C245.048,0.168 244.856,0.24 244.664,0.456 L243.656,1.656 L225.008,1.656 L225.368,2.232 L235.088,2.232 L235.088,5.952 L232.136,5.952 L230.024,4.752 L230.025923,16.834345 C230.036497,17.0669822 230.105231,17.256 230.552,17.256 C231.752,17.256 231.752,16.656 231.752,16.296 L231.752,15.84 L240.296,15.84 L240.296,16.68 C240.296,17.064 240.32,17.256 240.8,17.256 C242.048,17.256 242.048,16.584 242.048,16.104 L242.048,7.344 L242.544875,7.087125 C242.9195,6.888 242.96,6.834 242.96,6.672 C242.96,6.528 242.84,6.36 242.744,6.288 L241.904,5.424 C241.784,5.304 241.616,5.16 241.424,5.16 L241.36625,5.163375 C241.300625,5.1718125 241.192812,5.20134375 241.054531,5.30470313 L240.296,5.952 L236.792,5.952 L236.792,2.232 L246.603727,2.23012472 C246.854942,2.22168595 247.112,2.17527273 247.112,1.92 Z M240.296,10.368 L236.792,10.368 L236.792,6.528 L240.296,6.528 L240.296,10.368 Z M240.296,15.264 L236.792,15.264 L236.792,10.944 L240.296,10.944 L240.296,15.264 Z M235.088,10.368 L231.752,10.368 L231.752,6.528 L235.088,6.528 L235.088,10.368 Z M235.088,15.264 L231.752,15.264 L231.752,10.944 L235.088,10.944 L235.088,15.264 Z M246.68,6.624 C246.68,6.384 246.344,6.312 245.984,6.264 L244.088,5.952 L244.088,19.416 L227.888,19.416 L227.888,7.152 C228.176,7.08 228.92,6.816 228.92,6.528 C228.92,6.336 228.536,6.264 228.416,6.264 L226.04,5.952 L226.041469,21.1381224 C226.050286,21.5613061 226.112,21.72 226.544,21.72 C226.842667,21.72 227.255111,21.5682963 227.427358,21.4840165 L227.48,21.456 C227.850909,21.2814545 227.904463,21.1267438 227.911134,20.7754891 L227.912,19.992 L244.088,19.992 L244.089889,21.198 C244.099333,21.498 244.156,21.648 244.496,21.648 C244.736,21.648 245.264,21.552 245.648,21.312 C245.984,21.096 245.984,20.952 245.984,20.544 L245.984,7.152 L246.178305,7.06186008 C246.418667,6.94548148 246.68,6.792 246.68,6.624 Z M271.232,9.072 C271.232,8.88 271.136,8.76 270.992,8.592 L270.118834,7.62766181 C269.989388,7.48946939 269.891429,7.416 269.72,7.416 C269.421333,7.416 269.27437,7.58666667 269.093695,7.8774321 L268.544,8.808 L267.704,8.808 L267.704,2.112 L270.296,2.112 C270.488,2.112 270.704,2.112 270.704,1.848 C270.704,1.704 270.584,1.56 270.44,1.44 L269.504,0.552 C269.36,0.408 269.072,0.192 268.808,0.192 C268.664,0.192 268.4,0.264 268.184,0.648 L267.704,1.536 L258.944,1.536 L259.232,2.112 L261.2,2.112 L261.2,8.808 L258.344,8.808 L258.632,9.384 L261.2,9.384 L261.198308,11.8057609 C261.17317,14.8608435 260.819429,18.5005714 257.048,21.792 L257.12,21.912 C260.672,20.352 262.016,16.944 262.328,15.984 C262.808,14.496 263,12.912 263,11.328 L263,9.384 L265.904,9.384 L265.905573,21.3119782 C265.914225,21.6305325 265.970462,21.768 266.336,21.768 C267.585043,21.768 267.693656,21.4878941 267.703101,20.8911469 L267.704,9.384 L270.8,9.384 C271.04,9.384 271.232,9.36 271.232,9.072 Z M265.904,8.808 L263,8.808 L263,2.112 L265.904,2.112 L265.904,8.808 Z M258.152,1.8 C258.152,1.656 258.08,1.56 257.96,1.464 L257.24,0.72 C256.928,0.384 256.832,0.336 256.616,0.336 C256.4,0.336 256.208,0.432 256.016,0.792 L255.632,1.536 L249.44,1.536 L249.8,2.112 L252.464,2.112 L252.406333,2.74211111 C252.311333,3.73266667 252.208,4.476 251.888,5.736 L251.724117,6.30992356 C251.28288,7.78570667 250.272,10.688 248.504,13.392 L248.768,13.512 L249.157157,13.0731841 C249.755174,12.3838017 250.417455,11.5483636 251.144,10.488 L251.145749,19.917691 C251.156245,20.2653061 251.229714,20.424 251.744,20.424 C252.224,20.424 252.848,20.16 252.848,19.656 L252.848,16.584 L255.632,16.584 L255.632393,17.9352863 C255.63768,18.1573491 255.689231,18.312 256.136,18.312 C257.408,18.312 257.408,17.832 257.408,17.496 L257.408,9.264 L257.60339,9.11978362 C257.84,8.9385124 257.84,8.89745455 257.84,8.76 L257.835522,8.69072886 C257.824327,8.62530612 257.785143,8.53714286 257.648,8.4 L256.88,7.536 C256.784,7.44 256.52,7.224 256.352,7.224 C256.208,7.224 256.04,7.272 255.848,7.56 L255.368,8.256 L253.016,8.256 L252.656,7.944 C253.64,6.072 254.096,4.272 254.48,2.112 L257.792,2.112 C258.008,2.112 258.152,2.04 258.152,1.8 Z M255.632,16.008 L252.848,16.008 L252.848,8.832 L255.632,8.832 L255.632,16.008 Z M294.992,3.864 L294.987087,3.79871468 C294.956632,3.61901385 294.763368,3.45852632 293.84,2.664 L293.416292,2.28799289 C293.11936,2.03072 293.0384,1.992 292.88,1.992 C292.568,1.992 292.064,2.784 291.824,3.144 L285.008,3.144 L285.008,0.984 L285.447111,0.674666667 C285.632,0.536 285.632,0.504 285.632,0.408 C285.632,0.216 285.536,0.168 285.248,0.144 L283.04,0.024 L283.04,3.144 L275.84,3.144 C275.792,2.544 275.672,2.184 275.576,1.824 L275.384,1.824 C275.48,3.216 274.736,4.344 274.064,4.92 L273.518156,5.39433745 C273.018074,5.84325926 272.96,5.976 272.96,6.312 C272.96,6.72 273.32,7.128 273.848,7.128 C274.832,7.128 275.768,5.904 275.864,3.72 L285.008,3.72 L285.008,7.248 C285.008,9.38981818 286.426997,9.51962534 288.310009,9.52749245 L290.528,9.528 L291.04609,9.52382799 C293.196776,9.48710204 294.128,9.20057143 294.128,8.376 C294.128,8.136 294.056,8.016 293.864,7.848 C293.576,7.536 293.48,7.344 293.48,6.552 C293.48,6.288 293.648,4.968 293.648,4.656 L293.456,4.656 L293.381831,4.97408746 C293.207184,5.68359184 292.866286,6.78857143 292.208,7.488 C291.728,8.016 291.392,8.016 290.36,8.016 L288.656,8.016 L288.291458,8.01023611 C287.102771,7.96896528 286.809865,7.69647569 286.785693,6.88728299 L286.784,3.72 L292.064,3.72 C291.488,4.92 290.624,6.144 290.36,6.528 L290.504,6.648 C291.752,6.024 293.12,4.944 293.648,4.464 L294.082913,4.37237318 C294.591959,4.25865306 294.992,4.128 294.992,3.864 Z M282.704,4.992 C282.704,4.848 282.545306,4.73926531 282.424397,4.68090962 L280.256,3.744 C279.344,7.344 277.064,9.768 273.176,11.184 L273.176,11.376 C278,10.584 280.4,7.968 281.312,6.336 L281.650799,5.70878134 C281.745959,5.53665306 281.785143,5.472 281.84,5.376 L282.326157,5.27468222 C282.630531,5.20261224 282.704,5.14628571 282.704,4.992 Z M294.752,19.944 C294.752,19.7306667 294.695111,19.5931852 294.446486,19.3798519 L294.261248,19.226136 C294.050432,19.041624 293.919488,18.840216 293.892992,17.872344 L293.888,17.472 C293.888,16.944 293.936,14.616 293.936,14.136 L293.648,14.136 L293.560682,14.7367917 C292.888292,19.1671667 292.136,19.608 290.48,19.608 L290.233284,19.60507 C289.601185,19.5863704 289.184,19.456 289.184,18.624 L289.192531,18.2352656 C289.23125,17.20725 289.394,15.396 289.52,14.136 L289.75232,13.974912 C290.05952,13.7568 290.336,13.5264 290.336,13.296 C290.336,13.056 289.976,12.72 289.4,12.168 L289.102764,11.9056356 C288.803551,11.6548163 288.716,11.64 288.584,11.64 C288.3464,11.64 288.26432,11.71776 288.005336,12.013248 L287.542947,12.5509465 C287.481185,12.6254815 287.437333,12.68 287.384,12.744 L283.712,12.744 C283.88,11.592 283.904,10.368 283.928,9.84 L284.279,9.671088 C284.53184,9.54072 284.72,9.408 284.72,9.24 C284.72,8.952 284.384,8.88 284.168,8.856 L282.008,8.64 L282.041,9.324 C282.0464,9.4752 282.05072,9.64368 282.053312,9.844992 L282.05504,10.56672 C282.0512,11.04672 282.032,11.9568 281.936,12.744 L275.576,12.744 L275.984,13.32 L281.864,13.32 C280.784,19.032 275.72,20.976 273.08,21.84 L273.176,22.08 C276.224,21.528 279.152,20.304 281.312,18.096 C282.992,16.368 283.424,14.4 283.616,13.32 L287.744,13.32 L287.424596,17.3580693 C287.366585,18.174585 287.36,18.432 287.36,18.696 C287.36,21 288.776,21.216 290.576,21.216 L291.281558,21.210447 C293.266568,21.1756766 294.752,20.9553103 294.752,19.944 Z M319.04,3.864 C319.04,3.72 318.968,3.552 318.848,3.456 L317,1.92 C316.928,1.848 316.712,1.728 316.568,1.728 C316.376,1.728 316.208,1.968 316.184,1.992 L315.656,2.784 L309.08,2.784 L309.08,1.128 L309.44675,0.894 C309.7505,0.6915 309.872,0.57 309.872,0.408 C309.872,0.216 309.701333,0.194666667 309.427424,0.175440329 L307.208,0.024 L307.208,2.784 L299.768,2.784 C299.744,2.4 299.672,1.8 299.504,1.464 L299.216,1.464 L299.173037,1.89096296 C299.055259,2.89096296 298.837481,3.4242963 298.019704,4.36596296 L297.396724,5.06841115 C297.016138,5.50513495 296.96,5.61741176 296.96,5.856 C296.96,6.408 297.344,6.744 297.776,6.744 C298.904,6.744 299.84,5.232 299.792,3.36 L315.896,3.36 L315.696691,3.81721811 C315.438815,4.39288889 315.098667,5.096 314.744,5.712 L314.984,5.952 L315.866083,5.35943056 C316.361333,5.021 316.926,4.622 317.36,4.272 L318.071637,4.26819303 C318.815623,4.2539169 319.04,4.18610526 319.04,3.864 Z M316.688,12.168 C316.688,10.656 313.784,8.76 311.6,8.016 L311.48,8.256 C312.704,9.048 313.112,9.576 313.592,10.152 L312.882959,10.2041029 C310.357989,10.3719924 307.440696,10.392 306.104,10.392 L306.502429,9.91738214 C307.947238,8.1757824 308.46656,7.30848 308.864,6.624 L314.432,6.624 C314.6,6.624 314.912,6.624 314.912,6.336 C314.912,6.216 314.812,6.07933333 314.737,6.00933333 L313.448,4.944 C313.328,4.848 313.16,4.776 313.016,4.776 C312.848,4.776 312.68,4.944 312.656,5.016 L312.032,6.048 L300.896,6.048 L301.28,6.624 L306.56,6.624 C306.248,7.848 305.48,9.6 305.096,10.392 L301.137403,10.4132318 C300.227614,10.4110634 299.659636,10.3934545 298.856,10.344 L299.792,12.816 C299.84,12.936 299.984,13.296 300.2,13.296 C300.464,13.296 300.56,12.984 300.704,12.36 L306.032,11.76 L306.032,11.76 C308.48,11.472 311.336,11.04 314,10.656 C314.312,11.064 314.72,11.784 314.816,11.976 L314.996945,12.2967464 C315.333224,12.8811429 315.536,13.128 315.968,13.128 C316.4,13.128 316.688,12.648 316.688,12.168 Z M317.984,20.592 C317.984,20.904 317.6,20.904 317.48,20.904 L298.16,20.904 L297.752,20.328 L307.16,20.328 L307.16,16.392 L299.768,16.392 L299.36,15.816 L307.16,15.816 L307.16,12 L309.44,12.24 C309.608,12.264 309.8,12.336 309.8,12.504 C309.8,12.72 309.56,12.864 309.08,13.08 L309.08,15.816 L313.352,15.816 L314.216,14.568 L314.269333,14.5075556 C314.322667,14.4506667 314.408,14.376 314.504,14.376 C314.624,14.376 314.768,14.472 314.84,14.52 L316.232,15.768 C316.328,15.84 316.376,15.984 316.376,16.104 C316.376,16.392 316.088,16.392 315.92,16.392 L309.08,16.392 L309.08,20.328 L314.96,20.328 L315.704,19.152 C315.776,19.008 315.92,18.912 316.088,18.912 C316.2224,18.912 316.34144,18.97344 316.432832,19.047168 L317.792,20.232 C317.888,20.328 317.984,20.496 317.984,20.592 Z" id="デザイン文化計画研究室" fill="#3F3E46" fill-rule="nonzero"></path>
                    </g>
                </g>
            </g>
        </g>
    </g>
</svg>