<?xml version="1.0" encoding="UTF-8"?>
<svg width="319px" height="23px" viewBox="0 0 319 23" version="1.1" xmlns="http://www.w3.org/2000/svg" xmlns:xlink="http://www.w3.org/1999/xlink">
    <!-- Generator: Sketch 59.1 (86144) - https://sketch.com -->
    <title>bunka_p</title>
    <desc>Created with Sketch.</desc>
    <g id="Page-1" stroke="none" stroke-width="1" fill="none" fill-rule="evenodd">
        <g id="pc" transform="translate(-1183.000000, -2596.000000)">
            <g id="研究室紹介" transform="translate(209.000000, 2380.000000)">
                <g id="研究室" transform="translate(974.000000, 0.000000)">
                    <g id="bunka_p" transform="translate(0.000000, 216.864000)">
                        <rect id="赤--copy-9" fill="#D36C6C" x="0" y="0.136" width="8" height="22"></rect>
                        <rect id="透明--copy-17" fill="#FFFFFF" opacity="0.01" x="0" y="0.136" width="319" height="22"></rect>
                        <path d="M47.232,2.856 C47.232,0.984 45.288,0.576 43.56,0.192 L43.44,0.312 C44.448,0.96 45.576,2.04 46.152,2.76 L46.4463431,3.12337778 C46.6456533,3.36 46.6832,3.36 46.824,3.36 C47.016,3.36 47.232,3.216 47.232,2.856 Z M45.552,4.776 C45.552,3.96 45.408,3.576 44.976,3.168 C44.4,2.616 43.656,2.28 42.264,2.04 L42.192,2.208 L42.5482969,2.49698437 C43.294125,3.118125 43.491,3.42 44.184,4.512 C44.4,4.848 44.928,5.4 45.24,5.4 C45.552,5.4 45.552,4.92 45.552,4.776 Z M41.832,4.2 C41.832,3.84 40.344,2.928 39.528,2.928 C39.216,2.928 37.704,3.456 37.368,3.528 L37.2177849,3.55410489 C36.2974933,3.68512 32.4656,3.936 32.376,3.936 C32.136,3.936 31.56,3.888 31.032,3.768 C30.888,3.72 30.192,3.312 30.024,3.216 L29.832,3.24 C29.8995,3.5775 29.9880937,3.89390625 30.691043,4.60450195 L30.84,4.752 C31.224,5.136 31.464,5.304 31.8,5.304 C31.9963636,5.304 32.8869421,5.08581818 33.2275582,5.02811721 L33.312,5.016 C35.4422069,4.70648276 37.489541,4.6317717 38.5424019,4.613738 L39.216,4.608 C39.436,4.608 40.4828333,4.64833333 40.8776111,4.65505556 L41.102365,4.65433955 C41.3852308,4.6452071 41.832,4.58584615 41.832,4.2 Z M44.784,8.904 C44.784,8.064 42.528,7.368 42.048,7.368 C41.928,7.368 41.352,7.68 41.208,7.728 C40.584,7.872 36.912,8.112 36.096,8.184 L32.6039292,8.50277549 C31.1133841,8.6416609 29.5595294,8.78964706 28.416,8.904 C28.128,8.904 27.864,8.88 27.576,8.808 L27.3943374,8.74571193 C27.1152593,8.64385185 26.6506667,8.46133333 26.52,8.424 L26.328,8.52 C26.664,9.216 27.552,10.032 27.6,10.08 L27.7501235,10.1925926 C27.952,10.3377778 28.2506667,10.512 28.68,10.512 L28.826112,10.504512 C28.904832,10.495232 28.986752,10.4758187 29.1083164,10.438272 L29.952,10.152 C30.792,9.84 33.24,9.504 33.912,9.504 C34.344,9.504 35.136,9.672 35.136,10.68 L35.1321007,10.8613544 C35.0999118,11.6648033 34.8246857,14.1236571 32.784,17.064 C31.56,18.816 29.976,19.68 28.8,20.256 L28.8,20.4 C31.08,20.28 35.184,18.312 36.672,12.648 L37.026375,11.18325 C37.068,11.0205 37.104,10.89 37.128,10.824 C37.176,10.656 37.704,10.032 37.704,9.864 C37.704,9.696 37.608,9.648 37.344,9.528 L36.72,9.216 L38.0996413,9.07983088 C38.6337682,9.03234174 38.9791352,9.01234466 39.3372562,9.00453477 L39.84,9 C40.464,9 41.496,9 42.408,9.12 L43.314,9.27 C43.704,9.33 44.1,9.384 44.256,9.384 C44.568,9.384 44.784,9.216 44.784,8.904 Z M70.944,3.6 L70.9381404,3.49634844 C70.9111467,3.18037333 70.7808,2.3248 70.344,1.992 C70.056,1.776 68.904,1.272 67.68,0.984 L67.536,1.152 L68.736,2.16 C69.072,2.433 69.389625,2.7795 69.5763281,3.0065625 L69.9569707,3.47204883 C70.3305937,3.920625 70.422,3.984 70.656,3.984 C70.848,3.984 70.944,3.84 70.944,3.6 Z M69,5.088 C69,4.5048 68.88336,4.05768 68.5626,3.74664 L68.448,3.648 C68.04,3.312 67.368,2.832 65.664,2.328 L65.568,2.472 L65.7242027,2.61268797 C66.0991166,2.95573214 66.5592445,3.42133116 67.3592705,4.41161816 L68.0379342,5.25298765 C68.3684444,5.64940741 68.4666667,5.712 68.64,5.712 C68.952,5.712 69,5.304 69,5.088 Z M69.528,9.24 C69.528,8.592 67.896,7.608 67.248,7.608 C67.176,7.608 67.032,7.68 67.008,7.704 L66.751872,7.818048 C66.64416,7.8624 66.552,7.8912 66.408,7.92 L66.1903573,7.93681067 C65.5744,7.96842667 64.1184,7.9712 63.744,7.992 L63.7930137,6.62786133 C63.8172187,5.8569375 63.84,5.0115 63.84,4.728 C63.84,4.51466667 63.8779259,4.43407407 64.0717695,4.14910288 L64.152,4.032 C64.344,3.768 64.416,3.624 64.416,3.48 C64.416,3.144 63.072,2.088 61.08,2.16 L61.08,2.352 L61.2818857,2.54153933 C61.8690094,3.10767974 61.9759396,3.38936371 62.045164,4.50334618 L62.1822222,7.25333333 C62.1973333,7.592 62.208,7.872 62.208,7.992 L61.071936,8.021952 C59.73792,8.06496 58.9968,8.1264 57.288,8.28 L57.282912,8.036592 C57.27384,7.1916 57.3192,5.4096 57.384,5.28 C57.408,5.184 57.768,4.728 57.768,4.608 C57.768,4.368 56.76,3.408 54.696,3.36 L54.576,3.576 C55.68,4.392 55.848,5.352 55.848,8.472 L54.9877969,8.61121875 C54.536625,8.680125 54.096,8.742 53.496,8.832 C53.232,8.88 52.848,8.928 52.56,8.928 C51.84,8.928 51.12,8.808 50.304,8.016 L50.208,8.136 C50.664,10.056 51.84,10.584 52.08,10.584 C52.206,10.584 52.332,10.557 52.447875,10.513125 L52.7959609,10.3615716 C53.2647467,10.16448 53.5088,10.1104 54.528,9.84 L55.686912,9.651072 C55.7328,9.64224 55.776,9.6336 55.824,9.624 L55.8271668,9.95380628 C55.8262313,11.037551 55.728,12.4365714 55.728,12.48 L55.6794844,12.7529531 C55.6455,12.956625 55.608,13.206 55.608,13.296 C55.608,13.808 55.8545185,14.2441481 56.1621399,14.7224362 L56.28,14.904 C56.328,14.976 56.4,15.096 56.592,15.096 C56.808,15.096 57.072,14.856 57.168,14.592 L57.1841192,14.5341574 C57.2421224,14.2969252 57.36,13.5348571 57.36,11.928 L57.354168,11.020584 C57.3456,10.338 57.3288,9.7248 57.312,9.288 L58.0637812,9.215625 C59.674875,9.066 60.381,9.045 62.208,9.024 C62.04,12.168 61.728,13.992 60.816,15.96 C59.784,18.192 58.152,20.136 55.92,21.168 L55.968,21.384 C58.2,20.904 60.456,19.176 61.872,17.184 C63,15.6 63.576,13.8 63.696,9.024 C64.6816,9.024 66.41984,9.14944 67.2326116,9.24421689 L67.392,9.264 C67.656,9.288 68.832,9.6 69.024,9.6 L69.1117415,9.59783621 C69.2709421,9.58809917 69.528,9.53454545 69.528,9.24 Z M88.728,3.576 C88.728,2.952 88.08,1.728 86.208,1.128 L86.04,1.248 C86.448,1.944 86.568,2.256 86.568,2.568 C86.568,3.036 85.93425,3.9793125 85.4262598,4.67704687 L85.104,5.112 C82.632,8.472 80.328,10.848 75.552,13.56 L75.576,13.8 C77.856,13.224 81.048,11.688 83.832,9 C84,9.168 84.048,9.24 84.072,9.432 L84.0902224,9.65171431 C84.1519849,10.6286881 84.192,13.6507826 84.192,14.352 C84.192,15.768 84,16.944 83.832,17.76 L83.7834844,17.96925 C83.7495,18.1305 83.712,18.348 83.712,18.528 C83.712,18.792 83.8601633,19.1152653 84.1797726,19.6956997 L84.48,20.232 C84.768,20.736 84.792,20.808 84.984,20.808 L85.0813169,20.8015473 C85.226963,20.7831111 85.4613333,20.7146667 85.536,20.472 C85.6283077,20.232 85.6638107,19.7931834 85.6752808,19.1337023 L85.6790827,18.3458987 L85.6790827,18.3458987 L85.608,13.44 C85.608,13.1395556 85.7192757,9.63437037 85.7489492,9.3322774 L85.752,9.312 C85.8,9.072 85.872,8.88 85.872,8.808 C85.872,8.544 85.2,8.088 84.912,7.896 L85.1470496,7.66905831 C85.33207,7.4815277 85.5488047,7.23442566 85.9832536,6.69075219 L87.392625,4.893 C87.6927187,4.517625 87.8084766,4.4145 88.075248,4.30286719 L88.152,4.272 C88.536,4.128 88.728,4.032 88.728,3.576 Z M105.984,6.384 C105.984,5.496 105.552,4.68 104.952,4.2 C103.717714,3.24 102.026286,2.84598639 101.474086,2.81063816 L101.4,2.808 C101.304,2.808 101.064,2.832 101.064,3 C101.064,3.072 101.136,3.144 101.208,3.192 C101.208,3.21428571 102.077143,3.77461224 102.335816,3.98905539 L102.384,4.032 C103.400471,4.87905882 103.800332,5.67006228 104.012243,6.17419418 L104.282748,6.82179492 C104.556281,7.44815625 104.811,7.8735 105.24,7.776 C105.912,7.608 105.984,6.768 105.984,6.384 Z M116.4,5.256 L116.136,5.112 L115.968,5.328 L113.76,8.208 C112.670897,9.64468966 109.769551,12.6027681 106.805713,14.5980204 L106.015203,15.1142384 C103.992,16.4191391 103.344,16.752 102.696,16.752 C102.312,16.752 101.688,16.464 101.376,16.272 L101.250048,16.188288 C101.20512,16.16064 101.1792,16.152 101.136,16.152 C101.112,16.152 100.992,16.176 100.992,16.296 C100.992,16.608 101.928,17.928 102.048,18.072 L102.195812,18.207296 C102.599147,18.5570133 103.488,19.224 103.8,19.224 C103.92,19.224 104.023333,19.1573333 104.123889,19.024 L104.384626,18.6436543 C104.524708,18.4431605 104.611292,18.3340247 104.751374,18.1927901 L104.952,18 C105.096,17.856 106.32,16.968 108.696,15.24 C111.456,13.2 115.464,8.256 116.4,5.256 Z M142.896,20.04 L142.896,19.848 C136.896,18.336 134.784,16.632 133.32,15.288 C135.888,12.24 137.088,8.28 137.544,6.672 L137.865481,6.57563786 C138.624,6.33807407 138.624,6.248 138.624,6.12 C138.624,5.952 138.421875,5.839125 138.274875,5.781375 L136.92,5.28 L142.44,5.28 C142.752,5.28 142.872,5.184 142.872,4.968 C142.872,4.776 142.632,4.56 142.488,4.392 L141.336,3.384 C140.928,3.024 140.88,3 140.712,3 C140.424,3 140.232,3.264 140.064,3.48 L139.128,4.704 L132.984,4.704 L132.984,1.344 L133.2432,1.212096 C133.5504,1.04928 133.704,0.9264 133.704,0.696 C133.704,0.528 133.536,0.408 133.32,0.384 L131.016,0.192 L131.016,4.704 L120.912,4.704 L121.44,5.28 L126.864,5.28 L126.939805,5.81687153 C127.05243,6.59047934 127.173818,7.25454545 127.488,8.256 C128.088,10.176 129.24,12.984 131.184,15.432 C129.432,17.424 125.904,19.92 121.104,21.48 L121.128,21.768 C124.584,21.072 127.032,20.064 128.976,18.936 C130.656,17.952 131.76,16.968 132.192,16.536 C134.016,18.432 136.776,20.304 140.304,21.504 L140.429052,21.2909115 C140.740083,20.7876749 141.309913,20.1234783 142.896,20.04 Z M135.816,5.28 C135.288,7.752 134.232,11.16 132.192,14.16 C129.696,11.448 128.304,8.664 127.176,5.28 L135.816,5.28 Z M166.32,20.16 C166.32,19.992 166.272,19.824 166.152,19.704 L165.942667,19.4831111 C165.642667,19.162 165.576,19.052 165.576,18.792 C165.576,18.528 165.72,17.064 165.744,16.752 L165.834,15.51 C165.858,15.138 165.876,14.796 165.888,14.448 L165.648,14.448 L165.19332,16.23108 C164.86992,17.45664 164.6112,18.3 164.376,18.72 C163.9728,19.392 163.715947,19.4786133 163.254208,19.4871751 L159.528,19.488 C158.127652,19.488 158.000892,18.9390397 157.992517,18.3662116 L157.992,11.424 C159.168,10.728 160.248,9.888 161.304,8.952 L161.819448,8.485176 C163.31352,7.1112 164.3352,5.988 164.832,5.448 L165.3465,5.374875 C165.738,5.313 165.792,5.268 165.792,5.088 C165.792,4.944 165.648,4.776 165.504,4.704 L163.32,3.6 C161.4,7.056 159.168,9.408 157.992,10.536 L157.992,1.152 L158.484288,0.954282667 C158.81728,0.81184 158.856,0.752 158.856,0.576 C158.856,0.528 158.808,0.312 158.592,0.288 L156.072,-2.84217094e-14 L156.072,18.24 C156.072,21.048 157.632,21.144 159.312,21.144 L163.176,21.144 C164.408,21.144 165.033707,21.1021867 165.423865,20.9990471 L165.504,20.976 C165.72,20.928 166.32,20.616 166.32,20.16 Z M154.056,1.392 C154.056,1.224 153.94575,1.147875 153.693094,1.035 L151.44,0.048 C151.032,1.944 148.992,7.08 145.224,11.376 L145.368,11.616 C146.952,10.728 148.248,9.288 149.04,8.304 L149.041422,21.308672 C149.050667,21.77376 149.12,21.936 149.64,21.936 C150.36,21.936 150.696,21.552 150.792,21.36 L150.822333,21.291 C150.864,21.176 150.864,21.036 150.864,20.496 L150.864,7.224 L151.23825,7.142625 C151.5555,7.065 151.704,6.984 151.704,6.768 C151.704,6.552 151.56,6.456 151.392,6.408 L150.504,6.216 L151.204389,5.10767223 C152.215894,3.47904726 152.778783,2.4386087 153.096,1.824 C153.192,1.776 153.744,1.704 153.864,1.656 C153.936,1.632 154.056,1.512 154.056,1.392 Z M179.088,14.376 C179.088,14.256 178.968,14.064 178.872,13.968 L177.85725,12.928875 C177.7695,12.8445 177.594,12.696 177.432,12.696 C177.24,12.696 177.096,12.888 177,13.032 L176.4,13.8 L172.728,13.8 L170.472,12.792 L170.47365,21.0268587 C170.484373,21.3297067 170.5648,21.528 171.168,21.528 C171.648,21.528 172.296,21.312 172.296,20.64 L172.296,19.824 L176.688,19.824 L176.689749,20.6176793 C176.700245,20.9451429 176.773714,21.192 177.288,21.192 C177.552,21.192 177.888,21.096 178.128,20.952 C178.512,20.688 178.512,20.448 178.512,20.136 L178.512,14.904 L178.738,14.7582222 C179.054667,14.5493333 179.088,14.496 179.088,14.376 Z M176.688,19.248 L172.296,19.248 L172.296,14.376 L176.688,14.376 L176.688,19.248 Z M191.208,7.968 C191.208,7.752 191.04,7.536 190.944,7.44 L190.008,6.504 C189.888,6.384 189.648,6.168 189.432,6.168 C189.192,6.168 189,6.384 188.952,6.48 L187.992,7.752 L185.976,7.752 L185.976,1.344 L186.423119,1.03201092 C186.572734,0.920236686 186.6,0.871384615 186.6,0.768 C186.6,0.504 186.336,0.432 186.144,0.432 L184.032,0.24 L184.032,7.752 L179.28,7.752 L179.592,8.328 L184.032,8.328 L184.033679,21.2114519 C184.043755,21.5691429 184.114286,21.816 184.608,21.816 C184.872,21.816 185.328,21.72 185.664,21.48 C185.976,21.264 185.976,20.976 185.976,20.52 L185.976,8.328 L190.635778,8.32633333 C190.924667,8.318 191.208,8.268 191.208,7.968 Z M178.632,2.208 C178.632,1.992 178.464,1.8 178.368,1.704 L177.432,0.768 C177.336,0.672 177.168,0.576 177,0.576 C176.784,0.576 176.616,0.768 176.592,0.792 L175.728,1.92 L170.472,1.92 L170.832,2.496 L178.008,2.496 C178.344,2.496 178.632,2.472 178.632,2.208 Z M179.64,5.112 C179.64,4.932 179.54,4.78533333 179.465,4.69977778 L178.536,3.744 C178.488,3.696 178.248,3.456 178.032,3.456 C177.744,3.456 177.576,3.696 177.48,3.816 L176.688,4.944 L169.296,4.944 L169.68,5.52 L179.098333,5.51811111 C179.306667,5.50866667 179.64,5.452 179.64,5.112 Z M178.512,8.088 C178.512,7.896 178.344,7.68 178.224,7.56 L177.384,6.72 C177.288,6.624 177.12,6.456 176.952,6.456 C176.76,6.456 176.568,6.72 176.52,6.768 L175.68,7.896 L170.472,7.896 L170.856,8.472 L177.864,8.472 C178.296,8.472 178.512,8.304 178.512,8.088 Z M178.68,11.112 C178.68,10.872 178.512,10.656 178.344,10.488 L177.528,9.672 C177.384,9.552 177.216,9.432 177.024,9.432 C176.808,9.432 176.64,9.648 176.616,9.696 L175.776,10.896 L170.472,10.896 L170.88,11.472 L177.936,11.472 C178.2,11.472 178.68,11.448 178.68,11.112 Z M215.112,1.92 C215.112,1.752 214.92,1.56 214.896,1.536 L213.744,0.432 C213.576,0.264 213.36,0.168 213.192,0.168 C213.048,0.168 212.856,0.24 212.664,0.456 L211.656,1.656 L193.008,1.656 L193.368,2.232 L203.088,2.232 L203.088,5.952 L200.136,5.952 L198.024,4.752 L198.025923,16.834345 C198.036497,17.0669822 198.105231,17.256 198.552,17.256 C199.752,17.256 199.752,16.656 199.752,16.296 L199.752,15.84 L208.296,15.84 L208.296,16.68 C208.296,17.064 208.32,17.256 208.8,17.256 C210.048,17.256 210.048,16.584 210.048,16.104 L210.048,7.344 L210.544875,7.087125 C210.9195,6.888 210.96,6.834 210.96,6.672 C210.96,6.528 210.84,6.36 210.744,6.288 L209.904,5.424 C209.784,5.304 209.616,5.16 209.424,5.16 L209.36625,5.163375 C209.300625,5.1718125 209.192812,5.20134375 209.054531,5.30470313 L208.296,5.952 L204.792,5.952 L204.792,2.232 L214.603727,2.23012472 C214.854942,2.22168595 215.112,2.17527273 215.112,1.92 Z M208.296,10.368 L204.792,10.368 L204.792,6.528 L208.296,6.528 L208.296,10.368 Z M208.296,15.264 L204.792,15.264 L204.792,10.944 L208.296,10.944 L208.296,15.264 Z M203.088,10.368 L199.752,10.368 L199.752,6.528 L203.088,6.528 L203.088,10.368 Z M203.088,15.264 L199.752,15.264 L199.752,10.944 L203.088,10.944 L203.088,15.264 Z M214.68,6.624 C214.68,6.384 214.344,6.312 213.984,6.264 L212.088,5.952 L212.088,19.416 L195.888,19.416 L195.888,7.152 C196.176,7.08 196.92,6.816 196.92,6.528 C196.92,6.336 196.536,6.264 196.416,6.264 L194.04,5.952 L194.041469,21.1381224 C194.050286,21.5613061 194.112,21.72 194.544,21.72 C194.842667,21.72 195.255111,21.5682963 195.427358,21.4840165 L195.48,21.456 C195.850909,21.2814545 195.904463,21.1267438 195.911134,20.7754891 L195.912,19.992 L212.088,19.992 L212.089889,21.198 C212.099333,21.498 212.156,21.648 212.496,21.648 C212.736,21.648 213.264,21.552 213.648,21.312 C213.984,21.096 213.984,20.952 213.984,20.544 L213.984,7.152 L214.178305,7.06186008 C214.418667,6.94548148 214.68,6.792 214.68,6.624 Z M239.232,9.072 C239.232,8.88 239.136,8.76 238.992,8.592 L238.118834,7.62766181 C237.989388,7.48946939 237.891429,7.416 237.72,7.416 C237.421333,7.416 237.27437,7.58666667 237.093695,7.8774321 L236.544,8.808 L235.704,8.808 L235.704,2.112 L238.296,2.112 C238.488,2.112 238.704,2.112 238.704,1.848 C238.704,1.704 238.584,1.56 238.44,1.44 L237.504,0.552 C237.36,0.408 237.072,0.192 236.808,0.192 C236.664,0.192 236.4,0.264 236.184,0.648 L235.704,1.536 L226.944,1.536 L227.232,2.112 L229.2,2.112 L229.2,8.808 L226.344,8.808 L226.632,9.384 L229.2,9.384 L229.198308,11.8057609 C229.17317,14.8608435 228.819429,18.5005714 225.048,21.792 L225.12,21.912 C228.672,20.352 230.016,16.944 230.328,15.984 C230.808,14.496 231,12.912 231,11.328 L231,9.384 L233.904,9.384 L233.905573,21.3119782 C233.914225,21.6305325 233.970462,21.768 234.336,21.768 C235.585043,21.768 235.693656,21.4878941 235.703101,20.8911469 L235.704,9.384 L238.8,9.384 C239.04,9.384 239.232,9.36 239.232,9.072 Z M233.904,8.808 L231,8.808 L231,2.112 L233.904,2.112 L233.904,8.808 Z M226.152,1.8 C226.152,1.656 226.08,1.56 225.96,1.464 L225.24,0.72 C224.928,0.384 224.832,0.336 224.616,0.336 C224.4,0.336 224.208,0.432 224.016,0.792 L223.632,1.536 L217.44,1.536 L217.8,2.112 L220.464,2.112 L220.406333,2.74211111 C220.311333,3.73266667 220.208,4.476 219.888,5.736 L219.724117,6.30992356 C219.28288,7.78570667 218.272,10.688 216.504,13.392 L216.768,13.512 L217.157157,13.0731841 C217.755174,12.3838017 218.417455,11.5483636 219.144,10.488 L219.145749,19.917691 C219.156245,20.2653061 219.229714,20.424 219.744,20.424 C220.224,20.424 220.848,20.16 220.848,19.656 L220.848,16.584 L223.632,16.584 L223.632393,17.9352863 C223.63768,18.1573491 223.689231,18.312 224.136,18.312 C225.408,18.312 225.408,17.832 225.408,17.496 L225.408,9.264 L225.60339,9.11978362 C225.84,8.9385124 225.84,8.89745455 225.84,8.76 L225.835522,8.69072886 C225.824327,8.62530612 225.785143,8.53714286 225.648,8.4 L224.88,7.536 C224.784,7.44 224.52,7.224 224.352,7.224 C224.208,7.224 224.04,7.272 223.848,7.56 L223.368,8.256 L221.016,8.256 L220.656,7.944 C221.64,6.072 222.096,4.272 222.48,2.112 L225.792,2.112 C226.008,2.112 226.152,2.04 226.152,1.8 Z M223.632,16.008 L220.848,16.008 L220.848,8.832 L223.632,8.832 L223.632,16.008 Z M262.992,3.864 L262.987087,3.79871468 C262.956632,3.61901385 262.763368,3.45852632 261.84,2.664 L261.416292,2.28799289 C261.11936,2.03072 261.0384,1.992 260.88,1.992 C260.568,1.992 260.064,2.784 259.824,3.144 L253.008,3.144 L253.008,0.984 L253.447111,0.674666667 C253.632,0.536 253.632,0.504 253.632,0.408 C253.632,0.216 253.536,0.168 253.248,0.144 L251.04,0.024 L251.04,3.144 L243.84,3.144 C243.792,2.544 243.672,2.184 243.576,1.824 L243.384,1.824 C243.48,3.216 242.736,4.344 242.064,4.92 L241.632222,5.29311111 C241.026667,5.82533333 240.96,5.952 240.96,6.312 C240.96,6.72 241.32,7.128 241.848,7.128 C242.832,7.128 243.768,5.904 243.864,3.72 L253.008,3.72 L253.008,7.248 C253.008,9.38981818 254.426997,9.51962534 256.310009,9.52749245 L258.528,9.528 L259.04609,9.52382799 C261.196776,9.48710204 262.128,9.20057143 262.128,8.376 C262.128,8.136 262.056,8.016 261.864,7.848 C261.576,7.536 261.48,7.344 261.48,6.552 C261.48,6.288 261.648,4.968 261.648,4.656 L261.456,4.656 L261.381831,4.97408746 C261.207184,5.68359184 260.866286,6.78857143 260.208,7.488 C259.728,8.016 259.392,8.016 258.36,8.016 L256.656,8.016 L256.291458,8.01023611 C255.102771,7.96896528 254.809865,7.69647569 254.785693,6.88728299 L254.784,3.72 L260.064,3.72 C259.488,4.92 258.624,6.144 258.36,6.528 L258.504,6.648 C259.752,6.024 261.12,4.944 261.648,4.464 L262.082913,4.37237318 C262.591959,4.25865306 262.992,4.128 262.992,3.864 Z M250.704,4.992 C250.704,4.848 250.545306,4.73926531 250.424397,4.68090962 L248.256,3.744 C247.344,7.344 245.064,9.768 241.176,11.184 L241.176,11.376 C246,10.584 248.4,7.968 249.312,6.336 L249.650799,5.70878134 C249.745959,5.53665306 249.785143,5.472 249.84,5.376 L250.326157,5.27468222 C250.630531,5.20261224 250.704,5.14628571 250.704,4.992 Z M262.752,19.944 C262.752,19.7306667 262.695111,19.5931852 262.446486,19.3798519 L262.261248,19.226136 C262.050432,19.041624 261.919488,18.840216 261.892992,17.872344 L261.888,17.472 C261.888,16.944 261.936,14.616 261.936,14.136 L261.648,14.136 L261.560682,14.7367917 C260.888292,19.1671667 260.136,19.608 258.48,19.608 L258.233284,19.60507 C257.601185,19.5863704 257.184,19.456 257.184,18.624 L257.192531,18.2352656 C257.23125,17.20725 257.394,15.396 257.52,14.136 L257.75232,13.974912 C258.05952,13.7568 258.336,13.5264 258.336,13.296 C258.336,13.056 257.976,12.72 257.4,12.168 L257.189808,11.9800583 C256.819102,11.6576327 256.728,11.64 256.584,11.64 C256.3464,11.64 256.26432,11.71776 256.005336,12.013248 L255.542947,12.5509465 C255.481185,12.6254815 255.437333,12.68 255.384,12.744 L251.712,12.744 C251.88,11.592 251.904,10.368 251.928,9.84 L252.279,9.671088 C252.53184,9.54072 252.72,9.408 252.72,9.24 C252.72,8.952 252.384,8.88 252.168,8.856 L250.008,8.64 L250.041,9.324 C250.0464,9.4752 250.05072,9.64368 250.053312,9.844992 L250.05504,10.56672 C250.0512,11.04672 250.032,11.9568 249.936,12.744 L243.576,12.744 L243.984,13.32 L249.864,13.32 C248.784,19.032 243.72,20.976 241.08,21.84 L241.176,22.08 C244.224,21.528 247.152,20.304 249.312,18.096 C250.992,16.368 251.424,14.4 251.616,13.32 L255.744,13.32 L255.417,17.466 C255.366,18.198 255.36,18.444 255.36,18.696 C255.36,20.856 256.604531,21.1808437 258.243252,21.2130117 L258.576,21.216 C260.904,21.216 262.752,21.072 262.752,19.944 Z M287.04,3.864 C287.04,3.72 286.968,3.552 286.848,3.456 L285,1.92 C284.928,1.848 284.712,1.728 284.568,1.728 C284.376,1.728 284.208,1.968 284.184,1.992 L283.656,2.784 L277.08,2.784 L277.08,1.128 L277.44675,0.894 C277.7505,0.6915 277.872,0.57 277.872,0.408 C277.872,0.216 277.701333,0.194666667 277.427424,0.175440329 L275.208,0.024 L275.208,2.784 L267.768,2.784 C267.744,2.4 267.672,1.8 267.504,1.464 L267.216,1.464 C267.102667,2.756 266.946519,3.29874074 266.019704,4.36596296 L265.396724,5.06841115 C265.016138,5.50513495 264.96,5.61741176 264.96,5.856 C264.96,6.408 265.344,6.744 265.776,6.744 C266.904,6.744 267.84,5.232 267.792,3.36 L283.896,3.36 L283.696691,3.81721811 C283.438815,4.39288889 283.098667,5.096 282.744,5.712 L282.984,5.952 L283.866083,5.35943056 C284.361333,5.021 284.926,4.622 285.36,4.272 L286.071637,4.26819303 C286.815623,4.2539169 287.04,4.18610526 287.04,3.864 Z M284.688,12.168 C284.688,10.656 281.784,8.76 279.6,8.016 L279.48,8.256 C280.704,9.048 281.112,9.576 281.592,10.152 L280.882959,10.2041029 C278.357989,10.3719924 275.440696,10.392 274.104,10.392 L274.502429,9.91738214 C275.947238,8.1757824 276.46656,7.30848 276.864,6.624 L282.432,6.624 C282.6,6.624 282.912,6.624 282.912,6.336 C282.912,6.216 282.812,6.07933333 282.737,6.00933333 L281.448,4.944 C281.328,4.848 281.16,4.776 281.016,4.776 C280.848,4.776 280.68,4.944 280.656,5.016 L280.032,6.048 L268.896,6.048 L269.28,6.624 L274.56,6.624 C274.248,7.848 273.48,9.6 273.096,10.392 L269.137403,10.4132318 C268.227614,10.4110634 267.659636,10.3934545 266.856,10.344 L267.792,12.816 C267.84,12.936 267.984,13.296 268.2,13.296 C268.464,13.296 268.56,12.984 268.704,12.36 L274.032,11.76 L274.032,11.76 C276.48,11.472 279.336,11.04 282,10.656 C282.312,11.064 282.72,11.784 282.816,11.976 L282.996945,12.2967464 C283.333224,12.8811429 283.536,13.128 283.968,13.128 C284.4,13.128 284.688,12.648 284.688,12.168 Z M285.984,20.592 C285.984,20.904 285.6,20.904 285.48,20.904 L266.16,20.904 L265.752,20.328 L275.16,20.328 L275.16,16.392 L267.768,16.392 L267.36,15.816 L275.16,15.816 L275.16,12 L277.44,12.24 C277.608,12.264 277.8,12.336 277.8,12.504 C277.8,12.72 277.56,12.864 277.08,13.08 L277.08,15.816 L281.352,15.816 L282.216,14.568 L282.269333,14.5075556 C282.322667,14.4506667 282.408,14.376 282.504,14.376 C282.624,14.376 282.768,14.472 282.84,14.52 L284.232,15.768 C284.328,15.84 284.376,15.984 284.376,16.104 C284.376,16.392 284.088,16.392 283.92,16.392 L277.08,16.392 L277.08,20.328 L282.96,20.328 L283.704,19.152 C283.776,19.008 283.92,18.912 284.088,18.912 C284.2224,18.912 284.34144,18.97344 284.432832,19.047168 L285.792,20.232 C285.888,20.328 285.984,20.496 285.984,20.592 Z" id="デザイン文化計画研究室" fill="#D36C6C" fill-rule="nonzero"></path>
                    </g>
                </g>
            </g>
        </g>
    </g>
</svg>