<?xml version="1.0" encoding="UTF-8"?>
<svg width="367px" height="23px" viewBox="0 0 367 23" version="1.1" xmlns="http://www.w3.org/2000/svg" xmlns:xlink="http://www.w3.org/1999/xlink">
    <!-- Generator: Sketch 59.1 (86144) - https://sketch.com -->
    <title>coma_p</title>
    <desc>Created with Sketch.</desc>
    <g id="Page-1" stroke="none" stroke-width="1" fill="none" fill-rule="evenodd">
        <g id="pc" transform="translate(-1469.000000, -3418.000000)">
            <g id="研究室紹介" transform="translate(209.000000, 2380.000000)">
                <g id="研究室" transform="translate(974.000000, 0.000000)">
                    <g id="coma_p" transform="translate(286.000000, 1038.000000)">
                        <rect id="赤--copy-6" fill="#D36C6C" x="0" y="0.112" width="8" height="22"></rect>
                        <rect id="透明--copy-11" fill="#FFFFFF" opacity="0.01" x="0" y="0.112" width="367" height="22"></rect>
                        <path d="M43.776,6.144 C43.776,6.096 43.776,6.048 43.68,5.928 L42.6080545,4.9216473 C41.9312533,4.29717004 41.8485517,4.272 41.64,4.272 C41.568,4.272 41.52,4.296 41.448,4.344 C41.184,4.536 41.04,4.632 40.776,4.704 C40.3242353,4.81694118 38.0654118,4.90862284 37.341025,4.95903603 L37.224,4.968 C36.3470769,5.03723077 32.2305089,5.46149112 31.0190387,5.49402412 L30.6053333,5.49422222 C30.344,5.49066667 29.976,5.48 29.736,5.448 C29.448,5.424 28.032,4.728 28.008,4.728 L27.84,4.872 C28.08,5.736 29.232,7.368 29.928,7.368 L29.9845556,7.36511111 C30.0216667,7.36066667 30.061,7.35 30.123,7.326 L30.624,7.104 C30.8017778,7.03733333 31.0207078,6.9912428 32.7477921,6.67994879 L33.192,6.6 C35.1128571,6.25285714 38.7743878,6.03961224 39.8296902,6.02482325 L39.936,6.024 C40.368,6.024 40.512,6.048 40.848,6.096 L40.8197459,6.48112835 C40.6814667,8.06402596 40.0733023,13.879814 39.84,15.216 L38.4891164,15.2529209 C37.6307484,15.2822329 37.0269724,15.3213369 36.0453404,15.4117049 L33.3742222,15.6631111 C32.2506667,15.7626667 31.44,15.816 30.672,15.816 L30.3422333,15.8120725 C29.5954879,15.79009 29.3675294,15.6592941 28.224,15.024 L28.008,15.12 C28.104,15.648 28.32,16.032 28.92,16.608 L29.1283727,16.7972231 C29.4733884,17.1024793 29.9410909,17.472 30.216,17.472 C30.408,17.472 31.296,17.16 31.488,17.112 C33.0746667,16.772 36.1812593,16.4962222 38.2198601,16.4666296 L38.91975,16.465875 C39.3585,16.4715 40.02,16.494 40.56,16.584 L40.9623324,16.6545306 C41.2530612,16.7035102 41.4685714,16.728 41.88,16.728 C42.168,16.728 42.336,16.536 42.336,16.368 C42.336,15.936 41.592,15.456 41.232,15.24 C41.2848,14.6064 41.9184,11.5592533 42.3566791,9.51538489 L42.72,7.848 C42.804,7.449 42.869625,7.288875 42.9972656,7.110375 L43.056,7.032 C43.152,6.888 43.776,6.336 43.776,6.144 Z M69.168,7.272 C69.168,6.552 67.464,4.704 66.816,4.704 C66.768,4.704 66.696,4.704 66.624,4.728 C66.552,4.752 65.88,5.232 65.736,5.28 C65.4462857,5.39142857 64.039102,5.44077551 63.5513178,5.48568805 L62.8169951,5.56770716 C60.3262041,5.86427211 53.7405714,6.768 52.872,6.768 C52.176,6.768 51.336,6.6 50.784,5.808 L50.568,5.904 C50.76,7.536 51.936,8.904 52.44,8.904 C52.584,8.904 52.752,8.832 52.8,8.808 C53.1264,8.6544 53.43744,8.51616 53.708544,8.417856 L53.904,8.352 C56.472,7.464 63.096,6.384 65.808,6.432 C65.568,7.44 64.848,8.496 63.816,9.84 C62.832,11.112 61.824,12.336 60.696,13.44 L60.355104,13.159416 C59.28072,12.29952 57.732,11.3016 55.464,10.848 L55.392,11.088 C58.8768,13.1245714 59.6306547,14.9264522 60.1681064,16.5137588 L60.264,16.8 C60.456,17.328 60.72,18.192 61.584,18.192 C62.328,18.192 62.376,17.184 62.376,16.776 C62.376,15.552 61.656,14.616 61.176,13.992 L61.9508637,13.3905802 C62.9602356,12.5885617 63.7189362,11.8954321 65.0606461,10.5680247 L67.464,8.16 C67.488,8.136 67.824,7.8 68.04,7.776 L68.3518601,7.73800583 C68.9211429,7.66579592 69.168,7.60114286 69.168,7.272 Z M92.448,11.208 C92.448,10.464 91.248,9.864 90.192,9.864 C89.88,9.864 88.416,10.2 88.08,10.248 L79.4569718,10.5881108 C78.7022155,10.6149868 78.1732174,10.632 78.048,10.632 C77.328,10.632 76.416,10.488 75.552,9.384 L75.336,9.48 C75.528,11.016 76.368,12.264 77.064,12.264 C77.2603636,12.264 78.091438,11.9664793 78.4212352,11.8943531 L78.504,11.88 C78.7610526,11.8332632 84.023867,11.4679778 86.2502917,11.4487847 L86.424,11.448 C88.314,11.448 89.8032188,11.5745625 90.7334531,11.6694844 L91.5911111,11.752 C91.6586667,11.7573333 91.704,11.76 91.728,11.76 C92.16,11.76 92.448,11.616 92.448,11.208 Z M106.704,5.064 C106.704,3.456 104.904,2.52 102.072,2.496 L101.952,2.736 L102.226831,2.92431276 C102.599704,3.17274074 103.130667,3.50666667 103.56,3.768 C104.52,4.368 104.832,4.752 105.024,4.968 L105.343985,5.33954519 C105.680816,5.72265306 105.845143,5.856 106.128,5.856 C106.32,5.856 106.704,5.712 106.704,5.064 Z M116.928,6.768 L116.664,6.432 L116.150034,7.0616699 C113.626739,10.0951842 110.504516,12.9870968 105.408,15.816 L104.756461,16.165218 C104.033183,16.5453728 103.327385,16.872 102.792,16.872 L102.654009,16.8695966 C102.301702,16.8540623 101.885647,16.7407059 101.208,15.936 L100.992,16.032 C101.352,17.688 102.984,19.368 103.584,19.368 L103.659289,19.3622624 C103.77614,19.3409213 103.865003,19.2496093 104.153283,18.9221458 L104.431988,18.6076425 C104.76249,18.254385 105.1854,17.973 108.36,15.864 C112.752,12.96 115.896,8.64 116.928,6.768 Z M104.256,10.176 C104.256,7.68 100.632,7.296 99.816,7.2 L99.744,7.416 C100.344,7.776 102.048,8.976 102.816,10.272 L103.043712,10.663488 C103.29408,11.08128 103.3632,11.112 103.632,11.112 C103.92,11.112 104.256,10.848 104.256,10.176 Z M139.44,10.8 C139.44,10.6472727 139.420165,10.593719 139.110023,10.3147708 L138.168,9.504 C138.024,9.384 137.832,9.216 137.616,9.216 C137.424,9.216 137.328,9.288 137.208,9.384 L136.56,9.864 L136.194901,10.0071976 C135.460298,10.2796194 134.449412,10.5571765 131.256,11.376 L131.115968,10.7426276 C130.958507,9.99818667 130.752,8.9328 130.752,8.616 C130.752,8.472 130.968,7.8 130.968,7.656 C130.968,7.18164706 129.64991,6.94114879 129.214715,6.91449623 L128.993766,6.91492969 C128.850938,6.921375 128.589,6.942 127.896,7.008 L127.872,7.224 L128.2087,7.37541691 C128.462694,7.49436735 128.653714,7.60457143 128.808,7.776 C129.24,8.208 129.936,10.752 130.176,11.664 L128.213695,12.1622387 C128.047704,12.2038519 127.88,12.2453333 127.704,12.288 C126.912,12.48 126.624,12.48 126.312,12.48 C125.784,12.48 125.16,12.36 124.536,11.976 L124.368,12.168 L124.706831,12.6865844 C124.848922,12.9017613 125.011029,13.1353745 125.165761,13.315786 L125.28,13.44 C125.52,13.728 126.12,14.064 126.36,14.064 C126.456,14.064 126.504,14.016 126.912,13.752 C127.656,13.224 128.256,13.008 130.368,12.408 L130.636828,13.4289375 C130.668609,13.5538125 130.697203,13.6704375 130.720734,13.7743125 L131.328,16.512 C131.832,18.816 131.88,19.344 131.88,20.112 C131.904,20.952 132.96,21.96 133.32,21.96 C133.656,21.96 133.848,21.48 133.848,21.144 C133.848,20.9573333 133.766519,20.6373333 133.673514,20.3280329 L133.422722,19.554788 C133.129548,18.6163396 131.786057,13.704 131.424,12.12 L135.126479,11.0694046 C135.825124,10.8752308 136.392923,10.7215385 136.584,10.68 C136.392,11.832 135.552,13.56 134.496,14.928 L134.712,15.072 L135.113485,14.6994244 C135.942116,13.9100942 137.315368,12.4964211 138.144,11.304 L138.73125,11.199375 C138.7875,11.19 138.828,11.184 138.84,11.184 L139.146879,11.1151916 C139.363835,11.0570579 139.44,10.992 139.44,10.8 Z M166.488,10.44 L166.296,10.224 C164.448,11.712 162.6,12.888 161.976,13.248 C159.024,15.024 157.752,15.048 157.056,15.048 L157.368,6.792 C157.392,5.88 157.584,5.616 157.728,5.4 C157.848,5.256 158.064,4.944 158.064,4.848 C158.064,4.608 157.368,4.08 156.6,3.72 C155.904,3.384 155.472,3.384 154.752,3.432 L154.752,3.744 C155.472,4.128 155.784,4.512 155.784,5.664 L155.774016,6.952896 C155.7456,9.32448 155.6496,13.8096 155.4,14.424 L155.156895,14.9824548 C155.059837,15.2107347 155.04,15.2845714 155.04,15.408 C155.04,15.5616 155.10144,15.68448 155.16288,15.788928 L156.12,17.328 C156.312,17.64 156.456,17.88 156.72,17.88 C156.912,17.88 157.008,17.736 157.128,17.592 L157.481992,17.165746 C157.607574,17.0199763 157.654154,16.9790769 157.728,16.92 C157.872,16.8 160.392,15.6 160.848,15.336 C163.968,13.488 165.432,11.736 166.488,10.44 Z M153.264,5.064 C153.264,4.756 153.042167,4.569 152.487583,4.28116667 L152.328,4.2 C151.416,3.72 151.032,3.624 150.168,3.576 L150.048,3.816 C150.949895,4.43873684 151.064044,5.5033795 151.078083,6.80363785 L151.08,7.272 C151.08,11.064 150.552,15.12 145.248,19.008 L145.416,19.296 C147.12,18.528 149.664,16.824 150.936,14.688 C152.496,12.072 152.592,10.08 152.76,6.672 L152.785778,6.296 C152.805333,6.03466667 152.832,5.784 152.88,5.736 L153.044609,5.52813169 C153.205926,5.31911111 153.264,5.21333333 153.264,5.064 Z M191.232,2.832 C191.232,0.96 189.288,0.552 187.56,0.168 L187.44,0.288 C188.364,0.882 189.388833,1.839 189.996889,2.54895833 L190.496889,3.15822222 C190.653333,3.336 190.696,3.336 190.824,3.336 C191.016,3.336 191.232,3.192 191.232,2.832 Z M189.552,4.752 C189.552,3.936 189.408,3.552 188.976,3.144 C188.4,2.592 187.656,2.256 186.264,2.016 L186.192,2.184 L186.548297,2.47298438 C187.294125,3.094125 187.491,3.396 188.184,4.488 C188.4,4.824 188.928,5.376 189.24,5.376 C189.552,5.376 189.552,4.896 189.552,4.752 Z M185.832,4.176 C185.832,3.816 184.344,2.904 183.528,2.904 C183.216,2.904 181.704,3.432 181.368,3.504 L181.217785,3.53010489 C180.297493,3.66112 176.4656,3.912 176.376,3.912 C176.136,3.912 175.56,3.864 175.032,3.744 C174.888,3.696 174.192,3.288 174.024,3.192 L173.832,3.216 C173.8995,3.5535 173.988094,3.86990625 174.691043,4.58050195 L174.84,4.728 C175.224,5.112 175.464,5.28 175.8,5.28 C175.996364,5.28 176.886942,5.06181818 177.227558,5.00411721 L177.312,4.992 C179.442207,4.68248276 181.489541,4.6077717 182.542402,4.589738 L183.216,4.584 C183.436,4.584 184.482833,4.62433333 184.877611,4.63105556 L185.102365,4.63033955 C185.385231,4.6212071 185.832,4.56184615 185.832,4.176 Z M188.784,8.88 C188.784,8.04 186.528,7.344 186.048,7.344 C185.928,7.344 185.352,7.656 185.208,7.704 C184.584,7.848 180.912,8.088 180.096,8.16 L176.603929,8.47877549 C175.113384,8.6176609 173.559529,8.76564706 172.416,8.88 C172.128,8.88 171.864,8.856 171.576,8.784 L171.394337,8.72171193 C171.115259,8.61985185 170.650667,8.43733333 170.52,8.4 L170.328,8.496 C170.664,9.192 171.552,10.008 171.6,10.056 L171.750123,10.1685926 C171.952,10.3137778 172.250667,10.488 172.68,10.488 L172.826112,10.480512 C172.904832,10.471232 172.986752,10.4518187 173.108316,10.414272 L173.952,10.128 C174.792,9.816 177.24,9.48 177.912,9.48 C178.344,9.48 179.136,9.648 179.136,10.656 L179.132101,10.8373544 C179.099912,11.6408033 178.824686,14.0996571 176.784,17.04 C175.56,18.792 173.976,19.656 172.8,20.232 L172.8,20.376 C175.08,20.256 179.184,18.288 180.672,12.624 L181.026375,11.15925 C181.068,10.9965 181.104,10.866 181.128,10.8 C181.176,10.632 181.704,10.008 181.704,9.84 C181.704,9.672 181.608,9.624 181.344,9.504 L180.72,9.192 L182.099641,9.05583088 C182.633768,9.00834174 182.979135,8.98834466 183.337256,8.98053477 L183.84,8.976 C184.464,8.976 185.496,8.976 186.408,9.096 L187.314,9.246 C187.704,9.306 188.1,9.36 188.256,9.36 C188.568,9.36 188.784,9.192 188.784,8.88 Z M214.944,3.576 L214.93814,3.47234844 C214.911147,3.15637333 214.7808,2.3008 214.344,1.968 C214.056,1.752 212.904,1.248 211.68,0.96 L211.536,1.128 L212.579358,2.00354814 L212.579358,2.00354814 L212.736,2.136 C213.072,2.409 213.389625,2.7555 213.576328,2.9825625 L213.956971,3.44804883 C214.330594,3.896625 214.422,3.96 214.656,3.96 C214.848,3.96 214.944,3.816 214.944,3.576 Z M213,5.064 C213,4.4808 212.88336,4.03368 212.5626,3.72264 L212.448,3.624 C212.04,3.288 211.368,2.808 209.664,2.304 L209.568,2.448 L209.724203,2.58868797 C210.099117,2.93173214 210.559244,3.39733116 211.359271,4.38761816 L212.037934,5.22898765 C212.368444,5.62540741 212.466667,5.688 212.64,5.688 C212.952,5.688 213,5.28 213,5.064 Z M213.528,9.216 C213.528,8.568 211.896,7.584 211.248,7.584 C211.176,7.584 211.032,7.656 211.008,7.68 L210.751872,7.794048 C210.64416,7.8384 210.552,7.8672 210.408,7.896 L210.190357,7.91281067 C209.5744,7.94442667 208.1184,7.9472 207.744,7.968 L207.801,6.345 C207.814125,5.911875 207.826078,5.47757812 207.833197,5.15124023 L207.84,4.704 C207.84,4.49066667 207.877926,4.41007407 208.07177,4.12510288 L208.152,4.008 C208.344,3.744 208.416,3.6 208.416,3.456 C208.416,3.12 207.072,2.064 205.08,2.136 L205.08,2.328 L205.281886,2.51753933 C205.869009,3.08367974 205.97594,3.36536371 206.045164,4.47934618 L206.182222,7.22933333 C206.197333,7.568 206.208,7.848 206.208,7.968 L205.071936,7.997952 C203.73792,8.04096 202.9968,8.1024 201.288,8.256 L201.282912,8.012592 C201.27384,7.1676 201.3192,5.3856 201.384,5.256 C201.408,5.16 201.768,4.704 201.768,4.584 C201.768,4.344 200.76,3.384 198.696,3.336 L198.576,3.552 C199.68,4.368 199.848,5.328 199.848,8.448 L198.987797,8.58721875 C198.536625,8.656125 198.096,8.718 197.496,8.808 C197.232,8.856 196.848,8.904 196.56,8.904 C195.84,8.904 195.12,8.784 194.304,7.992 L194.208,8.112 C194.664,10.032 195.84,10.56 196.08,10.56 C196.206,10.56 196.332,10.533 196.447875,10.489125 L196.795961,10.3375716 C197.264747,10.14048 197.5088,10.0864 198.528,9.816 L199.686912,9.627072 C199.7328,9.61824 199.776,9.6096 199.824,9.6 L199.827167,9.92980628 C199.826231,11.013551 199.728,12.4125714 199.728,12.456 L199.679484,12.7289531 C199.6455,12.932625 199.608,13.182 199.608,13.272 C199.608,13.784 199.854519,14.2201481 200.16214,14.6984362 L200.28,14.88 C200.328,14.952 200.4,15.072 200.592,15.072 C200.808,15.072 201.072,14.832 201.168,14.568 L201.184119,14.5101574 C201.242122,14.2729252 201.36,13.5108571 201.36,11.904 L201.354168,10.996584 C201.3456,10.314 201.3288,9.7008 201.312,9.264 L202.063781,9.191625 C203.674875,9.042 204.381,9.021 206.208,9 C206.04,12.144 205.728,13.968 204.816,15.936 C203.784,18.168 202.152,20.112 199.92,21.144 L199.968,21.36 C202.2,20.88 204.456,19.152 205.872,17.16 C207,15.576 207.576,13.776 207.696,9 C208.6816,9 210.41984,9.12544 211.232612,9.22021689 L211.392,9.24 C211.656,9.264 212.832,9.576 213.024,9.576 L213.111742,9.57383621 C213.270942,9.56409917 213.528,9.51054545 213.528,9.216 Z M232.728,3.552 C232.728,2.928 232.08,1.704 230.208,1.104 L230.04,1.224 C230.448,1.92 230.568,2.232 230.568,2.544 C230.568,3.012 229.93425,3.9553125 229.42626,4.65304688 L229.104,5.088 C226.632,8.448 224.328,10.824 219.552,13.536 L219.576,13.776 C221.856,13.2 225.048,11.664 227.832,8.976 C228,9.144 228.048,9.216 228.072,9.408 L228.090222,9.62771431 C228.151985,10.6046881 228.192,13.6267826 228.192,14.328 C228.192,15.744 228,16.92 227.832,17.736 L227.783484,17.94525 C227.7495,18.1065 227.712,18.324 227.712,18.504 C227.712,18.768 227.860163,19.0912653 228.179773,19.6716997 L228.48,20.208 C228.768,20.712 228.792,20.784 228.984,20.784 L229.081317,20.7775473 C229.226963,20.7591111 229.461333,20.6906667 229.536,20.448 C229.628308,20.208 229.663811,19.7691834 229.675281,19.1097023 L229.679083,18.3218987 L229.679083,18.3218987 L229.608,13.416 C229.608,13.1155556 229.719276,9.61037037 229.748949,9.3082774 L229.752,9.288 C229.8,9.048 229.872,8.856 229.872,8.784 C229.872,8.52 229.2,8.064 228.912,7.872 L229.14705,7.64505831 C229.33207,7.4575277 229.548805,7.21042566 229.983254,6.66675219 L231.392625,4.869 C231.692719,4.493625 231.808477,4.3905 232.075248,4.27886719 L232.152,4.248 C232.536,4.104 232.728,4.008 232.728,3.552 Z M249.984,6.36 C249.984,5.472 249.552,4.656 248.952,4.176 C247.717714,3.216 246.026286,2.82198639 245.474086,2.78663816 L245.4,2.784 C245.304,2.784 245.064,2.808 245.064,2.976 C245.064,3.048 245.136,3.12 245.208,3.168 C245.208,3.19028571 246.077143,3.75061224 246.335816,3.96505539 L246.384,4.008 C247.400471,4.85505882 247.800332,5.64606228 248.012243,6.15019418 L248.282748,6.79779492 C248.556281,7.42415625 248.811,7.8495 249.24,7.752 C249.912,7.584 249.984,6.744 249.984,6.36 Z M260.4,5.232 L260.136,5.088 L259.968,5.304 L257.76,8.184 L257.49952,8.51424331 C256.208276,10.0969798 253.348138,12.9293793 250.488,14.784 L249.389849,15.4900806 C247.848,16.4649988 247.272,16.728 246.696,16.728 C246.312,16.728 245.688,16.44 245.376,16.248 L245.250048,16.164288 C245.20512,16.13664 245.1792,16.128 245.136,16.128 C245.112,16.128 244.992,16.152 244.992,16.272 C244.992,16.584 245.928,17.904 246.048,18.048 C246.312,18.312 247.44,19.2 247.8,19.2 C247.92,19.2 248.023333,19.1333333 248.123889,19 L248.384626,18.6196543 C248.524708,18.4191605 248.611292,18.3100247 248.751374,18.1687901 L248.952,17.976 C249.096,17.832 250.32,16.944 252.696,15.216 C255.456,13.176 259.464,8.232 260.4,5.232 Z M287.232,9.048 C287.232,8.856 287.136,8.736 286.992,8.568 L286.118834,7.60366181 C285.989388,7.46546939 285.891429,7.392 285.72,7.392 C285.421333,7.392 285.27437,7.56266667 285.093695,7.8534321 L284.544,8.784 L283.704,8.784 L283.704,2.088 L286.296,2.088 C286.488,2.088 286.704,2.088 286.704,1.824 C286.704,1.68 286.584,1.536 286.44,1.416 L285.504,0.528 C285.36,0.384 285.072,0.168 284.808,0.168 C284.664,0.168 284.4,0.24 284.184,0.624 L283.704,1.512 L274.944,1.512 L275.232,2.088 L277.2,2.088 L277.2,8.784 L274.344,8.784 L274.632,9.36 L277.2,9.36 L277.198308,11.7817609 C277.17317,14.8368435 276.819429,18.4765714 273.048,21.768 L273.12,21.888 C276.672,20.328 278.016,16.92 278.328,15.96 C278.808,14.472 279,12.888 279,11.304 L279,9.36 L281.904,9.36 L281.905573,21.2879782 C281.914225,21.6065325 281.970462,21.744 282.336,21.744 C283.585043,21.744 283.693656,21.4638941 283.703101,20.8671469 L283.704,9.36 L286.8,9.36 C287.04,9.36 287.232,9.336 287.232,9.048 Z M281.904,8.784 L279,8.784 L279,2.088 L281.904,2.088 L281.904,8.784 Z M274.152,1.776 C274.152,1.632 274.08,1.536 273.96,1.44 L273.24,0.696 C272.928,0.36 272.832,0.312 272.616,0.312 C272.4,0.312 272.208,0.408 272.016,0.768 L271.632,1.512 L265.44,1.512 L265.8,2.088 L268.464,2.088 L268.406333,2.71811111 C268.311333,3.70866667 268.208,4.452 267.888,5.712 L267.724117,6.28592356 C267.28288,7.76170667 266.272,10.664 264.504,13.368 L264.768,13.488 L265.157157,13.0491841 C265.755174,12.3598017 266.417455,11.5243636 267.144,10.464 L267.145749,19.893691 C267.156245,20.2413061 267.229714,20.4 267.744,20.4 C268.224,20.4 268.848,20.136 268.848,19.632 L268.848,16.56 L271.632,16.56 L271.632393,17.9112863 C271.63768,18.1333491 271.689231,18.288 272.136,18.288 C273.408,18.288 273.408,17.808 273.408,17.472 L273.408,9.24 L273.60339,9.09578362 C273.84,8.9145124 273.84,8.87345455 273.84,8.736 L273.835522,8.66672886 C273.824327,8.60130612 273.785143,8.51314286 273.648,8.376 L272.88,7.512 C272.784,7.416 272.52,7.2 272.352,7.2 C272.208,7.2 272.04,7.248 271.848,7.536 L271.368,8.232 L269.016,8.232 L268.656,7.92 C269.64,6.048 270.096,4.248 270.48,2.088 L273.792,2.088 C274.008,2.088 274.152,2.016 274.152,1.776 Z M271.632,15.984 L268.848,15.984 L268.848,8.808 L271.632,8.808 L271.632,15.984 Z M310.992,3.84 L310.987087,3.77471468 C310.956632,3.59501385 310.763368,3.43452632 309.84,2.64 L309.416292,2.26399289 C309.11936,2.00672 309.0384,1.968 308.88,1.968 C308.568,1.968 308.064,2.76 307.824,3.12 L301.008,3.12 L301.008,0.96 L301.447111,0.650666667 C301.632,0.512 301.632,0.48 301.632,0.384 C301.632,0.192 301.536,0.144 301.248,0.12 L299.04,5.68434189e-14 L299.04,3.12 L291.84,3.12 C291.792,2.52 291.672,2.16 291.576,1.8 L291.384,1.8 C291.48,3.192 290.736,4.32 290.064,4.896 L289.632222,5.26911111 C289.026667,5.80133333 288.96,5.928 288.96,6.288 C288.96,6.696 289.32,7.104 289.848,7.104 C290.832,7.104 291.768,5.88 291.864,3.696 L301.008,3.696 L301.008,7.224 C301.008,9.36581818 302.426997,9.49562534 304.310009,9.50349245 L306.528,9.504 L307.04609,9.49982799 C309.196776,9.46310204 310.128,9.17657143 310.128,8.352 C310.128,8.112 310.056,7.992 309.864,7.824 C309.576,7.512 309.48,7.32 309.48,6.528 C309.48,6.264 309.648,4.944 309.648,4.632 L309.456,4.632 L309.381831,4.95008746 C309.207184,5.65959184 308.866286,6.76457143 308.208,7.464 C307.728,7.992 307.392,7.992 306.36,7.992 L304.656,7.992 L304.291458,7.98623611 C303.102771,7.94496528 302.809865,7.67247569 302.785693,6.86328299 L302.784,3.696 L308.064,3.696 C307.488,4.896 306.624,6.12 306.36,6.504 L306.504,6.624 C307.752,6 309.12,4.92 309.648,4.44 L310.082913,4.34837318 C310.591959,4.23465306 310.992,4.104 310.992,3.84 Z M298.704,4.968 C298.704,4.824 298.545306,4.71526531 298.424397,4.65690962 L296.256,3.72 C295.344,7.32 293.064,9.744 289.176,11.16 L289.176,11.352 C294,10.56 296.4,7.944 297.312,6.312 L297.650799,5.68478134 C297.745959,5.51265306 297.785143,5.448 297.84,5.352 L298.326157,5.25068222 C298.630531,5.17861224 298.704,5.12228571 298.704,4.968 Z M310.752,19.92 C310.752,19.7066667 310.695111,19.5691852 310.446486,19.3558519 L310.261248,19.202136 C310.050432,19.017624 309.919488,18.816216 309.892992,17.848344 L309.888,17.448 C309.888,16.92 309.936,14.592 309.936,14.112 L309.648,14.112 L309.560682,14.7127917 C308.888292,19.1431667 308.136,19.584 306.48,19.584 L306.233284,19.58107 C305.601185,19.5623704 305.184,19.432 305.184,18.6 C305.184,17.712 305.376,15.552 305.52,14.112 L305.75232,13.950912 C306.05952,13.7328 306.336,13.5024 306.336,13.272 C306.336,13.032 305.976,12.696 305.4,12.144 L305.102764,11.8816356 C304.803551,11.6308163 304.716,11.616 304.584,11.616 C304.3464,11.616 304.26432,11.69376 304.005336,11.989248 L303.542947,12.5269465 C303.481185,12.6014815 303.437333,12.656 303.384,12.72 L299.712,12.72 C299.88,11.568 299.904,10.344 299.928,9.816 L300.279,9.647088 C300.53184,9.51672 300.72,9.384 300.72,9.216 C300.72,8.928 300.384,8.856 300.168,8.832 L298.008,8.616 L298.041,9.3 C298.0464,9.4512 298.05072,9.61968 298.053312,9.820992 L298.05504,10.54272 C298.0512,11.02272 298.032,11.9328 297.936,12.72 L291.576,12.72 L291.984,13.296 L297.864,13.296 C296.784,19.008 291.72,20.952 289.08,21.816 L289.176,22.056 C292.224,21.504 295.152,20.28 297.312,18.072 C298.992,16.344 299.424,14.376 299.616,13.296 L303.744,13.296 L303.424596,17.3340693 C303.366585,18.150585 303.36,18.408 303.36,18.672 C303.36,20.976 304.776,21.192 306.576,21.192 L307.281558,21.186447 C309.266568,21.1516766 310.752,20.9313103 310.752,19.92 Z M335.04,3.84 C335.04,3.696 334.968,3.528 334.848,3.432 L333,1.896 C332.928,1.824 332.712,1.704 332.568,1.704 C332.376,1.704 332.208,1.944 332.184,1.968 L331.656,2.76 L325.08,2.76 L325.08,1.104 L325.44675,0.87 C325.7505,0.6675 325.872,0.546 325.872,0.384 C325.872,0.192 325.701333,0.170666667 325.427424,0.151440329 L323.208,5.68434189e-14 L323.208,2.76 L315.768,2.76 C315.744,2.376 315.672,1.776 315.504,1.44 L315.216,1.44 L315.173037,1.86696296 C315.055259,2.86696296 314.837481,3.4002963 314.019704,4.34196296 L313.396724,5.04441115 C313.016138,5.48113495 312.96,5.59341176 312.96,5.832 C312.96,6.384 313.344,6.72 313.776,6.72 C314.904,6.72 315.84,5.208 315.792,3.336 L331.896,3.336 L331.696691,3.79321811 C331.438815,4.36888889 331.098667,5.072 330.744,5.688 L330.984,5.928 L331.866083,5.33543056 C332.361333,4.997 332.926,4.598 333.36,4.248 L334.071637,4.24419303 C334.815623,4.2299169 335.04,4.16210526 335.04,3.84 Z M332.688,12.144 C332.688,10.632 329.784,8.736 327.6,7.992 L327.48,8.232 C328.704,9.024 329.112,9.552 329.592,10.128 L328.882959,10.1801029 C326.357989,10.3479924 323.440696,10.368 322.104,10.368 L322.502429,9.89338214 C323.947238,8.1517824 324.46656,7.28448 324.864,6.6 L330.432,6.6 C330.6,6.6 330.912,6.6 330.912,6.312 C330.912,6.192 330.812,6.05533333 330.737,5.98533333 L329.448,4.92 C329.328,4.824 329.16,4.752 329.016,4.752 C328.848,4.752 328.68,4.92 328.656,4.992 L328.032,6.024 L316.896,6.024 L317.28,6.6 L322.56,6.6 C322.248,7.824 321.48,9.576 321.096,10.368 L317.137403,10.3892318 C316.227614,10.3870634 315.659636,10.3694545 314.856,10.32 L315.792,12.792 C315.84,12.912 315.984,13.272 316.2,13.272 C316.464,13.272 316.56,12.96 316.704,12.336 L322.032,11.736 L322.032,11.736 C324.48,11.448 327.336,11.016 330,10.632 C330.312,11.04 330.72,11.76 330.816,11.952 L330.996945,12.2727464 C331.333224,12.8571429 331.536,13.104 331.968,13.104 C332.4,13.104 332.688,12.624 332.688,12.144 Z M333.984,20.568 C333.984,20.88 333.6,20.88 333.48,20.88 L314.16,20.88 L313.752,20.304 L323.16,20.304 L323.16,16.368 L315.768,16.368 L315.36,15.792 L323.16,15.792 L323.16,11.976 L325.44,12.216 C325.608,12.24 325.8,12.312 325.8,12.48 C325.8,12.696 325.56,12.84 325.08,13.056 L325.08,15.792 L329.352,15.792 L330.216,14.544 L330.269333,14.4835556 C330.322667,14.4266667 330.408,14.352 330.504,14.352 C330.624,14.352 330.768,14.448 330.84,14.496 L332.232,15.744 C332.328,15.816 332.376,15.96 332.376,16.08 C332.376,16.368 332.088,16.368 331.92,16.368 L325.08,16.368 L325.08,20.304 L330.96,20.304 L331.704,19.128 C331.776,18.984 331.92,18.888 332.088,18.888 C332.2224,18.888 332.34144,18.94944 332.432832,19.023168 L333.792,20.208 C333.888,20.304 333.984,20.472 333.984,20.568 Z" id="コマーシャルデザイン研究室" fill="#D36C6C" fill-rule="nonzero"></path>
                    </g>
                </g>
            </g>
        </g>
    </g>
</svg>