<?xml version="1.0" encoding="UTF-8"?>
<svg width="367px" height="23px" viewBox="0 0 367 23" version="1.1" xmlns="http://www.w3.org/2000/svg" xmlns:xlink="http://www.w3.org/1999/xlink">
    <!-- Generator: Sketch 59.1 (86144) - https://sketch.com -->
    <title>coma</title>
    <desc>Created with Sketch.</desc>
    <g id="Page-1" stroke="none" stroke-width="1" fill="none" fill-rule="evenodd">
        <g id="pc" transform="translate(-1469.000000, -3452.000000)">
            <g id="研究室紹介" transform="translate(209.000000, 2380.000000)">
                <g id="研究室" transform="translate(974.000000, 0.000000)">
                    <g id="coma" transform="translate(286.000000, 1072.000000)">
                        <rect id="透明--copy-12" fill="#FFFFFF" opacity="0.01" x="0" y="0.112" width="367" height="22"></rect>
                        <path d="M75.776,6.144 C75.776,6.096 75.776,6.048 75.68,5.928 L74.6080545,4.9216473 C73.9312533,4.29717004 73.8485517,4.272 73.64,4.272 C73.568,4.272 73.52,4.296 73.448,4.344 C73.184,4.536 73.04,4.632 72.776,4.704 C72.3242353,4.81694118 70.0654118,4.90862284 69.341025,4.95903603 L69.224,4.968 C68.3470769,5.03723077 64.2305089,5.46149112 63.0190387,5.49402412 L62.6053333,5.49422222 C62.344,5.49066667 61.976,5.48 61.736,5.448 C61.448,5.424 60.032,4.728 60.008,4.728 L59.84,4.872 C60.08,5.736 61.232,7.368 61.928,7.368 L61.9845556,7.36511111 C62.0216667,7.36066667 62.061,7.35 62.123,7.326 L62.624,7.104 C62.8017778,7.03733333 63.0207078,6.9912428 64.7477921,6.67994879 L65.192,6.6 C67.1128571,6.25285714 70.7743878,6.03961224 71.8296902,6.02482325 L71.936,6.024 C72.368,6.024 72.512,6.048 72.848,6.096 L72.8197459,6.48112835 C72.6814667,8.06402596 72.0733023,13.879814 71.84,15.216 L70.4891164,15.2529209 C69.6307484,15.2822329 69.0269724,15.3213369 68.0453404,15.4117049 L65.3742222,15.6631111 C64.2506667,15.7626667 63.44,15.816 62.672,15.816 L62.3422333,15.8120725 C61.5954879,15.79009 61.3675294,15.6592941 60.224,15.024 L60.008,15.12 C60.104,15.648 60.32,16.032 60.92,16.608 L61.1283727,16.7972231 C61.4733884,17.1024793 61.9410909,17.472 62.216,17.472 C62.408,17.472 63.296,17.16 63.488,17.112 C65.0746667,16.772 68.1812593,16.4962222 70.2198601,16.4666296 L70.91975,16.465875 C71.3585,16.4715 72.02,16.494 72.56,16.584 L72.9623324,16.6545306 C73.2530612,16.7035102 73.4685714,16.728 73.88,16.728 C74.168,16.728 74.336,16.536 74.336,16.368 C74.336,15.936 73.592,15.456 73.232,15.24 C73.2848,14.6064 73.9184,11.5592533 74.3566791,9.51538489 L74.72,7.848 C74.804,7.449 74.869625,7.288875 74.9972656,7.110375 L75.056,7.032 C75.152,6.888 75.776,6.336 75.776,6.144 Z M101.168,7.272 C101.168,6.552 99.464,4.704 98.816,4.704 C98.768,4.704 98.696,4.704 98.624,4.728 C98.552,4.752 97.88,5.232 97.736,5.28 C97.4462857,5.39142857 96.039102,5.44077551 95.5513178,5.48568805 L94.8169951,5.56770716 C92.3262041,5.86427211 85.7405714,6.768 84.872,6.768 C84.176,6.768 83.336,6.6 82.784,5.808 L82.568,5.904 C82.76,7.536 83.936,8.904 84.44,8.904 C84.584,8.904 84.752,8.832 84.8,8.808 C85.1264,8.6544 85.43744,8.51616 85.708544,8.417856 L85.904,8.352 C88.472,7.464 95.096,6.384 97.808,6.432 C97.568,7.44 96.848,8.496 95.816,9.84 C94.832,11.112 93.824,12.336 92.696,13.44 L92.355104,13.159416 C91.28072,12.29952 89.732,11.3016 87.464,10.848 L87.392,11.088 C90.8768,13.1245714 91.6306547,14.9264522 92.1681064,16.5137588 L92.264,16.8 C92.456,17.328 92.72,18.192 93.584,18.192 C94.328,18.192 94.376,17.184 94.376,16.776 C94.376,15.552 93.656,14.616 93.176,13.992 L93.9508637,13.3905802 C94.9602356,12.5885617 95.7189362,11.8954321 97.0606461,10.5680247 L99.464,8.16 C99.488,8.136 99.824,7.8 100.04,7.776 L100.35186,7.73800583 C100.921143,7.66579592 101.168,7.60114286 101.168,7.272 Z M124.448,11.208 C124.448,10.464 123.248,9.864 122.192,9.864 C121.88,9.864 120.416,10.2 120.08,10.248 L111.456972,10.5881108 C110.702216,10.6149868 110.173217,10.632 110.048,10.632 C109.328,10.632 108.416,10.488 107.552,9.384 L107.336,9.48 C107.528,11.016 108.368,12.264 109.064,12.264 C109.260364,12.264 110.091438,11.9664793 110.421235,11.8943531 L110.504,11.88 C110.761053,11.8332632 116.023867,11.4679778 118.250292,11.4487847 L118.424,11.448 C120.314,11.448 121.803219,11.5745625 122.733453,11.6694844 L123.591111,11.752 C123.658667,11.7573333 123.704,11.76 123.728,11.76 C124.16,11.76 124.448,11.616 124.448,11.208 Z M138.704,5.064 C138.704,3.456 136.904,2.52 134.072,2.496 L133.952,2.736 L134.226831,2.92431276 C134.599704,3.17274074 135.130667,3.50666667 135.56,3.768 C136.52,4.368 136.832,4.752 137.024,4.968 L137.343985,5.33954519 C137.680816,5.72265306 137.845143,5.856 138.128,5.856 C138.32,5.856 138.704,5.712 138.704,5.064 Z M148.928,6.768 L148.664,6.432 L148.150034,7.0616699 C145.626739,10.0951842 142.504516,12.9870968 137.408,15.816 L136.756461,16.165218 C136.033183,16.5453728 135.327385,16.872 134.792,16.872 L134.654009,16.8695966 C134.301702,16.8540623 133.885647,16.7407059 133.208,15.936 L132.992,16.032 C133.352,17.688 134.984,19.368 135.584,19.368 L135.659289,19.3622624 C135.77614,19.3409213 135.865003,19.2496093 136.153283,18.9221458 L136.431988,18.6076425 C136.76249,18.254385 137.1854,17.973 140.36,15.864 C144.752,12.96 147.896,8.64 148.928,6.768 Z M136.256,10.176 C136.256,7.68 132.632,7.296 131.816,7.2 L131.744,7.416 C132.344,7.776 134.048,8.976 134.816,10.272 L135.043712,10.663488 C135.29408,11.08128 135.3632,11.112 135.632,11.112 C135.92,11.112 136.256,10.848 136.256,10.176 Z M171.44,10.8 C171.44,10.6472727 171.420165,10.593719 171.110023,10.3147708 L170.168,9.504 C170.024,9.384 169.832,9.216 169.616,9.216 C169.424,9.216 169.328,9.288 169.208,9.384 L168.56,9.864 L168.194901,10.0071976 C167.460298,10.2796194 166.449412,10.5571765 163.256,11.376 L163.115968,10.7426276 C162.958507,9.99818667 162.752,8.9328 162.752,8.616 C162.752,8.472 162.968,7.8 162.968,7.656 C162.968,7.18164706 161.64991,6.94114879 161.214715,6.91449623 L160.993766,6.91492969 C160.850938,6.921375 160.589,6.942 159.896,7.008 L159.872,7.224 L160.2087,7.37541691 C160.462694,7.49436735 160.653714,7.60457143 160.808,7.776 C161.24,8.208 161.936,10.752 162.176,11.664 L160.213695,12.1622387 C160.047704,12.2038519 159.88,12.2453333 159.704,12.288 C158.912,12.48 158.624,12.48 158.312,12.48 C157.784,12.48 157.16,12.36 156.536,11.976 L156.368,12.168 L156.706831,12.6865844 C156.848922,12.9017613 157.011029,13.1353745 157.165761,13.315786 L157.28,13.44 C157.52,13.728 158.12,14.064 158.36,14.064 C158.456,14.064 158.504,14.016 158.912,13.752 C159.656,13.224 160.256,13.008 162.368,12.408 L162.636828,13.4289375 C162.668609,13.5538125 162.697203,13.6704375 162.720734,13.7743125 L163.328,16.512 C163.832,18.816 163.88,19.344 163.88,20.112 C163.904,20.952 164.96,21.96 165.32,21.96 C165.656,21.96 165.848,21.48 165.848,21.144 C165.848,20.9573333 165.766519,20.6373333 165.673514,20.3280329 L165.422722,19.554788 C165.129548,18.6163396 163.786057,13.704 163.424,12.12 L167.126479,11.0694046 C167.825124,10.8752308 168.392923,10.7215385 168.584,10.68 C168.392,11.832 167.552,13.56 166.496,14.928 L166.712,15.072 L167.113485,14.6994244 C167.942116,13.9100942 169.315368,12.4964211 170.144,11.304 L170.73125,11.199375 C170.7875,11.19 170.828,11.184 170.84,11.184 L171.146879,11.1151916 C171.363835,11.0570579 171.44,10.992 171.44,10.8 Z M198.488,10.44 L198.296,10.224 C196.448,11.712 194.6,12.888 193.976,13.248 C191.024,15.024 189.752,15.048 189.056,15.048 L189.368,6.792 C189.392,5.88 189.584,5.616 189.728,5.4 C189.848,5.256 190.064,4.944 190.064,4.848 C190.064,4.608 189.368,4.08 188.6,3.72 C187.904,3.384 187.472,3.384 186.752,3.432 L186.752,3.744 C187.472,4.128 187.784,4.512 187.784,5.664 L187.774016,6.952896 C187.7456,9.32448 187.6496,13.8096 187.4,14.424 L187.156895,14.9824548 C187.059837,15.2107347 187.04,15.2845714 187.04,15.408 C187.04,15.5616 187.10144,15.68448 187.16288,15.788928 L188.12,17.328 C188.312,17.64 188.456,17.88 188.72,17.88 C188.912,17.88 189.008,17.736 189.128,17.592 L189.481992,17.165746 C189.607574,17.0199763 189.654154,16.9790769 189.728,16.92 C189.872,16.8 192.392,15.6 192.848,15.336 C195.968,13.488 197.432,11.736 198.488,10.44 Z M185.264,5.064 C185.264,4.756 185.042167,4.569 184.487583,4.28116667 L184.328,4.2 C183.416,3.72 183.032,3.624 182.168,3.576 L182.048,3.816 C182.949895,4.43873684 183.064044,5.5033795 183.078083,6.80363785 L183.08,7.272 C183.08,11.064 182.552,15.12 177.248,19.008 L177.416,19.296 C179.12,18.528 181.664,16.824 182.936,14.688 C184.496,12.072 184.592,10.08 184.76,6.672 L184.785778,6.296 C184.805333,6.03466667 184.832,5.784 184.88,5.736 L185.044609,5.52813169 C185.205926,5.31911111 185.264,5.21333333 185.264,5.064 Z M223.232,2.832 C223.232,0.96 221.288,0.552 219.56,0.168 L219.44,0.288 C220.364,0.882 221.388833,1.839 221.996889,2.54895833 L222.496889,3.15822222 C222.653333,3.336 222.696,3.336 222.824,3.336 C223.016,3.336 223.232,3.192 223.232,2.832 Z M221.552,4.752 C221.552,3.936 221.408,3.552 220.976,3.144 C220.4,2.592 219.656,2.256 218.264,2.016 L218.192,2.184 L218.548297,2.47298438 C219.294125,3.094125 219.491,3.396 220.184,4.488 C220.4,4.824 220.928,5.376 221.24,5.376 C221.552,5.376 221.552,4.896 221.552,4.752 Z M217.832,4.176 C217.832,3.816 216.344,2.904 215.528,2.904 C215.216,2.904 213.704,3.432 213.368,3.504 L213.217785,3.53010489 C212.297493,3.66112 208.4656,3.912 208.376,3.912 C208.136,3.912 207.56,3.864 207.032,3.744 C206.888,3.696 206.192,3.288 206.024,3.192 L205.832,3.216 C205.8995,3.5535 205.988094,3.86990625 206.691043,4.58050195 L206.84,4.728 C207.224,5.112 207.464,5.28 207.8,5.28 C207.996364,5.28 208.886942,5.06181818 209.227558,5.00411721 L209.312,4.992 C211.442207,4.68248276 213.489541,4.6077717 214.542402,4.589738 L215.216,4.584 C215.436,4.584 216.482833,4.62433333 216.877611,4.63105556 L217.102365,4.63033955 C217.385231,4.6212071 217.832,4.56184615 217.832,4.176 Z M220.784,8.88 C220.784,8.04 218.528,7.344 218.048,7.344 C217.928,7.344 217.352,7.656 217.208,7.704 C216.584,7.848 212.912,8.088 212.096,8.16 L208.603929,8.47877549 C207.113384,8.6176609 205.559529,8.76564706 204.416,8.88 C204.128,8.88 203.864,8.856 203.576,8.784 L203.394337,8.72171193 C203.115259,8.61985185 202.650667,8.43733333 202.52,8.4 L202.328,8.496 C202.664,9.192 203.552,10.008 203.6,10.056 L203.750123,10.1685926 C203.952,10.3137778 204.250667,10.488 204.68,10.488 L204.826112,10.480512 C204.904832,10.471232 204.986752,10.4518187 205.108316,10.414272 L205.952,10.128 C206.792,9.816 209.24,9.48 209.912,9.48 C210.344,9.48 211.136,9.648 211.136,10.656 L211.132101,10.8373544 C211.099912,11.6408033 210.824686,14.0996571 208.784,17.04 C207.56,18.792 205.976,19.656 204.8,20.232 L204.8,20.376 C207.08,20.256 211.184,18.288 212.672,12.624 L213.026375,11.15925 C213.068,10.9965 213.104,10.866 213.128,10.8 C213.176,10.632 213.704,10.008 213.704,9.84 C213.704,9.672 213.608,9.624 213.344,9.504 L212.72,9.192 L214.099641,9.05583088 C214.633768,9.00834174 214.979135,8.98834466 215.337256,8.98053477 L215.84,8.976 C216.464,8.976 217.496,8.976 218.408,9.096 L219.314,9.246 C219.704,9.306 220.1,9.36 220.256,9.36 C220.568,9.36 220.784,9.192 220.784,8.88 Z M246.944,3.576 L246.93814,3.47234844 C246.911147,3.15637333 246.7808,2.3008 246.344,1.968 C246.056,1.752 244.904,1.248 243.68,0.96 L243.536,1.128 L244.579358,2.00354814 L244.579358,2.00354814 L244.736,2.136 C245.072,2.409 245.389625,2.7555 245.576328,2.9825625 L245.956971,3.44804883 C246.330594,3.896625 246.422,3.96 246.656,3.96 C246.848,3.96 246.944,3.816 246.944,3.576 Z M245,5.064 C245,4.4808 244.88336,4.03368 244.5626,3.72264 L244.448,3.624 C244.04,3.288 243.368,2.808 241.664,2.304 L241.568,2.448 L241.724203,2.58868797 C242.099117,2.93173214 242.559244,3.39733116 243.359271,4.38761816 L244.037934,5.22898765 C244.368444,5.62540741 244.466667,5.688 244.64,5.688 C244.952,5.688 245,5.28 245,5.064 Z M245.528,9.216 C245.528,8.568 243.896,7.584 243.248,7.584 C243.176,7.584 243.032,7.656 243.008,7.68 L242.751872,7.794048 C242.64416,7.8384 242.552,7.8672 242.408,7.896 L242.190357,7.91281067 C241.5744,7.94442667 240.1184,7.9472 239.744,7.968 L239.801,6.345 C239.814125,5.911875 239.826078,5.47757812 239.833197,5.15124023 L239.84,4.704 C239.84,4.49066667 239.877926,4.41007407 240.07177,4.12510288 L240.152,4.008 C240.344,3.744 240.416,3.6 240.416,3.456 C240.416,3.12 239.072,2.064 237.08,2.136 L237.08,2.328 L237.281886,2.51753933 C237.869009,3.08367974 237.97594,3.36536371 238.045164,4.47934618 L238.182222,7.22933333 C238.197333,7.568 238.208,7.848 238.208,7.968 L237.071936,7.997952 C235.73792,8.04096 234.9968,8.1024 233.288,8.256 L233.282912,8.012592 C233.27384,7.1676 233.3192,5.3856 233.384,5.256 C233.408,5.16 233.768,4.704 233.768,4.584 C233.768,4.344 232.76,3.384 230.696,3.336 L230.576,3.552 C231.68,4.368 231.848,5.328 231.848,8.448 L230.987797,8.58721875 C230.536625,8.656125 230.096,8.718 229.496,8.808 C229.232,8.856 228.848,8.904 228.56,8.904 C227.84,8.904 227.12,8.784 226.304,7.992 L226.208,8.112 C226.664,10.032 227.84,10.56 228.08,10.56 C228.206,10.56 228.332,10.533 228.447875,10.489125 L228.795961,10.3375716 C229.264747,10.14048 229.5088,10.0864 230.528,9.816 L231.686912,9.627072 C231.7328,9.61824 231.776,9.6096 231.824,9.6 L231.827167,9.92980628 C231.826231,11.013551 231.728,12.4125714 231.728,12.456 L231.679484,12.7289531 C231.6455,12.932625 231.608,13.182 231.608,13.272 C231.608,13.784 231.854519,14.2201481 232.16214,14.6984362 L232.28,14.88 C232.328,14.952 232.4,15.072 232.592,15.072 C232.808,15.072 233.072,14.832 233.168,14.568 L233.184119,14.5101574 C233.242122,14.2729252 233.36,13.5108571 233.36,11.904 L233.354168,10.996584 C233.3456,10.314 233.3288,9.7008 233.312,9.264 L234.063781,9.191625 C235.674875,9.042 236.381,9.021 238.208,9 C238.04,12.144 237.728,13.968 236.816,15.936 C235.784,18.168 234.152,20.112 231.92,21.144 L231.968,21.36 C234.2,20.88 236.456,19.152 237.872,17.16 C239,15.576 239.576,13.776 239.696,9 C240.6816,9 242.41984,9.12544 243.232612,9.22021689 L243.392,9.24 C243.656,9.264 244.832,9.576 245.024,9.576 L245.111742,9.57383621 C245.270942,9.56409917 245.528,9.51054545 245.528,9.216 Z M264.728,3.552 C264.728,2.928 264.08,1.704 262.208,1.104 L262.04,1.224 C262.448,1.92 262.568,2.232 262.568,2.544 C262.568,3.012 261.93425,3.9553125 261.42626,4.65304688 L261.104,5.088 C258.632,8.448 256.328,10.824 251.552,13.536 L251.576,13.776 C253.856,13.2 257.048,11.664 259.832,8.976 C260,9.144 260.048,9.216 260.072,9.408 L260.090222,9.62771431 C260.151985,10.6046881 260.192,13.6267826 260.192,14.328 C260.192,15.744 260,16.92 259.832,17.736 L259.783484,17.94525 C259.7495,18.1065 259.712,18.324 259.712,18.504 C259.712,18.768 259.860163,19.0912653 260.179773,19.6716997 L260.48,20.208 C260.768,20.712 260.792,20.784 260.984,20.784 L261.081317,20.7775473 C261.226963,20.7591111 261.461333,20.6906667 261.536,20.448 C261.628308,20.208 261.663811,19.7691834 261.675281,19.1097023 L261.679083,18.3218987 L261.679083,18.3218987 L261.608,13.416 C261.608,13.1155556 261.719276,9.61037037 261.748949,9.3082774 L261.752,9.288 C261.8,9.048 261.872,8.856 261.872,8.784 C261.872,8.52 261.2,8.064 260.912,7.872 L261.14705,7.64505831 C261.33207,7.4575277 261.548805,7.21042566 261.983254,6.66675219 L263.392625,4.869 C263.692719,4.493625 263.808477,4.3905 264.075248,4.27886719 L264.152,4.248 C264.536,4.104 264.728,4.008 264.728,3.552 Z M281.984,6.36 C281.984,5.472 281.552,4.656 280.952,4.176 C279.717714,3.216 278.026286,2.82198639 277.474086,2.78663816 L277.4,2.784 C277.304,2.784 277.064,2.808 277.064,2.976 C277.064,3.03 277.1045,3.084 277.155125,3.127875 L277.208,3.168 C277.208,3.19028571 278.077143,3.75061224 278.335816,3.96505539 L278.384,4.008 C279.536,4.968 279.896,5.856 280.088,6.336 L280.282748,6.79779492 C280.556281,7.42415625 280.811,7.8495 281.24,7.752 C281.912,7.584 281.984,6.744 281.984,6.36 Z M292.4,5.232 L292.136,5.088 L291.968,5.304 L289.76,8.184 L289.49952,8.51424331 C288.208276,10.0969798 285.348138,12.9293793 282.488,14.784 L281.389849,15.4900806 C279.848,16.4649988 279.272,16.728 278.696,16.728 C278.312,16.728 277.688,16.44 277.376,16.248 L277.250048,16.164288 C277.20512,16.13664 277.1792,16.128 277.136,16.128 C277.112,16.128 276.992,16.152 276.992,16.272 C276.992,16.584 277.928,17.904 278.048,18.048 C278.312,18.312 279.44,19.2 279.8,19.2 C279.92,19.2 280.023333,19.1333333 280.123889,19 L280.384626,18.6196543 C280.524708,18.4191605 280.611292,18.3100247 280.751374,18.1687901 L280.952,17.976 C281.096,17.832 282.32,16.944 284.696,15.216 C287.456,13.176 291.464,8.232 292.4,5.232 Z M319.232,9.048 C319.232,8.856 319.136,8.736 318.992,8.568 L318.118834,7.60366181 C317.989388,7.46546939 317.891429,7.392 317.72,7.392 C317.421333,7.392 317.27437,7.56266667 317.093695,7.8534321 L316.544,8.784 L315.704,8.784 L315.704,2.088 L318.296,2.088 C318.488,2.088 318.704,2.088 318.704,1.824 C318.704,1.68 318.584,1.536 318.44,1.416 L317.504,0.528 C317.36,0.384 317.072,0.168 316.808,0.168 C316.664,0.168 316.4,0.24 316.184,0.624 L315.704,1.512 L306.944,1.512 L307.232,2.088 L309.2,2.088 L309.2,8.784 L306.344,8.784 L306.632,9.36 L309.2,9.36 L309.198308,11.7817609 C309.17317,14.8368435 308.819429,18.4765714 305.048,21.768 L305.12,21.888 C308.672,20.328 310.016,16.92 310.328,15.96 C310.808,14.472 311,12.888 311,11.304 L311,9.36 L313.904,9.36 L313.905573,21.2879782 C313.914225,21.6065325 313.970462,21.744 314.336,21.744 C315.585043,21.744 315.693656,21.4638941 315.703101,20.8671469 L315.704,9.36 L318.8,9.36 C319.04,9.36 319.232,9.336 319.232,9.048 Z M313.904,8.784 L311,8.784 L311,2.088 L313.904,2.088 L313.904,8.784 Z M306.152,1.776 C306.152,1.632 306.08,1.536 305.96,1.44 L305.24,0.696 C304.928,0.36 304.832,0.312 304.616,0.312 C304.4,0.312 304.208,0.408 304.016,0.768 L303.632,1.512 L297.44,1.512 L297.8,2.088 L300.464,2.088 L300.406333,2.71811111 C300.311333,3.70866667 300.208,4.452 299.888,5.712 L299.724117,6.28592356 C299.28288,7.76170667 298.272,10.664 296.504,13.368 L296.768,13.488 L297.157157,13.0491841 C297.755174,12.3598017 298.417455,11.5243636 299.144,10.464 L299.145749,19.893691 C299.156245,20.2413061 299.229714,20.4 299.744,20.4 C300.224,20.4 300.848,20.136 300.848,19.632 L300.848,16.56 L303.632,16.56 L303.632393,17.9112863 C303.63768,18.1333491 303.689231,18.288 304.136,18.288 C305.408,18.288 305.408,17.808 305.408,17.472 L305.408,9.24 L305.60339,9.09578362 C305.84,8.9145124 305.84,8.87345455 305.84,8.736 L305.835522,8.66672886 C305.824327,8.60130612 305.785143,8.51314286 305.648,8.376 L304.88,7.512 C304.784,7.416 304.52,7.2 304.352,7.2 C304.208,7.2 304.04,7.248 303.848,7.536 L303.368,8.232 L301.016,8.232 L300.656,7.92 C301.64,6.048 302.096,4.248 302.48,2.088 L305.792,2.088 C306.008,2.088 306.152,2.016 306.152,1.776 Z M303.632,15.984 L300.848,15.984 L300.848,8.808 L303.632,8.808 L303.632,15.984 Z M342.992,3.84 L342.987087,3.77471468 C342.956632,3.59501385 342.763368,3.43452632 341.84,2.64 L341.416292,2.26399289 C341.11936,2.00672 341.0384,1.968 340.88,1.968 C340.568,1.968 340.064,2.76 339.824,3.12 L333.008,3.12 L333.008,0.96 L333.447111,0.650666667 C333.632,0.512 333.632,0.48 333.632,0.384 C333.632,0.192 333.536,0.144 333.248,0.12 L331.04,5.68434189e-14 L331.04,3.12 L323.84,3.12 C323.792,2.52 323.672,2.16 323.576,1.8 L323.384,1.8 C323.48,3.192 322.736,4.32 322.064,4.896 L321.632222,5.26911111 C321.026667,5.80133333 320.96,5.928 320.96,6.288 C320.96,6.696 321.32,7.104 321.848,7.104 C322.832,7.104 323.768,5.88 323.864,3.696 L333.008,3.696 L333.008,7.224 C333.008,9.36581818 334.426997,9.49562534 336.310009,9.50349245 L338.528,9.504 L339.04609,9.49982799 C341.196776,9.46310204 342.128,9.17657143 342.128,8.352 C342.128,8.112 342.056,7.992 341.864,7.824 C341.576,7.512 341.48,7.32 341.48,6.528 C341.48,6.264 341.648,4.944 341.648,4.632 L341.456,4.632 L341.381831,4.95008746 C341.207184,5.65959184 340.866286,6.76457143 340.208,7.464 C339.728,7.992 339.392,7.992 338.36,7.992 L336.656,7.992 L336.291458,7.98623611 C335.102771,7.94496528 334.809865,7.67247569 334.785693,6.86328299 L334.784,3.696 L340.064,3.696 C339.488,4.896 338.624,6.12 338.36,6.504 L338.504,6.624 C339.752,6 341.12,4.92 341.648,4.44 L342.082913,4.34837318 C342.591959,4.23465306 342.992,4.104 342.992,3.84 Z M330.704,4.968 C330.704,4.824 330.545306,4.71526531 330.424397,4.65690962 L328.256,3.72 C327.344,7.32 325.064,9.744 321.176,11.16 L321.176,11.352 C326,10.56 328.4,7.944 329.312,6.312 L329.650799,5.68478134 C329.745959,5.51265306 329.785143,5.448 329.84,5.352 L330.326157,5.25068222 C330.630531,5.17861224 330.704,5.12228571 330.704,4.968 Z M342.752,19.92 C342.752,19.7066667 342.695111,19.5691852 342.446486,19.3558519 L342.261248,19.202136 C342.050432,19.017624 341.919488,18.816216 341.892992,17.848344 L341.888,17.448 C341.888,16.92 341.936,14.592 341.936,14.112 L341.648,14.112 L341.560682,14.7127917 C340.888292,19.1431667 340.136,19.584 338.48,19.584 L338.233284,19.58107 C337.601185,19.5623704 337.184,19.432 337.184,18.6 C337.184,17.712 337.376,15.552 337.52,14.112 L337.75232,13.950912 C338.05952,13.7328 338.336,13.5024 338.336,13.272 C338.336,13.032 337.976,12.696 337.4,12.144 L337.102764,11.8816356 C336.803551,11.6308163 336.716,11.616 336.584,11.616 C336.3464,11.616 336.26432,11.69376 336.005336,11.989248 L335.542947,12.5269465 C335.481185,12.6014815 335.437333,12.656 335.384,12.72 L331.712,12.72 C331.88,11.568 331.904,10.344 331.928,9.816 L332.279,9.647088 C332.53184,9.51672 332.72,9.384 332.72,9.216 C332.72,8.928 332.384,8.856 332.168,8.832 L330.008,8.616 L330.041,9.3 C330.0464,9.4512 330.05072,9.61968 330.053312,9.820992 L330.05504,10.54272 C330.0512,11.02272 330.032,11.9328 329.936,12.72 L323.576,12.72 L323.984,13.296 L329.864,13.296 C328.784,19.008 323.72,20.952 321.08,21.816 L321.176,22.056 C324.224,21.504 327.152,20.28 329.312,18.072 C330.992,16.344 331.424,14.376 331.616,13.296 L335.744,13.296 L335.424596,17.3340693 C335.366585,18.150585 335.36,18.408 335.36,18.672 C335.36,20.976 336.776,21.192 338.576,21.192 L339.281558,21.186447 C341.266568,21.1516766 342.752,20.9313103 342.752,19.92 Z M367.04,3.84 C367.04,3.696 366.968,3.528 366.848,3.432 L365,1.896 C364.928,1.824 364.712,1.704 364.568,1.704 C364.376,1.704 364.208,1.944 364.184,1.968 L363.656,2.76 L357.08,2.76 L357.08,1.104 L357.44675,0.87 C357.7505,0.6675 357.872,0.546 357.872,0.384 C357.872,0.192 357.701333,0.170666667 357.427424,0.151440329 L355.208,5.68434189e-14 L355.208,2.76 L347.768,2.76 C347.744,2.376 347.672,1.776 347.504,1.44 L347.216,1.44 L347.173037,1.86696296 C347.055259,2.86696296 346.837481,3.4002963 346.019704,4.34196296 L345.396724,5.04441115 C345.016138,5.48113495 344.96,5.59341176 344.96,5.832 C344.96,6.384 345.344,6.72 345.776,6.72 C346.904,6.72 347.84,5.208 347.792,3.336 L363.896,3.336 L363.696691,3.79321811 C363.438815,4.36888889 363.098667,5.072 362.744,5.688 L362.984,5.928 L363.866083,5.33543056 C364.361333,4.997 364.926,4.598 365.36,4.248 L366.071637,4.24419303 C366.815623,4.2299169 367.04,4.16210526 367.04,3.84 Z M364.688,12.144 C364.688,10.632 361.784,8.736 359.6,7.992 L359.48,8.232 C360.704,9.024 361.112,9.552 361.592,10.128 L360.882959,10.1801029 C358.357989,10.3479924 355.440696,10.368 354.104,10.368 L354.502429,9.89338214 C355.947238,8.1517824 356.46656,7.28448 356.864,6.6 L362.432,6.6 C362.6,6.6 362.912,6.6 362.912,6.312 C362.912,6.192 362.812,6.05533333 362.737,5.98533333 L361.448,4.92 C361.328,4.824 361.16,4.752 361.016,4.752 C360.848,4.752 360.68,4.92 360.656,4.992 L360.032,6.024 L348.896,6.024 L349.28,6.6 L354.56,6.6 C354.248,7.824 353.48,9.576 353.096,10.368 L349.137403,10.3892318 C348.227614,10.3870634 347.659636,10.3694545 346.856,10.32 L347.792,12.792 C347.84,12.912 347.984,13.272 348.2,13.272 C348.464,13.272 348.56,12.96 348.704,12.336 L354.032,11.736 L354.032,11.736 C356.48,11.448 359.336,11.016 362,10.632 C362.312,11.04 362.72,11.76 362.816,11.952 L362.996945,12.2727464 C363.333224,12.8571429 363.536,13.104 363.968,13.104 C364.4,13.104 364.688,12.624 364.688,12.144 Z M365.984,20.568 C365.984,20.88 365.6,20.88 365.48,20.88 L346.16,20.88 L345.752,20.304 L355.16,20.304 L355.16,16.368 L347.768,16.368 L347.36,15.792 L355.16,15.792 L355.16,11.976 L357.44,12.216 C357.608,12.24 357.8,12.312 357.8,12.48 C357.8,12.696 357.56,12.84 357.08,13.056 L357.08,15.792 L361.352,15.792 L362.216,14.544 L362.269333,14.4835556 C362.322667,14.4266667 362.408,14.352 362.504,14.352 C362.624,14.352 362.768,14.448 362.84,14.496 L364.232,15.744 C364.328,15.816 364.376,15.96 364.376,16.08 C364.376,16.368 364.088,16.368 363.92,16.368 L357.08,16.368 L357.08,20.304 L362.96,20.304 L363.704,19.128 C363.776,18.984 363.92,18.888 364.088,18.888 C364.2224,18.888 364.34144,18.94944 364.432832,19.023168 L365.792,20.208 C365.888,20.304 365.984,20.472 365.984,20.568 Z" id="コマーシャルデザイン研究室" fill="#3F3E46" fill-rule="nonzero"></path>
                    </g>
                </g>
            </g>
        </g>
    </g>
</svg>