<?xml version="1.0" encoding="UTF-8"?>
<svg width="439px" height="23px" viewBox="0 0 439 23" version="1.1" xmlns="http://www.w3.org/2000/svg" xmlns:xlink="http://www.w3.org/1999/xlink">
    <!-- Generator: Sketch 59.1 (86144) - https://sketch.com -->
    <title>commu_p</title>
    <desc>Created with Sketch.</desc>
    <g id="Page-1" stroke="none" stroke-width="1" fill="none" fill-rule="evenodd">
        <g id="pc" transform="translate(-1464.000000, -3150.000000)">
            <g id="研究室紹介" transform="translate(209.000000, 2380.000000)">
                <g id="研究室" transform="translate(974.000000, 0.000000)">
                    <g id="commu_p" transform="translate(281.000000, 770.000000)">
                        <rect id="赤--copy-3" fill="#D36C6C" x="0" y="0.112" width="8" height="22"></rect>
                        <rect id="透明--copy-5" fill="#FFFFFF" opacity="0.01" x="0" y="0.112" width="439" height="22"></rect>
                        <path d="M43.776,6.144 C43.776,6.096 43.776,6.048 43.68,5.928 L42.6080545,4.9216473 C41.9312533,4.29717004 41.8485517,4.272 41.64,4.272 C41.568,4.272 41.52,4.296 41.448,4.344 C41.184,4.536 41.04,4.632 40.776,4.704 C40.3242353,4.81694118 38.0654118,4.90862284 37.341025,4.95903603 L37.224,4.968 C36.3470769,5.03723077 32.2305089,5.46149112 31.0190387,5.49402412 L30.6053333,5.49422222 C30.344,5.49066667 29.976,5.48 29.736,5.448 C29.448,5.424 28.032,4.728 28.008,4.728 L27.84,4.872 C28.08,5.736 29.232,7.368 29.928,7.368 L29.9845556,7.36511111 C30.0216667,7.36066667 30.061,7.35 30.123,7.326 L30.624,7.104 C30.8017778,7.03733333 31.0207078,6.9912428 32.7477921,6.67994879 L33.192,6.6 C35.1128571,6.25285714 38.7743878,6.03961224 39.8296902,6.02482325 L39.936,6.024 C40.368,6.024 40.512,6.048 40.848,6.096 L40.8197459,6.48112835 C40.6814667,8.06402596 40.0733023,13.879814 39.84,15.216 L38.4891164,15.2529209 C37.6307484,15.2822329 37.0269724,15.3213369 36.0453404,15.4117049 L33.3742222,15.6631111 C32.2506667,15.7626667 31.44,15.816 30.672,15.816 L30.3422333,15.8120725 C29.5954879,15.79009 29.3675294,15.6592941 28.224,15.024 L28.008,15.12 C28.104,15.648 28.32,16.032 28.92,16.608 L29.1283727,16.7972231 C29.4733884,17.1024793 29.9410909,17.472 30.216,17.472 C30.408,17.472 31.296,17.16 31.488,17.112 C33.0746667,16.772 36.1812593,16.4962222 38.2198601,16.4666296 L38.91975,16.465875 C39.3585,16.4715 40.02,16.494 40.56,16.584 L40.9623324,16.6545306 C41.2530612,16.7035102 41.4685714,16.728 41.88,16.728 C42.168,16.728 42.336,16.536 42.336,16.368 C42.336,15.936 41.592,15.456 41.232,15.24 C41.2848,14.6064 41.9184,11.5592533 42.3566791,9.51538489 L42.72,7.848 C42.804,7.449 42.869625,7.288875 42.9972656,7.110375 L43.056,7.032 C43.152,6.888 43.776,6.336 43.776,6.144 Z M64.176,5.04 C64.176,4.512 63.6,3.816 62.88,3.264 C62.016,2.592 58.752,1.968 55.488,1.992 L55.488,2.184 C58.6312258,2.94270968 60.7367326,4.05385224 61.380085,4.42096982 L62.0571022,4.82113422 C62.6312533,5.15498667 63.3904,5.568 63.672,5.568 C63.984,5.568 64.176,5.376 64.176,5.04 Z M63.792,11.28 C63.792,10.776 63.264,9.888 62.688,9.456 C61.2,8.304 57.576,8.088 55.44,7.944 L55.392,8.304 C57.432,8.784 59.544,9.696 60.792,10.44 L60.9697651,10.558129 C61.5306851,10.9483183 62.8884706,11.976 63.312,11.976 C63.696,11.976 63.792,11.472 63.792,11.28 Z M65.232,19.392 C65.232,18.888 64.44,17.208 63.312,16.632 L63.1388512,16.5499125 C62.0625882,16.0603183 58.584,14.7741176 54.744,14.232 L54.648,14.52 C59.736,16.416 61.656,17.88 64.176,19.776 L64.3170612,19.8616443 C64.4091429,19.9131429 64.5325714,19.968 64.656,19.968 C65.088,19.968 65.232,19.656 65.232,19.392 Z M91.944,19.2 L91.941375,19.1205 C91.925625,18.93675 91.818,18.753 91.104,18.312 L90.6048,18.016704 C90.41472,17.90784 90.3024,17.856 90.216,17.856 C90.168,17.856 89.664,17.976 89.592,18 L89.4933568,18.0140445 C88.9473119,18.0681437 86.4292174,18.170087 86.232,18.192 L86.4198329,17.4416213 C86.83648,15.7202133 87.3024,13.4544 87.552,12.144 L87.9626667,11.7902222 C87.9973333,11.7573333 88.024,11.728 88.056,11.688 C88.152,11.616 88.2,11.52 88.2,11.4 C88.2,11.304 88.2,11.208 88.08,11.088 L87.6214111,10.6879067 C87.170449,10.3048163 86.6022857,9.864 86.328,9.864 C86.064,9.864 86.016,9.912 85.584,10.296 C84.48,10.776 82.008,10.968 80.856,10.968 C80.376,10.968 79.896,10.872 79.032,10.152 L78.864,10.224 C79.08,11.496 80.016,12.288 80.496,12.288 C80.736,12.288 81.84,11.88 82.08,11.808 C83.496,11.4 85.248,11.352 85.968,11.304 L85.893912,12.102039 C85.71786,13.84476 85.3476,16.764 84.96,18.192 L83.2597085,18.3185773 C82.5103207,18.3788222 81.7386472,18.4493528 81.226688,18.5211691 L77.9663286,19.0143339 C77.5038488,19.0813157 77.1516522,19.128 77.064,19.128 C76.536,19.128 76.152,18.912 75.792,18.672 L75.576,18.816 L75.61575,18.99975 C75.663,19.2045 75.744,19.47 75.96,19.776 C76.344,20.304 77.088,20.52 77.28,20.52 C77.376,20.52 78.744,20.016 79.032,19.92 C81.312,19.224 85.656,18.888 86.832,18.888 C87.864,18.888 88.848,18.984 90.072,19.248 L91.0778589,19.4715157 C91.3282367,19.524213 91.5156923,19.56 91.56,19.56 C91.872,19.56 91.944,19.392 91.944,19.2 Z M114.216,6.024 C114.216,5.328 112.512,4.776 112.248,4.776 C112.08,4.776 112.032,4.8 111.576,5.064 C110.28,5.76 105.936,5.952 104.376,5.952 C102.84,5.952 102,5.352 101.664,5.088 L101.424,5.256 C102.024,6.624 103.248,7.608 103.944,7.608 C103.998,7.608 104.0385,7.5945 104.106,7.577625 L104.184,7.56 C104.88,7.416 105.552,7.296 106.224,7.152 C106.603862,7.08496552 110.874036,6.76828537 111.945445,6.72492419 L112.4385,6.71475 C112.929,6.699 113.838,6.636 114.072,6.384 C114.168,6.264 114.216,6.168 114.216,6.024 Z M117.528,15.816 C117.528,14.784 115.776,13.968 115.224,13.968 L115.059,13.9755 C114.834,13.989 114.474,14.016 114.384,14.016 L112.790444,14.0652222 C110.374444,14.1427222 107.872944,14.2449722 105.690944,14.4833472 L104.976,14.568 C101.184,15.048 101.136,15.048 100.44,15.048 L100.218503,15.042624 C99.71616,15.016 99.0672,14.8704 98.256,14.184 L98.088,14.352 C98.472,15.312 99.936,16.872 100.992,16.872 C101.136,16.872 101.592,16.656 101.832,16.536 C103.32,15.84 108,15.36 110.304,15.36 C111.36,15.36 112.416,15.40608 113.472,15.510528 L114.264,15.6 C114.72,15.648 117,16.176 117.096,16.176 L117.196224,16.170816 C117.34368,16.15392 117.528,16.0848 117.528,15.816 Z M140.688,7.056 C140.688,6.48 139.08,5.712 138.84,5.712 C138.735,5.712 138.280875,5.914125 138.072516,5.98073438 L138,6 C136.656,6.456 132.96,6.696 131.352,6.696 L130.892544,6.690624 C130.28352,6.67296 129.696,6.6 129.216,6.312 L129.251556,6.16888889 C129.269333,6.10133333 129.28,6.08 129.312,6.048 L129.76556,5.28374074 C130.041658,4.82640741 130.144128,4.69440741 130.321856,4.56774074 L130.368,4.536 C130.896,4.176 130.944,4.08 130.944,3.936 C130.944,3.72 130.704,3.072 130.128,2.544 C129.216,1.728 128.232,1.704 127.704,1.704 L127.608,1.92 C127.968,2.184 128.328,2.64 128.328,3.096 C128.328,4.128 126.768,8.808 123.024,12.168 L123.216,12.432 C126.024,10.656 127.512,8.904 128.64,7.056 L128.777904,7.20524351 C129.042746,7.4855858 129.389538,7.78707692 130.08,7.848 C130.152,7.854 130.2885,7.857 130.457625,7.858125 L132,7.848 C132.36,7.848 132.696,7.944 132.696,8.712 L132.688303,8.96097385 C132.644008,9.80687968 132.353231,12.4941538 130.512,15.528 C129.216,17.688 126.816,19.44 125.448,20.256 L125.544,20.496 C128.016,19.776 130.824,18.024 132.12,16.08 C133.2,14.472 133.8,12.648 134.256,10.776 L134.424889,10.0860905 C134.561778,9.55236214 134.624,9.43344856 134.803556,9.24579424 L135.077667,8.968 C135.319333,8.718 135.336,8.668 135.336,8.568 C135.336,8.328 134.976,7.992 134.616,7.8 C136.0496,7.5312 138.424,7.40874667 139.84645,7.39361422 L140.245452,7.38998047 C140.430942,7.38089256 140.688,7.33090909 140.688,7.056 Z M164.448,11.208 C164.448,10.464 163.248,9.864 162.192,9.864 C161.88,9.864 160.416,10.2 160.08,10.248 L151.456972,10.5881108 C150.702216,10.6149868 150.173217,10.632 150.048,10.632 C149.328,10.632 148.416,10.488 147.552,9.384 L147.336,9.48 C147.528,11.016 148.368,12.264 149.064,12.264 C149.260364,12.264 150.091438,11.9664793 150.421235,11.8943531 L150.504,11.88 C150.761053,11.8332632 156.023867,11.4679778 158.250292,11.4487847 L158.424,11.448 C160.314,11.448 161.803219,11.5745625 162.733453,11.6694844 L163.591111,11.752 C163.658667,11.7573333 163.704,11.76 163.728,11.76 C164.16,11.76 164.448,11.616 164.448,11.208 Z M178.704,5.064 C178.704,3.456 176.904,2.52 174.072,2.496 L173.952,2.736 L174.226831,2.92431276 C174.599704,3.17274074 175.130667,3.50666667 175.56,3.768 C176.52,4.368 176.832,4.752 177.024,4.968 L177.343985,5.33954519 C177.680816,5.72265306 177.845143,5.856 178.128,5.856 C178.32,5.856 178.704,5.712 178.704,5.064 Z M188.928,6.768 L188.664,6.432 L188.150034,7.0616699 C185.626739,10.0951842 182.504516,12.9870968 177.408,15.816 L176.756461,16.165218 C176.033183,16.5453728 175.327385,16.872 174.792,16.872 L174.654009,16.8695966 C174.301702,16.8540623 173.885647,16.7407059 173.208,15.936 L172.992,16.032 C173.352,17.688 174.984,19.368 175.584,19.368 L175.659289,19.3622624 C175.77614,19.3409213 175.865003,19.2496093 176.153283,18.9221458 L176.431988,18.6076425 C176.76249,18.254385 177.1854,17.973 180.36,15.864 C184.752,12.96 187.896,8.64 188.928,6.768 Z M176.256,10.176 C176.256,7.68 172.632,7.296 171.816,7.2 L171.744,7.416 C172.344,7.776 174.048,8.976 174.816,10.272 L175.043712,10.663488 C175.29408,11.08128 175.3632,11.112 175.632,11.112 C175.92,11.112 176.256,10.848 176.256,10.176 Z M209.232,10.68 C209.232,10.464 207.936,9.312 207.72,9.312 C207.576,9.312 207.456,9.384 207.216,9.552 L207.014016,9.70176 C206.92416,9.76512 206.8464,9.8112 206.76,9.84 L206.686953,9.85342097 C205.985966,9.95461224 200.546057,10.488 200.184,10.488 C199.488,10.488 199.08,10.152 198.84,9.96 L198.72,10.008 L198.739584,10.202112 C198.77568,10.5024 198.864,10.944 199.152,11.232 L199.27684,11.3506502 C199.452444,11.5087407 199.72,11.712 199.944,11.712 C200.049,11.712 200.503125,11.546625 200.711484,11.4892031 L201.238796,11.3717898 C202.542221,11.0973312 205.16448,10.63776 207.192,10.68 L207.164087,11.1863371 C207.124046,11.7092279 207.03329,12.4869677 206.784,14.784 L206.536125,14.641875 C206.2605,14.49 205.914,14.328 205.608,14.328 C205.536,14.328 205.221,14.409 205.037625,14.459625 L204.912,14.496 C203.688,14.88 201.048,15.096 200.496,15.096 C200.04,15.096 199.8,15 199.152,14.712 L198.984,14.856 C199.152,15.792 200.016,16.152 200.232,16.152 C200.376,16.152 201,15.888 201.144,15.864 C202.704,15.624 205.2,15.264 206.712,15.384 L206.675588,15.706107 C206.547852,16.7066667 206.194667,18.7333333 206.088,19.224 C204.888,19.248 202.656,19.488 201.384,19.608 L200.985,19.677 C200.814,19.704 200.64,19.728 200.568,19.728 C200.112,19.728 199.68,19.512 198.984,19.224 L198.864,19.368 C199.2,20.52 199.896,20.952 200.184,20.952 C200.256,20.952 200.328,20.928 200.592,20.808 C201.624,20.304 203.592,20.28 207.912,20.112 C208.176,20.112 208.248,20.016 208.248,19.872 C208.248,19.704 207.96,19.2 207.384,19.224 L208.283556,13.4568889 C208.450667,12.4133333 208.592,11.584 208.656,11.352 L208.985086,11.0381893 C209.120889,10.9037037 209.232,10.7733333 209.232,10.68 Z M225.984,6.36 C225.984,5.472 225.552,4.656 224.952,4.176 C223.717714,3.216 222.026286,2.82198639 221.474086,2.78663816 L221.4,2.784 C221.304,2.784 221.064,2.808 221.064,2.976 C221.064,3.048 221.136,3.12 221.208,3.168 C221.208,3.19028571 222.077143,3.75061224 222.335816,3.96505539 L222.384,4.008 C223.400471,4.85505882 223.800332,5.64606228 224.012243,6.15019418 L224.282748,6.79779492 C224.556281,7.42415625 224.811,7.8495 225.24,7.752 C225.912,7.584 225.984,6.744 225.984,6.36 Z M236.4,5.232 L236.136,5.088 L235.968,5.304 L233.76,8.184 L233.49952,8.51424331 C232.208276,10.0969798 229.348138,12.9293793 226.488,14.784 L225.389849,15.4900806 C223.848,16.4649988 223.272,16.728 222.696,16.728 C222.312,16.728 221.688,16.44 221.376,16.248 L221.250048,16.164288 C221.20512,16.13664 221.1792,16.128 221.136,16.128 C221.112,16.128 220.992,16.152 220.992,16.272 C220.992,16.584 221.928,17.904 222.048,18.048 C222.312,18.312 223.44,19.2 223.8,19.2 C223.92,19.2 224.023333,19.1333333 224.123889,19 L224.384626,18.6196543 C224.524708,18.4191605 224.611292,18.3100247 224.751374,18.1687901 L224.952,17.976 C225.096,17.832 226.32,16.944 228.696,15.216 C231.456,13.176 235.464,8.232 236.4,5.232 Z M263.232,2.832 C263.232,0.96 261.288,0.552 259.56,0.168 L259.44,0.288 C260.448,0.936 261.576,2.016 262.152,2.736 L262.446343,3.09937778 C262.645653,3.336 262.6832,3.336 262.824,3.336 C263.016,3.336 263.232,3.192 263.232,2.832 Z M261.552,4.752 C261.552,3.936 261.408,3.552 260.976,3.144 C260.4,2.592 259.656,2.256 258.264,2.016 L258.192,2.184 L258.548297,2.47298437 C259.294125,3.094125 259.491,3.396 260.184,4.488 C260.4,4.824 260.928,5.376 261.24,5.376 C261.552,5.376 261.552,4.896 261.552,4.752 Z M257.832,4.176 C257.832,3.816 256.344,2.904 255.528,2.904 C255.216,2.904 253.704,3.432 253.368,3.504 L253.217785,3.53010489 C252.297493,3.66112 248.4656,3.912 248.376,3.912 C248.136,3.912 247.56,3.864 247.032,3.744 C246.888,3.696 246.192,3.288 246.024,3.192 L245.832,3.216 C245.8995,3.5535 245.988094,3.86990625 246.691043,4.58050195 L246.84,4.728 C247.224,5.112 247.464,5.28 247.8,5.28 C247.996364,5.28 248.886942,5.06181818 249.227558,5.00411721 L249.312,4.992 C251.442207,4.68248276 253.489541,4.6077717 254.542402,4.589738 L255.216,4.584 C255.436,4.584 256.482833,4.62433333 256.877611,4.63105556 L257.102365,4.63033955 C257.385231,4.6212071 257.832,4.56184615 257.832,4.176 Z M260.784,8.88 C260.784,8.04 258.528,7.344 258.048,7.344 C257.928,7.344 257.352,7.656 257.208,7.704 C256.584,7.848 252.912,8.088 252.096,8.16 L248.603929,8.47877549 C247.113384,8.6176609 245.559529,8.76564706 244.416,8.88 C244.128,8.88 243.864,8.856 243.576,8.784 L243.394337,8.72171193 C243.115259,8.61985185 242.650667,8.43733333 242.52,8.4 L242.328,8.496 C242.664,9.192 243.552,10.008 243.6,10.056 L243.750123,10.1685926 C243.952,10.3137778 244.250667,10.488 244.68,10.488 L244.826112,10.480512 C244.904832,10.471232 244.986752,10.4518187 245.108316,10.414272 L245.952,10.128 C246.792,9.816 249.24,9.48 249.912,9.48 C250.344,9.48 251.136,9.648 251.136,10.656 L251.132101,10.8373544 C251.099912,11.6408033 250.824686,14.0996571 248.784,17.04 C247.56,18.792 245.976,19.656 244.8,20.232 L244.8,20.376 C247.08,20.256 251.184,18.288 252.672,12.624 L253.026375,11.15925 C253.068,10.9965 253.104,10.866 253.128,10.8 C253.176,10.632 253.704,10.008 253.704,9.84 C253.704,9.672 253.608,9.624 253.344,9.504 L252.72,9.192 L254.099641,9.05583088 C254.633768,9.00834174 254.979135,8.98834466 255.337256,8.98053477 L255.84,8.976 C256.464,8.976 257.496,8.976 258.408,9.096 L259.120639,9.21572222 C259.565333,9.2865 260.074,9.36 260.256,9.36 C260.568,9.36 260.784,9.192 260.784,8.88 Z M286.944,3.576 L286.93814,3.47234844 C286.911147,3.15637333 286.7808,2.3008 286.344,1.968 C286.056,1.752 284.904,1.248 283.68,0.96 L283.536,1.128 L284.736,2.136 C285.072,2.409 285.389625,2.7555 285.576328,2.9825625 L285.956971,3.44804883 C286.330594,3.896625 286.422,3.96 286.656,3.96 C286.848,3.96 286.944,3.816 286.944,3.576 Z M285,5.064 C285,4.4808 284.88336,4.03368 284.5626,3.72264 L284.448,3.624 C284.04,3.288 283.368,2.808 281.664,2.304 L281.568,2.448 L281.724203,2.58868797 C282.099117,2.93173214 282.559244,3.39733116 283.359271,4.38761816 L284.037934,5.22898765 C284.368444,5.62540741 284.466667,5.688 284.64,5.688 C284.952,5.688 285,5.28 285,5.064 Z M285.528,9.216 C285.528,8.568 283.896,7.584 283.248,7.584 C283.176,7.584 283.032,7.656 283.008,7.68 L282.751872,7.794048 C282.64416,7.8384 282.552,7.8672 282.408,7.896 L282.190357,7.91281067 C281.5744,7.94442667 280.1184,7.9472 279.744,7.968 L279.801,6.345 C279.814125,5.911875 279.826078,5.47757812 279.833197,5.15124023 L279.84,4.704 C279.84,4.49066667 279.877926,4.41007407 280.07177,4.12510288 L280.152,4.008 C280.344,3.744 280.416,3.6 280.416,3.456 C280.416,3.12 279.072,2.064 277.08,2.136 L277.08,2.328 L277.281886,2.51753933 C277.869009,3.08367974 277.97594,3.36536371 278.045164,4.47934618 L278.182222,7.22933333 C278.197333,7.568 278.208,7.848 278.208,7.968 L277.071936,7.997952 C275.73792,8.04096 274.9968,8.1024 273.288,8.256 L273.282912,8.012592 C273.27384,7.1676 273.3192,5.3856 273.384,5.256 C273.408,5.16 273.768,4.704 273.768,4.584 C273.768,4.344 272.76,3.384 270.696,3.336 L270.576,3.552 C271.68,4.368 271.848,5.328 271.848,8.448 L270.987797,8.58721875 C270.536625,8.656125 270.096,8.718 269.496,8.808 C269.232,8.856 268.848,8.904 268.56,8.904 C267.84,8.904 267.12,8.784 266.304,7.992 L266.208,8.112 C266.664,10.032 267.84,10.56 268.08,10.56 C268.206,10.56 268.332,10.533 268.447875,10.489125 L268.795961,10.3375716 C269.264747,10.14048 269.5088,10.0864 270.528,9.816 L271.686912,9.627072 C271.7328,9.61824 271.776,9.6096 271.824,9.6 L271.827167,9.92980628 C271.826231,11.013551 271.728,12.4125714 271.728,12.456 L271.659,12.855 C271.632,13.026 271.608,13.2 271.608,13.272 C271.608,13.784 271.854519,14.2201481 272.16214,14.6984362 L272.28,14.88 C272.328,14.952 272.4,15.072 272.592,15.072 C272.808,15.072 273.072,14.832 273.168,14.568 L273.184119,14.5101574 C273.242122,14.2729252 273.36,13.5108571 273.36,11.904 L273.354168,10.996584 C273.3456,10.314 273.3288,9.7008 273.312,9.264 L274.063781,9.191625 C275.674875,9.042 276.381,9.021 278.208,9 C278.04,12.144 277.728,13.968 276.816,15.936 C275.784,18.168 274.152,20.112 271.92,21.144 L271.968,21.36 C274.2,20.88 276.456,19.152 277.872,17.16 C279,15.576 279.576,13.776 279.696,9 C280.6816,9 282.41984,9.12544 283.232612,9.22021689 L283.392,9.24 C283.656,9.264 284.832,9.576 285.024,9.576 L285.111742,9.57383621 C285.270942,9.56409917 285.528,9.51054545 285.528,9.216 Z M304.728,3.552 C304.728,2.928 304.08,1.704 302.208,1.104 L302.04,1.224 C302.448,1.92 302.568,2.232 302.568,2.544 C302.568,3.012 301.93425,3.9553125 301.42626,4.65304688 L301.104,5.088 C298.632,8.448 296.328,10.824 291.552,13.536 L291.576,13.776 C293.856,13.2 297.048,11.664 299.832,8.976 C300,9.144 300.048,9.216 300.072,9.408 L300.090222,9.62771431 C300.151985,10.6046881 300.192,13.6267826 300.192,14.328 C300.192,15.744 300,16.92 299.832,17.736 L299.783484,17.94525 C299.7495,18.1065 299.712,18.324 299.712,18.504 C299.712,18.744 299.834449,19.0329796 300.09684,19.5196268 L300.48,20.208 C300.768,20.712 300.792,20.784 300.984,20.784 L301.081317,20.7775473 C301.226963,20.7591111 301.461333,20.6906667 301.536,20.448 C301.628308,20.208 301.663811,19.7691834 301.675281,19.1097023 L301.679083,18.3218987 L301.679083,18.3218987 L301.608,13.416 C301.608,13.1155556 301.719276,9.61037037 301.748949,9.3082774 L301.752,9.288 C301.8,9.048 301.872,8.856 301.872,8.784 C301.872,8.52 301.2,8.064 300.912,7.872 L301.14705,7.64505831 C301.33207,7.4575277 301.548805,7.21042566 301.983254,6.66675219 L303.392625,4.869 C303.692719,4.493625 303.808477,4.3905 304.075248,4.27886719 L304.152,4.248 C304.536,4.104 304.728,4.008 304.728,3.552 Z M321.984,6.36 C321.984,5.472 321.552,4.656 320.952,4.176 C319.717714,3.216 318.026286,2.82198639 317.474086,2.78663816 L317.4,2.784 C317.304,2.784 317.064,2.808 317.064,2.976 C317.064,3.048 317.136,3.12 317.208,3.168 C317.208,3.19028571 318.077143,3.75061224 318.335816,3.96505539 L318.384,4.008 C319.400471,4.85505882 319.800332,5.64606228 320.012243,6.15019418 L320.282748,6.79779492 C320.556281,7.42415625 320.811,7.8495 321.24,7.752 C321.912,7.584 321.984,6.744 321.984,6.36 Z M332.4,5.232 L332.136,5.088 L331.968,5.304 L329.76,8.184 L329.49952,8.51424331 C328.208276,10.0969798 325.348138,12.9293793 322.488,14.784 L321.389849,15.4900806 C319.848,16.4649988 319.272,16.728 318.696,16.728 C318.312,16.728 317.688,16.44 317.376,16.248 L317.250048,16.164288 C317.20512,16.13664 317.1792,16.128 317.136,16.128 C317.112,16.128 316.992,16.152 316.992,16.272 C316.992,16.584 317.928,17.904 318.048,18.048 C318.312,18.312 319.44,19.2 319.8,19.2 C319.92,19.2 320.023333,19.1333333 320.123889,19 L320.384626,18.6196543 C320.524708,18.4191605 320.611292,18.3100247 320.751374,18.1687901 L320.952,17.976 C321.096,17.832 322.32,16.944 324.696,15.216 C327.456,13.176 331.464,8.232 332.4,5.232 Z M359.232,9.048 C359.232,8.856 359.136,8.736 358.992,8.568 L358.118834,7.60366181 C357.989388,7.46546939 357.891429,7.392 357.72,7.392 C357.421333,7.392 357.27437,7.56266667 357.093695,7.8534321 L356.544,8.784 L355.704,8.784 L355.704,2.088 L358.296,2.088 C358.488,2.088 358.704,2.088 358.704,1.824 C358.704,1.68 358.584,1.536 358.44,1.416 L357.504,0.528 C357.36,0.384 357.072,0.168 356.808,0.168 C356.664,0.168 356.4,0.24 356.184,0.624 L355.704,1.512 L346.944,1.512 L347.232,2.088 L349.2,2.088 L349.2,8.784 L346.344,8.784 L346.632,9.36 L349.2,9.36 L349.198308,11.7817609 C349.17317,14.8368435 348.819429,18.4765714 345.048,21.768 L345.12,21.888 C348.672,20.328 350.016,16.92 350.328,15.96 C350.808,14.472 351,12.888 351,11.304 L351,9.36 L353.904,9.36 L353.905573,21.2879782 C353.914225,21.6065325 353.970462,21.744 354.336,21.744 C355.585043,21.744 355.693656,21.4638941 355.703101,20.8671469 L355.704,9.36 L358.8,9.36 C359.04,9.36 359.232,9.336 359.232,9.048 Z M353.904,8.784 L351,8.784 L351,2.088 L353.904,2.088 L353.904,8.784 Z M346.152,1.776 C346.152,1.632 346.08,1.536 345.96,1.44 L345.24,0.696 C344.928,0.36 344.832,0.312 344.616,0.312 C344.4,0.312 344.208,0.408 344.016,0.768 L343.632,1.512 L337.44,1.512 L337.8,2.088 L340.464,2.088 L340.406333,2.71811111 C340.311333,3.70866667 340.208,4.452 339.888,5.712 L339.724117,6.28592356 C339.28288,7.76170667 338.272,10.664 336.504,13.368 L336.768,13.488 L337.157157,13.0491841 C337.755174,12.3598017 338.417455,11.5243636 339.144,10.464 L339.145749,19.893691 C339.156245,20.2413061 339.229714,20.4 339.744,20.4 C340.224,20.4 340.848,20.136 340.848,19.632 L340.848,16.56 L343.632,16.56 L343.632393,17.9112863 C343.63768,18.1333491 343.689231,18.288 344.136,18.288 C345.408,18.288 345.408,17.808 345.408,17.472 L345.408,9.24 L345.60339,9.09578362 C345.84,8.9145124 345.84,8.87345455 345.84,8.736 L345.835522,8.66672886 C345.824327,8.60130612 345.785143,8.51314286 345.648,8.376 L344.88,7.512 C344.784,7.416 344.52,7.2 344.352,7.2 C344.208,7.2 344.04,7.248 343.848,7.536 L343.368,8.232 L341.016,8.232 L340.656,7.92 C341.64,6.048 342.096,4.248 342.48,2.088 L345.792,2.088 C346.008,2.088 346.152,2.016 346.152,1.776 Z M343.632,15.984 L340.848,15.984 L340.848,8.808 L343.632,8.808 L343.632,15.984 Z M382.992,3.84 L382.987087,3.77471468 C382.956632,3.59501385 382.763368,3.43452632 381.84,2.64 L381.416292,2.26399289 C381.11936,2.00672 381.0384,1.968 380.88,1.968 C380.568,1.968 380.064,2.76 379.824,3.12 L373.008,3.12 L373.008,0.96 L373.447111,0.650666667 C373.632,0.512 373.632,0.48 373.632,0.384 C373.632,0.192 373.536,0.144 373.248,0.12 L371.04,0 L371.04,3.12 L363.84,3.12 C363.792,2.52 363.672,2.16 363.576,1.8 L363.384,1.8 C363.48,3.192 362.736,4.32 362.064,4.896 L361.632222,5.26911111 C361.026667,5.80133333 360.96,5.928 360.96,6.288 C360.96,6.696 361.32,7.104 361.848,7.104 C362.832,7.104 363.768,5.88 363.864,3.696 L373.008,3.696 L373.008,7.224 C373.008,9.36581818 374.426997,9.49562534 376.310009,9.50349245 L378.528,9.504 L379.04609,9.49982799 C381.196776,9.46310204 382.128,9.17657143 382.128,8.352 C382.128,8.112 382.056,7.992 381.864,7.824 C381.576,7.512 381.48,7.32 381.48,6.528 C381.48,6.264 381.648,4.944 381.648,4.632 L381.456,4.632 L381.381831,4.95008746 C381.207184,5.65959184 380.866286,6.76457143 380.208,7.464 C379.728,7.992 379.392,7.992 378.36,7.992 L376.656,7.992 L376.291458,7.98623611 C375.102771,7.94496528 374.809865,7.67247569 374.785693,6.86328299 L374.784,3.696 L380.064,3.696 C379.488,4.896 378.624,6.12 378.36,6.504 L378.504,6.624 C379.752,6 381.12,4.92 381.648,4.44 L382.082913,4.34837318 C382.591959,4.23465306 382.992,4.104 382.992,3.84 Z M370.704,4.968 C370.704,4.824 370.545306,4.71526531 370.424397,4.65690962 L368.256,3.72 C367.344,7.32 365.064,9.744 361.176,11.16 L361.176,11.352 C366,10.56 368.4,7.944 369.312,6.312 L369.650799,5.68478134 C369.745959,5.51265306 369.785143,5.448 369.84,5.352 L370.326157,5.25068222 C370.630531,5.17861224 370.704,5.12228571 370.704,4.968 Z M382.752,19.92 C382.752,19.7066667 382.695111,19.5691852 382.446486,19.3558519 L382.261248,19.202136 C382.050432,19.017624 381.919488,18.816216 381.892992,17.848344 L381.888,17.448 C381.888,16.92 381.936,14.592 381.936,14.112 L381.648,14.112 L381.560682,14.7127917 C380.888292,19.1431667 380.136,19.584 378.48,19.584 L378.233284,19.58107 C377.601185,19.5623704 377.184,19.432 377.184,18.6 C377.184,17.712 377.376,15.552 377.52,14.112 L377.75232,13.950912 C378.05952,13.7328 378.336,13.5024 378.336,13.272 C378.336,13.032 377.976,12.696 377.4,12.144 L377.102764,11.8816356 C376.803551,11.6308163 376.716,11.616 376.584,11.616 C376.3464,11.616 376.26432,11.69376 376.005336,11.989248 L375.542947,12.5269465 C375.481185,12.6014815 375.437333,12.656 375.384,12.72 L371.712,12.72 C371.88,11.568 371.904,10.344 371.928,9.816 L372.279,9.647088 C372.53184,9.51672 372.72,9.384 372.72,9.216 C372.72,8.928 372.384,8.856 372.168,8.832 L370.008,8.616 L370.041,9.3 C370.0464,9.4512 370.05072,9.61968 370.053312,9.820992 L370.05504,10.54272 C370.0512,11.02272 370.032,11.9328 369.936,12.72 L363.576,12.72 L363.984,13.296 L369.864,13.296 C368.784,19.008 363.72,20.952 361.08,21.816 L361.176,22.056 C364.224,21.504 367.152,20.28 369.312,18.072 C370.992,16.344 371.424,14.376 371.616,13.296 L375.744,13.296 L375.424596,17.3340693 C375.366585,18.150585 375.36,18.408 375.36,18.672 C375.36,20.976 376.776,21.192 378.576,21.192 L379.281558,21.186447 C381.266568,21.1516766 382.752,20.9313103 382.752,19.92 Z M407.04,3.84 C407.04,3.696 406.968,3.528 406.848,3.432 L405,1.896 C404.928,1.824 404.712,1.704 404.568,1.704 C404.376,1.704 404.208,1.944 404.184,1.968 L403.656,2.76 L397.08,2.76 L397.08,1.104 L397.44675,0.87 C397.7505,0.6675 397.872,0.546 397.872,0.384 C397.872,0.192 397.701333,0.170666667 397.427424,0.151440329 L395.208,0 L395.208,2.76 L387.768,2.76 C387.744,2.376 387.672,1.776 387.504,1.44 L387.216,1.44 L387.173037,1.86696296 C387.055259,2.86696296 386.837481,3.4002963 386.019704,4.34196296 L385.396724,5.04441115 C385.016138,5.48113495 384.96,5.59341176 384.96,5.832 C384.96,6.384 385.344,6.72 385.776,6.72 C386.904,6.72 387.84,5.208 387.792,3.336 L403.896,3.336 L403.696691,3.79321811 C403.438815,4.36888889 403.098667,5.072 402.744,5.688 L402.984,5.928 L403.866083,5.33543056 C404.361333,4.997 404.926,4.598 405.36,4.248 L406.071637,4.24419303 C406.815623,4.2299169 407.04,4.16210526 407.04,3.84 Z M404.688,12.144 C404.688,10.632 401.784,8.736 399.6,7.992 L399.48,8.232 C400.704,9.024 401.112,9.552 401.592,10.128 L400.882959,10.1801029 C398.357989,10.3479924 395.440696,10.368 394.104,10.368 L394.502429,9.89338214 C395.947238,8.1517824 396.46656,7.28448 396.864,6.6 L402.432,6.6 C402.6,6.6 402.912,6.6 402.912,6.312 C402.912,6.192 402.812,6.05533333 402.737,5.98533333 L401.448,4.92 C401.328,4.824 401.16,4.752 401.016,4.752 C400.848,4.752 400.68,4.92 400.656,4.992 L400.032,6.024 L388.896,6.024 L389.28,6.6 L394.56,6.6 C394.248,7.824 393.48,9.576 393.096,10.368 L389.137403,10.3892318 C388.227614,10.3870634 387.659636,10.3694545 386.856,10.32 L387.792,12.792 C387.84,12.912 387.984,13.272 388.2,13.272 C388.464,13.272 388.56,12.96 388.704,12.336 L394.032,11.736 L394.032,11.736 C396.48,11.448 399.336,11.016 402,10.632 C402.312,11.04 402.72,11.76 402.816,11.952 L402.996945,12.2727464 C403.333224,12.8571429 403.536,13.104 403.968,13.104 C404.4,13.104 404.688,12.624 404.688,12.144 Z M405.984,20.568 C405.984,20.88 405.6,20.88 405.48,20.88 L386.16,20.88 L385.752,20.304 L395.16,20.304 L395.16,16.368 L387.768,16.368 L387.36,15.792 L395.16,15.792 L395.16,11.976 L397.44,12.216 C397.608,12.24 397.8,12.312 397.8,12.48 C397.8,12.696 397.56,12.84 397.08,13.056 L397.08,15.792 L401.352,15.792 L402.216,14.544 L402.269333,14.4835556 C402.322667,14.4266667 402.408,14.352 402.504,14.352 C402.624,14.352 402.768,14.448 402.84,14.496 L404.232,15.744 C404.328,15.816 404.376,15.96 404.376,16.08 C404.376,16.368 404.088,16.368 403.92,16.368 L397.08,16.368 L397.08,20.304 L402.96,20.304 L403.704,19.128 C403.776,18.984 403.92,18.888 404.088,18.888 C404.2224,18.888 404.34144,18.94944 404.432832,19.023168 L405.792,20.208 C405.888,20.304 405.984,20.472 405.984,20.568 Z" id="コミュニケーションデザイン研究室" fill="#D36C6C" fill-rule="nonzero"></path>
                    </g>
                </g>
            </g>
        </g>
    </g>
</svg>