<?xml version="1.0" encoding="UTF-8"?>
<svg width="439px" height="23px" viewBox="0 0 439 23" version="1.1" xmlns="http://www.w3.org/2000/svg" xmlns:xlink="http://www.w3.org/1999/xlink">
    <!-- Generator: Sketch 59.1 (86144) - https://sketch.com -->
    <title>commu</title>
    <desc>Created with Sketch.</desc>
    <g id="Page-1" stroke="none" stroke-width="1" fill="none" fill-rule="evenodd">
        <g id="pc" transform="translate(-1464.000000, -3198.000000)">
            <g id="研究室紹介" transform="translate(209.000000, 2380.000000)">
                <g id="研究室" transform="translate(974.000000, 0.000000)">
                    <g id="commu" transform="translate(281.000000, 818.000000)">
                        <rect id="透明--copy-6" fill="#FFFFFF" opacity="0.01" x="0" y="0.112" width="439" height="22"></rect>
                        <path d="M75.776,6.144 C75.776,6.096 75.776,6.048 75.68,5.928 L74.6080545,4.9216473 C73.9312533,4.29717004 73.8485517,4.272 73.64,4.272 C73.568,4.272 73.52,4.296 73.448,4.344 C73.184,4.536 73.04,4.632 72.776,4.704 C72.3242353,4.81694118 70.0654118,4.90862284 69.341025,4.95903603 L69.224,4.968 C68.3470769,5.03723077 64.2305089,5.46149112 63.0190387,5.49402412 L62.6053333,5.49422222 C62.344,5.49066667 61.976,5.48 61.736,5.448 C61.448,5.424 60.032,4.728 60.008,4.728 L59.84,4.872 C60.08,5.736 61.232,7.368 61.928,7.368 L61.9845556,7.36511111 C62.0216667,7.36066667 62.061,7.35 62.123,7.326 L62.624,7.104 C62.8017778,7.03733333 63.0207078,6.9912428 64.7477921,6.67994879 L65.192,6.6 C67.1128571,6.25285714 70.7743878,6.03961224 71.8296902,6.02482325 L71.936,6.024 C72.368,6.024 72.512,6.048 72.848,6.096 L72.8197459,6.48112835 C72.6814667,8.06402596 72.0733023,13.879814 71.84,15.216 L70.4891164,15.2529209 C69.6307484,15.2822329 69.0269724,15.3213369 68.0453404,15.4117049 L65.3742222,15.6631111 C64.2506667,15.7626667 63.44,15.816 62.672,15.816 L62.3422333,15.8120725 C61.5954879,15.79009 61.3675294,15.6592941 60.224,15.024 L60.008,15.12 C60.104,15.648 60.32,16.032 60.92,16.608 L61.1283727,16.7972231 C61.4733884,17.1024793 61.9410909,17.472 62.216,17.472 C62.408,17.472 63.296,17.16 63.488,17.112 C65.0746667,16.772 68.1812593,16.4962222 70.2198601,16.4666296 L70.91975,16.465875 C71.3585,16.4715 72.02,16.494 72.56,16.584 L72.9623324,16.6545306 C73.2530612,16.7035102 73.4685714,16.728 73.88,16.728 C74.168,16.728 74.336,16.536 74.336,16.368 C74.336,15.936 73.592,15.456 73.232,15.24 C73.2848,14.6064 73.9184,11.5592533 74.3566791,9.51538489 L74.72,7.848 C74.804,7.449 74.869625,7.288875 74.9972656,7.110375 L75.056,7.032 C75.152,6.888 75.776,6.336 75.776,6.144 Z M96.176,5.04 C96.176,4.512 95.6,3.816 94.88,3.264 C94.016,2.592 90.752,1.968 87.488,1.992 L87.488,2.184 C90.6312258,2.94270968 92.7367326,4.05385224 93.380085,4.42096982 L94.0571022,4.82113422 C94.6312533,5.15498667 95.3904,5.568 95.672,5.568 C95.984,5.568 96.176,5.376 96.176,5.04 Z M95.792,11.28 C95.792,10.776 95.264,9.888 94.688,9.456 C93.2,8.304 89.576,8.088 87.44,7.944 L87.392,8.304 C89.432,8.784 91.544,9.696 92.792,10.44 L92.9697651,10.558129 C93.5306851,10.9483183 94.8884706,11.976 95.312,11.976 C95.696,11.976 95.792,11.472 95.792,11.28 Z M97.232,19.392 C97.232,18.888 96.44,17.208 95.312,16.632 L95.1388512,16.5499125 C94.0625882,16.0603183 90.584,14.7741176 86.744,14.232 L86.648,14.52 C91.736,16.416 93.656,17.88 96.176,19.776 L96.3170612,19.8616443 C96.4091429,19.9131429 96.5325714,19.968 96.656,19.968 C97.088,19.968 97.232,19.656 97.232,19.392 Z M123.944,19.2 L123.941375,19.1205 C123.925625,18.93675 123.818,18.753 123.104,18.312 L122.6048,18.016704 C122.41472,17.90784 122.3024,17.856 122.216,17.856 C122.168,17.856 121.664,17.976 121.592,18 L121.493357,18.0140445 C120.947312,18.0681437 118.429217,18.170087 118.232,18.192 L118.419833,17.4416213 C118.83648,15.7202133 119.3024,13.4544 119.552,12.144 L119.962667,11.7902222 C119.997333,11.7573333 120.024,11.728 120.056,11.688 C120.152,11.616 120.2,11.52 120.2,11.4 C120.2,11.304 120.2,11.208 120.08,11.088 L119.621411,10.6879067 C119.170449,10.3048163 118.602286,9.864 118.328,9.864 C118.064,9.864 118.016,9.912 117.584,10.296 C116.48,10.776 114.008,10.968 112.856,10.968 C112.376,10.968 111.896,10.872 111.032,10.152 L110.864,10.224 C111.08,11.496 112.016,12.288 112.496,12.288 C112.736,12.288 113.84,11.88 114.08,11.808 C115.496,11.4 117.248,11.352 117.968,11.304 L117.893912,12.102039 C117.71786,13.84476 117.3476,16.764 116.96,18.192 L115.259708,18.3185773 C114.510321,18.3788222 113.738647,18.4493528 113.226688,18.5211691 L109.966329,19.0143339 C109.503849,19.0813157 109.151652,19.128 109.064,19.128 C108.536,19.128 108.152,18.912 107.792,18.672 L107.576,18.816 L107.61575,18.99975 C107.663,19.2045 107.744,19.47 107.96,19.776 C108.344,20.304 109.088,20.52 109.28,20.52 C109.376,20.52 110.744,20.016 111.032,19.92 C113.312,19.224 117.656,18.888 118.832,18.888 C119.864,18.888 120.848,18.984 122.072,19.248 L123.077859,19.4715157 C123.328237,19.524213 123.515692,19.56 123.56,19.56 C123.872,19.56 123.944,19.392 123.944,19.2 Z M146.216,6.024 C146.216,5.328 144.512,4.776 144.248,4.776 C144.08,4.776 144.032,4.8 143.576,5.064 C142.28,5.76 137.936,5.952 136.376,5.952 C134.84,5.952 134,5.352 133.664,5.088 L133.424,5.256 C134.024,6.624 135.248,7.608 135.944,7.608 C136.016,7.608 136.064,7.584 136.184,7.56 C136.88,7.416 137.552,7.296 138.224,7.152 C138.603862,7.08496552 142.874036,6.76828537 143.945445,6.72492419 L144.4385,6.71475 C144.929,6.699 145.838,6.636 146.072,6.384 C146.168,6.264 146.216,6.168 146.216,6.024 Z M149.528,15.816 C149.528,14.784 147.776,13.968 147.224,13.968 L147.059,13.9755 C146.834,13.989 146.474,14.016 146.384,14.016 L144.790444,14.0652222 C142.374444,14.1427222 139.872944,14.2449722 137.690944,14.4833472 L136.976,14.568 C133.184,15.048 133.136,15.048 132.44,15.048 L132.218503,15.042624 C131.71616,15.016 131.0672,14.8704 130.256,14.184 L130.088,14.352 C130.472,15.312 131.936,16.872 132.992,16.872 C133.136,16.872 133.592,16.656 133.832,16.536 C135.32,15.84 140,15.36 142.304,15.36 C143.36,15.36 144.416,15.40608 145.472,15.510528 L146.264,15.6 C146.72,15.648 149,16.176 149.096,16.176 L149.196224,16.170816 C149.34368,16.15392 149.528,16.0848 149.528,15.816 Z M172.688,7.056 C172.688,6.48 171.08,5.712 170.84,5.712 C170.735,5.712 170.280875,5.914125 170.072516,5.98073438 L170,6 C168.656,6.456 164.96,6.696 163.352,6.696 L162.892544,6.690624 C162.28352,6.67296 161.696,6.6 161.216,6.312 L161.251556,6.16888889 C161.269333,6.10133333 161.28,6.08 161.312,6.048 L161.76556,5.28374074 C162.041658,4.82640741 162.144128,4.69440741 162.321856,4.56774074 L162.368,4.536 C162.896,4.176 162.944,4.08 162.944,3.936 C162.944,3.72 162.704,3.072 162.128,2.544 C161.216,1.728 160.232,1.704 159.704,1.704 L159.608,1.92 C159.968,2.184 160.328,2.64 160.328,3.096 C160.328,4.128 158.768,8.808 155.024,12.168 L155.216,12.432 C158.024,10.656 159.512,8.904 160.64,7.056 L160.777904,7.20524351 C161.042746,7.4855858 161.389538,7.78707692 162.08,7.848 C162.152,7.854 162.2885,7.857 162.457625,7.858125 L164,7.848 C164.36,7.848 164.696,7.944 164.696,8.712 L164.688303,8.96097385 C164.644008,9.80687968 164.353231,12.4941538 162.512,15.528 C161.216,17.688 158.816,19.44 157.448,20.256 L157.544,20.496 C160.016,19.776 162.824,18.024 164.12,16.08 C165.2,14.472 165.8,12.648 166.256,10.776 L166.424889,10.0860905 C166.561778,9.55236214 166.624,9.43344856 166.803556,9.24579424 L167.077667,8.968 C167.319333,8.718 167.336,8.668 167.336,8.568 C167.336,8.328 166.976,7.992 166.616,7.8 C168.0496,7.5312 170.424,7.40874667 171.84645,7.39361422 L172.245452,7.38998047 C172.430942,7.38089256 172.688,7.33090909 172.688,7.056 Z M196.448,11.208 C196.448,10.464 195.248,9.864 194.192,9.864 C193.88,9.864 192.416,10.2 192.08,10.248 L183.456972,10.5881108 C182.702216,10.6149868 182.173217,10.632 182.048,10.632 C181.328,10.632 180.416,10.488 179.552,9.384 L179.336,9.48 C179.528,11.016 180.368,12.264 181.064,12.264 C181.260364,12.264 182.091438,11.9664793 182.421235,11.8943531 L182.504,11.88 C182.761053,11.8332632 188.023867,11.4679778 190.250292,11.4487847 L190.424,11.448 C192.314,11.448 193.803219,11.5745625 194.733453,11.6694844 L195.591111,11.752 C195.658667,11.7573333 195.704,11.76 195.728,11.76 C196.16,11.76 196.448,11.616 196.448,11.208 Z M210.704,5.064 C210.704,3.456 208.904,2.52 206.072,2.496 L205.952,2.736 L206.226831,2.92431276 C206.599704,3.17274074 207.130667,3.50666667 207.56,3.768 C208.52,4.368 208.832,4.752 209.024,4.968 L209.343985,5.33954519 C209.680816,5.72265306 209.845143,5.856 210.128,5.856 C210.32,5.856 210.704,5.712 210.704,5.064 Z M220.928,6.768 L220.664,6.432 L220.150034,7.0616699 C217.626739,10.0951842 214.504516,12.9870968 209.408,15.816 L208.756461,16.165218 C208.033183,16.5453728 207.327385,16.872 206.792,16.872 L206.654009,16.8695966 C206.301702,16.8540623 205.885647,16.7407059 205.208,15.936 L204.992,16.032 C205.352,17.688 206.984,19.368 207.584,19.368 L207.659289,19.3622624 C207.77614,19.3409213 207.865003,19.2496093 208.153283,18.9221458 L208.431988,18.6076425 C208.76249,18.254385 209.1854,17.973 212.36,15.864 C216.752,12.96 219.896,8.64 220.928,6.768 Z M208.256,10.176 C208.256,7.68 204.632,7.296 203.816,7.2 L203.744,7.416 C204.344,7.776 206.048,8.976 206.816,10.272 L207.043712,10.663488 C207.29408,11.08128 207.3632,11.112 207.632,11.112 C207.92,11.112 208.256,10.848 208.256,10.176 Z M241.232,10.68 C241.232,10.464 239.936,9.312 239.72,9.312 C239.576,9.312 239.456,9.384 239.216,9.552 L239.014016,9.70176 C238.92416,9.76512 238.8464,9.8112 238.76,9.84 L238.686953,9.85342097 C237.985966,9.95461224 232.546057,10.488 232.184,10.488 C231.488,10.488 231.08,10.152 230.84,9.96 L230.72,10.008 L230.739584,10.202112 C230.77568,10.5024 230.864,10.944 231.152,11.232 L231.27684,11.3506502 C231.452444,11.5087407 231.72,11.712 231.944,11.712 C232.049,11.712 232.503125,11.546625 232.711484,11.4892031 L233.238796,11.3717898 C234.542221,11.0973312 237.16448,10.63776 239.192,10.68 L239.164087,11.1863371 C239.124046,11.7092279 239.03329,12.4869677 238.784,14.784 L238.536125,14.641875 C238.2605,14.49 237.914,14.328 237.608,14.328 C237.536,14.328 237.221,14.409 237.037625,14.459625 L236.912,14.496 C235.688,14.88 233.048,15.096 232.496,15.096 C232.04,15.096 231.8,15 231.152,14.712 L230.984,14.856 C231.152,15.792 232.016,16.152 232.232,16.152 C232.376,16.152 233,15.888 233.144,15.864 C234.704,15.624 237.2,15.264 238.712,15.384 L238.675588,15.706107 C238.547852,16.7066667 238.194667,18.7333333 238.088,19.224 C236.888,19.248 234.656,19.488 233.384,19.608 L233.111047,19.6565156 C232.907375,19.6905 232.658,19.728 232.568,19.728 C232.112,19.728 231.68,19.512 230.984,19.224 L230.864,19.368 C231.2,20.52 231.896,20.952 232.184,20.952 C232.256,20.952 232.328,20.928 232.592,20.808 C233.624,20.304 235.592,20.28 239.912,20.112 C240.176,20.112 240.248,20.016 240.248,19.872 C240.248,19.704 239.96,19.2 239.384,19.224 L240.283556,13.4568889 C240.450667,12.4133333 240.592,11.584 240.656,11.352 L240.985086,11.0381893 C241.120889,10.9037037 241.232,10.7733333 241.232,10.68 Z M257.984,6.36 C257.984,5.472 257.552,4.656 256.952,4.176 C255.717714,3.216 254.026286,2.82198639 253.474086,2.78663816 L253.4,2.784 C253.304,2.784 253.064,2.808 253.064,2.976 C253.064,3.048 253.136,3.12 253.208,3.168 C253.208,3.19028571 254.077143,3.75061224 254.335816,3.96505539 L254.384,4.008 C255.536,4.968 255.896,5.856 256.088,6.336 L256.282748,6.79779492 C256.556281,7.42415625 256.811,7.8495 257.24,7.752 C257.912,7.584 257.984,6.744 257.984,6.36 Z M268.4,5.232 L268.136,5.088 L267.968,5.304 L265.76,8.184 L265.49952,8.51424331 C264.208276,10.0969798 261.348138,12.9293793 258.488,14.784 L257.389849,15.4900806 C255.848,16.4649988 255.272,16.728 254.696,16.728 C254.312,16.728 253.688,16.44 253.376,16.248 L253.250048,16.164288 C253.20512,16.13664 253.1792,16.128 253.136,16.128 C253.112,16.128 252.992,16.152 252.992,16.272 C252.992,16.584 253.928,17.904 254.048,18.048 C254.312,18.312 255.44,19.2 255.8,19.2 C255.92,19.2 256.023333,19.1333333 256.123889,19 L256.384626,18.6196543 C256.524708,18.4191605 256.611292,18.3100247 256.751374,18.1687901 L256.952,17.976 C257.096,17.832 258.32,16.944 260.696,15.216 C263.456,13.176 267.464,8.232 268.4,5.232 Z M295.232,2.832 C295.232,0.96 293.288,0.552 291.56,0.168 L291.44,0.288 C292.448,0.936 293.576,2.016 294.152,2.736 L294.446343,3.09937778 C294.645653,3.336 294.6832,3.336 294.824,3.336 C295.016,3.336 295.232,3.192 295.232,2.832 Z M293.552,4.752 C293.552,3.936 293.408,3.552 292.976,3.144 C292.4,2.592 291.656,2.256 290.264,2.016 L290.192,2.184 L290.548297,2.47298438 C291.294125,3.094125 291.491,3.396 292.184,4.488 C292.4,4.824 292.928,5.376 293.24,5.376 C293.552,5.376 293.552,4.896 293.552,4.752 Z M289.832,4.176 C289.832,3.816 288.344,2.904 287.528,2.904 C287.216,2.904 285.704,3.432 285.368,3.504 L285.217785,3.53010489 C284.297493,3.66112 280.4656,3.912 280.376,3.912 C280.136,3.912 279.56,3.864 279.032,3.744 C278.888,3.696 278.192,3.288 278.024,3.192 L277.832,3.216 C277.8995,3.5535 277.988094,3.86990625 278.691043,4.58050195 L278.84,4.728 C279.224,5.112 279.464,5.28 279.8,5.28 C279.996364,5.28 280.886942,5.06181818 281.227558,5.00411721 L281.312,4.992 C283.442207,4.68248276 285.489541,4.6077717 286.542402,4.589738 L287.216,4.584 C287.436,4.584 288.482833,4.62433333 288.877611,4.63105556 L289.102365,4.63033955 C289.385231,4.6212071 289.832,4.56184615 289.832,4.176 Z M292.784,8.88 C292.784,8.04 290.528,7.344 290.048,7.344 C289.928,7.344 289.352,7.656 289.208,7.704 C288.584,7.848 284.912,8.088 284.096,8.16 L280.603929,8.47877549 C279.113384,8.6176609 277.559529,8.76564706 276.416,8.88 C276.128,8.88 275.864,8.856 275.576,8.784 L275.394337,8.72171193 C275.115259,8.61985185 274.650667,8.43733333 274.52,8.4 L274.328,8.496 C274.664,9.192 275.552,10.008 275.6,10.056 L275.750123,10.1685926 C275.952,10.3137778 276.250667,10.488 276.68,10.488 L276.826112,10.480512 C276.904832,10.471232 276.986752,10.4518187 277.108316,10.414272 L277.952,10.128 C278.792,9.816 281.24,9.48 281.912,9.48 C282.344,9.48 283.136,9.648 283.136,10.656 L283.132101,10.8373544 C283.099912,11.6408033 282.824686,14.0996571 280.784,17.04 C279.56,18.792 277.976,19.656 276.8,20.232 L276.8,20.376 C279.08,20.256 283.184,18.288 284.672,12.624 L285.026375,11.15925 C285.068,10.9965 285.104,10.866 285.128,10.8 C285.176,10.632 285.704,10.008 285.704,9.84 C285.704,9.672 285.608,9.624 285.344,9.504 L284.72,9.192 L286.099641,9.05583088 C286.633768,9.00834174 286.979135,8.98834466 287.337256,8.98053477 L287.84,8.976 C288.464,8.976 289.496,8.976 290.408,9.096 L291.314,9.246 C291.704,9.306 292.1,9.36 292.256,9.36 C292.568,9.36 292.784,9.192 292.784,8.88 Z M318.944,3.576 L318.93814,3.47234844 C318.911147,3.15637333 318.7808,2.3008 318.344,1.968 C318.056,1.752 316.904,1.248 315.68,0.96 L315.536,1.128 L316.736,2.136 C317.072,2.409 317.389625,2.7555 317.576328,2.9825625 L317.956971,3.44804883 C318.330594,3.896625 318.422,3.96 318.656,3.96 C318.848,3.96 318.944,3.816 318.944,3.576 Z M317,5.064 C317,4.4808 316.88336,4.03368 316.5626,3.72264 L316.448,3.624 C316.04,3.288 315.368,2.808 313.664,2.304 L313.568,2.448 L313.724203,2.58868797 C314.099117,2.93173214 314.559244,3.39733116 315.359271,4.38761816 L316.037934,5.22898765 C316.368444,5.62540741 316.466667,5.688 316.64,5.688 C316.952,5.688 317,5.28 317,5.064 Z M317.528,9.216 C317.528,8.568 315.896,7.584 315.248,7.584 C315.176,7.584 315.032,7.656 315.008,7.68 L314.751872,7.794048 C314.64416,7.8384 314.552,7.8672 314.408,7.896 L314.190357,7.91281067 C313.5744,7.94442667 312.1184,7.9472 311.744,7.968 L311.801,6.345 C311.814125,5.911875 311.826078,5.47757812 311.833197,5.15124023 L311.84,4.704 C311.84,4.49066667 311.877926,4.41007407 312.07177,4.12510288 L312.152,4.008 C312.344,3.744 312.416,3.6 312.416,3.456 C312.416,3.12 311.072,2.064 309.08,2.136 L309.08,2.328 L309.281886,2.51753933 C309.869009,3.08367974 309.97594,3.36536371 310.045164,4.47934618 L310.182222,7.22933333 C310.197333,7.568 310.208,7.848 310.208,7.968 L309.071936,7.997952 C307.73792,8.04096 306.9968,8.1024 305.288,8.256 L305.282912,8.012592 C305.27384,7.1676 305.3192,5.3856 305.384,5.256 C305.408,5.16 305.768,4.704 305.768,4.584 C305.768,4.344 304.76,3.384 302.696,3.336 L302.576,3.552 C303.68,4.368 303.848,5.328 303.848,8.448 L302.987797,8.58721875 C302.536625,8.656125 302.096,8.718 301.496,8.808 C301.232,8.856 300.848,8.904 300.56,8.904 C299.84,8.904 299.12,8.784 298.304,7.992 L298.208,8.112 C298.664,10.032 299.84,10.56 300.08,10.56 C300.206,10.56 300.332,10.533 300.447875,10.489125 L300.795961,10.3375716 C301.264747,10.14048 301.5088,10.0864 302.528,9.816 L303.686912,9.627072 C303.7328,9.61824 303.776,9.6096 303.824,9.6 L303.827167,9.92980628 C303.826231,11.013551 303.728,12.4125714 303.728,12.456 L303.659,12.855 C303.632,13.026 303.608,13.2 303.608,13.272 C303.608,13.784 303.854519,14.2201481 304.16214,14.6984362 L304.28,14.88 C304.328,14.952 304.4,15.072 304.592,15.072 C304.808,15.072 305.072,14.832 305.168,14.568 L305.184119,14.5101574 C305.242122,14.2729252 305.36,13.5108571 305.36,11.904 L305.354168,10.996584 C305.3456,10.314 305.3288,9.7008 305.312,9.264 L306.063781,9.191625 C307.674875,9.042 308.381,9.021 310.208,9 C310.04,12.144 309.728,13.968 308.816,15.936 C307.784,18.168 306.152,20.112 303.92,21.144 L303.968,21.36 C306.2,20.88 308.456,19.152 309.872,17.16 C311,15.576 311.576,13.776 311.696,9 C312.6816,9 314.41984,9.12544 315.232612,9.22021689 L315.392,9.24 C315.656,9.264 316.832,9.576 317.024,9.576 L317.111742,9.57383621 C317.270942,9.56409917 317.528,9.51054545 317.528,9.216 Z M336.728,3.552 C336.728,2.928 336.08,1.704 334.208,1.104 L334.04,1.224 C334.448,1.92 334.568,2.232 334.568,2.544 C334.568,3.012 333.93425,3.9553125 333.42626,4.65304688 L333.104,5.088 C330.632,8.448 328.328,10.824 323.552,13.536 L323.576,13.776 C325.856,13.2 329.048,11.664 331.832,8.976 C332,9.144 332.048,9.216 332.072,9.408 L332.090222,9.62771431 C332.151985,10.6046881 332.192,13.6267826 332.192,14.328 C332.192,15.744 332,16.92 331.832,17.736 L331.783484,17.94525 C331.7495,18.1065 331.712,18.324 331.712,18.504 C331.712,18.768 331.860163,19.0912653 332.179773,19.6716997 L332.48,20.208 C332.768,20.712 332.792,20.784 332.984,20.784 L333.081317,20.7775473 C333.226963,20.7591111 333.461333,20.6906667 333.536,20.448 C333.628308,20.208 333.663811,19.7691834 333.675281,19.1097023 L333.679083,18.3218987 L333.679083,18.3218987 L333.608,13.416 C333.608,13.1155556 333.719276,9.61037037 333.748949,9.3082774 L333.752,9.288 C333.8,9.048 333.872,8.856 333.872,8.784 C333.872,8.52 333.2,8.064 332.912,7.872 L333.14705,7.64505831 C333.33207,7.4575277 333.548805,7.21042566 333.983254,6.66675219 L335.392625,4.869 C335.692719,4.493625 335.808477,4.3905 336.075248,4.27886719 L336.152,4.248 C336.536,4.104 336.728,4.008 336.728,3.552 Z M353.984,6.36 C353.984,5.472 353.552,4.656 352.952,4.176 C351.717714,3.216 350.026286,2.82198639 349.474086,2.78663816 L349.4,2.784 C349.304,2.784 349.064,2.808 349.064,2.976 C349.064,3.048 349.136,3.12 349.208,3.168 C349.208,3.19028571 350.077143,3.75061224 350.335816,3.96505539 L350.384,4.008 C351.400471,4.85505882 351.800332,5.64606228 352.012243,6.15019418 L352.282748,6.79779492 C352.556281,7.42415625 352.811,7.8495 353.24,7.752 C353.912,7.584 353.984,6.744 353.984,6.36 Z M364.4,5.232 L364.136,5.088 L363.968,5.304 L361.76,8.184 L361.49952,8.51424331 C360.208276,10.0969798 357.348138,12.9293793 354.488,14.784 L353.389849,15.4900806 C351.848,16.4649988 351.272,16.728 350.696,16.728 C350.312,16.728 349.688,16.44 349.376,16.248 L349.250048,16.164288 C349.20512,16.13664 349.1792,16.128 349.136,16.128 C349.112,16.128 348.992,16.152 348.992,16.272 C348.992,16.584 349.928,17.904 350.048,18.048 C350.312,18.312 351.44,19.2 351.8,19.2 C351.92,19.2 352.023333,19.1333333 352.123889,19 L352.384626,18.6196543 C352.524708,18.4191605 352.611292,18.3100247 352.751374,18.1687901 L352.952,17.976 C353.096,17.832 354.32,16.944 356.696,15.216 C359.456,13.176 363.464,8.232 364.4,5.232 Z M391.232,9.048 C391.232,8.856 391.136,8.736 390.992,8.568 L390.118834,7.60366181 C389.989388,7.46546939 389.891429,7.392 389.72,7.392 C389.421333,7.392 389.27437,7.56266667 389.093695,7.8534321 L388.544,8.784 L387.704,8.784 L387.704,2.088 L390.296,2.088 C390.488,2.088 390.704,2.088 390.704,1.824 C390.704,1.68 390.584,1.536 390.44,1.416 L389.504,0.528 C389.36,0.384 389.072,0.168 388.808,0.168 C388.664,0.168 388.4,0.24 388.184,0.624 L387.704,1.512 L378.944,1.512 L379.232,2.088 L381.2,2.088 L381.2,8.784 L378.344,8.784 L378.632,9.36 L381.2,9.36 L381.198308,11.7817609 C381.17317,14.8368435 380.819429,18.4765714 377.048,21.768 L377.12,21.888 C380.672,20.328 382.016,16.92 382.328,15.96 C382.808,14.472 383,12.888 383,11.304 L383,9.36 L385.904,9.36 L385.905573,21.2879782 C385.914225,21.6065325 385.970462,21.744 386.336,21.744 C387.585043,21.744 387.693656,21.4638941 387.703101,20.8671469 L387.704,9.36 L390.8,9.36 C391.04,9.36 391.232,9.336 391.232,9.048 Z M385.904,8.784 L383,8.784 L383,2.088 L385.904,2.088 L385.904,8.784 Z M378.152,1.776 C378.152,1.632 378.08,1.536 377.96,1.44 L377.24,0.696 C376.928,0.36 376.832,0.312 376.616,0.312 C376.4,0.312 376.208,0.408 376.016,0.768 L375.632,1.512 L369.44,1.512 L369.8,2.088 L372.464,2.088 L372.406333,2.71811111 C372.311333,3.70866667 372.208,4.452 371.888,5.712 L371.724117,6.28592356 C371.28288,7.76170667 370.272,10.664 368.504,13.368 L368.768,13.488 L369.157157,13.0491841 C369.755174,12.3598017 370.417455,11.5243636 371.144,10.464 L371.145749,19.893691 C371.156245,20.2413061 371.229714,20.4 371.744,20.4 C372.224,20.4 372.848,20.136 372.848,19.632 L372.848,16.56 L375.632,16.56 L375.632393,17.9112863 C375.63768,18.1333491 375.689231,18.288 376.136,18.288 C377.408,18.288 377.408,17.808 377.408,17.472 L377.408,9.24 L377.60339,9.09578362 C377.84,8.9145124 377.84,8.87345455 377.84,8.736 L377.835522,8.66672886 C377.824327,8.60130612 377.785143,8.51314286 377.648,8.376 L376.88,7.512 C376.784,7.416 376.52,7.2 376.352,7.2 C376.208,7.2 376.04,7.248 375.848,7.536 L375.368,8.232 L373.016,8.232 L372.656,7.92 C373.64,6.048 374.096,4.248 374.48,2.088 L377.792,2.088 C378.008,2.088 378.152,2.016 378.152,1.776 Z M375.632,15.984 L372.848,15.984 L372.848,8.808 L375.632,8.808 L375.632,15.984 Z M414.992,3.84 L414.987087,3.77471468 C414.956632,3.59501385 414.763368,3.43452632 413.84,2.64 L413.416292,2.26399289 C413.11936,2.00672 413.0384,1.968 412.88,1.968 C412.568,1.968 412.064,2.76 411.824,3.12 L405.008,3.12 L405.008,0.96 L405.447111,0.650666667 C405.632,0.512 405.632,0.48 405.632,0.384 C405.632,0.192 405.536,0.144 405.248,0.12 L403.04,5.68434189e-14 L403.04,3.12 L395.84,3.12 C395.792,2.52 395.672,2.16 395.576,1.8 L395.384,1.8 C395.48,3.192 394.736,4.32 394.064,4.896 L393.632222,5.26911111 C393.026667,5.80133333 392.96,5.928 392.96,6.288 C392.96,6.696 393.32,7.104 393.848,7.104 C394.832,7.104 395.768,5.88 395.864,3.696 L405.008,3.696 L405.008,7.224 C405.008,9.36581818 406.426997,9.49562534 408.310009,9.50349245 L410.528,9.504 L411.04609,9.49982799 C413.196776,9.46310204 414.128,9.17657143 414.128,8.352 C414.128,8.112 414.056,7.992 413.864,7.824 C413.576,7.512 413.48,7.32 413.48,6.528 C413.48,6.264 413.648,4.944 413.648,4.632 L413.456,4.632 L413.381831,4.95008746 C413.207184,5.65959184 412.866286,6.76457143 412.208,7.464 C411.728,7.992 411.392,7.992 410.36,7.992 L408.656,7.992 L408.291458,7.98623611 C407.102771,7.94496528 406.809865,7.67247569 406.785693,6.86328299 L406.784,3.696 L412.064,3.696 C411.488,4.896 410.624,6.12 410.36,6.504 L410.504,6.624 C411.752,6 413.12,4.92 413.648,4.44 L414.082913,4.34837318 C414.591959,4.23465306 414.992,4.104 414.992,3.84 Z M402.704,4.968 C402.704,4.824 402.545306,4.71526531 402.424397,4.65690962 L400.256,3.72 C399.344,7.32 397.064,9.744 393.176,11.16 L393.176,11.352 C398,10.56 400.4,7.944 401.312,6.312 L401.650799,5.68478134 C401.745959,5.51265306 401.785143,5.448 401.84,5.352 L402.326157,5.25068222 C402.630531,5.17861224 402.704,5.12228571 402.704,4.968 Z M414.752,19.92 C414.752,19.7066667 414.695111,19.5691852 414.446486,19.3558519 L414.261248,19.202136 C414.050432,19.017624 413.919488,18.816216 413.892992,17.848344 L413.888,17.448 C413.888,16.92 413.936,14.592 413.936,14.112 L413.648,14.112 L413.560682,14.7127917 C412.888292,19.1431667 412.136,19.584 410.48,19.584 L410.233284,19.58107 C409.601185,19.5623704 409.184,19.432 409.184,18.6 C409.184,17.712 409.376,15.552 409.52,14.112 L409.75232,13.950912 C410.05952,13.7328 410.336,13.5024 410.336,13.272 C410.336,13.032 409.976,12.696 409.4,12.144 L409.102764,11.8816356 C408.803551,11.6308163 408.716,11.616 408.584,11.616 C408.3464,11.616 408.26432,11.69376 408.005336,11.989248 L407.542947,12.5269465 C407.481185,12.6014815 407.437333,12.656 407.384,12.72 L403.712,12.72 C403.88,11.568 403.904,10.344 403.928,9.816 L404.279,9.647088 C404.53184,9.51672 404.72,9.384 404.72,9.216 C404.72,8.928 404.384,8.856 404.168,8.832 L402.008,8.616 L402.041,9.3 C402.0464,9.4512 402.05072,9.61968 402.053312,9.820992 L402.05504,10.54272 C402.0512,11.02272 402.032,11.9328 401.936,12.72 L395.576,12.72 L395.984,13.296 L401.864,13.296 C400.784,19.008 395.72,20.952 393.08,21.816 L393.176,22.056 C396.224,21.504 399.152,20.28 401.312,18.072 C402.992,16.344 403.424,14.376 403.616,13.296 L407.744,13.296 L407.424596,17.3340693 C407.366585,18.150585 407.36,18.408 407.36,18.672 C407.36,20.976 408.776,21.192 410.576,21.192 L411.281558,21.186447 C413.266568,21.1516766 414.752,20.9313103 414.752,19.92 Z M439.04,3.84 C439.04,3.696 438.968,3.528 438.848,3.432 L437,1.896 C436.928,1.824 436.712,1.704 436.568,1.704 C436.376,1.704 436.208,1.944 436.184,1.968 L435.656,2.76 L429.08,2.76 L429.08,1.104 L429.44675,0.87 C429.7505,0.6675 429.872,0.546 429.872,0.384 C429.872,0.192 429.701333,0.170666667 429.427424,0.151440329 L427.208,5.68434189e-14 L427.208,2.76 L419.768,2.76 C419.744,2.376 419.672,1.776 419.504,1.44 L419.216,1.44 L419.173037,1.86696296 C419.055259,2.86696296 418.837481,3.4002963 418.019704,4.34196296 L417.396724,5.04441115 C417.016138,5.48113495 416.96,5.59341176 416.96,5.832 C416.96,6.384 417.344,6.72 417.776,6.72 C418.904,6.72 419.84,5.208 419.792,3.336 L435.896,3.336 L435.696691,3.79321811 C435.438815,4.36888889 435.098667,5.072 434.744,5.688 L434.984,5.928 L435.866083,5.33543056 C436.361333,4.997 436.926,4.598 437.36,4.248 L438.071637,4.24419303 C438.815623,4.2299169 439.04,4.16210526 439.04,3.84 Z M436.688,12.144 C436.688,10.632 433.784,8.736 431.6,7.992 L431.48,8.232 C432.704,9.024 433.112,9.552 433.592,10.128 L432.882959,10.1801029 C430.357989,10.3479924 427.440696,10.368 426.104,10.368 L426.502429,9.89338214 C427.947238,8.1517824 428.46656,7.28448 428.864,6.6 L434.432,6.6 C434.6,6.6 434.912,6.6 434.912,6.312 C434.912,6.192 434.812,6.05533333 434.737,5.98533333 L433.448,4.92 C433.328,4.824 433.16,4.752 433.016,4.752 C432.848,4.752 432.68,4.92 432.656,4.992 L432.032,6.024 L420.896,6.024 L421.28,6.6 L426.56,6.6 C426.248,7.824 425.48,9.576 425.096,10.368 L421.137403,10.3892318 C420.227614,10.3870634 419.659636,10.3694545 418.856,10.32 L419.792,12.792 C419.84,12.912 419.984,13.272 420.2,13.272 C420.464,13.272 420.56,12.96 420.704,12.336 L426.032,11.736 L426.032,11.736 C428.48,11.448 431.336,11.016 434,10.632 C434.312,11.04 434.72,11.76 434.816,11.952 L434.996945,12.2727464 C435.333224,12.8571429 435.536,13.104 435.968,13.104 C436.4,13.104 436.688,12.624 436.688,12.144 Z M437.984,20.568 C437.984,20.88 437.6,20.88 437.48,20.88 L418.16,20.88 L417.752,20.304 L427.16,20.304 L427.16,16.368 L419.768,16.368 L419.36,15.792 L427.16,15.792 L427.16,11.976 L429.44,12.216 C429.608,12.24 429.8,12.312 429.8,12.48 C429.8,12.696 429.56,12.84 429.08,13.056 L429.08,15.792 L433.352,15.792 L434.216,14.544 L434.269333,14.4835556 C434.322667,14.4266667 434.408,14.352 434.504,14.352 C434.624,14.352 434.768,14.448 434.84,14.496 L436.232,15.744 C436.328,15.816 436.376,15.96 436.376,16.08 C436.376,16.368 436.088,16.368 435.92,16.368 L429.08,16.368 L429.08,20.304 L434.96,20.304 L435.704,19.128 C435.776,18.984 435.92,18.888 436.088,18.888 C436.2224,18.888 436.34144,18.94944 436.432832,19.023168 L437.792,20.208 C437.888,20.304 437.984,20.472 437.984,20.568 Z" id="コミュニケーションデザイン研究室" fill="#3F3E46" fill-rule="nonzero"></path>
                    </g>
                </g>
            </g>
        </g>
    </g>
</svg>