<svg id="レイヤー_1" data-name="レイヤー 1" xmlns="http://www.w3.org/2000/svg" viewBox="0 0 42 42"><defs><style>.cls-1{fill:#d36c6c;}</style></defs><title>アートボード 3 のコピー</title><path class="cls-1" d="M21,3.78c5.61,0,6.27,0,8.49.13a11.54,11.54,0,0,1,3.9.72A6.58,6.58,0,0,1,35.8,6.2a6.58,6.58,0,0,1,1.57,2.41,11.54,11.54,0,0,1,.72,3.9c.1,2.22.13,2.88.13,8.49s0,6.27-.13,8.49a11.54,11.54,0,0,1-.72,3.9,7,7,0,0,1-4,4,11.54,11.54,0,0,1-3.9.72c-2.22.1-2.88.13-8.49.13s-6.27,0-8.49-.13a11.54,11.54,0,0,1-3.9-.72A6.58,6.58,0,0,1,6.2,35.8a6.58,6.58,0,0,1-1.57-2.41,11.54,11.54,0,0,1-.72-3.9c-.1-2.22-.13-2.88-.13-8.49s0-6.27.13-8.49a11.54,11.54,0,0,1,.72-3.9A6.58,6.58,0,0,1,6.2,6.2,6.58,6.58,0,0,1,8.61,4.63a11.54,11.54,0,0,1,3.9-.72c2.22-.1,2.88-.13,8.49-.13M21,0c-5.7,0-6.42,0-8.66.13a15.42,15.42,0,0,0-5.1,1A10.71,10.71,0,0,0,1.1,7.24a15.42,15.42,0,0,0-1,5.1C0,14.58,0,15.3,0,21s0,6.42.13,8.66a15.42,15.42,0,0,0,1,5.1A10.71,10.71,0,0,0,7.24,40.9a15.42,15.42,0,0,0,5.1,1c2.24.11,3,.13,8.66.13s6.42,0,8.66-.13a15.42,15.42,0,0,0,5.1-1,10.71,10.71,0,0,0,6.14-6.14,15.42,15.42,0,0,0,1-5.1C42,27.42,42,26.7,42,21s0-6.42-.13-8.66a15.42,15.42,0,0,0-1-5.1A10.71,10.71,0,0,0,34.76,1.1a15.42,15.42,0,0,0-5.1-1C27.42,0,26.7,0,21,0Z"/><path class="cls-1" d="M21,10.22A10.78,10.78,0,1,0,31.78,21,10.77,10.77,0,0,0,21,10.22ZM21,28a7,7,0,1,1,7-7A7,7,0,0,1,21,28Z"/><circle class="cls-1" cx="32.21" cy="9.79" r="2.52"/></svg>