<?xml version="1.0" encoding="UTF-8"?>
<svg width="344px" height="46px" viewBox="0 0 344 46" version="1.1" xmlns="http://www.w3.org/2000/svg" xmlns:xlink="http://www.w3.org/1999/xlink">
    <!-- Generator: Sketch 59.1 (86144) - https://sketch.com -->
    <title>Group</title>
    <desc>Created with Sketch.</desc>
    <g id="Page-1" stroke="none" stroke-width="1" fill="none" fill-rule="evenodd">
        <g id="pc" transform="translate(-210.000000, -1259.000000)">
            <g id="意匠展とは" transform="translate(210.000000, 1259.000000)">
                <g id="Group" transform="translate(0.776000, 0.392000)">
                    <path d="M37.584,18.576 L37.5817778,18.4993333 C37.5717778,18.3763333 37.5167778,18.2128333 37.2142778,17.9480833 L34.752,15.888 C34.32,15.504 34.128,15.456 33.936,15.456 C33.408,15.456 32.928,15.984 32.832,16.128 L31.44,17.856 L12.912,17.856 L8.352,15.888 L8.3530535,29.62693 C8.36148148,30.3685926 8.43733333,30.672 9.12,30.672 L9.31694559,30.6526078 C9.95871605,30.5713909 11.9395556,30.1973333 12.144,28.848 L32.256,28.848 C32.256,28.944 32.208,29.28 32.208,29.376 C32.208,29.712 32.304,30.24 33.312,30.24 C33.888,30.24 34.944,30 35.616,29.232 C35.904,28.896 35.904,28.608 35.904,28.032 L35.904,19.92 L36.5662121,19.5344269 C37.584,18.9259172 37.584,18.8196923 37.584,18.576 Z M32.256,22.752 L12.144,22.752 L12.144,19.008 L32.256,19.008 L32.256,22.752 Z M32.256,27.696 L12.144,27.696 L12.144,23.904 L32.256,23.904 L32.256,27.696 Z M8.88,31.584 L8.352,31.584 C7.23972414,34.9671724 6.21694174,36.828956 4.20355931,38.119833 L3.32756941,38.6706227 C1.79474556,39.6495621 1.344,40.0578462 1.344,40.992 C1.344,41.76 1.872,42.48 2.928,42.48 L3.01055452,42.4755055 C4.0590397,42.3735753 9.25286957,40.4862609 8.88,31.584 Z M44.208,13.344 C44.208,12.912 43.776,12.528 43.632,12.384 L40.896,10.128 C40.416,9.744 40.176,9.6 39.792,9.6 C39.072,9.6 38.736,10.032 38.496,10.368 L36.528,12.912 L27.072,12.912 C28.368,11.952 30.144,10.176 31.056,9.264 L31.4779518,9.24811704 C32.8558639,9.180431 33.216,8.98226087 33.216,8.544 C33.216,8.112 32.928,8.016 32.4,7.68 L31.056,6.864 L37.8004687,6.862875 C38.40225,6.855 38.88,6.792 38.88,6.288 C38.88,6 38.688,5.808 38.352,5.52 L36.144,3.36 L35.913,3.1635 C35.697,2.988 35.508,2.88 35.184,2.88 C34.8,2.88 34.464,3.072 34.224,3.456 L32.448,5.712 L24.24,5.712 L24.24,2.496 L24.8604298,2.11625545 C25.6316033,1.63557025 25.728,1.51418182 25.728,1.2 C25.728,0.72 25.296,0.672 24.24,0.576 L20.304,0.144 L20.304,5.712 L4.8,5.712 L5.52,6.864 L10.896,6.864 L10.704,7.104 L11.0287172,7.30478134 C12.3751837,8.15755102 12.9737143,8.83885714 14.4,11.424 L14.6897778,11.9057778 C14.9173333,12.272 15.216,12.688 15.6,12.912 L-9.9475983e-14,12.912 L0.768,14.064 L42.72,14.064 C43.44,14.064 44.208,14.016 44.208,13.344 Z M12.48,6.864 L28.32,6.864 L28.1780412,7.22785185 C27.7202963,8.35140741 26.6346667,10.6506667 25.056,12.912 L17.328,12.912 L17.5082624,12.7654286 C17.7516735,12.5539592 18.048,12.2091429 18.048,11.568 C18.048,9.12 14.304,7.392 12.48,6.864 Z M43.488,39.936 C43.488,36.144 38.352,33.216 35.952,31.968 L35.616,32.352 C38.064,34.752 39.12,36.96 39.6,38.544 L39.9208851,39.5214721 C40.5791301,41.5018189 40.8650323,42.048 41.952,42.048 C43.44,42.048 43.488,40.368 43.488,39.936 Z M29.04,36.096 C29.04,34.848 27.984,33.456 26.832,32.64 C25.056,31.344 23.376,30.768 20.448,29.904 L20.112,30.336 L20.589648,30.629328 C22.02864,31.52832 23.5104,32.6256 24.72,34.656 L25.507584,35.952384 C26.4,37.39008 26.7456,37.728 27.552,37.728 C28.224,37.728 29.04,37.152 29.04,36.096 Z M35.136,40.464 C35.136,40.224 34.992,40.032 34.752,39.744 L34.3169768,39.3260452 C33.6955451,38.7201493 33.5669549,38.5252171 33.5533086,38.1035463 L33.552,38.016 C33.552,37.68 34.176,32.256 34.272,31.68 L33.888,31.632 L33.2492812,33.8224687 C31.88625,38.39325 31.272,39.312 28.416,39.312 L19.968,39.312 C17.7677419,39.312 17.6257898,38.1358252 17.6166316,37.3160259 L17.616,32.88 L17.76675,32.8108125 C18.20775,32.61525 19.2,32.19 19.2,31.728 C19.2,31.152 18.384,31.056 17.616,30.96 L13.872,30.432 L13.872,37.776 C13.872,42.3495849 16.6060691,42.6084671 18.9709743,42.6231208 L28.7203727,42.6223772 C31.4467438,42.6061488 35.136,42.4276364 35.136,40.464 Z M88.56,19.68 C88.56,19.3813333 88.3324444,19.0447407 88.1133169,18.8387819 L85.68,16.752 C84.96,16.128 84.672,16.08 84.432,16.08 C84,16.08 83.616,16.368 83.376,16.752 L81.888,19.2 L65.76,19.2 L65.76,11.424 L66.9466826,11.4324887 C73.9564321,11.4440776 78.9776842,10.7595789 81.888,10.032 L83.0859009,10.339312 C83.3730612,10.411102 83.6022857,10.464 83.664,10.464 C83.856,10.464 84.144,10.272 84.144,9.936 C84.144,9.648 83.904,9.408 83.808,9.36 L80.16,6.432 L79.9367272,6.56828855 C78.6664304,7.31705653 73.3544727,10.1114182 66.144,10.512 L62.304,8.88 L62.304,21.168 C62.304,26.112 61.968,32.256 57.12,38.496 L57.456,38.736 C60.72,36.384 65.76,30 65.76,21.312 L65.76,20.352 L73.44,20.352 L73.44,38.448 C73.44,39.456 74.016,39.552 74.544,39.552 C75.312,39.552 76.464,39.312 76.944,38.736 C77.088,38.544 77.136,38.208 77.136,37.92 L77.136,20.352 L87.7764409,20.3504071 C88.1634133,20.3400533 88.56,20.2624 88.56,19.68 Z M92.064,42.144 C92.064,41.712 91.68,41.328 91.536,41.232 L88.608,38.592 C88.128,38.16 87.84,38.064 87.6,38.064 C87.264,38.064 86.88,38.208 86.544,38.736 L84.72,41.712 L54.768,41.712 L54.768,4.704 L89.76,4.704 C90.24,4.704 90.672,4.608 90.672,4.08 C90.672,3.792 90.432,3.504 90.24,3.312 L87.36,0.816 C87.168,0.624 86.832,0.384 86.448,0.384 C86.112,0.384 85.728,0.576 85.488,1.008 L84,3.552 L55.344,3.552 L50.976,1.392 L50.976,43.968 C50.976,44.448 51.024,45.168 52.08,45.168 C52.656,45.168 53.904,44.832 54.384,44.352 C54.768,43.968 54.768,43.824 54.768,42.864 L91.2233437,42.8625937 C91.623,42.85275 92.064,42.774 92.064,42.144 Z M140.304,40.416 L140.304,39.984 C135.984,39.12 131.424,37.2 127.632,34.176 C130.656,33.072 134.832,30.528 135.168,30.384 C135.888,30.432 137.28,30.624 137.328,30.624 C137.568,30.624 137.952,30.528 137.952,30.192 C137.952,29.8933333 137.686519,29.6705185 137.425251,29.5235556 L133.248,27.312 C132.096,28.992 129.12,32.16 127.056,33.648 C124.608,31.824 122.784,28.656 121.68,25.776 L139.248,25.776 C139.872,25.776 140.304,25.728 140.304,25.2 C140.304,24.864 140.16,24.768 139.536,24.144 L139.099428,23.7404893 C138.345633,23.0549481 137.296941,22.176 136.704,22.176 L136.605474,22.1794609 C136.144433,22.2151592 135.866323,22.5584516 134.16,24.624 L128.256,24.624 L128.256,17.664 L137.136,17.664 L137.23921,17.6590187 C137.450698,17.6378698 137.76,17.5347692 137.76,17.088 C137.76,16.416 135.168,14.208 134.448,14.208 C133.872,14.208 132.768,15.888 132.336,16.512 L128.256,16.512 L128.256,12.576 L128.764842,12.346608 C129.59196,11.96472 129.696,11.8464 129.696,11.52 C129.696,11.256 129.494333,11.0726667 129.017056,11.0069722 L124.848,10.56 L124.848,16.512 L116.832,16.512 L116.832,12.624 L117.923465,12.1714306 C118.559667,11.8954167 118.656,11.792 118.656,11.52 C118.656,11.136 118.176,11.04 117.6,10.992 L113.328,10.512 L113.328,16.512 L105.36,16.512 L106.224,17.664 L113.328,17.664 L113.328,24.624 L103.872,24.624 L104.544,25.776 L110.496,25.776 L110.496,38.832 L108.873376,38.9590671 C105.832163,39.1807347 103.974857,39.216 102.576,39.216 L104.88,43.776 L105.022881,44.0096132 C105.174519,44.2548148 105.290667,44.4 105.552,44.4 C106.128,44.4 106.176,43.968 106.224,42.624 L114.456487,40.8482524 C114.878281,40.7563636 115.317818,40.6603636 115.776,40.56 L119.466045,39.714391 C122.289374,39.061097 125.290105,38.3368421 127.392,37.68 C129.504,39.696 131.664,41.184 135.696,43.152 L135.876565,42.8608853 C136.714027,41.5330133 137.5264,40.64 140.304,40.416 Z M124.848,24.624 L116.832,24.624 L116.832,17.664 L124.848,17.664 L124.848,24.624 Z M126.576,36.864 L125.393689,37.0511793 C119.679167,37.9378397 114.988596,38.4091915 114,38.544 L114,25.776 L120.912,25.776 C121.68,29.952 123.6,33.84 126.576,36.864 Z M137.76,2.736 L137.75725,2.64525 C137.734333,2.329 137.54,2.164 136.176,1.152 L135.630507,0.755685131 C135.11902,0.391836735 134.516571,-5.68434189e-14 134.208,-5.68434189e-14 L134.133291,0.00369777778 C133.792213,0.0405333333 133.5264,0.384 132.048,2.4 L104.304,2.4 L100.128,0.48 L100.126061,13.5544164 C100.101342,23.8664886 99.7614545,34.5154909 95.088,41.904 L95.52,42.24 C101.126222,35.5502222 102.755918,28.5367737 103.177414,24.7848648 L103.2,24.576 C103.632,20.64 103.872,13.44 103.872,9.792 L132.336,9.792 L132.336,11.232 C132.336,11.8644706 132.506076,12.0292318 133.246407,12.046427 L133.392,12.048 C133.776,12.048 134.64,12 135.456,11.616 C136.128,11.28 136.128,10.8 136.128,10.272 L136.128,4.368 L137.149893,3.56681481 C137.182815,3.54133333 137.210667,3.52 137.232,3.504 C137.568,3.216 137.76,3.024 137.76,2.736 Z M132.336,8.64 L103.872,8.64 L103.872,3.552 L132.336,3.552 L132.336,8.64 Z M181.008,38.352 C181.008,37.536 179.136,36.096 177.12,36.096 C176.64,36.096 175.824,36.24 175.344,36.384 C172.059,37.464 168.60525,37.953375 165.101402,38.0103281 L164.132496,38.013408 C162.93888,37.9944 158.4288,37.8432 156.096,36.72 C154.464,35.904 153.936,34.56 153.936,32.976 C153.936,29.76 156.144,27.312 158.832,25.68 C163.258868,23.042717 174.154543,19.4813186 177.465498,19.0305274 L177.927139,18.9713056 C178.959,18.8316667 180.048,18.608 180.048,17.376 C180.048,15.36 177.552,13.68 175.008,13.008 L174.624,13.344 L174.779136,13.57056 C175.06176,14.00064 175.584,14.8608 175.584,15.168 C175.584,15.8674286 175.125551,16.2142041 173.513423,17.0546939 L172.524568,17.562595 C171.859636,17.8843636 169.477091,18.7090909 164.208,20.496 L163.871194,20.2710278 C162.678,19.4463333 161.952,18.504 161.952,13.488 C161.952,10.40064 162.350131,8.8173312 162.849122,7.42158643 L163.165155,6.52758017 C163.232327,6.32326531 163.248,6.23314286 163.248,6.096 C163.248,5.088 160.176,2.496 157.056,2.496 C156.72,2.496 156.528,2.544 156.048,2.688 L156.048,3.12 C159.12,4.656 159.168,6.768 159.264,11.664 L159.28695,12.4251718 C159.500181,18.8266008 160.094222,20.2115556 161.712,21.552 L160.838469,22.0219506 C155.929037,24.6768889 151.776,27.2533333 151.776,32.784 C151.776,36.3247059 153.494284,37.8758201 155.306993,38.62232 L155.88498,38.8524844 C158.038125,39.6856875 161.565,40.656 168.72,40.656 L169.633729,40.6461747 C172.861562,40.5852632 181.008,40.1987368 181.008,38.352 Z M234.528,36.672 C234.528,34.848 233.28,34.032 232.176,33.312 C230.016,31.968 227.616,30.864 225.216,30.384 C224.448,24.864 224.064,20.16 224.064,17.568 C224.064,16.704 224.112,16.08 224.208,15.456 L224.549184,15.363168 C225.8832,14.9856 229.8144,13.776 231.024,13.344 C231.84,13.056 232.608,12.48 232.608,11.712 C232.608,10.56 229.968,10.56 229.824,10.56 L229.603029,10.5626337 C229.05837,10.578963 228.821333,10.688 227.712,11.328 L227.594688,11.40072 C227.15232,11.66208 225.9168,12.2928 224.448,12.768 C224.64,11.184 224.88,9.648 225.408,8.112 L225.476428,7.9620355 C225.640331,7.58712426 225.984,6.73107692 225.984,6.528 C225.984,5.9008 225.273173,4.98090667 224.671061,4.43175822 L224.544,4.32 C224.080552,3.90289655 223.303876,3.39629964 220.745047,3.36185789 L220.464,3.36 C219.792,3.36 219.552,3.408 219.072,3.456 L219.072,3.936 L219.365376,4.054656 C219.7632,4.22208 220.1856,4.4448 220.608,4.944 C221.568,6.048 221.856,7.536 221.856,8.688 L221.851111,9.10688889 C221.833333,9.84133333 221.76,10.848 221.52,13.488 C219.12,14.16 214.272,14.352 213.936,14.352 C212.112,14.352 211.344,14.016 209.712,13.248 L209.34,13.128 C209.22,13.092 209.088,13.056 208.896,13.008 L208.608,13.296 C209.136,14.88 212.448,16.752 214.128,16.752 C216.24,16.752 219.312,16.56 221.376,16.128 L221.379072,16.998912 C221.382912,17.396352 221.391552,17.846592 221.410992,18.385632 L221.468501,19.7477318 C221.600327,22.4287347 221.958857,28.4297143 222,29.952 L220.866614,29.8477852 C220.339598,29.8017515 219.703385,29.76 218.928,29.76 C210.192,29.76 208.848,33.744 208.848,35.28 C208.848,36.96 210.048,38.304 211.248,38.928 C212.688,39.696 215.376,40.08 217.92,40.08 C221.332645,40.08 222.897016,39.3238876 223.831292,38.7154746 L224.016,38.592 C225.12,37.872 225.6,37.056 225.6,34.992 C225.6,34.464 225.552,34.08 225.504,33.648 C227.232,34.272 228.816,35.184 230.256,36.288 L230.678928,36.622608 C231.88032,37.55184 232.5024,37.824 233.28,37.824 C234.144,37.824 234.528,37.488 234.528,36.672 Z M222.096,32.784 L222.129642,33.2977776 C222.225659,35.1882884 221.895051,37.44 216.096,37.44 C214.032,37.44 211.248,37.056 211.248,34.8 C211.248,32.0148293 215.28711,31.835536 216.259547,31.8246714 L216.384,31.824 C218.64,31.824 221.088,32.352 222.096,32.784 Z M203.856,24.48 L204.24,24.72 L203.984411,25.5089282 C203.569598,26.746539 203.239742,27.4776774 202.032,30.336 C201.504,31.584 201.264,33.264 201.264,34.128 C201.264,34.92 201.425333,36.438 201.563139,37.2770556 L201.813566,38.6757385 C201.856264,38.9339504 201.888,39.1592727 201.888,39.264 C201.888,40.032 201.264,40.848 200.352,40.848 C198.336,40.848 196.56,35.808 196.56,29.664 C196.56,27.024 196.752,24.288 197.376,21.744 L199.379112,13.4326457 C199.720382,11.9600108 199.801136,11.4834319 199.819131,11.0976284 L199.823681,10.7845878 C199.820326,10.4638986 199.781748,9.12985498 199.338099,7.52215142 L199.2,7.056 C199.104,6.672 198.432,4.944 198.288,4.608 L198.624,4.272 C199.776,4.56 203.568,6.96 203.568,9.792 L203.564307,10.0630881 C203.548304,10.4497065 203.462953,10.8462316 203.007749,11.6604926 L202.896,11.856 C200.3904,16.264 198.96128,20.6271467 198.868789,26.2461867 L198.865873,27.2835312 C198.876642,28.3684609 198.949333,30.528 199.44,30.528 C200.112,30.528 200.928,29.28 201.216,28.848 L201.693002,28.0748295 C202.402711,26.9060826 203.559273,24.9621818 203.856,24.48 Z" id="意匠展とは" fill="#3F3E46" fill-rule="nonzero"></path>
                    <line x1="254.224" y1="23.358" x2="343.224" y2="22.858" id="Path-2" stroke="#BCB9C5" stroke-width="2"></line>
                </g>
            </g>
        </g>
    </g>
</svg>