<?xml version="1.0" encoding="UTF-8"?>
<svg width="151px" height="24px" viewBox="0 0 151 24" version="1.1" xmlns="http://www.w3.org/2000/svg" xmlns:xlink="http://www.w3.org/1999/xlink">
    <!-- Generator: Sketch 59.1 (86144) - https://sketch.com -->
    <title>Group</title>
    <desc>Created with Sketch.</desc>
    <g id="Page-1" stroke="none" stroke-width="1" fill="none" fill-rule="evenodd">
        <g id="iPhone-8" transform="translate(-32.000000, -609.000000)">
            <g id="意匠展とは" transform="translate(32.000000, 609.000000)">
                <g id="Group" transform="translate(0.888000, 0.696000)">
                    <path d="M18.792,9.288 L18.78825,9.228375 C18.778875,9.1730625 18.7460625,9.10134375 18.6312188,8.99564063 L17.376,7.944 C17.16,7.752 17.064,7.728 16.968,7.728 C16.704,7.728 16.464,7.992 16.416,8.064 L15.72,8.928 L6.456,8.928 L4.176,7.944 L4.17777778,14.8804444 C4.18666667,15.2026667 4.24,15.336 4.56,15.336 L4.62665093,15.3301185 C4.90729412,15.2984637 5.96611765,15.1228235 6.072,14.424 L16.128,14.424 L16.10775,14.63325 C16.1055,14.6565 16.104,14.676 16.104,14.688 L16.1098889,14.7783333 C16.1326667,14.9366667 16.236,15.12 16.656,15.12 C16.944,15.12 17.472,15 17.808,14.616 C17.952,14.448 17.952,14.304 17.952,14.016 L17.952,9.96 L18.3414434,9.73208203 C18.792,9.458625 18.792,9.405 18.792,9.288 Z M16.128,11.376 L6.072,11.376 L6.072,9.504 L16.128,9.504 L16.128,11.376 Z M16.128,13.848 L6.072,13.848 L6.072,11.952 L16.128,11.952 L16.128,13.848 Z M4.44,15.792 L4.176,15.792 C3.632,17.4466667 3.13081481,18.3734815 2.16699177,19.0172428 L1.48696289,19.449627 C0.862125,19.8598125 0.672,20.067 0.672,20.496 C0.672,20.88 0.936,21.24 1.464,21.24 L1.57236615,21.2281832 C2.21944423,21.111482 4.61947826,20.0770435 4.44,15.792 Z M22.104,6.672 C22.104,6.456 21.888,6.264 21.816,6.192 L20.448,5.064 C20.208,4.872 20.088,4.8 19.896,4.8 C19.536,4.8 19.368,5.016 19.248,5.184 L18.264,6.456 L13.536,6.456 C14.184,5.976 15.072,5.088 15.528,4.632 C16.392,4.608 16.608,4.512 16.608,4.272 C16.608,4.056 16.464,4.008 16.2,3.84 L15.528,3.432 L18.9580165,3.43026897 C19.2311405,3.42247934 19.44,3.37963636 19.44,3.144 C19.44,3 19.344,2.904 19.176,2.76 L18.072,1.68 C17.904,1.536 17.808,1.44 17.592,1.44 C17.4,1.44 17.232,1.536 17.112,1.728 L16.224,2.856 L12.12,2.856 L12.12,1.248 L12.4745423,1.03034694 C12.819551,0.812816327 12.864,0.750857143 12.864,0.6 C12.864,0.36 12.648,0.336 12.12,0.288 L10.152,0.072 L10.152,2.856 L2.4,2.856 L2.76,3.432 L5.448,3.432 L5.352,3.552 C6.144,4.032 6.432,4.32 7.2,5.712 L7.32104956,5.9140758 C7.43755102,6.10579592 7.59428571,6.336 7.8,6.456 L7.10542736e-15,6.456 L0.384,7.032 L21.36,7.032 C21.72,7.032 22.104,7.008 22.104,6.672 Z M6.24,3.432 L14.16,3.432 L14.0334688,3.74714105 C13.7789896,4.34466436 13.2592941,5.40847059 12.528,6.456 L8.664,6.456 L8.75782716,6.37948971 C8.87881481,6.27348148 9.024,6.10133333 9.024,5.784 C9.024,4.56 7.152,3.696 6.24,3.432 Z M21.744,19.968 C21.744,18.072 19.176,16.608 17.976,15.984 L17.808,16.176 C18.9555,17.301 19.4912813,18.341625 19.7515254,19.1198965 L19.983897,19.831008 C20.29668,20.7639 20.4456,21.024 20.976,21.024 C21.72,21.024 21.744,20.184 21.744,19.968 Z M14.52,18.048 C14.52,17.424 13.992,16.728 13.416,16.32 C12.528,15.672 11.688,15.384 10.224,14.952 L10.056,15.168 L10.4241602,15.3964861 C11.1024852,15.8314793 11.7913846,16.3735385 12.36,17.328 L12.6809926,17.8580644 C13.1824488,18.6767867 13.3515789,18.864 13.776,18.864 C14.112,18.864 14.52,18.576 14.52,18.048 Z M17.568,20.232 C17.568,20.112 17.496,20.016 17.376,19.872 L17.0785944,19.5841311 C16.8186036,19.3232663 16.776,19.2295385 16.776,19.008 L16.7839922,18.8950671 C16.833034,18.345415 17.0925714,16.1005714 17.136,15.84 L16.944,15.816 L16.5833703,17.0488863 C15.9301224,19.2151837 15.6068571,19.656 14.208,19.656 L9.984,19.656 C8.808,19.656 8.808,18.984 8.808,18.576 L8.808,16.44 L9.10963186,16.301734 C9.33758678,16.190281 9.6,16.032 9.6,15.864 C9.6,15.576 9.192,15.528 8.808,15.48 L6.936,15.216 L6.936,18.888 C6.936,21.312 8.472,21.312 9.696,21.312 L14.4336614,21.3106716 C15.7886633,21.299602 17.568,21.1962857 17.568,20.232 Z M44.28,9.84 C44.28,9.672 44.136,9.48 44.016,9.384 L42.84,8.376 C42.48,8.064 42.336,8.04 42.216,8.04 C42,8.04 41.808,8.184 41.688,8.376 L40.944,9.6 L32.88,9.6 L32.88,5.712 C36.696,5.76 39.408,5.4 40.944,5.016 L41.7240823,5.21303704 C41.7774815,5.22488889 41.816,5.232 41.832,5.232 C41.928,5.232 42.072,5.136 42.072,4.968 C42.072,4.824 41.952,4.704 41.904,4.68 L40.08,3.216 L39.9955677,3.26800081 C39.4126505,3.61635986 36.7312941,5.05270588 33.072,5.256 L31.152,4.44 L31.152,10.584 C31.152,13.056 30.984,16.128 28.56,19.248 L28.728,19.368 C30.36,18.192 32.88,15 32.88,10.656 L32.88,10.176 L36.72,10.176 L36.72,19.224 C36.72,19.728 37.008,19.776 37.272,19.776 C37.656,19.776 38.232,19.656 38.472,19.368 C38.544,19.272 38.568,19.104 38.568,18.96 L38.568,10.176 L43.8,10.176 C44.016,10.176 44.28,10.176 44.28,9.84 Z M46.032,21.072 C46.032,20.856 45.84,20.664 45.768,20.616 L44.304,19.296 C44.064,19.08 43.92,19.032 43.8,19.032 C43.632,19.032 43.44,19.104 43.272,19.368 L42.36,20.856 L27.384,20.856 L27.384,2.352 L44.88,2.352 C45.12,2.352 45.336,2.304 45.336,2.04 C45.336,1.896 45.216,1.752 45.12,1.656 L43.68,0.408 C43.584,0.312 43.416,0.192 43.224,0.192 C43.056,0.192 42.864,0.288 42.744,0.504 L42,1.776 L27.672,1.776 L25.488,0.696 L25.488,21.984 C25.488,22.224 25.512,22.584 26.04,22.584 C26.328,22.584 26.952,22.416 27.192,22.176 C27.384,21.984 27.384,21.912 27.384,21.432 L45.528,21.432 C45.744,21.432 46.032,21.432 46.032,21.072 Z M70.152,20.208 L70.152,19.992 C67.992,19.56 65.712,18.6 63.816,17.088 C65.328,16.536 67.416,15.264 67.584,15.192 L67.90125,15.220875 C68.25,15.258 68.646,15.312 68.664,15.312 C68.784,15.312 68.976,15.264 68.976,15.096 C68.976,14.956 68.8593333,14.8493333 68.7371111,14.776 L66.624,13.656 C66.048,14.496 64.56,16.08 63.528,16.824 C62.304,15.912 61.392,14.328 60.84,12.888 L69.624,12.888 L69.8164609,12.8820741 C70.0213333,12.8654815 70.152,12.8053333 70.152,12.6 C70.152,12.432 70.08,12.384 69.768,12.072 L69.5631111,11.8824444 C69.1853333,11.538 68.652,11.088 68.352,11.088 L68.276856,11.092464 C68.06064,11.12184 67.9008,11.3184 67.08,12.312 L64.128,12.312 L64.128,8.832 L68.568,8.832 L68.6460905,8.82607407 C68.7493333,8.80948148 68.88,8.74933333 68.88,8.544 C68.88,8.208 67.584,7.104 67.224,7.104 C66.936,7.104 66.384,7.944 66.168,8.256 L64.128,8.256 L64.128,6.288 L64.4907856,6.12223942 C64.8053964,5.97017751 64.848,5.90769231 64.848,5.76 C64.848,5.634 64.756125,5.54475 64.5402188,5.50832813 L62.424,5.28 L62.424,8.256 L58.416,8.256 L58.416,6.312 L59.0151111,6.06222222 C59.2853333,5.94133333 59.328,5.888 59.328,5.76 C59.328,5.61066667 59.1828148,5.54844444 58.9827819,5.51687243 L56.664,5.256 L56.664,8.256 L52.68,8.256 L53.112,8.832 L56.664,8.832 L56.664,12.312 L51.936,12.312 L52.272,12.888 L55.248,12.888 L55.248,19.416 L54.2605023,19.4921474 C52.8435986,19.5917232 51.96,19.608 51.288,19.608 L52.44,21.888 L52.5297026,22.0338192 C52.5972245,22.1387755 52.656,22.2 52.776,22.2 C53.064,22.2 53.088,21.984 53.112,21.312 L57.888,20.28 L57.888,20.28 L60.1611725,19.7576149 C61.4419882,19.4580355 62.7507692,19.1353846 63.696,18.84 C64.752,19.848 65.832,20.592 67.848,21.576 L67.9902365,21.3491984 C68.3922881,20.7301496 68.8206316,20.3153684 70.152,20.208 Z M62.424,12.312 L58.416,12.312 L58.416,8.832 L62.424,8.832 L62.424,12.312 Z M63.288,18.432 L62.368032,18.576048 C59.66112,18.98688 57.4752,19.2072 57,19.272 L57,12.888 L60.456,12.888 C60.84,14.976 61.8,16.92 63.288,18.432 Z M68.88,1.368 L68.8764844,1.30148438 C68.857125,1.156125 68.739,1.059 68.088,0.576 L67.7635556,0.341333333 C67.52,0.170666667 67.248,1.42108547e-13 67.104,1.42108547e-13 L67.0456358,0.00496865432 C66.8840776,0.035900277 66.7326316,0.233684211 66.024,1.2 L52.152,1.2 L50.064,0.24 L50.0622689,7.03603501 C50.0443806,12.1108858 49.8416471,17.3195294 47.544,20.952 L47.76,21.12 C50.616,17.712 51.408,14.136 51.6,12.288 C51.816,10.32 51.936,6.72 51.936,4.896 L66.168,4.896 L66.168,5.616 C66.168,5.924 66.2486667,6.01016667 66.5948611,6.02238889 L66.696,6.024 C66.888,6.024 67.32,6 67.728,5.808 C68.064,5.64 68.064,5.4 68.064,5.136 L68.064,2.184 L68.616,1.752 L68.616,1.752 C68.784,1.608 68.88,1.512 68.88,1.368 Z M66.168,4.32 L51.936,4.32 L51.936,1.776 L66.168,1.776 L66.168,4.32 Z M90.504,19.176 C90.504,18.768 89.568,18.048 88.56,18.048 C88.32,18.048 87.912,18.12 87.672,18.192 C86.0792727,18.7156364 84.4072066,18.9615868 82.7098963,19.0019775 L82.1088393,19.0073118 C81.5857988,19.0007574 79.2443077,18.936 78.048,18.36 C77.232,17.952 76.968,17.28 76.968,16.488 C76.968,14.88 78.072,13.656 79.416,12.84 C81.6015,11.538 86.9402813,9.78553125 88.6682739,9.52453638 L89.0340469,9.47582813 C89.527875,9.404625 90.024,9.276 90.024,8.688 C90.024,7.68 88.776,6.84 87.504,6.504 L87.312,6.672 L87.389568,6.78528 C87.53088,7.00032 87.792,7.4304 87.792,7.584 C87.792,7.94666667 87.5454815,8.1197037 86.6647572,8.57507819 L86.304,8.76 C86.04,8.904 84.864,9.312 82.104,10.248 L81.903288,10.112952 C81.32592,9.70536 80.976,9.2064 80.976,6.744 C80.976,5.337 81.141375,4.55475 81.3595781,3.89882813 L81.5853169,3.25540741 C81.6165926,3.15911111 81.624,3.11466667 81.624,3.048 C81.624,2.544 80.088,1.248 78.528,1.248 C78.36,1.248 78.264,1.272 78.024,1.344 L78.024,1.56 C79.3405714,2.21828571 79.5462857,3.08816327 79.6084198,4.86486297 L79.632,5.832 C79.728,9.36 80.016,10.08 80.856,10.776 L80.1452502,11.1599639 C77.8119669,12.4369587 75.888,13.7301818 75.888,16.392 C75.888,18.1366957 76.7224197,18.9152212 77.6141221,19.2946764 L77.9568853,19.4318009 C78.9962773,19.8323129 80.6733013,20.2937369 83.9852293,20.3261849 L84.578824,20.3266767 C85.9808718,20.3113078 90.504,20.1490286 90.504,19.176 Z M117.264,18.336 C117.264,17.424 116.64,17.016 116.088,16.656 C115.008,15.984 113.808,15.432 112.608,15.192 C112.224,12.432 112.032,10.08 112.032,8.784 C112.032,8.352 112.056,8.04 112.104,7.728 L112.418726,7.64020178 C113.188853,7.41659834 114.946105,6.87410526 115.512,6.672 C115.92,6.528 116.304,6.24 116.304,5.856 C116.304,5.28 114.984,5.28 114.912,5.28 L114.752111,5.28344444 C114.512667,5.29733333 114.376,5.364 113.856,5.664 L113.753446,5.72574238 C113.501822,5.86849704 112.914462,6.16061538 112.224,6.384 C112.32,5.592 112.44,4.824 112.704,4.056 L112.76925,3.908625 C112.857,3.7005 112.992,3.354 112.992,3.264 C112.992,2.9616 112.66152,2.52312 112.367976,2.245992 L112.272,2.16 C112.045333,1.956 111.668815,1.70918519 110.455029,1.68239095 L110.232,1.68 C109.896,1.68 109.776,1.704 109.536,1.728 L109.536,1.968 L109.747032,2.05532362 C109.926857,2.1364898 110.115429,2.24914286 110.304,2.472 C110.784,3.024 110.928,3.768 110.928,4.344 L110.921264,4.68753696 C110.907058,5.04817729 110.866105,5.57684211 110.76,6.744 C109.56,7.08 107.136,7.176 106.968,7.176 C106.056,7.176 105.672,7.008 104.856,6.624 L104.705472,6.574848 C104.6352,6.55296 104.5632,6.5328 104.448,6.504 L104.304,6.648 C104.568,7.44 106.224,8.376 107.064,8.376 C108.12,8.376 109.656,8.28 110.688,8.064 L110.689889,8.53378426 C110.691149,8.64909621 110.693248,8.77336443 110.696746,8.90994752 L110.730281,9.79228125 C110.792625,11.088375 110.979,14.199 111,14.976 L110.290206,14.9121317 C110.056593,14.8942222 109.784,14.88 109.464,14.88 C105.096,14.88 104.424,16.872 104.424,17.64 C104.424,18.48 105.024,19.152 105.624,19.464 C106.344,19.848 107.688,20.04 108.96,20.04 C110.784,20.04 111.552,19.608 112.008,19.296 C112.56,18.936 112.8,18.528 112.8,17.496 C112.8,17.232 112.776,17.04 112.752,16.824 C113.616,17.136 114.408,17.592 115.128,18.144 C115.872,18.744 116.208,18.912 116.64,18.912 C117.072,18.912 117.264,18.744 117.264,18.336 Z M111.048,16.392 L111.068038,16.7216045 C111.102609,17.6508868 110.873514,18.72 108.048,18.72 L107.783514,18.7155694 C106.793667,18.6815 105.624,18.434 105.624,17.4 C105.624,16.0444444 107.53758,15.9234568 108.087801,15.9129706 L108.192,15.912 C109.32,15.912 110.544,16.176 111.048,16.392 Z M101.928,12.24 L102.12,12.36 L101.92725,12.943875 C101.745,13.4625 101.556,13.89 101.016,15.168 C100.752,15.792 100.632,16.632 100.632,17.064 C100.632,17.442 100.7055,18.15075 100.772109,18.5792813 L100.904766,19.3257188 C100.927125,19.459875 100.944,19.578 100.944,19.632 C100.944,20.016 100.632,20.424 100.176,20.424 C99.168,20.424 98.28,17.904 98.28,14.832 C98.28,13.512 98.376,12.144 98.688,10.872 L99.6851018,6.73552812 C99.8728253,5.92667105 99.9059805,5.70955129 99.9111324,5.50478233 L99.9113906,5.36221875 C99.9074297,5.15564063 99.8777227,4.49355469 99.6549199,3.71066016 L99.6,3.528 C99.552,3.336 99.216,2.472 99.144,2.304 L99.312,2.136 C99.888,2.28 101.784,3.48 101.784,4.896 L101.78198,5.0356003 C101.773902,5.21952216 101.733512,5.40921412 101.531558,5.78008715 L101.448,5.928 C100.220211,8.088 99.509385,10.2264598 99.4379624,12.9555737 L99.432469,13.5856365 C99.4359862,14.1055225 99.4658824,15.264 99.72,15.264 C100.056,15.264 100.464,14.64 100.608,14.424 L101.928,12.24 L101.928,12.24 Z" id="意匠展とは" fill="#3F3E46" fill-rule="nonzero"></path>
                    <line x1="125.112" y1="10.929" x2="150.112" y2="11.179" id="Path-2" stroke="#BCB9C5"></line>
                </g>
            </g>
        </g>
    </g>
</svg>