<svg xmlns="http://www.w3.org/2000/svg" width="119" height="24" viewBox="0 0 119 24">
  <path fill="#3F3E46" d="M22.248,7.728 C22.608,7.728 22.992,7.704 22.992,7.368 C22.992,7.152 22.776,6.96 22.704,6.888 L21.336,5.76 C21.096,5.568 20.976,5.496 20.784,5.496 C20.424,5.496 20.256,5.712 20.136,5.88 L19.152,7.152 L14.424,7.152 C15.072,6.672 15.96,5.784 16.416,5.328 C17.28,5.304 17.496,5.208 17.496,4.968 C17.496,4.752 17.352,4.704 17.088,4.536 L16.416,4.128 L19.656,4.128 C20.016,4.128 20.328,4.128 20.328,3.84 C20.328,3.696 20.232,3.6 20.064,3.456 L18.96,2.376 C18.792,2.232 18.696,2.136 18.48,2.136 C18.288,2.136 18.12,2.232 18,2.424 L17.112,3.552 L13.008,3.552 L13.008,1.944 C13.68,1.536 13.752,1.488 13.752,1.296 C13.752,1.056 13.536,1.032 13.008,0.984 L11.04,0.768 L11.04,3.552 L3.288,3.552 L3.648,4.128 L6.336,4.128 L6.24,4.248 C7.032,4.728 7.32,5.016 8.088,6.408 C8.208,6.6 8.4,6.984 8.688,7.152 L0.888,7.152 L1.272,7.728 L22.248,7.728 Z M13.416,7.152 L9.552,7.152 C9.672,7.056 9.912,6.888 9.912,6.48 C9.912,5.256 8.04,4.392 7.128,4.128 L15.048,4.128 C14.88,4.584 14.304,5.88 13.416,7.152 Z M5.448,16.032 C5.496,16.032 6.84,15.912 6.96,15.12 L17.016,15.12 C17.016,15.168 16.992,15.336 16.992,15.384 C16.992,15.552 17.04,15.816 17.544,15.816 C17.832,15.816 18.36,15.696 18.696,15.312 C18.84,15.144 18.84,15 18.84,14.712 L18.84,10.656 C19.68,10.176 19.68,10.128 19.68,9.984 C19.68,9.912 19.68,9.816 19.44,9.624 L18.264,8.64 C18.048,8.448 17.952,8.424 17.856,8.424 C17.592,8.424 17.352,8.688 17.304,8.76 L16.608,9.624 L7.344,9.624 L5.064,8.64 L5.064,15.36 C5.064,15.84 5.064,16.032 5.448,16.032 Z M17.016,12.072 L6.96,12.072 L6.96,10.2 L17.016,10.2 L17.016,12.072 Z M17.016,14.544 L6.96,14.544 L6.96,12.648 L17.016,12.648 L17.016,14.544 Z M14.664,19.56 C15,19.56 15.408,19.272 15.408,18.744 C15.408,18.12 14.88,17.424 14.304,17.016 C13.416,16.368 12.576,16.08 11.112,15.648 L10.944,15.864 C11.736,16.344 12.576,16.896 13.248,18.024 C14.016,19.296 14.16,19.56 14.664,19.56 Z M18.456,20.928 C18.456,20.808 18.384,20.712 18.264,20.568 C17.736,20.064 17.664,19.992 17.664,19.704 C17.664,19.536 17.976,16.824 18.024,16.536 L17.832,16.512 C16.896,19.752 16.728,20.352 15.096,20.352 L10.872,20.352 C9.7548,20.352 9.69894,19.74552 9.696147,19.335063 L9.696,17.136 C9.84,17.064 10.488,16.824 10.488,16.56 C10.488,16.272 10.08,16.224 9.696,16.176 L7.824,15.912 L7.824,19.584 C7.824,21.8565 9.174,21.9985313 10.3512949,22.0074082 L15.1612391,22.0076064 C16.5314694,22.0024898 18.456,21.9308571 18.456,20.928 Z M2.352,21.936 C2.76,21.936 5.52,21.072 5.328,16.488 L5.064,16.488 C4.488,18.24 3.96,19.176 2.88,19.824 C1.848,20.472 1.56,20.664 1.56,21.192 C1.56,21.576 1.824,21.936 2.352,21.936 Z M21.864,21.72 C22.608,21.72 22.632,20.88 22.632,20.664 C22.632,18.768 20.064,17.304 18.864,16.68 L18.696,16.872 C19.92,18.072 20.448,19.176 20.688,19.968 C21.144,21.36 21.24,21.72 21.864,21.72 Z M26.928,23.28 C27.216,23.28 27.84,23.112 28.08,22.872 C28.272,22.68 28.272,22.608 28.272,22.128 L46.416,22.128 C46.632,22.128 46.92,22.128 46.92,21.768 C46.92,21.552 46.728,21.36 46.656,21.312 L45.192,19.992 C44.952,19.776 44.808,19.728 44.688,19.728 C44.52,19.728 44.328,19.8 44.16,20.064 L43.248,21.552 L28.272,21.552 L28.272,3.048 L45.768,3.048 C46.008,3.048 46.224,3 46.224,2.736 C46.224,2.592 46.104,2.448 46.008,2.352 L44.568,1.104 C44.472,1.008 44.304,0.888 44.112,0.888 C43.944,0.888 43.752,0.984 43.632,1.2 L42.888,2.472 L28.56,2.472 L26.376,1.392 L26.376,22.68 C26.376,22.92 26.4,23.28 26.928,23.28 Z M38.16,20.472 C38.544,20.472 39.12,20.352 39.36,20.064 C39.432,19.968 39.456,19.8 39.456,19.656 L39.456,10.872 L44.688,10.872 C44.904,10.872 45.168,10.872 45.168,10.536 C45.168,10.368 45.024,10.176 44.904,10.08 L43.728,9.072 C43.368,8.76 43.224,8.736 43.104,8.736 C42.888,8.736 42.696,8.88 42.576,9.072 L41.832,10.296 L33.768,10.296 L33.768,6.408 C37.584,6.456 40.296,6.096 41.832,5.712 C42.12,5.784 42.648,5.928 42.72,5.928 C42.816,5.928 42.96,5.832 42.96,5.664 C42.96,5.52 42.84,5.4 42.792,5.376 L40.968,3.912 C40.632,4.128 37.848,5.736 33.96,5.952 L32.04,5.136 L32.04,11.28 C32.04,13.752 31.872,16.824 29.448,19.944 L29.616,20.064 C31.248,18.888 33.768,15.696 33.768,11.352 L33.768,10.872 L37.608,10.872 L37.608,19.92 C37.608,20.424 37.896,20.472 38.16,20.472 Z M48.648,21.816 C51.504,18.408 52.296,14.832 52.488,12.984 C52.704,11.016 52.824,7.416 52.824,5.592 L67.056,5.592 L67.056,6.312 C67.056,6.648 67.152,6.72 67.584,6.72 C67.776,6.72 68.208,6.696 68.616,6.504 C68.952,6.336 68.952,6.096 68.952,5.832 L68.952,2.88 C69.048,2.808 69.408,2.52 69.504,2.448 C69.672,2.304 69.768,2.208 69.768,2.064 C69.768,1.872 69.72,1.824 68.976,1.272 C68.712,1.08 68.208,0.696 67.992,0.696 C67.8,0.696 67.704,0.816 66.912,1.896 L53.04,1.896 L50.952,0.936 L50.952,6.264 C50.952,11.784 50.952,17.664 48.432,21.648 L48.648,21.816 Z M67.056,5.016 L52.824,5.016 L52.824,2.472 L67.056,2.472 L67.056,5.016 Z M53.664,22.896 C53.952,22.896 53.976,22.68 54,22.008 C54.864,21.816 56.256,21.528 58.776,20.976 C60.552,20.568 63.048,20.016 64.584,19.536 C65.64,20.544 66.72,21.288 68.736,22.272 C69.192,21.528 69.552,21.024 71.04,20.904 L71.04,20.688 C68.88,20.256 66.6,19.296 64.704,17.784 C66.216,17.232 68.304,15.96 68.472,15.888 C68.832,15.912 69.528,16.008 69.552,16.008 C69.672,16.008 69.864,15.96 69.864,15.792 C69.864,15.624 69.696,15.504 69.552,15.432 L67.512,14.352 C66.936,15.192 65.448,16.776 64.416,17.52 C63.192,16.608 62.28,15.024 61.728,13.584 L70.512,13.584 C70.824,13.584 71.04,13.56 71.04,13.296 C71.04,13.128 70.968,13.08 70.656,12.768 C70.296,12.432 69.6,11.784 69.24,11.784 C68.976,11.784 68.88,11.904 67.968,13.008 L65.016,13.008 L65.016,9.528 L69.456,9.528 C69.552,9.528 69.768,9.504 69.768,9.24 C69.768,8.904 68.472,7.8 68.112,7.8 C67.824,7.8 67.272,8.64 67.056,8.952 L65.016,8.952 L65.016,6.984 C65.664,6.696 65.736,6.648 65.736,6.456 C65.736,6.312 65.616,6.216 65.328,6.192 L63.312,5.976 L63.312,8.952 L59.304,8.952 L59.304,7.008 C60.12,6.672 60.216,6.648 60.216,6.456 C60.216,6.264 59.976,6.216 59.688,6.192 L57.552,5.952 L57.552,8.952 L53.568,8.952 L54,9.528 L57.552,9.528 L57.552,13.008 L52.824,13.008 L53.16,13.584 L56.136,13.584 L56.136,20.112 C54.12,20.28 52.992,20.304 52.176,20.304 L53.328,22.584 C53.448,22.776 53.496,22.896 53.664,22.896 Z M63.312,13.008 L59.304,13.008 L59.304,9.528 L63.312,9.528 L63.312,13.008 Z M57.888,19.968 L57.888,13.584 L61.344,13.584 C61.728,15.672 62.688,17.616 64.176,19.128 C61.056,19.632 58.416,19.896 57.888,19.968 Z M91.392,19.872 C91.392,19.464 90.456,18.744 89.448,18.744 C89.208,18.744 88.8,18.816 88.56,18.888 C86.808,19.464 84.96,19.704 83.088,19.704 L82.9968393,19.7033118 C82.4737988,19.6967574 80.1323077,19.632 78.936,19.056 C78.12,18.648 77.856,17.976 77.856,17.184 C77.856,15.576 78.96,14.352 80.304,13.536 C82.56,12.192 88.176,10.368 89.712,10.2 C90.264,10.128 90.912,10.056 90.912,9.384 C90.912,8.376 89.664,7.536 88.392,7.2 L88.2,7.368 C88.272,7.464 88.68,8.088 88.68,8.28 C88.68,8.688 88.368,8.856 87.192,9.456 C86.928,9.6 85.752,10.008 82.992,10.944 C82.296,10.488 81.864,10.176 81.864,7.44 C81.864,5.832 82.08,5.04 82.344,4.32 C82.488,3.912 82.512,3.864 82.512,3.744 C82.512,3.24 80.976,1.944 79.416,1.944 C79.248,1.944 79.152,1.968 78.912,2.04 L78.912,2.256 C80.448,3.024 80.472,4.08 80.52,6.528 C80.616,10.056 80.904,10.776 81.744,11.472 C79.104,12.888 76.776,14.16 76.776,17.088 C76.776,18.912 77.688,19.68 78.624,20.04 C79.68,20.472 81.432,21.024 85.248,21.024 C86.304,21.024 91.392,20.904 91.392,19.872 Z M109.848,20.736 C111.672,20.736 112.44,20.304 112.896,19.992 C113.448,19.632 113.688,19.224 113.688,18.192 C113.688,17.928 113.664,17.736 113.64,17.52 C114.504,17.832 115.296,18.288 116.016,18.84 C116.76,19.44 117.096,19.608 117.528,19.608 C117.96,19.608 118.152,19.44 118.152,19.032 C118.152,18.12 117.528,17.712 116.976,17.352 C115.896,16.68 114.696,16.128 113.496,15.888 C113.112,13.128 112.92,10.776 112.92,9.48 C112.92,9.048 112.944,8.736 112.992,8.424 C113.376,8.328 115.728,7.608 116.4,7.368 C116.808,7.224 117.192,6.936 117.192,6.552 C117.192,5.976 115.872,5.976 115.8,5.976 C115.44,5.976 115.368,6 114.744,6.36 C114.6,6.456 113.928,6.816 113.112,7.08 C113.208,6.288 113.328,5.52 113.592,4.752 C113.64,4.656 113.88,4.08 113.88,3.96 C113.88,3.624 113.472,3.12 113.16,2.856 C112.92,2.64 112.512,2.376 111.12,2.376 C110.784,2.376 110.664,2.4 110.424,2.424 L110.424,2.664 C110.664,2.76 110.928,2.856 111.192,3.168 C111.672,3.72 111.816,4.464 111.816,5.04 C111.816,5.448 111.792,5.856 111.648,7.44 C110.448,7.776 108.024,7.872 107.856,7.872 C106.944,7.872 106.56,7.704 105.744,7.32 C105.6,7.272 105.528,7.248 105.336,7.2 L105.192,7.344 C105.456,8.136 107.112,9.072 107.952,9.072 C109.008,9.072 110.544,8.976 111.576,8.76 L111.57656,9.0631137 C111.577959,9.33110204 111.582857,9.64457143 111.6,10.056 C111.624,10.848 111.864,14.784 111.888,15.672 C111.552,15.648 111.072,15.576 110.352,15.576 C105.984,15.576 105.312,17.568 105.312,18.336 C105.312,19.176 105.912,19.848 106.512,20.16 C107.232,20.544 108.576,20.736 109.848,20.736 Z M101.064,21.12 C101.52,21.12 101.832,20.712 101.832,20.328 C101.832,20.184 101.712,19.584 101.688,19.44 C101.616,19.056 101.52,18.192 101.52,17.76 C101.52,17.328 101.64,16.488 101.904,15.864 C102.624,14.16 102.72,13.968 103.008,13.056 L102.816,12.936 C102.624,13.248 101.712,14.784 101.496,15.12 C101.352,15.336 100.944,15.96 100.608,15.96 C100.32,15.96 100.32,14.472 100.32,14.112 C100.32,11.16 101.04,8.904 102.336,6.624 C102.672,6.048 102.672,5.856 102.672,5.592 C102.672,4.176 100.776,2.976 100.2,2.832 L100.032,3 C100.104,3.168 100.44,4.032 100.488,4.224 C100.8,5.208 100.8,6.048 100.8,6.12 C100.8,6.552 100.752,6.72 99.576,11.568 C99.264,12.84 99.168,14.208 99.168,15.528 C99.168,18.6 100.056,21.12 101.064,21.12 Z M108.936,19.416 C107.904,19.416 106.512,19.224 106.512,18.096 C106.512,16.632 108.744,16.608 109.08,16.608 C110.208,16.608 111.432,16.872 111.936,17.088 C112.008,18.072 112.104,19.416 108.936,19.416 Z"/>
</svg>
